G04 EAGLE Gerber RS-274X export*
G75*
%MOMM*%
%FSLAX34Y34*%
%LPD*%
%INSolderpaste Top*%
%IPPOS*%
%AMOC8*
5,1,8,0,0,1.08239X$1,22.5*%
G01*
%ADD10R,1.000000X0.300000*%
%ADD11R,1.000000X0.600000*%
%ADD12R,1.000000X1.100000*%
%ADD13R,1.375000X0.800000*%
%ADD14R,0.300000X0.650000*%
%ADD15R,1.100000X1.000000*%
%ADD16R,1.700000X4.200000*%
%ADD17R,0.630000X0.830000*%
%ADD18R,1.524000X0.762000*%
%ADD19R,1.000000X2.800000*%
%ADD20R,1.400000X1.600000*%
%ADD21R,2.750000X1.200000*%
%ADD22R,1.750000X0.300000*%
%ADD23R,3.000000X0.900000*%
%ADD24R,1.200000X2.200000*%
%ADD25R,2.000000X1.200000*%
%ADD26R,1.350000X0.600000*%
%ADD27R,2.000000X1.000000*%
%ADD28R,2.200000X1.200000*%
%ADD29R,1.000000X2.000000*%
%ADD30C,0.300000*%
%ADD31R,2.210000X1.520000*%

G36*
X551557Y772659D02*
X551557Y772659D01*
X551602Y772660D01*
X551653Y772682D01*
X551708Y772695D01*
X551744Y772721D01*
X551784Y772739D01*
X551823Y772780D01*
X551868Y772813D01*
X551891Y772851D01*
X551921Y772883D01*
X551941Y772936D01*
X551970Y772984D01*
X551978Y773035D01*
X551991Y773069D01*
X551990Y773103D01*
X551997Y773148D01*
X551997Y784148D01*
X551987Y784201D01*
X551986Y784254D01*
X551967Y784297D01*
X551958Y784343D01*
X551927Y784387D01*
X551906Y784436D01*
X551872Y784468D01*
X551845Y784507D01*
X551800Y784536D01*
X551761Y784572D01*
X551710Y784593D01*
X551678Y784614D01*
X551646Y784619D01*
X551607Y784635D01*
X548872Y785246D01*
X546308Y786274D01*
X543944Y787701D01*
X541840Y789490D01*
X540051Y791594D01*
X538624Y793958D01*
X537596Y796522D01*
X536985Y799257D01*
X536963Y799306D01*
X536951Y799358D01*
X536923Y799396D01*
X536904Y799438D01*
X536865Y799475D01*
X536833Y799518D01*
X536793Y799542D01*
X536759Y799574D01*
X536708Y799592D01*
X536662Y799620D01*
X536608Y799629D01*
X536572Y799642D01*
X536540Y799640D01*
X536498Y799647D01*
X525498Y799647D01*
X525443Y799636D01*
X525387Y799635D01*
X525346Y799616D01*
X525303Y799608D01*
X525257Y799576D01*
X525206Y799553D01*
X525176Y799520D01*
X525139Y799495D01*
X525109Y799448D01*
X525071Y799406D01*
X525056Y799365D01*
X525032Y799328D01*
X525023Y799272D01*
X525004Y799219D01*
X525005Y799167D01*
X524999Y799131D01*
X525007Y799099D01*
X525007Y799094D01*
X525007Y799092D01*
X525007Y799091D01*
X525008Y799053D01*
X525847Y794732D01*
X525859Y794703D01*
X525867Y794661D01*
X527336Y790511D01*
X527352Y790484D01*
X527366Y790444D01*
X529432Y786557D01*
X529452Y786533D01*
X529471Y786495D01*
X532089Y782956D01*
X532113Y782935D01*
X532138Y782900D01*
X535250Y779788D01*
X535265Y779778D01*
X535273Y779767D01*
X535288Y779758D01*
X535306Y779739D01*
X538845Y777121D01*
X538873Y777108D01*
X538907Y777082D01*
X542794Y775016D01*
X542824Y775007D01*
X542861Y774986D01*
X547011Y773517D01*
X547042Y773512D01*
X547082Y773497D01*
X551403Y772658D01*
X551459Y772658D01*
X551515Y772649D01*
X551557Y772659D01*
G37*
G36*
X1445637Y772659D02*
X1445637Y772659D01*
X1445682Y772660D01*
X1445733Y772682D01*
X1445788Y772695D01*
X1445824Y772721D01*
X1445864Y772739D01*
X1445903Y772780D01*
X1445948Y772813D01*
X1445971Y772851D01*
X1446001Y772883D01*
X1446021Y772936D01*
X1446050Y772984D01*
X1446058Y773035D01*
X1446071Y773069D01*
X1446070Y773103D01*
X1446077Y773148D01*
X1446077Y784148D01*
X1446067Y784201D01*
X1446066Y784254D01*
X1446047Y784297D01*
X1446038Y784343D01*
X1446007Y784387D01*
X1445986Y784436D01*
X1445952Y784468D01*
X1445925Y784507D01*
X1445880Y784536D01*
X1445841Y784572D01*
X1445790Y784593D01*
X1445758Y784614D01*
X1445726Y784619D01*
X1445687Y784635D01*
X1442952Y785246D01*
X1440388Y786274D01*
X1438024Y787701D01*
X1435920Y789490D01*
X1434131Y791594D01*
X1432704Y793958D01*
X1431676Y796522D01*
X1431065Y799257D01*
X1431043Y799306D01*
X1431031Y799358D01*
X1431003Y799396D01*
X1430984Y799438D01*
X1430945Y799475D01*
X1430913Y799518D01*
X1430873Y799542D01*
X1430839Y799574D01*
X1430788Y799592D01*
X1430742Y799620D01*
X1430688Y799629D01*
X1430652Y799642D01*
X1430620Y799640D01*
X1430578Y799647D01*
X1419578Y799647D01*
X1419523Y799636D01*
X1419467Y799635D01*
X1419426Y799616D01*
X1419383Y799608D01*
X1419337Y799576D01*
X1419286Y799553D01*
X1419256Y799520D01*
X1419219Y799495D01*
X1419189Y799448D01*
X1419151Y799406D01*
X1419136Y799365D01*
X1419112Y799328D01*
X1419103Y799272D01*
X1419084Y799219D01*
X1419085Y799167D01*
X1419079Y799131D01*
X1419087Y799099D01*
X1419087Y799094D01*
X1419087Y799092D01*
X1419087Y799091D01*
X1419088Y799053D01*
X1419927Y794732D01*
X1419939Y794703D01*
X1419947Y794661D01*
X1421416Y790511D01*
X1421432Y790484D01*
X1421446Y790444D01*
X1423512Y786557D01*
X1423532Y786533D01*
X1423551Y786495D01*
X1426169Y782956D01*
X1426193Y782935D01*
X1426218Y782900D01*
X1429330Y779788D01*
X1429345Y779778D01*
X1429353Y779767D01*
X1429368Y779758D01*
X1429386Y779739D01*
X1432925Y777121D01*
X1432953Y777108D01*
X1432987Y777082D01*
X1436874Y775016D01*
X1436904Y775007D01*
X1436941Y774986D01*
X1441091Y773517D01*
X1441122Y773512D01*
X1441162Y773497D01*
X1445483Y772658D01*
X1445539Y772658D01*
X1445595Y772649D01*
X1445637Y772659D01*
G37*
G36*
X1445637Y208779D02*
X1445637Y208779D01*
X1445682Y208780D01*
X1445733Y208802D01*
X1445788Y208815D01*
X1445824Y208841D01*
X1445864Y208859D01*
X1445903Y208900D01*
X1445948Y208933D01*
X1445971Y208971D01*
X1446001Y209003D01*
X1446021Y209056D01*
X1446050Y209104D01*
X1446058Y209155D01*
X1446071Y209189D01*
X1446070Y209223D01*
X1446077Y209268D01*
X1446077Y220268D01*
X1446067Y220321D01*
X1446066Y220374D01*
X1446047Y220417D01*
X1446038Y220463D01*
X1446007Y220507D01*
X1445986Y220556D01*
X1445952Y220588D01*
X1445925Y220627D01*
X1445880Y220656D01*
X1445841Y220692D01*
X1445790Y220713D01*
X1445758Y220734D01*
X1445726Y220739D01*
X1445687Y220755D01*
X1442952Y221366D01*
X1440388Y222394D01*
X1438024Y223821D01*
X1435920Y225610D01*
X1434131Y227714D01*
X1432704Y230078D01*
X1431676Y232642D01*
X1431065Y235377D01*
X1431043Y235426D01*
X1431031Y235478D01*
X1431003Y235516D01*
X1430984Y235558D01*
X1430945Y235595D01*
X1430913Y235638D01*
X1430873Y235662D01*
X1430839Y235694D01*
X1430788Y235712D01*
X1430742Y235740D01*
X1430688Y235749D01*
X1430652Y235762D01*
X1430620Y235760D01*
X1430578Y235767D01*
X1419578Y235767D01*
X1419523Y235756D01*
X1419467Y235755D01*
X1419426Y235736D01*
X1419383Y235728D01*
X1419337Y235696D01*
X1419286Y235673D01*
X1419256Y235640D01*
X1419219Y235615D01*
X1419189Y235568D01*
X1419151Y235526D01*
X1419136Y235485D01*
X1419112Y235448D01*
X1419103Y235392D01*
X1419084Y235339D01*
X1419085Y235287D01*
X1419079Y235251D01*
X1419087Y235219D01*
X1419087Y235214D01*
X1419087Y235212D01*
X1419087Y235211D01*
X1419088Y235173D01*
X1419927Y230852D01*
X1419939Y230823D01*
X1419947Y230781D01*
X1421416Y226631D01*
X1421432Y226604D01*
X1421446Y226564D01*
X1423512Y222677D01*
X1423532Y222653D01*
X1423551Y222615D01*
X1426169Y219076D01*
X1426193Y219055D01*
X1426218Y219020D01*
X1429330Y215908D01*
X1429345Y215898D01*
X1429353Y215887D01*
X1429368Y215878D01*
X1429386Y215859D01*
X1432925Y213241D01*
X1432953Y213228D01*
X1432987Y213202D01*
X1436874Y211136D01*
X1436904Y211127D01*
X1436941Y211106D01*
X1441091Y209637D01*
X1441122Y209632D01*
X1441162Y209617D01*
X1445483Y208778D01*
X1445539Y208778D01*
X1445595Y208769D01*
X1445637Y208779D01*
G37*
G36*
X551557Y208779D02*
X551557Y208779D01*
X551602Y208780D01*
X551653Y208802D01*
X551708Y208815D01*
X551744Y208841D01*
X551784Y208859D01*
X551823Y208900D01*
X551868Y208933D01*
X551891Y208971D01*
X551921Y209003D01*
X551941Y209056D01*
X551970Y209104D01*
X551978Y209155D01*
X551991Y209189D01*
X551990Y209223D01*
X551997Y209268D01*
X551997Y220268D01*
X551987Y220321D01*
X551986Y220374D01*
X551967Y220417D01*
X551958Y220463D01*
X551927Y220507D01*
X551906Y220556D01*
X551872Y220588D01*
X551845Y220627D01*
X551800Y220656D01*
X551761Y220692D01*
X551710Y220713D01*
X551678Y220734D01*
X551646Y220739D01*
X551607Y220755D01*
X548872Y221366D01*
X546308Y222394D01*
X543944Y223821D01*
X541840Y225610D01*
X540051Y227714D01*
X538624Y230078D01*
X537596Y232642D01*
X536985Y235377D01*
X536963Y235426D01*
X536951Y235478D01*
X536923Y235516D01*
X536904Y235558D01*
X536865Y235595D01*
X536833Y235638D01*
X536793Y235662D01*
X536759Y235694D01*
X536708Y235712D01*
X536662Y235740D01*
X536608Y235749D01*
X536572Y235762D01*
X536540Y235760D01*
X536498Y235767D01*
X525498Y235767D01*
X525443Y235756D01*
X525387Y235755D01*
X525346Y235736D01*
X525303Y235728D01*
X525257Y235696D01*
X525206Y235673D01*
X525176Y235640D01*
X525139Y235615D01*
X525109Y235568D01*
X525071Y235526D01*
X525056Y235485D01*
X525032Y235448D01*
X525023Y235392D01*
X525004Y235339D01*
X525005Y235287D01*
X524999Y235251D01*
X525007Y235219D01*
X525007Y235214D01*
X525007Y235212D01*
X525007Y235211D01*
X525008Y235173D01*
X525847Y230852D01*
X525859Y230823D01*
X525867Y230781D01*
X527336Y226631D01*
X527352Y226604D01*
X527366Y226564D01*
X529432Y222677D01*
X529452Y222653D01*
X529471Y222615D01*
X532089Y219076D01*
X532113Y219055D01*
X532138Y219020D01*
X535250Y215908D01*
X535265Y215898D01*
X535273Y215887D01*
X535288Y215878D01*
X535306Y215859D01*
X538845Y213241D01*
X538873Y213228D01*
X538907Y213202D01*
X542794Y211136D01*
X542824Y211127D01*
X542861Y211106D01*
X547011Y209637D01*
X547042Y209632D01*
X547082Y209617D01*
X551403Y208778D01*
X551459Y208778D01*
X551515Y208769D01*
X551557Y208779D01*
G37*
G36*
X536551Y242779D02*
X536551Y242779D01*
X536604Y242780D01*
X536647Y242799D01*
X536693Y242808D01*
X536737Y242839D01*
X536786Y242860D01*
X536818Y242894D01*
X536857Y242921D01*
X536886Y242966D01*
X536922Y243005D01*
X536943Y243056D01*
X536964Y243088D01*
X536969Y243120D01*
X536985Y243159D01*
X537596Y245894D01*
X538624Y248458D01*
X540051Y250822D01*
X541840Y252926D01*
X543944Y254715D01*
X546308Y256142D01*
X548872Y257170D01*
X551607Y257781D01*
X551656Y257803D01*
X551708Y257815D01*
X551746Y257843D01*
X551788Y257862D01*
X551825Y257901D01*
X551868Y257933D01*
X551892Y257973D01*
X551924Y258007D01*
X551942Y258058D01*
X551970Y258104D01*
X551979Y258158D01*
X551992Y258194D01*
X551990Y258226D01*
X551997Y258268D01*
X551997Y269268D01*
X551986Y269323D01*
X551985Y269379D01*
X551966Y269420D01*
X551958Y269463D01*
X551926Y269509D01*
X551903Y269561D01*
X551870Y269590D01*
X551845Y269627D01*
X551798Y269657D01*
X551756Y269695D01*
X551715Y269710D01*
X551678Y269734D01*
X551622Y269743D01*
X551569Y269762D01*
X551517Y269761D01*
X551481Y269767D01*
X551449Y269759D01*
X551403Y269758D01*
X547082Y268919D01*
X547053Y268907D01*
X547011Y268899D01*
X542861Y267430D01*
X542834Y267414D01*
X542794Y267400D01*
X538907Y265334D01*
X538883Y265314D01*
X538845Y265295D01*
X535306Y262677D01*
X535285Y262653D01*
X535250Y262628D01*
X532138Y259516D01*
X532120Y259490D01*
X532089Y259460D01*
X529471Y255922D01*
X529458Y255893D01*
X529432Y255859D01*
X527366Y251972D01*
X527359Y251949D01*
X527350Y251935D01*
X527349Y251927D01*
X527336Y251905D01*
X525867Y247755D01*
X525862Y247724D01*
X525847Y247684D01*
X525008Y243363D01*
X525008Y243307D01*
X524999Y243251D01*
X525009Y243209D01*
X525010Y243164D01*
X525032Y243113D01*
X525045Y243058D01*
X525071Y243023D01*
X525089Y242982D01*
X525130Y242943D01*
X525163Y242898D01*
X525201Y242875D01*
X525233Y242845D01*
X525286Y242825D01*
X525334Y242796D01*
X525385Y242788D01*
X525419Y242775D01*
X525453Y242776D01*
X525498Y242769D01*
X536498Y242769D01*
X536551Y242779D01*
G37*
G36*
X536551Y806659D02*
X536551Y806659D01*
X536604Y806660D01*
X536647Y806679D01*
X536693Y806688D01*
X536737Y806719D01*
X536786Y806740D01*
X536818Y806774D01*
X536857Y806801D01*
X536886Y806846D01*
X536922Y806885D01*
X536943Y806936D01*
X536964Y806968D01*
X536969Y807000D01*
X536985Y807039D01*
X537596Y809774D01*
X538624Y812338D01*
X540051Y814702D01*
X541840Y816806D01*
X543944Y818595D01*
X546308Y820022D01*
X548872Y821050D01*
X551607Y821661D01*
X551656Y821683D01*
X551708Y821695D01*
X551746Y821723D01*
X551788Y821742D01*
X551825Y821781D01*
X551868Y821813D01*
X551892Y821853D01*
X551924Y821887D01*
X551942Y821938D01*
X551970Y821984D01*
X551979Y822038D01*
X551992Y822074D01*
X551990Y822106D01*
X551997Y822148D01*
X551997Y833148D01*
X551986Y833203D01*
X551985Y833259D01*
X551966Y833300D01*
X551958Y833343D01*
X551926Y833389D01*
X551903Y833441D01*
X551870Y833470D01*
X551845Y833507D01*
X551798Y833537D01*
X551756Y833575D01*
X551715Y833590D01*
X551678Y833614D01*
X551622Y833623D01*
X551569Y833642D01*
X551517Y833641D01*
X551481Y833647D01*
X551449Y833639D01*
X551403Y833638D01*
X547082Y832799D01*
X547053Y832787D01*
X547011Y832779D01*
X542861Y831310D01*
X542834Y831294D01*
X542794Y831280D01*
X538907Y829214D01*
X538883Y829194D01*
X538845Y829175D01*
X535306Y826557D01*
X535285Y826533D01*
X535250Y826508D01*
X532138Y823396D01*
X532120Y823370D01*
X532089Y823340D01*
X529471Y819802D01*
X529458Y819773D01*
X529432Y819739D01*
X527366Y815852D01*
X527359Y815829D01*
X527350Y815815D01*
X527349Y815807D01*
X527336Y815785D01*
X525867Y811635D01*
X525862Y811604D01*
X525847Y811564D01*
X525008Y807243D01*
X525008Y807187D01*
X524999Y807131D01*
X525009Y807089D01*
X525010Y807044D01*
X525032Y806993D01*
X525045Y806938D01*
X525071Y806903D01*
X525089Y806862D01*
X525130Y806823D01*
X525163Y806778D01*
X525201Y806755D01*
X525233Y806725D01*
X525286Y806705D01*
X525334Y806676D01*
X525385Y806668D01*
X525419Y806655D01*
X525453Y806656D01*
X525498Y806649D01*
X536498Y806649D01*
X536551Y806659D01*
G37*
G36*
X1430631Y806659D02*
X1430631Y806659D01*
X1430684Y806660D01*
X1430727Y806679D01*
X1430773Y806688D01*
X1430817Y806719D01*
X1430866Y806740D01*
X1430898Y806774D01*
X1430937Y806801D01*
X1430966Y806846D01*
X1431002Y806885D01*
X1431023Y806936D01*
X1431044Y806968D01*
X1431049Y807000D01*
X1431065Y807039D01*
X1431676Y809774D01*
X1432704Y812338D01*
X1434131Y814702D01*
X1435920Y816806D01*
X1438024Y818595D01*
X1440388Y820022D01*
X1442952Y821050D01*
X1445687Y821661D01*
X1445736Y821683D01*
X1445788Y821695D01*
X1445826Y821723D01*
X1445868Y821742D01*
X1445905Y821781D01*
X1445948Y821813D01*
X1445972Y821853D01*
X1446004Y821887D01*
X1446022Y821938D01*
X1446050Y821984D01*
X1446059Y822038D01*
X1446072Y822074D01*
X1446070Y822106D01*
X1446077Y822148D01*
X1446077Y833148D01*
X1446066Y833203D01*
X1446065Y833259D01*
X1446046Y833300D01*
X1446038Y833343D01*
X1446006Y833389D01*
X1445983Y833441D01*
X1445950Y833470D01*
X1445925Y833507D01*
X1445878Y833537D01*
X1445836Y833575D01*
X1445795Y833590D01*
X1445758Y833614D01*
X1445702Y833623D01*
X1445649Y833642D01*
X1445597Y833641D01*
X1445561Y833647D01*
X1445529Y833639D01*
X1445483Y833638D01*
X1441162Y832799D01*
X1441133Y832787D01*
X1441091Y832779D01*
X1436941Y831310D01*
X1436914Y831294D01*
X1436874Y831280D01*
X1432987Y829214D01*
X1432963Y829194D01*
X1432925Y829175D01*
X1429386Y826557D01*
X1429365Y826533D01*
X1429330Y826508D01*
X1426218Y823396D01*
X1426200Y823370D01*
X1426169Y823340D01*
X1423551Y819802D01*
X1423538Y819773D01*
X1423512Y819739D01*
X1421446Y815852D01*
X1421439Y815829D01*
X1421430Y815815D01*
X1421429Y815807D01*
X1421416Y815785D01*
X1419947Y811635D01*
X1419942Y811604D01*
X1419927Y811564D01*
X1419088Y807243D01*
X1419088Y807187D01*
X1419079Y807131D01*
X1419089Y807089D01*
X1419090Y807044D01*
X1419112Y806993D01*
X1419125Y806938D01*
X1419151Y806903D01*
X1419169Y806862D01*
X1419210Y806823D01*
X1419243Y806778D01*
X1419281Y806755D01*
X1419313Y806725D01*
X1419366Y806705D01*
X1419414Y806676D01*
X1419465Y806668D01*
X1419499Y806655D01*
X1419533Y806656D01*
X1419578Y806649D01*
X1430578Y806649D01*
X1430631Y806659D01*
G37*
G36*
X1430631Y242779D02*
X1430631Y242779D01*
X1430684Y242780D01*
X1430727Y242799D01*
X1430773Y242808D01*
X1430817Y242839D01*
X1430866Y242860D01*
X1430898Y242894D01*
X1430937Y242921D01*
X1430966Y242966D01*
X1431002Y243005D01*
X1431023Y243056D01*
X1431044Y243088D01*
X1431049Y243120D01*
X1431065Y243159D01*
X1431676Y245894D01*
X1432704Y248458D01*
X1434131Y250822D01*
X1435920Y252926D01*
X1438024Y254715D01*
X1440388Y256142D01*
X1442952Y257170D01*
X1445687Y257781D01*
X1445736Y257803D01*
X1445788Y257815D01*
X1445826Y257843D01*
X1445868Y257862D01*
X1445905Y257901D01*
X1445948Y257933D01*
X1445972Y257973D01*
X1446004Y258007D01*
X1446022Y258058D01*
X1446050Y258104D01*
X1446059Y258158D01*
X1446072Y258194D01*
X1446070Y258226D01*
X1446077Y258268D01*
X1446077Y269268D01*
X1446066Y269323D01*
X1446065Y269379D01*
X1446046Y269420D01*
X1446038Y269463D01*
X1446006Y269509D01*
X1445983Y269561D01*
X1445950Y269590D01*
X1445925Y269627D01*
X1445878Y269657D01*
X1445836Y269695D01*
X1445795Y269710D01*
X1445758Y269734D01*
X1445702Y269743D01*
X1445649Y269762D01*
X1445597Y269761D01*
X1445561Y269767D01*
X1445529Y269759D01*
X1445483Y269758D01*
X1441162Y268919D01*
X1441133Y268907D01*
X1441091Y268899D01*
X1436941Y267430D01*
X1436914Y267414D01*
X1436874Y267400D01*
X1432987Y265334D01*
X1432963Y265314D01*
X1432925Y265295D01*
X1429386Y262677D01*
X1429365Y262653D01*
X1429330Y262628D01*
X1426218Y259516D01*
X1426200Y259490D01*
X1426169Y259460D01*
X1423551Y255922D01*
X1423538Y255893D01*
X1423512Y255859D01*
X1421446Y251972D01*
X1421439Y251949D01*
X1421430Y251935D01*
X1421429Y251927D01*
X1421416Y251905D01*
X1419947Y247755D01*
X1419942Y247724D01*
X1419927Y247684D01*
X1419088Y243363D01*
X1419088Y243307D01*
X1419079Y243251D01*
X1419089Y243209D01*
X1419090Y243164D01*
X1419112Y243113D01*
X1419125Y243058D01*
X1419151Y243023D01*
X1419169Y242982D01*
X1419210Y242943D01*
X1419243Y242898D01*
X1419281Y242875D01*
X1419313Y242845D01*
X1419366Y242825D01*
X1419414Y242796D01*
X1419465Y242788D01*
X1419499Y242775D01*
X1419533Y242776D01*
X1419578Y242769D01*
X1430578Y242769D01*
X1430631Y242779D01*
G37*
G36*
X1479633Y242780D02*
X1479633Y242780D01*
X1479689Y242781D01*
X1479730Y242800D01*
X1479773Y242808D01*
X1479819Y242840D01*
X1479871Y242863D01*
X1479900Y242896D01*
X1479937Y242921D01*
X1479967Y242968D01*
X1480005Y243010D01*
X1480020Y243051D01*
X1480044Y243088D01*
X1480053Y243144D01*
X1480072Y243197D01*
X1480071Y243249D01*
X1480077Y243285D01*
X1480069Y243317D01*
X1480068Y243363D01*
X1479229Y247684D01*
X1479217Y247713D01*
X1479209Y247755D01*
X1477740Y251905D01*
X1477724Y251932D01*
X1477715Y251959D01*
X1477713Y251965D01*
X1477712Y251967D01*
X1477710Y251972D01*
X1475644Y255859D01*
X1475624Y255883D01*
X1475605Y255922D01*
X1472987Y259460D01*
X1472963Y259481D01*
X1472938Y259516D01*
X1469826Y262628D01*
X1469800Y262646D01*
X1469770Y262677D01*
X1466232Y265295D01*
X1466203Y265308D01*
X1466169Y265334D01*
X1462282Y267400D01*
X1462252Y267409D01*
X1462215Y267430D01*
X1458065Y268899D01*
X1458034Y268904D01*
X1457994Y268919D01*
X1453673Y269758D01*
X1453617Y269758D01*
X1453561Y269767D01*
X1453519Y269757D01*
X1453474Y269756D01*
X1453423Y269734D01*
X1453368Y269721D01*
X1453333Y269695D01*
X1453292Y269677D01*
X1453253Y269636D01*
X1453208Y269603D01*
X1453185Y269565D01*
X1453155Y269533D01*
X1453135Y269480D01*
X1453106Y269432D01*
X1453098Y269381D01*
X1453085Y269347D01*
X1453086Y269313D01*
X1453079Y269268D01*
X1453079Y258268D01*
X1453089Y258215D01*
X1453090Y258162D01*
X1453109Y258119D01*
X1453118Y258073D01*
X1453149Y258029D01*
X1453170Y257980D01*
X1453204Y257948D01*
X1453231Y257909D01*
X1453276Y257880D01*
X1453315Y257844D01*
X1453366Y257823D01*
X1453398Y257802D01*
X1453430Y257797D01*
X1453469Y257781D01*
X1456204Y257170D01*
X1458768Y256142D01*
X1461132Y254715D01*
X1463236Y252926D01*
X1465025Y250822D01*
X1466452Y248458D01*
X1467480Y245894D01*
X1468091Y243159D01*
X1468113Y243110D01*
X1468125Y243058D01*
X1468153Y243020D01*
X1468172Y242978D01*
X1468211Y242941D01*
X1468243Y242898D01*
X1468283Y242874D01*
X1468317Y242842D01*
X1468368Y242824D01*
X1468414Y242796D01*
X1468468Y242787D01*
X1468504Y242774D01*
X1468536Y242776D01*
X1468578Y242769D01*
X1479578Y242769D01*
X1479633Y242780D01*
G37*
G36*
X585553Y806660D02*
X585553Y806660D01*
X585609Y806661D01*
X585650Y806680D01*
X585693Y806688D01*
X585739Y806720D01*
X585791Y806743D01*
X585820Y806776D01*
X585857Y806801D01*
X585887Y806848D01*
X585925Y806890D01*
X585940Y806931D01*
X585964Y806968D01*
X585973Y807024D01*
X585992Y807077D01*
X585991Y807129D01*
X585997Y807165D01*
X585989Y807197D01*
X585988Y807243D01*
X585149Y811564D01*
X585137Y811593D01*
X585129Y811635D01*
X583660Y815785D01*
X583644Y815812D01*
X583635Y815839D01*
X583633Y815845D01*
X583632Y815847D01*
X583630Y815852D01*
X581564Y819739D01*
X581544Y819763D01*
X581525Y819802D01*
X578907Y823340D01*
X578883Y823361D01*
X578858Y823396D01*
X575746Y826508D01*
X575720Y826526D01*
X575690Y826557D01*
X572152Y829175D01*
X572123Y829188D01*
X572089Y829214D01*
X568202Y831280D01*
X568172Y831289D01*
X568135Y831310D01*
X563985Y832779D01*
X563954Y832784D01*
X563914Y832799D01*
X559593Y833638D01*
X559537Y833638D01*
X559481Y833647D01*
X559439Y833637D01*
X559394Y833636D01*
X559343Y833614D01*
X559288Y833601D01*
X559253Y833575D01*
X559212Y833557D01*
X559173Y833516D01*
X559128Y833483D01*
X559105Y833445D01*
X559075Y833413D01*
X559055Y833360D01*
X559026Y833312D01*
X559018Y833261D01*
X559005Y833227D01*
X559006Y833193D01*
X558999Y833148D01*
X558999Y822148D01*
X559009Y822095D01*
X559010Y822042D01*
X559029Y821999D01*
X559038Y821953D01*
X559069Y821909D01*
X559090Y821860D01*
X559124Y821828D01*
X559151Y821789D01*
X559196Y821760D01*
X559235Y821724D01*
X559286Y821703D01*
X559318Y821682D01*
X559350Y821677D01*
X559389Y821661D01*
X562124Y821050D01*
X564688Y820022D01*
X567052Y818595D01*
X569156Y816806D01*
X570945Y814702D01*
X572372Y812338D01*
X573400Y809774D01*
X574011Y807039D01*
X574033Y806990D01*
X574045Y806938D01*
X574073Y806900D01*
X574092Y806858D01*
X574131Y806821D01*
X574163Y806778D01*
X574203Y806754D01*
X574237Y806722D01*
X574288Y806704D01*
X574334Y806676D01*
X574388Y806667D01*
X574424Y806654D01*
X574456Y806656D01*
X574498Y806649D01*
X585498Y806649D01*
X585553Y806660D01*
G37*
G36*
X1479633Y806660D02*
X1479633Y806660D01*
X1479689Y806661D01*
X1479730Y806680D01*
X1479773Y806688D01*
X1479819Y806720D01*
X1479871Y806743D01*
X1479900Y806776D01*
X1479937Y806801D01*
X1479967Y806848D01*
X1480005Y806890D01*
X1480020Y806931D01*
X1480044Y806968D01*
X1480053Y807024D01*
X1480072Y807077D01*
X1480071Y807129D01*
X1480077Y807165D01*
X1480069Y807197D01*
X1480068Y807243D01*
X1479229Y811564D01*
X1479217Y811593D01*
X1479209Y811635D01*
X1477740Y815785D01*
X1477724Y815812D01*
X1477715Y815839D01*
X1477713Y815845D01*
X1477712Y815847D01*
X1477710Y815852D01*
X1475644Y819739D01*
X1475624Y819763D01*
X1475605Y819802D01*
X1472987Y823340D01*
X1472963Y823361D01*
X1472938Y823396D01*
X1469826Y826508D01*
X1469800Y826526D01*
X1469770Y826557D01*
X1466232Y829175D01*
X1466203Y829188D01*
X1466169Y829214D01*
X1462282Y831280D01*
X1462252Y831289D01*
X1462215Y831310D01*
X1458065Y832779D01*
X1458034Y832784D01*
X1457994Y832799D01*
X1453673Y833638D01*
X1453617Y833638D01*
X1453561Y833647D01*
X1453519Y833637D01*
X1453474Y833636D01*
X1453423Y833614D01*
X1453368Y833601D01*
X1453333Y833575D01*
X1453292Y833557D01*
X1453253Y833516D01*
X1453208Y833483D01*
X1453185Y833445D01*
X1453155Y833413D01*
X1453135Y833360D01*
X1453106Y833312D01*
X1453098Y833261D01*
X1453085Y833227D01*
X1453086Y833193D01*
X1453079Y833148D01*
X1453079Y822148D01*
X1453089Y822095D01*
X1453090Y822042D01*
X1453109Y821999D01*
X1453118Y821953D01*
X1453149Y821909D01*
X1453170Y821860D01*
X1453204Y821828D01*
X1453231Y821789D01*
X1453276Y821760D01*
X1453315Y821724D01*
X1453366Y821703D01*
X1453398Y821682D01*
X1453430Y821677D01*
X1453469Y821661D01*
X1456204Y821050D01*
X1458768Y820022D01*
X1461132Y818595D01*
X1463236Y816806D01*
X1465025Y814702D01*
X1466452Y812338D01*
X1467480Y809774D01*
X1468091Y807039D01*
X1468113Y806990D01*
X1468125Y806938D01*
X1468153Y806900D01*
X1468172Y806858D01*
X1468211Y806821D01*
X1468243Y806778D01*
X1468283Y806754D01*
X1468317Y806722D01*
X1468368Y806704D01*
X1468414Y806676D01*
X1468468Y806667D01*
X1468504Y806654D01*
X1468536Y806656D01*
X1468578Y806649D01*
X1479578Y806649D01*
X1479633Y806660D01*
G37*
G36*
X585553Y242780D02*
X585553Y242780D01*
X585609Y242781D01*
X585650Y242800D01*
X585693Y242808D01*
X585739Y242840D01*
X585791Y242863D01*
X585820Y242896D01*
X585857Y242921D01*
X585887Y242968D01*
X585925Y243010D01*
X585940Y243051D01*
X585964Y243088D01*
X585973Y243144D01*
X585992Y243197D01*
X585991Y243249D01*
X585997Y243285D01*
X585989Y243317D01*
X585988Y243363D01*
X585149Y247684D01*
X585137Y247713D01*
X585129Y247755D01*
X583660Y251905D01*
X583644Y251932D01*
X583635Y251959D01*
X583633Y251965D01*
X583632Y251967D01*
X583630Y251972D01*
X581564Y255859D01*
X581544Y255883D01*
X581525Y255922D01*
X578907Y259460D01*
X578883Y259481D01*
X578858Y259516D01*
X575746Y262628D01*
X575720Y262646D01*
X575690Y262677D01*
X572152Y265295D01*
X572123Y265308D01*
X572089Y265334D01*
X568202Y267400D01*
X568172Y267409D01*
X568135Y267430D01*
X563985Y268899D01*
X563954Y268904D01*
X563914Y268919D01*
X559593Y269758D01*
X559537Y269758D01*
X559481Y269767D01*
X559439Y269757D01*
X559394Y269756D01*
X559343Y269734D01*
X559288Y269721D01*
X559253Y269695D01*
X559212Y269677D01*
X559173Y269636D01*
X559128Y269603D01*
X559105Y269565D01*
X559075Y269533D01*
X559055Y269480D01*
X559026Y269432D01*
X559018Y269381D01*
X559005Y269347D01*
X559006Y269313D01*
X558999Y269268D01*
X558999Y258268D01*
X559009Y258215D01*
X559010Y258162D01*
X559029Y258119D01*
X559038Y258073D01*
X559069Y258029D01*
X559090Y257980D01*
X559124Y257948D01*
X559151Y257909D01*
X559196Y257880D01*
X559235Y257844D01*
X559286Y257823D01*
X559318Y257802D01*
X559350Y257797D01*
X559389Y257781D01*
X562124Y257170D01*
X564688Y256142D01*
X567052Y254715D01*
X569156Y252926D01*
X570945Y250822D01*
X572372Y248458D01*
X573400Y245894D01*
X574011Y243159D01*
X574033Y243110D01*
X574045Y243058D01*
X574073Y243020D01*
X574092Y242978D01*
X574131Y242941D01*
X574163Y242898D01*
X574203Y242874D01*
X574237Y242842D01*
X574288Y242824D01*
X574334Y242796D01*
X574388Y242787D01*
X574424Y242774D01*
X574456Y242776D01*
X574498Y242769D01*
X585498Y242769D01*
X585553Y242780D01*
G37*
G36*
X559547Y772657D02*
X559547Y772657D01*
X559593Y772658D01*
X563914Y773497D01*
X563943Y773509D01*
X563985Y773517D01*
X568135Y774986D01*
X568162Y775002D01*
X568202Y775016D01*
X572089Y777082D01*
X572113Y777102D01*
X572152Y777121D01*
X575690Y779739D01*
X575711Y779763D01*
X575746Y779788D01*
X578858Y782900D01*
X578876Y782927D01*
X578907Y782956D01*
X581525Y786495D01*
X581538Y786523D01*
X581564Y786557D01*
X583630Y790444D01*
X583639Y790474D01*
X583660Y790511D01*
X585129Y794661D01*
X585134Y794692D01*
X585149Y794732D01*
X585988Y799053D01*
X585988Y799109D01*
X585997Y799165D01*
X585987Y799207D01*
X585986Y799252D01*
X585964Y799303D01*
X585951Y799358D01*
X585925Y799394D01*
X585907Y799434D01*
X585866Y799473D01*
X585833Y799518D01*
X585795Y799541D01*
X585763Y799571D01*
X585710Y799591D01*
X585662Y799620D01*
X585611Y799628D01*
X585577Y799641D01*
X585543Y799640D01*
X585498Y799647D01*
X574498Y799647D01*
X574445Y799637D01*
X574392Y799636D01*
X574349Y799617D01*
X574303Y799608D01*
X574259Y799577D01*
X574210Y799556D01*
X574178Y799522D01*
X574139Y799495D01*
X574110Y799450D01*
X574074Y799411D01*
X574053Y799360D01*
X574032Y799328D01*
X574027Y799296D01*
X574024Y799290D01*
X574023Y799289D01*
X574023Y799288D01*
X574011Y799257D01*
X573400Y796522D01*
X572372Y793958D01*
X570945Y791594D01*
X569156Y789490D01*
X567052Y787701D01*
X564688Y786274D01*
X562124Y785246D01*
X559389Y784635D01*
X559340Y784613D01*
X559288Y784601D01*
X559250Y784573D01*
X559208Y784554D01*
X559171Y784515D01*
X559128Y784483D01*
X559104Y784443D01*
X559072Y784409D01*
X559054Y784358D01*
X559026Y784312D01*
X559017Y784258D01*
X559004Y784222D01*
X559006Y784190D01*
X558999Y784148D01*
X558999Y773148D01*
X559010Y773093D01*
X559011Y773037D01*
X559030Y772996D01*
X559038Y772953D01*
X559070Y772907D01*
X559093Y772856D01*
X559126Y772826D01*
X559151Y772789D01*
X559198Y772759D01*
X559240Y772721D01*
X559281Y772706D01*
X559318Y772682D01*
X559374Y772673D01*
X559427Y772654D01*
X559479Y772655D01*
X559515Y772649D01*
X559547Y772657D01*
G37*
G36*
X1453627Y772657D02*
X1453627Y772657D01*
X1453673Y772658D01*
X1457994Y773497D01*
X1458023Y773509D01*
X1458065Y773517D01*
X1462215Y774986D01*
X1462242Y775002D01*
X1462282Y775016D01*
X1466169Y777082D01*
X1466193Y777102D01*
X1466232Y777121D01*
X1469770Y779739D01*
X1469791Y779763D01*
X1469826Y779788D01*
X1472938Y782900D01*
X1472956Y782927D01*
X1472987Y782956D01*
X1475605Y786495D01*
X1475618Y786523D01*
X1475644Y786557D01*
X1477710Y790444D01*
X1477719Y790474D01*
X1477740Y790511D01*
X1479209Y794661D01*
X1479214Y794692D01*
X1479229Y794732D01*
X1480068Y799053D01*
X1480068Y799109D01*
X1480077Y799165D01*
X1480067Y799207D01*
X1480066Y799252D01*
X1480044Y799303D01*
X1480031Y799358D01*
X1480005Y799394D01*
X1479987Y799434D01*
X1479946Y799473D01*
X1479913Y799518D01*
X1479875Y799541D01*
X1479843Y799571D01*
X1479790Y799591D01*
X1479742Y799620D01*
X1479691Y799628D01*
X1479657Y799641D01*
X1479623Y799640D01*
X1479578Y799647D01*
X1468578Y799647D01*
X1468525Y799637D01*
X1468472Y799636D01*
X1468429Y799617D01*
X1468383Y799608D01*
X1468339Y799577D01*
X1468290Y799556D01*
X1468258Y799522D01*
X1468219Y799495D01*
X1468190Y799450D01*
X1468154Y799411D01*
X1468133Y799360D01*
X1468112Y799328D01*
X1468107Y799296D01*
X1468104Y799290D01*
X1468103Y799289D01*
X1468103Y799288D01*
X1468091Y799257D01*
X1467480Y796522D01*
X1466452Y793958D01*
X1465025Y791594D01*
X1463236Y789490D01*
X1461132Y787701D01*
X1458768Y786274D01*
X1456204Y785246D01*
X1453469Y784635D01*
X1453420Y784613D01*
X1453368Y784601D01*
X1453330Y784573D01*
X1453288Y784554D01*
X1453251Y784515D01*
X1453208Y784483D01*
X1453184Y784443D01*
X1453152Y784409D01*
X1453134Y784358D01*
X1453106Y784312D01*
X1453097Y784258D01*
X1453084Y784222D01*
X1453086Y784190D01*
X1453079Y784148D01*
X1453079Y773148D01*
X1453090Y773093D01*
X1453091Y773037D01*
X1453110Y772996D01*
X1453118Y772953D01*
X1453150Y772907D01*
X1453173Y772856D01*
X1453206Y772826D01*
X1453231Y772789D01*
X1453278Y772759D01*
X1453320Y772721D01*
X1453361Y772706D01*
X1453398Y772682D01*
X1453454Y772673D01*
X1453507Y772654D01*
X1453559Y772655D01*
X1453595Y772649D01*
X1453627Y772657D01*
G37*
G36*
X559547Y208777D02*
X559547Y208777D01*
X559593Y208778D01*
X563914Y209617D01*
X563943Y209629D01*
X563985Y209637D01*
X568135Y211106D01*
X568162Y211122D01*
X568202Y211136D01*
X572089Y213202D01*
X572113Y213222D01*
X572152Y213241D01*
X575690Y215859D01*
X575711Y215883D01*
X575746Y215908D01*
X578858Y219020D01*
X578876Y219047D01*
X578907Y219076D01*
X581525Y222615D01*
X581538Y222643D01*
X581564Y222677D01*
X583630Y226564D01*
X583639Y226594D01*
X583660Y226631D01*
X585129Y230781D01*
X585134Y230812D01*
X585149Y230852D01*
X585988Y235173D01*
X585988Y235229D01*
X585997Y235285D01*
X585987Y235327D01*
X585986Y235372D01*
X585964Y235423D01*
X585951Y235478D01*
X585925Y235514D01*
X585907Y235554D01*
X585866Y235593D01*
X585833Y235638D01*
X585795Y235661D01*
X585763Y235691D01*
X585710Y235711D01*
X585662Y235740D01*
X585611Y235748D01*
X585577Y235761D01*
X585543Y235760D01*
X585498Y235767D01*
X574498Y235767D01*
X574445Y235757D01*
X574392Y235756D01*
X574349Y235737D01*
X574303Y235728D01*
X574259Y235697D01*
X574210Y235676D01*
X574178Y235642D01*
X574139Y235615D01*
X574110Y235570D01*
X574074Y235531D01*
X574053Y235480D01*
X574032Y235448D01*
X574027Y235416D01*
X574024Y235410D01*
X574023Y235409D01*
X574023Y235408D01*
X574011Y235377D01*
X573400Y232642D01*
X572372Y230078D01*
X570945Y227714D01*
X569156Y225610D01*
X567052Y223821D01*
X564688Y222394D01*
X562124Y221366D01*
X559389Y220755D01*
X559340Y220733D01*
X559288Y220721D01*
X559250Y220693D01*
X559208Y220674D01*
X559171Y220635D01*
X559128Y220603D01*
X559104Y220563D01*
X559072Y220529D01*
X559054Y220478D01*
X559026Y220432D01*
X559017Y220378D01*
X559004Y220342D01*
X559006Y220310D01*
X558999Y220268D01*
X558999Y209268D01*
X559010Y209213D01*
X559011Y209157D01*
X559030Y209116D01*
X559038Y209073D01*
X559070Y209027D01*
X559093Y208976D01*
X559126Y208946D01*
X559151Y208909D01*
X559198Y208879D01*
X559240Y208841D01*
X559281Y208826D01*
X559318Y208802D01*
X559374Y208793D01*
X559427Y208774D01*
X559479Y208775D01*
X559515Y208769D01*
X559547Y208777D01*
G37*
G36*
X1453627Y208777D02*
X1453627Y208777D01*
X1453673Y208778D01*
X1457994Y209617D01*
X1458023Y209629D01*
X1458065Y209637D01*
X1462215Y211106D01*
X1462242Y211122D01*
X1462282Y211136D01*
X1466169Y213202D01*
X1466193Y213222D01*
X1466232Y213241D01*
X1469770Y215859D01*
X1469791Y215883D01*
X1469826Y215908D01*
X1472938Y219020D01*
X1472956Y219047D01*
X1472987Y219076D01*
X1475605Y222615D01*
X1475618Y222643D01*
X1475644Y222677D01*
X1477710Y226564D01*
X1477719Y226594D01*
X1477740Y226631D01*
X1479209Y230781D01*
X1479214Y230812D01*
X1479229Y230852D01*
X1480068Y235173D01*
X1480068Y235229D01*
X1480077Y235285D01*
X1480067Y235327D01*
X1480066Y235372D01*
X1480044Y235423D01*
X1480031Y235478D01*
X1480005Y235514D01*
X1479987Y235554D01*
X1479946Y235593D01*
X1479913Y235638D01*
X1479875Y235661D01*
X1479843Y235691D01*
X1479790Y235711D01*
X1479742Y235740D01*
X1479691Y235748D01*
X1479657Y235761D01*
X1479623Y235760D01*
X1479578Y235767D01*
X1468578Y235767D01*
X1468525Y235757D01*
X1468472Y235756D01*
X1468429Y235737D01*
X1468383Y235728D01*
X1468339Y235697D01*
X1468290Y235676D01*
X1468258Y235642D01*
X1468219Y235615D01*
X1468190Y235570D01*
X1468154Y235531D01*
X1468133Y235480D01*
X1468112Y235448D01*
X1468107Y235416D01*
X1468104Y235410D01*
X1468103Y235409D01*
X1468103Y235408D01*
X1468091Y235377D01*
X1467480Y232642D01*
X1466452Y230078D01*
X1465025Y227714D01*
X1463236Y225610D01*
X1461132Y223821D01*
X1458768Y222394D01*
X1456204Y221366D01*
X1453469Y220755D01*
X1453420Y220733D01*
X1453368Y220721D01*
X1453330Y220693D01*
X1453288Y220674D01*
X1453251Y220635D01*
X1453208Y220603D01*
X1453184Y220563D01*
X1453152Y220529D01*
X1453134Y220478D01*
X1453106Y220432D01*
X1453097Y220378D01*
X1453084Y220342D01*
X1453086Y220310D01*
X1453079Y220268D01*
X1453079Y209268D01*
X1453090Y209213D01*
X1453091Y209157D01*
X1453110Y209116D01*
X1453118Y209073D01*
X1453150Y209027D01*
X1453173Y208976D01*
X1453206Y208946D01*
X1453231Y208909D01*
X1453278Y208879D01*
X1453320Y208841D01*
X1453361Y208826D01*
X1453398Y208802D01*
X1453454Y208793D01*
X1453507Y208774D01*
X1453559Y208775D01*
X1453595Y208769D01*
X1453627Y208777D01*
G37*
G36*
X1563246Y944897D02*
X1563246Y944897D01*
X1563273Y944893D01*
X1563314Y944911D01*
X1563356Y944920D01*
X1563392Y944946D01*
X1563401Y944950D01*
X1563405Y944955D01*
X1563416Y944964D01*
X1587416Y968964D01*
X1587437Y969002D01*
X1587466Y969035D01*
X1587470Y969062D01*
X1587483Y969086D01*
X1587480Y969130D01*
X1587487Y969173D01*
X1587476Y969199D01*
X1587474Y969226D01*
X1587448Y969261D01*
X1587430Y969301D01*
X1587407Y969316D01*
X1587391Y969338D01*
X1587350Y969354D01*
X1587314Y969378D01*
X1587270Y969385D01*
X1587261Y969388D01*
X1587254Y969387D01*
X1587240Y969389D01*
X1563240Y969389D01*
X1563224Y969384D01*
X1563207Y969387D01*
X1563157Y969365D01*
X1563106Y969350D01*
X1563095Y969337D01*
X1563079Y969330D01*
X1563049Y969285D01*
X1563014Y969245D01*
X1563011Y969228D01*
X1563002Y969214D01*
X1562991Y969140D01*
X1562991Y945140D01*
X1563003Y945098D01*
X1563006Y945054D01*
X1563022Y945032D01*
X1563030Y945006D01*
X1563063Y944977D01*
X1563089Y944942D01*
X1563115Y944932D01*
X1563135Y944914D01*
X1563179Y944907D01*
X1563219Y944892D01*
X1563246Y944897D01*
G37*
G36*
X669166Y944897D02*
X669166Y944897D01*
X669193Y944893D01*
X669234Y944911D01*
X669276Y944920D01*
X669312Y944946D01*
X669321Y944950D01*
X669325Y944955D01*
X669336Y944964D01*
X693336Y968964D01*
X693357Y969002D01*
X693386Y969035D01*
X693390Y969062D01*
X693403Y969086D01*
X693400Y969130D01*
X693407Y969173D01*
X693396Y969199D01*
X693394Y969226D01*
X693368Y969261D01*
X693350Y969301D01*
X693327Y969316D01*
X693311Y969338D01*
X693270Y969354D01*
X693234Y969378D01*
X693190Y969385D01*
X693181Y969388D01*
X693174Y969387D01*
X693160Y969389D01*
X669160Y969389D01*
X669144Y969384D01*
X669127Y969387D01*
X669077Y969365D01*
X669026Y969350D01*
X669015Y969337D01*
X668999Y969330D01*
X668969Y969285D01*
X668934Y969245D01*
X668931Y969228D01*
X668922Y969214D01*
X668911Y969140D01*
X668911Y945140D01*
X668923Y945098D01*
X668926Y945054D01*
X668942Y945032D01*
X668950Y945006D01*
X668983Y944977D01*
X669009Y944942D01*
X669035Y944932D01*
X669055Y944914D01*
X669099Y944907D01*
X669139Y944892D01*
X669166Y944897D01*
G37*
G36*
X1563246Y381017D02*
X1563246Y381017D01*
X1563273Y381013D01*
X1563314Y381031D01*
X1563356Y381040D01*
X1563392Y381066D01*
X1563401Y381070D01*
X1563405Y381075D01*
X1563416Y381084D01*
X1587416Y405084D01*
X1587437Y405122D01*
X1587466Y405155D01*
X1587470Y405182D01*
X1587483Y405206D01*
X1587480Y405250D01*
X1587487Y405293D01*
X1587476Y405319D01*
X1587474Y405346D01*
X1587448Y405381D01*
X1587430Y405421D01*
X1587407Y405436D01*
X1587391Y405458D01*
X1587350Y405474D01*
X1587314Y405498D01*
X1587270Y405505D01*
X1587261Y405508D01*
X1587254Y405507D01*
X1587240Y405509D01*
X1563240Y405509D01*
X1563224Y405504D01*
X1563207Y405507D01*
X1563157Y405485D01*
X1563106Y405470D01*
X1563095Y405457D01*
X1563079Y405450D01*
X1563049Y405405D01*
X1563014Y405365D01*
X1563011Y405348D01*
X1563002Y405334D01*
X1562991Y405260D01*
X1562991Y381260D01*
X1563003Y381218D01*
X1563006Y381174D01*
X1563022Y381152D01*
X1563030Y381126D01*
X1563063Y381097D01*
X1563089Y381062D01*
X1563115Y381052D01*
X1563135Y381034D01*
X1563179Y381027D01*
X1563219Y381012D01*
X1563246Y381017D01*
G37*
G36*
X669166Y381017D02*
X669166Y381017D01*
X669193Y381013D01*
X669234Y381031D01*
X669276Y381040D01*
X669312Y381066D01*
X669321Y381070D01*
X669325Y381075D01*
X669336Y381084D01*
X693336Y405084D01*
X693357Y405122D01*
X693386Y405155D01*
X693390Y405182D01*
X693403Y405206D01*
X693400Y405250D01*
X693407Y405293D01*
X693396Y405319D01*
X693394Y405346D01*
X693368Y405381D01*
X693350Y405421D01*
X693327Y405436D01*
X693311Y405458D01*
X693270Y405474D01*
X693234Y405498D01*
X693190Y405505D01*
X693181Y405508D01*
X693174Y405507D01*
X693160Y405509D01*
X669160Y405509D01*
X669144Y405504D01*
X669127Y405507D01*
X669077Y405485D01*
X669026Y405470D01*
X669015Y405457D01*
X668999Y405450D01*
X668969Y405405D01*
X668934Y405365D01*
X668931Y405348D01*
X668922Y405334D01*
X668911Y405260D01*
X668911Y381260D01*
X668923Y381218D01*
X668926Y381174D01*
X668942Y381152D01*
X668950Y381126D01*
X668983Y381097D01*
X669009Y381062D01*
X669035Y381052D01*
X669055Y381034D01*
X669099Y381027D01*
X669139Y381012D01*
X669166Y381017D01*
G37*
G36*
X954385Y693434D02*
X954385Y693434D01*
X954388Y693431D01*
X955483Y693611D01*
X955489Y693617D01*
X955494Y693614D01*
X956522Y694033D01*
X956526Y694040D01*
X956531Y694038D01*
X957440Y694676D01*
X957443Y694683D01*
X957448Y694683D01*
X958192Y695506D01*
X958193Y695514D01*
X958199Y695515D01*
X958741Y696483D01*
X958740Y696492D01*
X958746Y696494D01*
X959059Y697558D01*
X959056Y697566D01*
X959061Y697569D01*
X959129Y698677D01*
X959125Y698684D01*
X959129Y698687D01*
X958959Y699795D01*
X958953Y699801D01*
X958956Y699806D01*
X958544Y700848D01*
X958537Y700852D01*
X958539Y700857D01*
X957905Y701782D01*
X957897Y701784D01*
X957898Y701790D01*
X957075Y702550D01*
X957066Y702551D01*
X957066Y702557D01*
X956094Y703114D01*
X956086Y703113D01*
X956084Y703119D01*
X955012Y703446D01*
X955004Y703443D01*
X955001Y703448D01*
X953884Y703529D01*
X953881Y703528D01*
X953880Y703529D01*
X941880Y703529D01*
X941877Y703527D01*
X941870Y703527D01*
X941869Y703528D01*
X940925Y703309D01*
X940919Y703303D01*
X940914Y703305D01*
X940042Y702882D01*
X940039Y702874D01*
X940033Y702876D01*
X939277Y702269D01*
X939275Y702261D01*
X939269Y702261D01*
X938668Y701501D01*
X938668Y701492D01*
X938662Y701491D01*
X938244Y700616D01*
X938246Y700608D01*
X938241Y700606D01*
X938029Y699660D01*
X938032Y699653D01*
X938027Y699649D01*
X938031Y698680D01*
X938031Y698679D01*
X938050Y697611D01*
X938055Y697604D01*
X938051Y697600D01*
X938307Y696563D01*
X938314Y696558D01*
X938311Y696552D01*
X938792Y695598D01*
X938799Y695595D01*
X938798Y695589D01*
X939479Y694766D01*
X939487Y694764D01*
X939487Y694758D01*
X940334Y694107D01*
X940342Y694107D01*
X940343Y694101D01*
X941314Y693654D01*
X941322Y693656D01*
X941324Y693651D01*
X942370Y693432D01*
X942377Y693435D01*
X942380Y693431D01*
X954380Y693431D01*
X954385Y693434D01*
G37*
G36*
X60305Y693434D02*
X60305Y693434D01*
X60308Y693431D01*
X61403Y693611D01*
X61409Y693617D01*
X61414Y693614D01*
X62442Y694033D01*
X62446Y694040D01*
X62451Y694038D01*
X63360Y694676D01*
X63363Y694683D01*
X63368Y694683D01*
X64112Y695506D01*
X64113Y695514D01*
X64119Y695515D01*
X64661Y696483D01*
X64660Y696492D01*
X64666Y696494D01*
X64979Y697558D01*
X64976Y697566D01*
X64981Y697569D01*
X65049Y698677D01*
X65045Y698684D01*
X65049Y698687D01*
X64879Y699795D01*
X64873Y699801D01*
X64876Y699806D01*
X64464Y700848D01*
X64457Y700852D01*
X64459Y700857D01*
X63825Y701782D01*
X63817Y701784D01*
X63818Y701790D01*
X62995Y702550D01*
X62986Y702551D01*
X62986Y702557D01*
X62014Y703114D01*
X62006Y703113D01*
X62004Y703119D01*
X60932Y703446D01*
X60924Y703443D01*
X60921Y703448D01*
X59804Y703529D01*
X59801Y703528D01*
X59800Y703529D01*
X47800Y703529D01*
X47797Y703527D01*
X47790Y703527D01*
X47789Y703528D01*
X46845Y703309D01*
X46839Y703303D01*
X46834Y703305D01*
X45962Y702882D01*
X45959Y702874D01*
X45953Y702876D01*
X45197Y702269D01*
X45195Y702261D01*
X45189Y702261D01*
X44588Y701501D01*
X44588Y701492D01*
X44582Y701491D01*
X44164Y700616D01*
X44166Y700608D01*
X44161Y700606D01*
X43949Y699660D01*
X43952Y699653D01*
X43947Y699649D01*
X43951Y698680D01*
X43951Y698679D01*
X43970Y697611D01*
X43975Y697604D01*
X43971Y697600D01*
X44227Y696563D01*
X44234Y696558D01*
X44231Y696552D01*
X44712Y695598D01*
X44719Y695595D01*
X44718Y695589D01*
X45399Y694766D01*
X45407Y694764D01*
X45407Y694758D01*
X46254Y694107D01*
X46262Y694107D01*
X46263Y694101D01*
X47234Y693654D01*
X47242Y693656D01*
X47244Y693651D01*
X48290Y693432D01*
X48297Y693435D01*
X48300Y693431D01*
X60300Y693431D01*
X60305Y693434D01*
G37*
G36*
X954385Y129554D02*
X954385Y129554D01*
X954388Y129551D01*
X955483Y129731D01*
X955489Y129737D01*
X955494Y129734D01*
X956522Y130153D01*
X956526Y130160D01*
X956531Y130158D01*
X957440Y130796D01*
X957443Y130803D01*
X957448Y130803D01*
X958192Y131626D01*
X958193Y131634D01*
X958199Y131635D01*
X958741Y132603D01*
X958740Y132612D01*
X958746Y132614D01*
X959059Y133678D01*
X959056Y133686D01*
X959061Y133689D01*
X959129Y134797D01*
X959125Y134804D01*
X959129Y134807D01*
X958959Y135915D01*
X958953Y135921D01*
X958956Y135926D01*
X958544Y136968D01*
X958537Y136972D01*
X958539Y136977D01*
X957905Y137902D01*
X957897Y137904D01*
X957898Y137910D01*
X957075Y138670D01*
X957066Y138671D01*
X957066Y138677D01*
X956094Y139234D01*
X956086Y139233D01*
X956084Y139239D01*
X955012Y139566D01*
X955004Y139563D01*
X955001Y139568D01*
X953884Y139649D01*
X953881Y139648D01*
X953880Y139649D01*
X941880Y139649D01*
X941877Y139647D01*
X941870Y139647D01*
X941869Y139648D01*
X940925Y139429D01*
X940919Y139423D01*
X940914Y139425D01*
X940042Y139002D01*
X940039Y138994D01*
X940033Y138996D01*
X939277Y138389D01*
X939275Y138381D01*
X939269Y138381D01*
X938668Y137621D01*
X938668Y137612D01*
X938662Y137611D01*
X938244Y136736D01*
X938246Y136728D01*
X938241Y136726D01*
X938029Y135780D01*
X938032Y135773D01*
X938027Y135769D01*
X938031Y134800D01*
X938031Y134799D01*
X938050Y133731D01*
X938055Y133724D01*
X938051Y133720D01*
X938307Y132683D01*
X938314Y132678D01*
X938311Y132672D01*
X938792Y131718D01*
X938799Y131715D01*
X938798Y131709D01*
X939479Y130886D01*
X939487Y130884D01*
X939487Y130878D01*
X940334Y130227D01*
X940342Y130227D01*
X940343Y130221D01*
X941314Y129774D01*
X941322Y129776D01*
X941324Y129771D01*
X942370Y129552D01*
X942377Y129555D01*
X942380Y129551D01*
X954380Y129551D01*
X954385Y129554D01*
G37*
G36*
X60305Y129554D02*
X60305Y129554D01*
X60308Y129551D01*
X61403Y129731D01*
X61409Y129737D01*
X61414Y129734D01*
X62442Y130153D01*
X62446Y130160D01*
X62451Y130158D01*
X63360Y130796D01*
X63363Y130803D01*
X63368Y130803D01*
X64112Y131626D01*
X64113Y131634D01*
X64119Y131635D01*
X64661Y132603D01*
X64660Y132612D01*
X64666Y132614D01*
X64979Y133678D01*
X64976Y133686D01*
X64981Y133689D01*
X65049Y134797D01*
X65045Y134804D01*
X65049Y134807D01*
X64879Y135915D01*
X64873Y135921D01*
X64876Y135926D01*
X64464Y136968D01*
X64457Y136972D01*
X64459Y136977D01*
X63825Y137902D01*
X63817Y137904D01*
X63818Y137910D01*
X62995Y138670D01*
X62986Y138671D01*
X62986Y138677D01*
X62014Y139234D01*
X62006Y139233D01*
X62004Y139239D01*
X60932Y139566D01*
X60924Y139563D01*
X60921Y139568D01*
X59804Y139649D01*
X59801Y139648D01*
X59800Y139649D01*
X47800Y139649D01*
X47797Y139647D01*
X47790Y139647D01*
X47789Y139648D01*
X46845Y139429D01*
X46839Y139423D01*
X46834Y139425D01*
X45962Y139002D01*
X45959Y138994D01*
X45953Y138996D01*
X45197Y138389D01*
X45195Y138381D01*
X45189Y138381D01*
X44588Y137621D01*
X44588Y137612D01*
X44582Y137611D01*
X44164Y136736D01*
X44166Y136728D01*
X44161Y136726D01*
X43949Y135780D01*
X43952Y135773D01*
X43947Y135769D01*
X43951Y134800D01*
X43951Y134799D01*
X43970Y133731D01*
X43975Y133724D01*
X43971Y133720D01*
X44227Y132683D01*
X44234Y132678D01*
X44231Y132672D01*
X44712Y131718D01*
X44719Y131715D01*
X44718Y131709D01*
X45399Y130886D01*
X45407Y130884D01*
X45407Y130878D01*
X46254Y130227D01*
X46262Y130227D01*
X46263Y130221D01*
X47234Y129774D01*
X47242Y129776D01*
X47244Y129771D01*
X48290Y129552D01*
X48297Y129555D01*
X48300Y129551D01*
X60300Y129551D01*
X60305Y129554D01*
G37*
G36*
X954385Y779835D02*
X954385Y779835D01*
X954388Y779831D01*
X955494Y780024D01*
X955499Y780029D01*
X955499Y780030D01*
X955504Y780027D01*
X956539Y780460D01*
X956543Y780467D01*
X956548Y780465D01*
X957461Y781118D01*
X957463Y781126D01*
X957469Y781125D01*
X958213Y781964D01*
X958214Y781973D01*
X958219Y781973D01*
X958758Y782957D01*
X958757Y782965D01*
X958758Y782966D01*
X958762Y782967D01*
X958763Y782969D01*
X958945Y783610D01*
X959069Y784046D01*
X959067Y784051D01*
X959069Y784053D01*
X959067Y784055D01*
X959071Y784057D01*
X959129Y785177D01*
X959126Y785182D01*
X959129Y785186D01*
X959011Y786231D01*
X959005Y786237D01*
X959009Y786242D01*
X958661Y787236D01*
X958654Y787240D01*
X958656Y787245D01*
X958096Y788137D01*
X958089Y788140D01*
X958089Y788145D01*
X957345Y788889D01*
X957337Y788891D01*
X957337Y788896D01*
X956445Y789456D01*
X956437Y789456D01*
X956436Y789461D01*
X955442Y789809D01*
X955434Y789806D01*
X955431Y789811D01*
X954386Y789929D01*
X954382Y789927D01*
X954380Y789929D01*
X942380Y789929D01*
X942377Y789927D01*
X942374Y789927D01*
X942372Y789929D01*
X941376Y789771D01*
X941370Y789765D01*
X941365Y789768D01*
X940429Y789393D01*
X940425Y789386D01*
X940419Y789388D01*
X939590Y788814D01*
X939587Y788806D01*
X939582Y788807D01*
X938901Y788063D01*
X938900Y788054D01*
X938894Y788054D01*
X938396Y787177D01*
X938397Y787169D01*
X938392Y787166D01*
X938204Y786542D01*
X938101Y786201D01*
X938102Y786198D01*
X938101Y786197D01*
X938104Y786193D01*
X938099Y786190D01*
X938031Y785183D01*
X938032Y785181D01*
X938031Y785180D01*
X938040Y784099D01*
X938045Y784092D01*
X938041Y784088D01*
X938291Y783036D01*
X938297Y783031D01*
X938294Y783026D01*
X938771Y782056D01*
X938779Y782053D01*
X938777Y782047D01*
X939458Y781208D01*
X939466Y781206D01*
X939466Y781200D01*
X940317Y780534D01*
X940325Y780533D01*
X940326Y780528D01*
X941303Y780067D01*
X941311Y780069D01*
X941314Y780064D01*
X942369Y779832D01*
X942377Y779835D01*
X942380Y779831D01*
X954380Y779831D01*
X954385Y779835D01*
G37*
G36*
X60305Y779835D02*
X60305Y779835D01*
X60308Y779831D01*
X61414Y780024D01*
X61419Y780029D01*
X61419Y780030D01*
X61424Y780027D01*
X62459Y780460D01*
X62463Y780467D01*
X62468Y780465D01*
X63381Y781118D01*
X63383Y781126D01*
X63389Y781125D01*
X64133Y781964D01*
X64134Y781973D01*
X64139Y781973D01*
X64678Y782957D01*
X64677Y782965D01*
X64678Y782966D01*
X64682Y782967D01*
X64683Y782969D01*
X64865Y783610D01*
X64989Y784046D01*
X64987Y784051D01*
X64989Y784053D01*
X64987Y784055D01*
X64991Y784057D01*
X65049Y785177D01*
X65046Y785182D01*
X65049Y785186D01*
X64931Y786231D01*
X64925Y786237D01*
X64929Y786242D01*
X64581Y787236D01*
X64574Y787240D01*
X64576Y787245D01*
X64016Y788137D01*
X64009Y788140D01*
X64009Y788145D01*
X63265Y788889D01*
X63257Y788891D01*
X63257Y788896D01*
X62365Y789456D01*
X62357Y789456D01*
X62356Y789461D01*
X61362Y789809D01*
X61354Y789806D01*
X61351Y789811D01*
X60306Y789929D01*
X60302Y789927D01*
X60300Y789929D01*
X48300Y789929D01*
X48297Y789927D01*
X48294Y789927D01*
X48292Y789929D01*
X47296Y789771D01*
X47290Y789765D01*
X47285Y789768D01*
X46349Y789393D01*
X46345Y789386D01*
X46339Y789388D01*
X45510Y788814D01*
X45507Y788806D01*
X45502Y788807D01*
X44821Y788063D01*
X44820Y788054D01*
X44814Y788054D01*
X44316Y787177D01*
X44317Y787169D01*
X44312Y787166D01*
X44124Y786542D01*
X44021Y786201D01*
X44022Y786198D01*
X44021Y786197D01*
X44024Y786193D01*
X44019Y786190D01*
X43951Y785183D01*
X43952Y785181D01*
X43951Y785180D01*
X43960Y784099D01*
X43965Y784092D01*
X43961Y784088D01*
X44211Y783036D01*
X44217Y783031D01*
X44214Y783026D01*
X44691Y782056D01*
X44699Y782053D01*
X44697Y782047D01*
X45378Y781208D01*
X45386Y781206D01*
X45386Y781200D01*
X46237Y780534D01*
X46245Y780533D01*
X46246Y780528D01*
X47223Y780067D01*
X47231Y780069D01*
X47234Y780064D01*
X48289Y779832D01*
X48297Y779835D01*
X48300Y779831D01*
X60300Y779831D01*
X60305Y779835D01*
G37*
G36*
X60305Y215955D02*
X60305Y215955D01*
X60308Y215951D01*
X61414Y216144D01*
X61419Y216149D01*
X61419Y216150D01*
X61424Y216147D01*
X62459Y216580D01*
X62463Y216587D01*
X62468Y216585D01*
X63381Y217238D01*
X63383Y217246D01*
X63389Y217245D01*
X64133Y218084D01*
X64134Y218093D01*
X64139Y218093D01*
X64678Y219077D01*
X64677Y219085D01*
X64678Y219086D01*
X64682Y219087D01*
X64683Y219089D01*
X64865Y219730D01*
X64989Y220166D01*
X64987Y220171D01*
X64989Y220173D01*
X64987Y220175D01*
X64991Y220177D01*
X65049Y221297D01*
X65046Y221302D01*
X65049Y221306D01*
X64931Y222351D01*
X64925Y222357D01*
X64929Y222362D01*
X64581Y223356D01*
X64574Y223360D01*
X64576Y223365D01*
X64016Y224257D01*
X64009Y224260D01*
X64009Y224265D01*
X63265Y225009D01*
X63257Y225011D01*
X63257Y225016D01*
X62365Y225576D01*
X62357Y225576D01*
X62356Y225581D01*
X61362Y225929D01*
X61354Y225926D01*
X61351Y225931D01*
X60306Y226049D01*
X60302Y226047D01*
X60300Y226049D01*
X48300Y226049D01*
X48297Y226047D01*
X48294Y226047D01*
X48292Y226049D01*
X47296Y225891D01*
X47290Y225885D01*
X47285Y225888D01*
X46349Y225513D01*
X46345Y225506D01*
X46339Y225508D01*
X45510Y224934D01*
X45507Y224926D01*
X45502Y224927D01*
X44821Y224183D01*
X44820Y224174D01*
X44814Y224174D01*
X44316Y223297D01*
X44317Y223289D01*
X44312Y223286D01*
X44124Y222662D01*
X44021Y222321D01*
X44022Y222318D01*
X44021Y222317D01*
X44024Y222313D01*
X44019Y222310D01*
X43951Y221303D01*
X43952Y221301D01*
X43951Y221300D01*
X43960Y220219D01*
X43965Y220212D01*
X43961Y220208D01*
X44211Y219156D01*
X44217Y219151D01*
X44214Y219146D01*
X44691Y218176D01*
X44699Y218173D01*
X44697Y218167D01*
X45378Y217328D01*
X45386Y217326D01*
X45386Y217320D01*
X46237Y216654D01*
X46245Y216653D01*
X46246Y216648D01*
X47223Y216187D01*
X47231Y216189D01*
X47234Y216184D01*
X48289Y215952D01*
X48297Y215955D01*
X48300Y215951D01*
X60300Y215951D01*
X60305Y215955D01*
G37*
G36*
X954385Y215955D02*
X954385Y215955D01*
X954388Y215951D01*
X955494Y216144D01*
X955499Y216149D01*
X955499Y216150D01*
X955504Y216147D01*
X956539Y216580D01*
X956543Y216587D01*
X956548Y216585D01*
X957461Y217238D01*
X957463Y217246D01*
X957469Y217245D01*
X958213Y218084D01*
X958214Y218093D01*
X958219Y218093D01*
X958758Y219077D01*
X958757Y219085D01*
X958758Y219086D01*
X958762Y219087D01*
X958763Y219089D01*
X958945Y219730D01*
X959069Y220166D01*
X959067Y220171D01*
X959069Y220173D01*
X959067Y220175D01*
X959071Y220177D01*
X959129Y221297D01*
X959126Y221302D01*
X959129Y221306D01*
X959011Y222351D01*
X959005Y222357D01*
X959009Y222362D01*
X958661Y223356D01*
X958654Y223360D01*
X958656Y223365D01*
X958096Y224257D01*
X958089Y224260D01*
X958089Y224265D01*
X957345Y225009D01*
X957337Y225011D01*
X957337Y225016D01*
X956445Y225576D01*
X956437Y225576D01*
X956436Y225581D01*
X955442Y225929D01*
X955434Y225926D01*
X955431Y225931D01*
X954386Y226049D01*
X954382Y226047D01*
X954380Y226049D01*
X942380Y226049D01*
X942377Y226047D01*
X942374Y226047D01*
X942372Y226049D01*
X941376Y225891D01*
X941370Y225885D01*
X941365Y225888D01*
X940429Y225513D01*
X940425Y225506D01*
X940419Y225508D01*
X939590Y224934D01*
X939587Y224926D01*
X939582Y224927D01*
X938901Y224183D01*
X938900Y224174D01*
X938894Y224174D01*
X938396Y223297D01*
X938397Y223289D01*
X938392Y223286D01*
X938204Y222662D01*
X938101Y222321D01*
X938102Y222318D01*
X938101Y222317D01*
X938104Y222313D01*
X938099Y222310D01*
X938031Y221303D01*
X938032Y221301D01*
X938031Y221300D01*
X938040Y220219D01*
X938045Y220212D01*
X938041Y220208D01*
X938291Y219156D01*
X938297Y219151D01*
X938294Y219146D01*
X938771Y218176D01*
X938779Y218173D01*
X938777Y218167D01*
X939458Y217328D01*
X939466Y217326D01*
X939466Y217320D01*
X940317Y216654D01*
X940325Y216653D01*
X940326Y216648D01*
X941303Y216187D01*
X941311Y216189D01*
X941314Y216184D01*
X942369Y215952D01*
X942377Y215955D01*
X942380Y215951D01*
X954380Y215951D01*
X954385Y215955D01*
G37*
G36*
X909584Y693434D02*
X909584Y693434D01*
X909586Y693431D01*
X910719Y693581D01*
X910725Y693587D01*
X910730Y693584D01*
X911800Y693982D01*
X911804Y693989D01*
X911810Y693987D01*
X912765Y694614D01*
X912768Y694622D01*
X912773Y694621D01*
X913565Y695444D01*
X913566Y695452D01*
X913572Y695453D01*
X914161Y696432D01*
X914160Y696440D01*
X914165Y696442D01*
X914521Y697527D01*
X914519Y697535D01*
X914523Y697538D01*
X914629Y698675D01*
X914624Y698684D01*
X914628Y698689D01*
X914421Y699826D01*
X914415Y699832D01*
X914418Y699837D01*
X913963Y700899D01*
X913956Y700903D01*
X913958Y700909D01*
X913278Y701844D01*
X913270Y701846D01*
X913271Y701852D01*
X912400Y702612D01*
X912392Y702612D01*
X912391Y702618D01*
X911372Y703165D01*
X911364Y703164D01*
X911362Y703169D01*
X910248Y703476D01*
X910240Y703473D01*
X910237Y703478D01*
X909082Y703529D01*
X909081Y703528D01*
X909080Y703529D01*
X903080Y703529D01*
X903077Y703527D01*
X903072Y703527D01*
X903071Y703528D01*
X901990Y703316D01*
X901985Y703310D01*
X901980Y703313D01*
X900974Y702866D01*
X900970Y702859D01*
X900964Y702861D01*
X900083Y702201D01*
X900080Y702193D01*
X900075Y702193D01*
X899362Y701354D01*
X899362Y701346D01*
X899356Y701345D01*
X898848Y700368D01*
X898849Y700360D01*
X898844Y700358D01*
X898566Y699293D01*
X898569Y699285D01*
X898565Y699282D01*
X898531Y698182D01*
X898535Y698176D01*
X898531Y698173D01*
X898686Y697098D01*
X898692Y697092D01*
X898689Y697087D01*
X899079Y696073D01*
X899086Y696069D01*
X899085Y696063D01*
X899691Y695161D01*
X899699Y695159D01*
X899698Y695153D01*
X900490Y694409D01*
X900498Y694408D01*
X900498Y694402D01*
X901436Y693853D01*
X901444Y693854D01*
X901446Y693848D01*
X902482Y693521D01*
X902490Y693524D01*
X902493Y693519D01*
X903576Y693431D01*
X903579Y693433D01*
X903580Y693431D01*
X909580Y693431D01*
X909584Y693434D01*
G37*
G36*
X15504Y693434D02*
X15504Y693434D01*
X15506Y693431D01*
X16639Y693581D01*
X16645Y693587D01*
X16650Y693584D01*
X17720Y693982D01*
X17724Y693989D01*
X17730Y693987D01*
X18685Y694614D01*
X18688Y694622D01*
X18693Y694621D01*
X19485Y695444D01*
X19486Y695452D01*
X19492Y695453D01*
X20081Y696432D01*
X20080Y696440D01*
X20085Y696442D01*
X20441Y697527D01*
X20439Y697535D01*
X20443Y697538D01*
X20549Y698675D01*
X20544Y698684D01*
X20548Y698689D01*
X20341Y699826D01*
X20335Y699832D01*
X20338Y699837D01*
X19883Y700899D01*
X19876Y700903D01*
X19878Y700909D01*
X19198Y701844D01*
X19190Y701846D01*
X19191Y701852D01*
X18320Y702612D01*
X18312Y702612D01*
X18311Y702618D01*
X17292Y703165D01*
X17284Y703164D01*
X17282Y703169D01*
X16168Y703476D01*
X16160Y703473D01*
X16157Y703478D01*
X15002Y703529D01*
X15001Y703528D01*
X15000Y703529D01*
X9000Y703529D01*
X8997Y703527D01*
X8992Y703527D01*
X8991Y703528D01*
X7910Y703316D01*
X7905Y703310D01*
X7900Y703313D01*
X6894Y702866D01*
X6890Y702859D01*
X6884Y702861D01*
X6003Y702201D01*
X6000Y702193D01*
X5995Y702193D01*
X5282Y701354D01*
X5282Y701346D01*
X5276Y701345D01*
X4768Y700368D01*
X4769Y700360D01*
X4764Y700358D01*
X4486Y699293D01*
X4489Y699285D01*
X4485Y699282D01*
X4451Y698182D01*
X4455Y698176D01*
X4451Y698173D01*
X4606Y697098D01*
X4612Y697092D01*
X4609Y697087D01*
X4999Y696073D01*
X5006Y696069D01*
X5005Y696063D01*
X5611Y695161D01*
X5619Y695159D01*
X5618Y695153D01*
X6410Y694409D01*
X6418Y694408D01*
X6418Y694402D01*
X7356Y693853D01*
X7364Y693854D01*
X7366Y693848D01*
X8402Y693521D01*
X8410Y693524D01*
X8413Y693519D01*
X9496Y693431D01*
X9499Y693433D01*
X9500Y693431D01*
X15500Y693431D01*
X15504Y693434D01*
G37*
G36*
X15504Y129554D02*
X15504Y129554D01*
X15506Y129551D01*
X16639Y129701D01*
X16645Y129707D01*
X16650Y129704D01*
X17720Y130102D01*
X17724Y130109D01*
X17730Y130107D01*
X18685Y130734D01*
X18688Y130742D01*
X18693Y130741D01*
X19485Y131564D01*
X19486Y131572D01*
X19492Y131573D01*
X20081Y132552D01*
X20080Y132560D01*
X20085Y132562D01*
X20441Y133647D01*
X20439Y133655D01*
X20443Y133658D01*
X20549Y134795D01*
X20544Y134804D01*
X20548Y134809D01*
X20341Y135946D01*
X20335Y135952D01*
X20338Y135957D01*
X19883Y137019D01*
X19876Y137023D01*
X19878Y137029D01*
X19198Y137964D01*
X19190Y137966D01*
X19191Y137972D01*
X18320Y138732D01*
X18312Y138732D01*
X18311Y138738D01*
X17292Y139285D01*
X17284Y139284D01*
X17282Y139289D01*
X16168Y139596D01*
X16160Y139593D01*
X16157Y139598D01*
X15002Y139649D01*
X15001Y139648D01*
X15000Y139649D01*
X9000Y139649D01*
X8997Y139647D01*
X8992Y139647D01*
X8991Y139648D01*
X7910Y139436D01*
X7905Y139430D01*
X7900Y139433D01*
X6894Y138986D01*
X6890Y138979D01*
X6884Y138981D01*
X6003Y138321D01*
X6000Y138313D01*
X5995Y138313D01*
X5282Y137474D01*
X5282Y137466D01*
X5276Y137465D01*
X4768Y136488D01*
X4769Y136480D01*
X4764Y136478D01*
X4486Y135413D01*
X4489Y135405D01*
X4485Y135402D01*
X4451Y134302D01*
X4455Y134296D01*
X4451Y134293D01*
X4606Y133218D01*
X4612Y133212D01*
X4609Y133207D01*
X4999Y132193D01*
X5006Y132189D01*
X5005Y132183D01*
X5611Y131281D01*
X5619Y131279D01*
X5618Y131273D01*
X6410Y130529D01*
X6418Y130528D01*
X6418Y130522D01*
X7356Y129973D01*
X7364Y129974D01*
X7366Y129968D01*
X8402Y129641D01*
X8410Y129644D01*
X8413Y129639D01*
X9496Y129551D01*
X9499Y129553D01*
X9500Y129551D01*
X15500Y129551D01*
X15504Y129554D01*
G37*
G36*
X909584Y129554D02*
X909584Y129554D01*
X909586Y129551D01*
X910719Y129701D01*
X910725Y129707D01*
X910730Y129704D01*
X911800Y130102D01*
X911804Y130109D01*
X911810Y130107D01*
X912765Y130734D01*
X912768Y130742D01*
X912773Y130741D01*
X913565Y131564D01*
X913566Y131572D01*
X913572Y131573D01*
X914161Y132552D01*
X914160Y132560D01*
X914165Y132562D01*
X914521Y133647D01*
X914519Y133655D01*
X914523Y133658D01*
X914629Y134795D01*
X914624Y134804D01*
X914628Y134809D01*
X914421Y135946D01*
X914415Y135952D01*
X914418Y135957D01*
X913963Y137019D01*
X913956Y137023D01*
X913958Y137029D01*
X913278Y137964D01*
X913270Y137966D01*
X913271Y137972D01*
X912400Y138732D01*
X912392Y138732D01*
X912391Y138738D01*
X911372Y139285D01*
X911364Y139284D01*
X911362Y139289D01*
X910248Y139596D01*
X910240Y139593D01*
X910237Y139598D01*
X909082Y139649D01*
X909081Y139648D01*
X909080Y139649D01*
X903080Y139649D01*
X903077Y139647D01*
X903072Y139647D01*
X903071Y139648D01*
X901990Y139436D01*
X901985Y139430D01*
X901980Y139433D01*
X900974Y138986D01*
X900970Y138979D01*
X900964Y138981D01*
X900083Y138321D01*
X900080Y138313D01*
X900075Y138313D01*
X899362Y137474D01*
X899362Y137466D01*
X899356Y137465D01*
X898848Y136488D01*
X898849Y136480D01*
X898844Y136478D01*
X898566Y135413D01*
X898569Y135405D01*
X898565Y135402D01*
X898531Y134302D01*
X898535Y134296D01*
X898531Y134293D01*
X898686Y133218D01*
X898692Y133212D01*
X898689Y133207D01*
X899079Y132193D01*
X899086Y132189D01*
X899085Y132183D01*
X899691Y131281D01*
X899699Y131279D01*
X899698Y131273D01*
X900490Y130529D01*
X900498Y130528D01*
X900498Y130522D01*
X901436Y129973D01*
X901444Y129974D01*
X901446Y129968D01*
X902482Y129641D01*
X902490Y129644D01*
X902493Y129639D01*
X903576Y129551D01*
X903579Y129553D01*
X903580Y129551D01*
X909580Y129551D01*
X909584Y129554D01*
G37*
G36*
X15503Y779833D02*
X15503Y779833D01*
X15505Y779831D01*
X16597Y779932D01*
X16603Y779937D01*
X16608Y779934D01*
X17651Y780275D01*
X17656Y780282D01*
X17661Y780280D01*
X18602Y780844D01*
X18605Y780852D01*
X18611Y780851D01*
X19403Y781611D01*
X19404Y781619D01*
X19410Y781620D01*
X20013Y782537D01*
X20012Y782545D01*
X20018Y782547D01*
X20401Y783575D01*
X20399Y783583D01*
X20404Y783586D01*
X20549Y784674D01*
X20545Y784681D01*
X20549Y784685D01*
X20443Y785822D01*
X20438Y785828D01*
X20441Y785833D01*
X20085Y786918D01*
X20078Y786923D01*
X20081Y786928D01*
X19492Y787907D01*
X19484Y787910D01*
X19485Y787916D01*
X18693Y788739D01*
X18685Y788740D01*
X18685Y788746D01*
X17730Y789373D01*
X17722Y789372D01*
X17720Y789378D01*
X16650Y789776D01*
X16642Y789774D01*
X16639Y789779D01*
X15506Y789929D01*
X15503Y789927D01*
X15502Y789927D01*
X15500Y789929D01*
X9500Y789929D01*
X9497Y789927D01*
X9495Y789927D01*
X9494Y789929D01*
X8361Y789779D01*
X8355Y789773D01*
X8350Y789776D01*
X7280Y789378D01*
X7276Y789371D01*
X7270Y789373D01*
X6315Y788746D01*
X6312Y788738D01*
X6307Y788739D01*
X5515Y787916D01*
X5514Y787908D01*
X5508Y787907D01*
X4919Y786928D01*
X4920Y786920D01*
X4915Y786918D01*
X4559Y785833D01*
X4562Y785825D01*
X4557Y785822D01*
X4451Y784685D01*
X4455Y784678D01*
X4451Y784674D01*
X4596Y783586D01*
X4602Y783580D01*
X4599Y783575D01*
X4983Y782547D01*
X4989Y782542D01*
X4988Y782537D01*
X5590Y781620D01*
X5598Y781617D01*
X5597Y781611D01*
X6389Y780851D01*
X6397Y780850D01*
X6398Y780844D01*
X7339Y780280D01*
X7347Y780281D01*
X7349Y780275D01*
X8392Y779934D01*
X8400Y779936D01*
X8403Y779932D01*
X9496Y779831D01*
X9498Y779833D01*
X9500Y779831D01*
X15500Y779831D01*
X15503Y779833D01*
G37*
G36*
X909583Y779833D02*
X909583Y779833D01*
X909585Y779831D01*
X910677Y779932D01*
X910683Y779937D01*
X910688Y779934D01*
X911731Y780275D01*
X911736Y780282D01*
X911741Y780280D01*
X912682Y780844D01*
X912685Y780852D01*
X912691Y780851D01*
X913483Y781611D01*
X913484Y781619D01*
X913490Y781620D01*
X914093Y782537D01*
X914092Y782545D01*
X914098Y782547D01*
X914481Y783575D01*
X914479Y783583D01*
X914484Y783586D01*
X914629Y784674D01*
X914625Y784681D01*
X914629Y784685D01*
X914523Y785822D01*
X914518Y785828D01*
X914521Y785833D01*
X914165Y786918D01*
X914158Y786923D01*
X914161Y786928D01*
X913572Y787907D01*
X913564Y787910D01*
X913565Y787916D01*
X912773Y788739D01*
X912765Y788740D01*
X912765Y788746D01*
X911810Y789373D01*
X911802Y789372D01*
X911800Y789378D01*
X910730Y789776D01*
X910722Y789774D01*
X910719Y789779D01*
X909586Y789929D01*
X909583Y789927D01*
X909582Y789927D01*
X909580Y789929D01*
X903580Y789929D01*
X903577Y789927D01*
X903575Y789927D01*
X903574Y789929D01*
X902441Y789779D01*
X902435Y789773D01*
X902430Y789776D01*
X901360Y789378D01*
X901356Y789371D01*
X901350Y789373D01*
X900395Y788746D01*
X900392Y788738D01*
X900387Y788739D01*
X899595Y787916D01*
X899594Y787908D01*
X899588Y787907D01*
X898999Y786928D01*
X899000Y786920D01*
X898995Y786918D01*
X898639Y785833D01*
X898642Y785825D01*
X898637Y785822D01*
X898531Y784685D01*
X898535Y784678D01*
X898531Y784674D01*
X898676Y783586D01*
X898682Y783580D01*
X898679Y783575D01*
X899063Y782547D01*
X899069Y782542D01*
X899068Y782537D01*
X899670Y781620D01*
X899678Y781617D01*
X899677Y781611D01*
X900469Y780851D01*
X900477Y780850D01*
X900478Y780844D01*
X901419Y780280D01*
X901427Y780281D01*
X901429Y780275D01*
X902472Y779934D01*
X902480Y779936D01*
X902483Y779932D01*
X903576Y779831D01*
X903578Y779833D01*
X903580Y779831D01*
X909580Y779831D01*
X909583Y779833D01*
G37*
G36*
X909583Y215953D02*
X909583Y215953D01*
X909585Y215951D01*
X910677Y216052D01*
X910683Y216057D01*
X910688Y216054D01*
X911731Y216395D01*
X911736Y216402D01*
X911741Y216400D01*
X912682Y216964D01*
X912685Y216972D01*
X912691Y216971D01*
X913483Y217731D01*
X913484Y217739D01*
X913490Y217740D01*
X914093Y218657D01*
X914092Y218665D01*
X914098Y218667D01*
X914481Y219695D01*
X914479Y219703D01*
X914484Y219706D01*
X914629Y220794D01*
X914625Y220801D01*
X914629Y220805D01*
X914523Y221942D01*
X914518Y221948D01*
X914521Y221953D01*
X914165Y223038D01*
X914158Y223043D01*
X914161Y223048D01*
X913572Y224027D01*
X913564Y224030D01*
X913565Y224036D01*
X912773Y224859D01*
X912765Y224860D01*
X912765Y224866D01*
X911810Y225493D01*
X911802Y225492D01*
X911800Y225498D01*
X910730Y225896D01*
X910722Y225894D01*
X910719Y225899D01*
X909586Y226049D01*
X909583Y226047D01*
X909582Y226047D01*
X909580Y226049D01*
X903580Y226049D01*
X903577Y226047D01*
X903575Y226047D01*
X903574Y226049D01*
X902441Y225899D01*
X902435Y225893D01*
X902430Y225896D01*
X901360Y225498D01*
X901356Y225491D01*
X901350Y225493D01*
X900395Y224866D01*
X900392Y224858D01*
X900387Y224859D01*
X899595Y224036D01*
X899594Y224028D01*
X899588Y224027D01*
X898999Y223048D01*
X899000Y223040D01*
X898995Y223038D01*
X898639Y221953D01*
X898642Y221945D01*
X898637Y221942D01*
X898531Y220805D01*
X898535Y220798D01*
X898531Y220794D01*
X898676Y219706D01*
X898682Y219700D01*
X898679Y219695D01*
X899063Y218667D01*
X899069Y218662D01*
X899068Y218657D01*
X899670Y217740D01*
X899678Y217737D01*
X899677Y217731D01*
X900469Y216971D01*
X900477Y216970D01*
X900478Y216964D01*
X901419Y216400D01*
X901427Y216401D01*
X901429Y216395D01*
X902472Y216054D01*
X902480Y216056D01*
X902483Y216052D01*
X903576Y215951D01*
X903578Y215953D01*
X903580Y215951D01*
X909580Y215951D01*
X909583Y215953D01*
G37*
G36*
X15503Y215953D02*
X15503Y215953D01*
X15505Y215951D01*
X16597Y216052D01*
X16603Y216057D01*
X16608Y216054D01*
X17651Y216395D01*
X17656Y216402D01*
X17661Y216400D01*
X18602Y216964D01*
X18605Y216972D01*
X18611Y216971D01*
X19403Y217731D01*
X19404Y217739D01*
X19410Y217740D01*
X20013Y218657D01*
X20012Y218665D01*
X20018Y218667D01*
X20401Y219695D01*
X20399Y219703D01*
X20404Y219706D01*
X20549Y220794D01*
X20545Y220801D01*
X20549Y220805D01*
X20443Y221942D01*
X20438Y221948D01*
X20441Y221953D01*
X20085Y223038D01*
X20078Y223043D01*
X20081Y223048D01*
X19492Y224027D01*
X19484Y224030D01*
X19485Y224036D01*
X18693Y224859D01*
X18685Y224860D01*
X18685Y224866D01*
X17730Y225493D01*
X17722Y225492D01*
X17720Y225498D01*
X16650Y225896D01*
X16642Y225894D01*
X16639Y225899D01*
X15506Y226049D01*
X15503Y226047D01*
X15502Y226047D01*
X15500Y226049D01*
X9500Y226049D01*
X9497Y226047D01*
X9495Y226047D01*
X9494Y226049D01*
X8361Y225899D01*
X8355Y225893D01*
X8350Y225896D01*
X7280Y225498D01*
X7276Y225491D01*
X7270Y225493D01*
X6315Y224866D01*
X6312Y224858D01*
X6307Y224859D01*
X5515Y224036D01*
X5514Y224028D01*
X5508Y224027D01*
X4919Y223048D01*
X4920Y223040D01*
X4915Y223038D01*
X4559Y221953D01*
X4562Y221945D01*
X4557Y221942D01*
X4451Y220805D01*
X4455Y220798D01*
X4451Y220794D01*
X4596Y219706D01*
X4602Y219700D01*
X4599Y219695D01*
X4983Y218667D01*
X4989Y218662D01*
X4988Y218657D01*
X5590Y217740D01*
X5598Y217737D01*
X5597Y217731D01*
X6389Y216971D01*
X6397Y216970D01*
X6398Y216964D01*
X7339Y216400D01*
X7347Y216401D01*
X7349Y216395D01*
X8392Y216054D01*
X8400Y216056D01*
X8403Y216052D01*
X9496Y215951D01*
X9498Y215953D01*
X9500Y215951D01*
X15500Y215951D01*
X15503Y215953D01*
G37*
D10*
X60100Y170300D03*
X60100Y175300D03*
D11*
X60100Y145550D03*
X60100Y153300D03*
D10*
X60100Y160300D03*
X60100Y165300D03*
X60100Y185300D03*
X60100Y180300D03*
D11*
X60100Y210050D03*
X60100Y202300D03*
D10*
X60100Y195300D03*
X60100Y190300D03*
D12*
X76200Y211700D03*
X76200Y194700D03*
X76200Y143900D03*
X76200Y160900D03*
D13*
X109220Y177800D03*
D14*
X99470Y164050D03*
X105970Y164050D03*
X112470Y164050D03*
X118970Y164050D03*
X118970Y191550D03*
X112470Y191550D03*
X105970Y191550D03*
X99470Y191550D03*
D15*
X100720Y209804D03*
X117720Y209804D03*
D16*
X714460Y384460D03*
D17*
X633660Y388620D03*
X656660Y388620D03*
D15*
X653914Y405384D03*
X636914Y405384D03*
D17*
X633660Y372110D03*
X656660Y372110D03*
D18*
X152400Y19050D03*
X96520Y19050D03*
X152400Y57150D03*
X96520Y57150D03*
D15*
X100720Y225044D03*
X117720Y225044D03*
D19*
X58152Y248666D03*
X88152Y248666D03*
D20*
X136682Y251206D03*
X108682Y251206D03*
D12*
X157480Y209940D03*
X157480Y226940D03*
X142494Y227194D03*
X142494Y210194D03*
D18*
X231140Y19050D03*
X175260Y19050D03*
X231140Y57150D03*
X175260Y57150D03*
D15*
X138312Y185674D03*
X155312Y185674D03*
D17*
X135312Y168656D03*
X158312Y168656D03*
D12*
X147320Y140580D03*
X147320Y123580D03*
X162560Y140580D03*
X162560Y123580D03*
X177800Y140580D03*
X177800Y123580D03*
D21*
X310600Y175900D03*
X310600Y382900D03*
D22*
X378350Y369400D03*
X378350Y359400D03*
X378350Y354400D03*
X378350Y364400D03*
X378350Y349400D03*
X378350Y339400D03*
X378350Y334400D03*
X378350Y344400D03*
X378350Y329400D03*
X378350Y319400D03*
X378350Y314400D03*
X378350Y324400D03*
X378350Y309400D03*
X378350Y299400D03*
X378350Y294400D03*
X378350Y304400D03*
X378350Y289400D03*
X378350Y279400D03*
X378350Y274400D03*
X378350Y284400D03*
X378350Y269400D03*
X378350Y264400D03*
X378350Y239400D03*
X378350Y234400D03*
X378350Y229400D03*
X378350Y219400D03*
X378350Y214400D03*
X378350Y224400D03*
X378350Y209400D03*
X378350Y199400D03*
X378350Y194400D03*
X378350Y204400D03*
X378350Y189400D03*
X302850Y371900D03*
X302850Y361900D03*
X302850Y356900D03*
X302850Y366900D03*
X302850Y351900D03*
X302850Y341900D03*
X302850Y336900D03*
X302850Y346900D03*
X302850Y331900D03*
X302850Y321900D03*
X302850Y316900D03*
X302850Y326900D03*
X302850Y311900D03*
X302850Y301900D03*
X302850Y296900D03*
X302850Y306900D03*
X302850Y291900D03*
X302850Y281900D03*
X302850Y276900D03*
X302850Y286900D03*
X302850Y271900D03*
X302850Y266900D03*
X302850Y241900D03*
X302850Y236900D03*
X302850Y231900D03*
X302850Y221900D03*
X302850Y216900D03*
X302850Y226900D03*
X302850Y211900D03*
X302850Y201900D03*
X302850Y196900D03*
X302850Y206900D03*
X302850Y191900D03*
X302850Y186900D03*
D23*
X135620Y379062D03*
X135620Y404062D03*
X135620Y359062D03*
X135620Y334062D03*
D24*
X546300Y67400D03*
X546100Y34400D03*
X571700Y67400D03*
X571500Y34400D03*
X520800Y67400D03*
X520600Y34400D03*
X495500Y67400D03*
X495300Y34400D03*
X470100Y67400D03*
X469900Y34400D03*
X444600Y67400D03*
X444400Y34400D03*
X393900Y67400D03*
X393700Y34400D03*
X419300Y67400D03*
X419100Y34400D03*
X762200Y67400D03*
X762000Y34400D03*
X787600Y67400D03*
X787400Y34400D03*
X736700Y67400D03*
X736500Y34400D03*
X711400Y67400D03*
X711200Y34400D03*
X686000Y67400D03*
X685800Y34400D03*
X660500Y67400D03*
X660300Y34400D03*
X609800Y67400D03*
X609600Y34400D03*
X635200Y67400D03*
X635000Y34400D03*
D25*
X849550Y403800D03*
X849550Y459800D03*
D26*
X812800Y416800D03*
X812800Y426800D03*
X812800Y436800D03*
X812800Y446800D03*
D25*
X849550Y73600D03*
X849550Y129600D03*
D26*
X812800Y86600D03*
X812800Y96600D03*
X812800Y106600D03*
X812800Y116600D03*
D27*
X829300Y381000D03*
D28*
X796200Y355800D03*
X829200Y355600D03*
X796200Y381200D03*
X829200Y381000D03*
X796200Y330300D03*
X829200Y330100D03*
X796200Y305000D03*
X829200Y304800D03*
D27*
X829300Y355600D03*
D24*
X418900Y491400D03*
X419100Y524400D03*
X393500Y491400D03*
X393700Y524400D03*
X444400Y491400D03*
X444600Y524400D03*
X469700Y491400D03*
X469900Y524400D03*
X495100Y491400D03*
X495300Y524400D03*
X520600Y491400D03*
X520800Y524400D03*
X571300Y491400D03*
X571500Y524400D03*
X545900Y491400D03*
X546100Y524400D03*
X634800Y491400D03*
X635000Y524400D03*
X609400Y491400D03*
X609600Y524400D03*
X660300Y491400D03*
X660500Y524400D03*
X685600Y491400D03*
X685800Y524400D03*
X711000Y491400D03*
X711200Y524400D03*
X736500Y491400D03*
X736700Y524400D03*
X787200Y491400D03*
X787400Y524400D03*
X761800Y491400D03*
X762000Y524400D03*
D29*
X355600Y34300D03*
D24*
X330400Y67400D03*
X330200Y34400D03*
X355800Y67400D03*
X355600Y34400D03*
X304900Y67400D03*
X304700Y34400D03*
X279600Y67400D03*
X279400Y34400D03*
D29*
X330200Y34300D03*
X76200Y524500D03*
D24*
X101400Y491400D03*
X101600Y524400D03*
X76000Y491400D03*
X76200Y524400D03*
X126900Y491400D03*
X127100Y524400D03*
X152200Y491400D03*
X152400Y524400D03*
X177600Y491400D03*
X177800Y524400D03*
X203100Y491400D03*
X203300Y524400D03*
X253800Y491400D03*
X254000Y524400D03*
X228400Y491400D03*
X228600Y524400D03*
D29*
X101600Y524500D03*
D24*
X279200Y491400D03*
X279400Y524400D03*
X304700Y491400D03*
X304900Y524400D03*
X355400Y491400D03*
X355600Y524400D03*
X330000Y491400D03*
X330200Y524400D03*
D30*
X71310Y92400D02*
X71310Y85400D01*
X71310Y92400D02*
X78310Y92400D01*
X78310Y85400D01*
X71310Y85400D01*
X71310Y88250D02*
X78310Y88250D01*
X78310Y91100D02*
X71310Y91100D01*
X53770Y92400D02*
X53770Y85400D01*
X53770Y92400D02*
X60770Y92400D01*
X60770Y85400D01*
X53770Y85400D01*
X53770Y88250D02*
X60770Y88250D01*
X60770Y91100D02*
X53770Y91100D01*
X71310Y72080D02*
X71310Y65080D01*
X71310Y72080D02*
X78310Y72080D01*
X78310Y65080D01*
X71310Y65080D01*
X71310Y67930D02*
X78310Y67930D01*
X78310Y70780D02*
X71310Y70780D01*
X53770Y72080D02*
X53770Y65080D01*
X53770Y72080D02*
X60770Y72080D01*
X60770Y65080D01*
X53770Y65080D01*
X53770Y67930D02*
X60770Y67930D01*
X60770Y70780D02*
X53770Y70780D01*
D15*
X38980Y88900D03*
X21980Y88900D03*
X40250Y68580D03*
X23250Y68580D03*
D27*
X829300Y254000D03*
D28*
X796200Y228800D03*
X829200Y228600D03*
X796200Y254200D03*
X829200Y254000D03*
X796200Y203300D03*
X829200Y203100D03*
X796200Y178000D03*
X829200Y177800D03*
X796200Y152600D03*
X829200Y152400D03*
D27*
X829300Y228600D03*
D31*
X27178Y240030D03*
X27178Y280730D03*
D10*
X954180Y170300D03*
X954180Y175300D03*
D11*
X954180Y145550D03*
X954180Y153300D03*
D10*
X954180Y160300D03*
X954180Y165300D03*
X954180Y185300D03*
X954180Y180300D03*
D11*
X954180Y210050D03*
X954180Y202300D03*
D10*
X954180Y195300D03*
X954180Y190300D03*
D12*
X970280Y211700D03*
X970280Y194700D03*
X970280Y143900D03*
X970280Y160900D03*
D13*
X1003300Y177800D03*
D14*
X993550Y164050D03*
X1000050Y164050D03*
X1006550Y164050D03*
X1013050Y164050D03*
X1013050Y191550D03*
X1006550Y191550D03*
X1000050Y191550D03*
X993550Y191550D03*
D15*
X994800Y209804D03*
X1011800Y209804D03*
D16*
X1608540Y384460D03*
D17*
X1527740Y388620D03*
X1550740Y388620D03*
D15*
X1547994Y405384D03*
X1530994Y405384D03*
D17*
X1527740Y372110D03*
X1550740Y372110D03*
D18*
X1046480Y19050D03*
X990600Y19050D03*
X1046480Y57150D03*
X990600Y57150D03*
D15*
X994800Y225044D03*
X1011800Y225044D03*
D19*
X952232Y248666D03*
X982232Y248666D03*
D20*
X1030762Y251206D03*
X1002762Y251206D03*
D12*
X1051560Y209940D03*
X1051560Y226940D03*
X1036574Y227194D03*
X1036574Y210194D03*
D18*
X1125220Y19050D03*
X1069340Y19050D03*
X1125220Y57150D03*
X1069340Y57150D03*
D15*
X1032392Y185674D03*
X1049392Y185674D03*
D17*
X1029392Y168656D03*
X1052392Y168656D03*
D12*
X1041400Y140580D03*
X1041400Y123580D03*
X1056640Y140580D03*
X1056640Y123580D03*
X1071880Y140580D03*
X1071880Y123580D03*
D21*
X1204680Y175900D03*
X1204680Y382900D03*
D22*
X1272430Y369400D03*
X1272430Y359400D03*
X1272430Y354400D03*
X1272430Y364400D03*
X1272430Y349400D03*
X1272430Y339400D03*
X1272430Y334400D03*
X1272430Y344400D03*
X1272430Y329400D03*
X1272430Y319400D03*
X1272430Y314400D03*
X1272430Y324400D03*
X1272430Y309400D03*
X1272430Y299400D03*
X1272430Y294400D03*
X1272430Y304400D03*
X1272430Y289400D03*
X1272430Y279400D03*
X1272430Y274400D03*
X1272430Y284400D03*
X1272430Y269400D03*
X1272430Y264400D03*
X1272430Y239400D03*
X1272430Y234400D03*
X1272430Y229400D03*
X1272430Y219400D03*
X1272430Y214400D03*
X1272430Y224400D03*
X1272430Y209400D03*
X1272430Y199400D03*
X1272430Y194400D03*
X1272430Y204400D03*
X1272430Y189400D03*
X1196930Y371900D03*
X1196930Y361900D03*
X1196930Y356900D03*
X1196930Y366900D03*
X1196930Y351900D03*
X1196930Y341900D03*
X1196930Y336900D03*
X1196930Y346900D03*
X1196930Y331900D03*
X1196930Y321900D03*
X1196930Y316900D03*
X1196930Y326900D03*
X1196930Y311900D03*
X1196930Y301900D03*
X1196930Y296900D03*
X1196930Y306900D03*
X1196930Y291900D03*
X1196930Y281900D03*
X1196930Y276900D03*
X1196930Y286900D03*
X1196930Y271900D03*
X1196930Y266900D03*
X1196930Y241900D03*
X1196930Y236900D03*
X1196930Y231900D03*
X1196930Y221900D03*
X1196930Y216900D03*
X1196930Y226900D03*
X1196930Y211900D03*
X1196930Y201900D03*
X1196930Y196900D03*
X1196930Y206900D03*
X1196930Y191900D03*
X1196930Y186900D03*
D23*
X1029700Y379062D03*
X1029700Y404062D03*
X1029700Y359062D03*
X1029700Y334062D03*
D24*
X1440380Y67400D03*
X1440180Y34400D03*
X1465780Y67400D03*
X1465580Y34400D03*
X1414880Y67400D03*
X1414680Y34400D03*
X1389580Y67400D03*
X1389380Y34400D03*
X1364180Y67400D03*
X1363980Y34400D03*
X1338680Y67400D03*
X1338480Y34400D03*
X1287980Y67400D03*
X1287780Y34400D03*
X1313380Y67400D03*
X1313180Y34400D03*
X1656280Y67400D03*
X1656080Y34400D03*
X1681680Y67400D03*
X1681480Y34400D03*
X1630780Y67400D03*
X1630580Y34400D03*
X1605480Y67400D03*
X1605280Y34400D03*
X1580080Y67400D03*
X1579880Y34400D03*
X1554580Y67400D03*
X1554380Y34400D03*
X1503880Y67400D03*
X1503680Y34400D03*
X1529280Y67400D03*
X1529080Y34400D03*
D25*
X1743630Y403800D03*
X1743630Y459800D03*
D26*
X1706880Y416800D03*
X1706880Y426800D03*
X1706880Y436800D03*
X1706880Y446800D03*
D25*
X1743630Y73600D03*
X1743630Y129600D03*
D26*
X1706880Y86600D03*
X1706880Y96600D03*
X1706880Y106600D03*
X1706880Y116600D03*
D27*
X1723380Y381000D03*
D28*
X1690280Y355800D03*
X1723280Y355600D03*
X1690280Y381200D03*
X1723280Y381000D03*
X1690280Y330300D03*
X1723280Y330100D03*
X1690280Y305000D03*
X1723280Y304800D03*
D27*
X1723380Y355600D03*
D24*
X1312980Y491400D03*
X1313180Y524400D03*
X1287580Y491400D03*
X1287780Y524400D03*
X1338480Y491400D03*
X1338680Y524400D03*
X1363780Y491400D03*
X1363980Y524400D03*
X1389180Y491400D03*
X1389380Y524400D03*
X1414680Y491400D03*
X1414880Y524400D03*
X1465380Y491400D03*
X1465580Y524400D03*
X1439980Y491400D03*
X1440180Y524400D03*
X1528880Y491400D03*
X1529080Y524400D03*
X1503480Y491400D03*
X1503680Y524400D03*
X1554380Y491400D03*
X1554580Y524400D03*
X1579680Y491400D03*
X1579880Y524400D03*
X1605080Y491400D03*
X1605280Y524400D03*
X1630580Y491400D03*
X1630780Y524400D03*
X1681280Y491400D03*
X1681480Y524400D03*
X1655880Y491400D03*
X1656080Y524400D03*
D29*
X1249680Y34300D03*
D24*
X1224480Y67400D03*
X1224280Y34400D03*
X1249880Y67400D03*
X1249680Y34400D03*
X1198980Y67400D03*
X1198780Y34400D03*
X1173680Y67400D03*
X1173480Y34400D03*
D29*
X1224280Y34300D03*
X970280Y524500D03*
D24*
X995480Y491400D03*
X995680Y524400D03*
X970080Y491400D03*
X970280Y524400D03*
X1020980Y491400D03*
X1021180Y524400D03*
X1046280Y491400D03*
X1046480Y524400D03*
X1071680Y491400D03*
X1071880Y524400D03*
X1097180Y491400D03*
X1097380Y524400D03*
X1147880Y491400D03*
X1148080Y524400D03*
X1122480Y491400D03*
X1122680Y524400D03*
D29*
X995680Y524500D03*
D24*
X1173280Y491400D03*
X1173480Y524400D03*
X1198780Y491400D03*
X1198980Y524400D03*
X1249480Y491400D03*
X1249680Y524400D03*
X1224080Y491400D03*
X1224280Y524400D03*
D30*
X965390Y92400D02*
X965390Y85400D01*
X965390Y92400D02*
X972390Y92400D01*
X972390Y85400D01*
X965390Y85400D01*
X965390Y88250D02*
X972390Y88250D01*
X972390Y91100D02*
X965390Y91100D01*
X947850Y92400D02*
X947850Y85400D01*
X947850Y92400D02*
X954850Y92400D01*
X954850Y85400D01*
X947850Y85400D01*
X947850Y88250D02*
X954850Y88250D01*
X954850Y91100D02*
X947850Y91100D01*
X965390Y72080D02*
X965390Y65080D01*
X965390Y72080D02*
X972390Y72080D01*
X972390Y65080D01*
X965390Y65080D01*
X965390Y67930D02*
X972390Y67930D01*
X972390Y70780D02*
X965390Y70780D01*
X947850Y72080D02*
X947850Y65080D01*
X947850Y72080D02*
X954850Y72080D01*
X954850Y65080D01*
X947850Y65080D01*
X947850Y67930D02*
X954850Y67930D01*
X954850Y70780D02*
X947850Y70780D01*
D15*
X933060Y88900D03*
X916060Y88900D03*
X934330Y68580D03*
X917330Y68580D03*
D27*
X1723380Y254000D03*
D28*
X1690280Y228800D03*
X1723280Y228600D03*
X1690280Y254200D03*
X1723280Y254000D03*
X1690280Y203300D03*
X1723280Y203100D03*
X1690280Y178000D03*
X1723280Y177800D03*
X1690280Y152600D03*
X1723280Y152400D03*
D27*
X1723380Y228600D03*
D31*
X921258Y240030D03*
X921258Y280730D03*
D10*
X60100Y734180D03*
X60100Y739180D03*
D11*
X60100Y709430D03*
X60100Y717180D03*
D10*
X60100Y724180D03*
X60100Y729180D03*
X60100Y749180D03*
X60100Y744180D03*
D11*
X60100Y773930D03*
X60100Y766180D03*
D10*
X60100Y759180D03*
X60100Y754180D03*
D12*
X76200Y775580D03*
X76200Y758580D03*
X76200Y707780D03*
X76200Y724780D03*
D13*
X109220Y741680D03*
D14*
X99470Y727930D03*
X105970Y727930D03*
X112470Y727930D03*
X118970Y727930D03*
X118970Y755430D03*
X112470Y755430D03*
X105970Y755430D03*
X99470Y755430D03*
D15*
X100720Y773684D03*
X117720Y773684D03*
D16*
X714460Y948340D03*
D17*
X633660Y952500D03*
X656660Y952500D03*
D15*
X653914Y969264D03*
X636914Y969264D03*
D17*
X633660Y935990D03*
X656660Y935990D03*
D18*
X152400Y582930D03*
X96520Y582930D03*
X152400Y621030D03*
X96520Y621030D03*
D15*
X100720Y788924D03*
X117720Y788924D03*
D19*
X58152Y812546D03*
X88152Y812546D03*
D20*
X136682Y815086D03*
X108682Y815086D03*
D12*
X157480Y773820D03*
X157480Y790820D03*
X142494Y791074D03*
X142494Y774074D03*
D18*
X231140Y582930D03*
X175260Y582930D03*
X231140Y621030D03*
X175260Y621030D03*
D15*
X138312Y749554D03*
X155312Y749554D03*
D17*
X135312Y732536D03*
X158312Y732536D03*
D12*
X147320Y704460D03*
X147320Y687460D03*
X162560Y704460D03*
X162560Y687460D03*
X177800Y704460D03*
X177800Y687460D03*
D21*
X310600Y739780D03*
X310600Y946780D03*
D22*
X378350Y933280D03*
X378350Y923280D03*
X378350Y918280D03*
X378350Y928280D03*
X378350Y913280D03*
X378350Y903280D03*
X378350Y898280D03*
X378350Y908280D03*
X378350Y893280D03*
X378350Y883280D03*
X378350Y878280D03*
X378350Y888280D03*
X378350Y873280D03*
X378350Y863280D03*
X378350Y858280D03*
X378350Y868280D03*
X378350Y853280D03*
X378350Y843280D03*
X378350Y838280D03*
X378350Y848280D03*
X378350Y833280D03*
X378350Y828280D03*
X378350Y803280D03*
X378350Y798280D03*
X378350Y793280D03*
X378350Y783280D03*
X378350Y778280D03*
X378350Y788280D03*
X378350Y773280D03*
X378350Y763280D03*
X378350Y758280D03*
X378350Y768280D03*
X378350Y753280D03*
X302850Y935780D03*
X302850Y925780D03*
X302850Y920780D03*
X302850Y930780D03*
X302850Y915780D03*
X302850Y905780D03*
X302850Y900780D03*
X302850Y910780D03*
X302850Y895780D03*
X302850Y885780D03*
X302850Y880780D03*
X302850Y890780D03*
X302850Y875780D03*
X302850Y865780D03*
X302850Y860780D03*
X302850Y870780D03*
X302850Y855780D03*
X302850Y845780D03*
X302850Y840780D03*
X302850Y850780D03*
X302850Y835780D03*
X302850Y830780D03*
X302850Y805780D03*
X302850Y800780D03*
X302850Y795780D03*
X302850Y785780D03*
X302850Y780780D03*
X302850Y790780D03*
X302850Y775780D03*
X302850Y765780D03*
X302850Y760780D03*
X302850Y770780D03*
X302850Y755780D03*
X302850Y750780D03*
D23*
X135620Y942942D03*
X135620Y967942D03*
X135620Y922942D03*
X135620Y897942D03*
D24*
X546300Y631280D03*
X546100Y598280D03*
X571700Y631280D03*
X571500Y598280D03*
X520800Y631280D03*
X520600Y598280D03*
X495500Y631280D03*
X495300Y598280D03*
X470100Y631280D03*
X469900Y598280D03*
X444600Y631280D03*
X444400Y598280D03*
X393900Y631280D03*
X393700Y598280D03*
X419300Y631280D03*
X419100Y598280D03*
X762200Y631280D03*
X762000Y598280D03*
X787600Y631280D03*
X787400Y598280D03*
X736700Y631280D03*
X736500Y598280D03*
X711400Y631280D03*
X711200Y598280D03*
X686000Y631280D03*
X685800Y598280D03*
X660500Y631280D03*
X660300Y598280D03*
X609800Y631280D03*
X609600Y598280D03*
X635200Y631280D03*
X635000Y598280D03*
D25*
X849550Y967680D03*
X849550Y1023680D03*
D26*
X812800Y980680D03*
X812800Y990680D03*
X812800Y1000680D03*
X812800Y1010680D03*
D25*
X849550Y637480D03*
X849550Y693480D03*
D26*
X812800Y650480D03*
X812800Y660480D03*
X812800Y670480D03*
X812800Y680480D03*
D27*
X829300Y944880D03*
D28*
X796200Y919680D03*
X829200Y919480D03*
X796200Y945080D03*
X829200Y944880D03*
X796200Y894180D03*
X829200Y893980D03*
X796200Y868880D03*
X829200Y868680D03*
D27*
X829300Y919480D03*
D24*
X418900Y1055280D03*
X419100Y1088280D03*
X393500Y1055280D03*
X393700Y1088280D03*
X444400Y1055280D03*
X444600Y1088280D03*
X469700Y1055280D03*
X469900Y1088280D03*
X495100Y1055280D03*
X495300Y1088280D03*
X520600Y1055280D03*
X520800Y1088280D03*
X571300Y1055280D03*
X571500Y1088280D03*
X545900Y1055280D03*
X546100Y1088280D03*
X634800Y1055280D03*
X635000Y1088280D03*
X609400Y1055280D03*
X609600Y1088280D03*
X660300Y1055280D03*
X660500Y1088280D03*
X685600Y1055280D03*
X685800Y1088280D03*
X711000Y1055280D03*
X711200Y1088280D03*
X736500Y1055280D03*
X736700Y1088280D03*
X787200Y1055280D03*
X787400Y1088280D03*
X761800Y1055280D03*
X762000Y1088280D03*
D29*
X355600Y598180D03*
D24*
X330400Y631280D03*
X330200Y598280D03*
X355800Y631280D03*
X355600Y598280D03*
X304900Y631280D03*
X304700Y598280D03*
X279600Y631280D03*
X279400Y598280D03*
D29*
X330200Y598180D03*
X76200Y1088380D03*
D24*
X101400Y1055280D03*
X101600Y1088280D03*
X76000Y1055280D03*
X76200Y1088280D03*
X126900Y1055280D03*
X127100Y1088280D03*
X152200Y1055280D03*
X152400Y1088280D03*
X177600Y1055280D03*
X177800Y1088280D03*
X203100Y1055280D03*
X203300Y1088280D03*
X253800Y1055280D03*
X254000Y1088280D03*
X228400Y1055280D03*
X228600Y1088280D03*
D29*
X101600Y1088380D03*
D24*
X279200Y1055280D03*
X279400Y1088280D03*
X304700Y1055280D03*
X304900Y1088280D03*
X355400Y1055280D03*
X355600Y1088280D03*
X330000Y1055280D03*
X330200Y1088280D03*
D30*
X71310Y656280D02*
X71310Y649280D01*
X71310Y656280D02*
X78310Y656280D01*
X78310Y649280D01*
X71310Y649280D01*
X71310Y652130D02*
X78310Y652130D01*
X78310Y654980D02*
X71310Y654980D01*
X53770Y656280D02*
X53770Y649280D01*
X53770Y656280D02*
X60770Y656280D01*
X60770Y649280D01*
X53770Y649280D01*
X53770Y652130D02*
X60770Y652130D01*
X60770Y654980D02*
X53770Y654980D01*
X71310Y635960D02*
X71310Y628960D01*
X71310Y635960D02*
X78310Y635960D01*
X78310Y628960D01*
X71310Y628960D01*
X71310Y631810D02*
X78310Y631810D01*
X78310Y634660D02*
X71310Y634660D01*
X53770Y635960D02*
X53770Y628960D01*
X53770Y635960D02*
X60770Y635960D01*
X60770Y628960D01*
X53770Y628960D01*
X53770Y631810D02*
X60770Y631810D01*
X60770Y634660D02*
X53770Y634660D01*
D15*
X38980Y652780D03*
X21980Y652780D03*
X40250Y632460D03*
X23250Y632460D03*
D27*
X829300Y817880D03*
D28*
X796200Y792680D03*
X829200Y792480D03*
X796200Y818080D03*
X829200Y817880D03*
X796200Y767180D03*
X829200Y766980D03*
X796200Y741880D03*
X829200Y741680D03*
X796200Y716480D03*
X829200Y716280D03*
D27*
X829300Y792480D03*
D31*
X27178Y803910D03*
X27178Y844610D03*
D10*
X954180Y734180D03*
X954180Y739180D03*
D11*
X954180Y709430D03*
X954180Y717180D03*
D10*
X954180Y724180D03*
X954180Y729180D03*
X954180Y749180D03*
X954180Y744180D03*
D11*
X954180Y773930D03*
X954180Y766180D03*
D10*
X954180Y759180D03*
X954180Y754180D03*
D12*
X970280Y775580D03*
X970280Y758580D03*
X970280Y707780D03*
X970280Y724780D03*
D13*
X1003300Y741680D03*
D14*
X993550Y727930D03*
X1000050Y727930D03*
X1006550Y727930D03*
X1013050Y727930D03*
X1013050Y755430D03*
X1006550Y755430D03*
X1000050Y755430D03*
X993550Y755430D03*
D15*
X994800Y773684D03*
X1011800Y773684D03*
D16*
X1608540Y948340D03*
D17*
X1527740Y952500D03*
X1550740Y952500D03*
D15*
X1547994Y969264D03*
X1530994Y969264D03*
D17*
X1527740Y935990D03*
X1550740Y935990D03*
D18*
X1046480Y582930D03*
X990600Y582930D03*
X1046480Y621030D03*
X990600Y621030D03*
D15*
X994800Y788924D03*
X1011800Y788924D03*
D19*
X952232Y812546D03*
X982232Y812546D03*
D20*
X1030762Y815086D03*
X1002762Y815086D03*
D12*
X1051560Y773820D03*
X1051560Y790820D03*
X1036574Y791074D03*
X1036574Y774074D03*
D18*
X1125220Y582930D03*
X1069340Y582930D03*
X1125220Y621030D03*
X1069340Y621030D03*
D15*
X1032392Y749554D03*
X1049392Y749554D03*
D17*
X1029392Y732536D03*
X1052392Y732536D03*
D12*
X1041400Y704460D03*
X1041400Y687460D03*
X1056640Y704460D03*
X1056640Y687460D03*
X1071880Y704460D03*
X1071880Y687460D03*
D21*
X1204680Y739780D03*
X1204680Y946780D03*
D22*
X1272430Y933280D03*
X1272430Y923280D03*
X1272430Y918280D03*
X1272430Y928280D03*
X1272430Y913280D03*
X1272430Y903280D03*
X1272430Y898280D03*
X1272430Y908280D03*
X1272430Y893280D03*
X1272430Y883280D03*
X1272430Y878280D03*
X1272430Y888280D03*
X1272430Y873280D03*
X1272430Y863280D03*
X1272430Y858280D03*
X1272430Y868280D03*
X1272430Y853280D03*
X1272430Y843280D03*
X1272430Y838280D03*
X1272430Y848280D03*
X1272430Y833280D03*
X1272430Y828280D03*
X1272430Y803280D03*
X1272430Y798280D03*
X1272430Y793280D03*
X1272430Y783280D03*
X1272430Y778280D03*
X1272430Y788280D03*
X1272430Y773280D03*
X1272430Y763280D03*
X1272430Y758280D03*
X1272430Y768280D03*
X1272430Y753280D03*
X1196930Y935780D03*
X1196930Y925780D03*
X1196930Y920780D03*
X1196930Y930780D03*
X1196930Y915780D03*
X1196930Y905780D03*
X1196930Y900780D03*
X1196930Y910780D03*
X1196930Y895780D03*
X1196930Y885780D03*
X1196930Y880780D03*
X1196930Y890780D03*
X1196930Y875780D03*
X1196930Y865780D03*
X1196930Y860780D03*
X1196930Y870780D03*
X1196930Y855780D03*
X1196930Y845780D03*
X1196930Y840780D03*
X1196930Y850780D03*
X1196930Y835780D03*
X1196930Y830780D03*
X1196930Y805780D03*
X1196930Y800780D03*
X1196930Y795780D03*
X1196930Y785780D03*
X1196930Y780780D03*
X1196930Y790780D03*
X1196930Y775780D03*
X1196930Y765780D03*
X1196930Y760780D03*
X1196930Y770780D03*
X1196930Y755780D03*
X1196930Y750780D03*
D23*
X1029700Y942942D03*
X1029700Y967942D03*
X1029700Y922942D03*
X1029700Y897942D03*
D24*
X1440380Y631280D03*
X1440180Y598280D03*
X1465780Y631280D03*
X1465580Y598280D03*
X1414880Y631280D03*
X1414680Y598280D03*
X1389580Y631280D03*
X1389380Y598280D03*
X1364180Y631280D03*
X1363980Y598280D03*
X1338680Y631280D03*
X1338480Y598280D03*
X1287980Y631280D03*
X1287780Y598280D03*
X1313380Y631280D03*
X1313180Y598280D03*
X1656280Y631280D03*
X1656080Y598280D03*
X1681680Y631280D03*
X1681480Y598280D03*
X1630780Y631280D03*
X1630580Y598280D03*
X1605480Y631280D03*
X1605280Y598280D03*
X1580080Y631280D03*
X1579880Y598280D03*
X1554580Y631280D03*
X1554380Y598280D03*
X1503880Y631280D03*
X1503680Y598280D03*
X1529280Y631280D03*
X1529080Y598280D03*
D25*
X1743630Y967680D03*
X1743630Y1023680D03*
D26*
X1706880Y980680D03*
X1706880Y990680D03*
X1706880Y1000680D03*
X1706880Y1010680D03*
D25*
X1743630Y637480D03*
X1743630Y693480D03*
D26*
X1706880Y650480D03*
X1706880Y660480D03*
X1706880Y670480D03*
X1706880Y680480D03*
D27*
X1723380Y944880D03*
D28*
X1690280Y919680D03*
X1723280Y919480D03*
X1690280Y945080D03*
X1723280Y944880D03*
X1690280Y894180D03*
X1723280Y893980D03*
X1690280Y868880D03*
X1723280Y868680D03*
D27*
X1723380Y919480D03*
D24*
X1312980Y1055280D03*
X1313180Y1088280D03*
X1287580Y1055280D03*
X1287780Y1088280D03*
X1338480Y1055280D03*
X1338680Y1088280D03*
X1363780Y1055280D03*
X1363980Y1088280D03*
X1389180Y1055280D03*
X1389380Y1088280D03*
X1414680Y1055280D03*
X1414880Y1088280D03*
X1465380Y1055280D03*
X1465580Y1088280D03*
X1439980Y1055280D03*
X1440180Y1088280D03*
X1528880Y1055280D03*
X1529080Y1088280D03*
X1503480Y1055280D03*
X1503680Y1088280D03*
X1554380Y1055280D03*
X1554580Y1088280D03*
X1579680Y1055280D03*
X1579880Y1088280D03*
X1605080Y1055280D03*
X1605280Y1088280D03*
X1630580Y1055280D03*
X1630780Y1088280D03*
X1681280Y1055280D03*
X1681480Y1088280D03*
X1655880Y1055280D03*
X1656080Y1088280D03*
D29*
X1249680Y598180D03*
D24*
X1224480Y631280D03*
X1224280Y598280D03*
X1249880Y631280D03*
X1249680Y598280D03*
X1198980Y631280D03*
X1198780Y598280D03*
X1173680Y631280D03*
X1173480Y598280D03*
D29*
X1224280Y598180D03*
X970280Y1088380D03*
D24*
X995480Y1055280D03*
X995680Y1088280D03*
X970080Y1055280D03*
X970280Y1088280D03*
X1020980Y1055280D03*
X1021180Y1088280D03*
X1046280Y1055280D03*
X1046480Y1088280D03*
X1071680Y1055280D03*
X1071880Y1088280D03*
X1097180Y1055280D03*
X1097380Y1088280D03*
X1147880Y1055280D03*
X1148080Y1088280D03*
X1122480Y1055280D03*
X1122680Y1088280D03*
D29*
X995680Y1088380D03*
D24*
X1173280Y1055280D03*
X1173480Y1088280D03*
X1198780Y1055280D03*
X1198980Y1088280D03*
X1249480Y1055280D03*
X1249680Y1088280D03*
X1224080Y1055280D03*
X1224280Y1088280D03*
D30*
X965390Y656280D02*
X965390Y649280D01*
X965390Y656280D02*
X972390Y656280D01*
X972390Y649280D01*
X965390Y649280D01*
X965390Y652130D02*
X972390Y652130D01*
X972390Y654980D02*
X965390Y654980D01*
X947850Y656280D02*
X947850Y649280D01*
X947850Y656280D02*
X954850Y656280D01*
X954850Y649280D01*
X947850Y649280D01*
X947850Y652130D02*
X954850Y652130D01*
X954850Y654980D02*
X947850Y654980D01*
X965390Y635960D02*
X965390Y628960D01*
X965390Y635960D02*
X972390Y635960D01*
X972390Y628960D01*
X965390Y628960D01*
X965390Y631810D02*
X972390Y631810D01*
X972390Y634660D02*
X965390Y634660D01*
X947850Y635960D02*
X947850Y628960D01*
X947850Y635960D02*
X954850Y635960D01*
X954850Y628960D01*
X947850Y628960D01*
X947850Y631810D02*
X954850Y631810D01*
X954850Y634660D02*
X947850Y634660D01*
D15*
X933060Y652780D03*
X916060Y652780D03*
X934330Y632460D03*
X917330Y632460D03*
D27*
X1723380Y817880D03*
D28*
X1690280Y792680D03*
X1723280Y792480D03*
X1690280Y818080D03*
X1723280Y817880D03*
X1690280Y767180D03*
X1723280Y766980D03*
X1690280Y741880D03*
X1723280Y741680D03*
X1690280Y716480D03*
X1723280Y716280D03*
D27*
X1723380Y792480D03*
D31*
X921258Y803910D03*
X921258Y844610D03*
M02*
