M48
;GenerationSoftware,Autodesk,EAGLE,9.5.2*%
;CreationDate,2020-07-30T20:32:54Z*%
FMAT,2
ICI,OFF
METRIC,TZ,000.000
T11C0.305
T10C0.350
T9C0.400
T8C0.508
T7C0.650
T6C1.016
T5C1.100
T4C1.600
T3C2.311
T2C3.302
T1C3.800
%
G90
M71
T1
X55550Y23927
X55550Y193091
X55550Y80315
X55550Y136703
T2
X63500Y33020
X63500Y135636
X63500Y145796
X2540Y166116
X83820Y222504
X2540Y222504
X83820Y171704
X2540Y171704
X2540Y2540
X2540Y53340
X63500Y192024
X63500Y202184
X83820Y115316
X83820Y2540
X2540Y115316
X83820Y53340
X63500Y22860
X83820Y109728
X2540Y109728
X83820Y58928
X2540Y58928
X63500Y79248
X63500Y89408
X83820Y166116
T3
X9350Y99860
X9350Y86728
X9350Y212636
X9350Y199504
X9350Y30340
X9350Y156248
X9350Y43472
X9350Y143116
T4
X35560Y94328
X35560Y37940
X35560Y207104
X35560Y150716
T5
X35560Y187104
X35560Y74328
X35560Y17940
X35560Y130716
T6
X63500Y1270
X71120Y170434
X68580Y170434
X66040Y170434
X63500Y170434
X60960Y170434
X7635Y223774
X10175Y223774
X12715Y223774
X15255Y167386
X15255Y223774
X27940Y170434
X30480Y170434
X33020Y170434
X35560Y170434
X16891Y209042
X16891Y206502
X16891Y203962
X16891Y201422
X35560Y223774
X33020Y223774
X30480Y223774
X27940Y223774
X10160Y70358
X25400Y223774
X22860Y223774
X20320Y223774
X17780Y223774
X85090Y194564
X10160Y13970
X12700Y13970
X85090Y192024
X85090Y189484
X85090Y186944
X85090Y184404
X39370Y223774
X41910Y223774
X44450Y223774
X46990Y223774
X49530Y223774
X52070Y223774
X85090Y38100
X85090Y35560
X85090Y33020
X85090Y30480
X57150Y1270
X54610Y1270
X52070Y1270
X49530Y1270
X46990Y1270
X44450Y1270
X41910Y1270
X39370Y1270
X78740Y1270
X76200Y1270
X73660Y1270
X71120Y1270
X68580Y1270
X66040Y1270
X54610Y223774
X60960Y1270
X7635Y54610
X10175Y54610
X12715Y54610
X15255Y54610
X27940Y1270
X30480Y1270
X33020Y1270
X35560Y1270
X16891Y39878
X16891Y37338
X16891Y34798
X16891Y32258
X35560Y54610
X33020Y54610
X30480Y54610
X27940Y54610
X25400Y54610
X22860Y54610
X20320Y54610
X17780Y54610
X85090Y25400
X85090Y22860
X85090Y20320
X85090Y17780
X85090Y15240
X39370Y54610
X41910Y54610
X44450Y54610
X46990Y54610
X49530Y54610
X52070Y54610
X54610Y54610
X57150Y54610
X60960Y54610
X63500Y54610
X66040Y54610
X68580Y54610
X71120Y54610
X73660Y54610
X76200Y54610
X78740Y54610
X57150Y223774
X60960Y223774
X63500Y223774
X66040Y223774
X12700Y70358
X68580Y223774
X71120Y223774
X73660Y223774
X76200Y223774
X78740Y223774
X85090Y94488
X85090Y91948
X85090Y89408
X85090Y86868
X57150Y57658
X54610Y57658
X52070Y57658
X49530Y57658
X46990Y57658
X44450Y57658
X41910Y57658
X39370Y57658
X78740Y57658
X76200Y57658
X73660Y57658
X71120Y57658
X68580Y57658
X66040Y57658
X63500Y57658
X60960Y57658
X7635Y110998
X10175Y110998
X12715Y110998
X15255Y110998
X27940Y57658
X30480Y57658
X33020Y57658
X35560Y57658
X16891Y96266
X16891Y93726
X16891Y91186
X16891Y88646
X76200Y170434
X33020Y110998
X30480Y110998
X27940Y110998
X25400Y110998
X22860Y110998
X20320Y110998
X17780Y110998
X85090Y81788
X85090Y79248
X85090Y76708
X85090Y74168
X85090Y71628
X39370Y110998
X41910Y110998
X44450Y110998
X46990Y110998
X49530Y110998
X52070Y110998
X54610Y110998
X57150Y110998
X60960Y110998
X63500Y110998
X66040Y110998
X68580Y110998
X71120Y110998
X73660Y110998
X76200Y110998
X78740Y110998
X10160Y126746
X12700Y126746
X35560Y110998
X85090Y150876
X85090Y148336
X85090Y145796
X85090Y143256
X57150Y114046
X54610Y114046
X52070Y114046
X49530Y114046
X46990Y114046
X44450Y114046
X41910Y114046
X39370Y114046
X78740Y114046
X76200Y114046
X73660Y114046
X71120Y114046
X68580Y114046
X66040Y114046
X63500Y114046
X60960Y114046
X7635Y167386
X10175Y167386
X12715Y167386
X27940Y114046
X30480Y114046
X33020Y114046
X35560Y114046
X16891Y152654
X16891Y150114
X16891Y147574
X16891Y145034
X35560Y167386
X33020Y167386
X30480Y167386
X27940Y167386
X25400Y167386
X22860Y167386
X20320Y167386
X17780Y167386
X85090Y138176
X85090Y135636
X85090Y133096
X85090Y130556
X85090Y128016
X39370Y167386
X41910Y167386
X44450Y167386
X46990Y167386
X49530Y167386
X52070Y167386
X54610Y167386
X57150Y167386
X60960Y167386
X63500Y167386
X66040Y167386
X68580Y167386
X71120Y167386
X73660Y167386
X76200Y167386
X78740Y167386
X10160Y183134
X12700Y183134
X85090Y207264
X85090Y204724
X85090Y202184
X85090Y199644
X57150Y170434
X54610Y170434
X52070Y170434
X49530Y170434
X46990Y170434
X44450Y170434
X41910Y170434
X39370Y170434
X78740Y170434
X73660Y170434
T7
X4905Y127666
X4905Y20670
X4905Y14890
X4905Y77058
X4905Y71278
X4905Y133446
X4905Y189834
X4905Y184054
T8
X19888Y198222
X19888Y193142
X19888Y82906
X19888Y81636
X19888Y85446
X21158Y138024
X21158Y139294
X21158Y140564
X21158Y141834
X19888Y84176
X21158Y136754
X19888Y138024
X19888Y139294
X19888Y140564
X19888Y141834
X19888Y136754
X19888Y80366
X21158Y194412
X21158Y195682
X21158Y25248
X21158Y26518
X21158Y27788
X21158Y29058
X21158Y23978
X19888Y25248
X19888Y26518
X19888Y27788
X19888Y29058
X19888Y23978
X21158Y196952
X21158Y198222
X21158Y193142
X19888Y194412
X21158Y81636
X21158Y82906
X21158Y84176
X21158Y85446
X21158Y80366
X19888Y195682
X19888Y196952
T9
X1255Y22098
X1255Y13462
X5435Y13462
X5435Y22098
X1255Y78486
X1255Y69850
X5435Y182626
X5435Y191262
X1255Y126238
X5435Y78486
X5435Y126238
X5435Y134874
X5435Y69850
X1255Y134874
X1255Y191262
X1255Y182626
T10
X58420Y36830
X77826Y122941
X78740Y121412
X58420Y149606
X80010Y123444
X77826Y10165
X78740Y8636
X77826Y66553
X78740Y65024
X80010Y179832
X77826Y179329
X78740Y177800
X58420Y205994
X58420Y93218
X80010Y67056
X80010Y10668
T11
X41402Y125476
X40386Y137414
X40386Y129032
X44196Y124435
X44450Y121006
X44602Y133731
X44501Y135992
X41859Y138024
X41910Y129540
X54610Y124206
X54610Y121822
X42367Y137173
X42418Y129032
X57150Y124714
X57150Y121822
X68580Y123952
X68580Y121920
X43891Y138709
X43840Y129794
X66040Y125945
X66040Y121920
X42799Y137998
X42926Y129540
X60960Y125222
X60960Y121920
X73660Y123444
X73660Y121920
X43291Y137557
X43434Y129032
X63500Y125730
X63449Y121920
X28480Y142977
X45514Y152606
X27870Y142653
X44958Y153111
X32004Y144526
X48387Y149149
X32512Y144018
X47924Y148641
X77724Y150368
X77724Y151384
X71120Y123524
X71120Y121920
X39878Y127000
X44450Y127000
X25654Y137922
X44983Y155524
X26162Y137160
X44958Y154835
X21336Y131064
X36551Y132766
X27635Y131013
X8636Y121666
X8636Y119634
X35567Y132835
X27051Y131509
X7620Y182245
X11811Y184531
X10922Y186944
X12192Y186944
X9652Y186944
X17501Y185471
X14859Y180340
X16129Y180340
X17399Y180340
X17069Y190297
X13005Y190906
X15478Y194310
X7620Y191643
X40157Y196571
X31648Y198755
X31623Y188722
X28677Y189332
X29032Y206350
X36220Y196469
X33096Y206350
X70561Y205842
X73228Y185776
X66116Y185776
X59766Y185776
X54686Y185776
X49606Y185522
X45034Y185522
X47066Y183744
X52146Y183744
X36652Y183490
X36652Y185522
X29286Y185522
X31826Y183490
X27762Y183490
X20574Y182118
X20650Y185522
X63500Y12954
X79807Y180924
X75997Y194666
X75997Y198476
X75997Y190094
X75743Y182728
X75743Y207874
X75743Y210668
X76759Y212954
X79299Y213970
X37135Y215240
X40691Y215240
X23952Y206350
X31648Y195453
X28854Y195453
X78105Y196088
X78105Y198374
X66548Y206248
X39370Y188087
X39370Y206248
X18796Y183134
X18796Y191237
X7620Y13081
X80010Y212852
X7112Y187576
X17755Y188722
X4953Y186944
X17729Y187985
X11811Y15367
X10922Y17780
X26670Y194056
X45847Y210893
X27178Y193548
X45209Y210182
X40005Y205613
X49296Y205486
X12192Y17780
X26568Y186563
X26670Y189854
X2032Y188468
X3556Y189763
X22860Y201168
X23927Y202235
X25883Y186588
X25908Y190362
X40945Y194177
X40945Y185928
X41148Y181102
X40234Y177190
X41453Y193751
X41402Y185420
X41910Y177419
X41402Y181864
X40386Y193802
X40386Y185420
X44196Y180823
X44450Y177394
X44602Y190119
X44501Y192380
X41859Y194412
X41910Y185928
X54610Y180594
X54610Y178210
X42367Y193561
X42418Y185420
X57150Y181102
X57150Y178210
X68580Y180340
X68580Y178308
X43891Y195097
X43840Y186182
X66040Y182333
X66040Y178308
X42799Y194386
X42926Y185928
X60960Y181610
X60960Y178308
X73660Y179832
X73660Y178308
X43291Y193945
X43434Y185420
X63500Y182118
X63449Y178308
X28480Y199365
X45514Y208994
X27870Y199041
X44958Y209499
X32004Y200914
X48387Y205537
X32512Y200406
X47924Y205029
X77724Y206756
X77724Y207772
X71120Y179912
X71120Y178308
X39878Y183388
X44450Y183388
X25654Y194310
X44983Y211912
X26162Y193548
X44958Y211223
X21336Y187452
X36551Y189154
X27635Y187401
X8636Y178054
X8636Y176022
X35567Y189223
X27051Y187897
X9652Y17780
X17501Y16307
X14859Y11176
X16129Y11176
X17399Y11176
X17069Y21133
X13005Y21742
X15478Y25146
X7620Y22479
X82677Y180848
X40157Y27407
X31648Y29591
X31623Y19558
X28677Y20168
X29032Y37186
X36220Y27305
X33096Y37186
X70561Y36678
X73228Y16612
X66116Y16612
X59766Y16612
X54686Y16612
X49606Y16358
X45034Y16358
X47066Y14580
X52146Y14580
X36652Y14326
X36652Y16358
X29286Y16358
X31826Y14326
X27762Y14326
X20574Y12954
X20650Y16358
X82677Y11684
X79807Y11760
X75997Y25502
X75997Y29312
X75997Y20930
X75743Y13564
X75743Y38710
X75743Y41504
X76759Y43790
X79299Y44806
X37135Y46076
X40691Y46076
X23952Y37186
X31648Y26289
X28854Y26289
X78105Y26924
X78105Y29210
X66548Y37084
X39370Y18923
X39370Y37084
X18796Y13970
X18796Y22073
X80010Y43688
X7112Y18412
X17755Y19558
X4953Y17780
X17729Y18821
X26670Y24892
X45847Y41729
X27178Y24384
X45209Y41018
X40005Y36449
X49296Y36322
X26568Y17399
X26670Y20690
X2032Y19304
X3556Y20599
X22860Y32004
X23927Y33071
X25883Y17424
X25908Y21198
X40945Y25013
X40945Y16764
X41148Y11938
X40234Y8026
X41453Y24587
X41402Y16256
X41910Y8255
X41402Y12700
X40386Y24638
X40386Y16256
X44196Y11659
X44450Y8230
X44602Y20955
X44501Y23216
X41859Y25248
X41910Y16764
X54610Y11430
X54610Y9046
X42367Y24397
X42418Y16256
X57150Y11938
X57150Y9046
X68580Y11176
X68580Y9144
X43891Y25933
X43840Y17018
X66040Y13169
X66040Y9144
X42799Y25222
X42926Y16764
X60960Y12446
X60960Y9144
X73660Y10668
X73660Y9144
X43291Y24781
X43434Y16256
X63449Y9144
X28480Y30201
X45514Y39830
X27870Y29877
X44958Y40335
X32004Y31750
X48387Y36373
X32512Y31242
X47924Y35865
X77724Y37592
X77724Y38608
X71120Y10748
X71120Y9144
X39878Y14224
X44450Y14224
X25654Y25146
X44983Y42748
X26162Y24384
X44958Y42059
X21336Y18288
X36551Y19990
X27635Y18237
X8636Y8890
X8636Y6858
X35567Y20059
X27051Y18733
X7620Y69469
X11811Y71755
X10922Y74168
X12192Y74168
X9652Y74168
X17501Y72695
X14859Y67564
X16129Y67564
X17399Y67564
X17069Y77521
X13005Y78130
X15478Y81534
X7620Y78867
X40157Y83795
X31648Y85979
X31623Y75946
X28677Y76556
X29032Y93574
X36220Y83693
X33096Y93574
X70561Y93066
X73228Y73000
X66116Y73000
X59766Y73000
X54686Y73000
X49606Y72746
X45034Y72746
X47066Y70968
X52146Y70968
X36652Y70714
X36652Y72746
X29286Y72746
X31826Y70714
X27762Y70714
X20574Y69342
X20650Y72746
X82677Y68072
X79807Y68148
X75997Y81890
X75997Y85700
X75997Y77318
X75743Y69952
X75743Y95098
X75743Y97892
X76759Y100178
X79299Y101194
X37135Y102464
X40691Y102464
X23952Y93574
X31648Y82677
X28854Y82677
X78105Y83312
X78105Y85598
X66548Y93472
X39370Y75311
X39370Y93472
X18796Y70358
X18796Y78461
X80010Y100076
X7112Y74800
X17755Y75946
X4953Y74168
X17729Y75209
X26670Y81280
X45847Y98117
X27178Y80772
X45209Y97406
X40005Y92837
X49296Y92710
X26568Y73787
X26670Y77078
X2032Y75692
X3556Y76987
X22860Y88392
X23927Y89459
X25883Y73812
X25908Y77586
X40945Y81401
X40945Y73152
X41148Y68326
X40234Y64414
X41453Y80975
X41402Y72644
X41910Y64643
X41402Y69088
X40386Y81026
X40386Y72644
X44196Y68047
X44450Y64618
X44602Y77343
X44501Y79604
X41859Y81636
X41910Y73152
X54610Y67818
X54610Y65434
X42367Y80785
X42418Y72644
X57150Y68326
X57150Y65434
X68580Y67564
X68580Y65532
X43891Y82321
X43840Y73406
X66040Y69557
X66040Y65532
X42799Y81610
X17729Y131597
X42926Y73152
X60960Y68834
X60960Y65532
X73660Y67056
X73660Y65532
X43291Y81169
X43434Y72644
X63500Y69342
X63449Y65532
X28480Y86589
X45514Y96218
X27870Y86265
X44958Y96723
X32004Y88138
X48387Y92761
X32512Y87630
X47924Y92253
X77724Y93980
X77724Y94996
X71120Y67136
X71120Y65532
X39878Y70612
X44450Y70612
X25654Y81534
X44983Y99136
X26162Y80772
X44958Y98447
X21336Y74676
X36551Y76378
X27635Y74625
X8636Y65278
X8636Y63246
X35567Y76447
X27051Y75121
X7620Y125857
X11811Y128143
X10922Y130556
X12192Y130556
X9652Y130556
X17501Y129083
X14859Y123952
X16129Y123952
X17399Y123952
X17069Y133909
X13005Y134518
X15478Y137922
X7620Y135255
X40157Y140183
X31648Y142367
X31623Y132334
X28677Y132944
X29032Y149962
X36220Y140081
X33096Y149962
X70561Y149454
X73228Y129388
X66116Y129388
X59766Y129388
X54686Y129388
X49606Y129134
X45034Y129134
X47066Y127356
X52146Y127356
X36652Y127102
X36652Y129134
X29286Y129134
X31826Y127102
X27762Y127102
X20574Y125730
X20650Y129134
X82677Y124460
X79807Y124536
X75997Y138278
X75997Y142088
X75997Y133706
X75743Y126340
X75743Y151486
X75743Y154280
X76759Y156566
X79299Y157582
X37135Y158852
X40691Y158852
X23952Y149962
X31648Y139065
X28854Y139065
X78105Y139700
X78105Y141986
X66548Y149860
X39370Y131699
X39370Y149860
X18796Y126746
X18796Y134849
X80010Y156464
X7112Y131188
X17755Y132334
X4953Y130556
X26670Y137668
X45847Y154505
X27178Y137160
X45209Y153794
X40005Y149225
X49296Y149098
X26568Y130175
X26670Y133466
X2032Y132080
X3556Y133375
X22860Y144780
X23927Y145847
X25883Y130200
X25908Y133974
X40945Y137789
X40945Y129540
X41148Y124714
X40234Y120802
X41453Y137363
X41402Y129032
X41910Y121031
M30