G04 EAGLE Gerber RS-274X export*
G75*
%MOMM*%
%FSLAX34Y34*%
%LPD*%
%INSoldermask Top*%
%IPPOS*%
%AMOC8*
5,1,8,0,0,1.08239X$1,22.5*%
G01*
%ADD10R,1.203200X0.503200*%
%ADD11R,1.203200X0.803200*%
%ADD12C,0.853200*%
%ADD13R,1.203200X1.303200*%
%ADD14R,0.503200X0.853200*%
%ADD15R,2.553200X1.803200*%
%ADD16R,1.303200X1.203200*%
%ADD17C,0.838200*%
%ADD18C,3.505200*%
%ADD19R,1.700000X4.200000*%
%ADD20R,0.833200X1.033200*%
%ADD21R,1.727200X0.965200*%
%ADD22R,0.838200X1.473200*%
%ADD23R,1.203200X3.003200*%
%ADD24R,1.603200X1.803200*%
%ADD25C,2.082800*%
%ADD26C,1.203200*%
%ADD27C,6.203200*%
%ADD28C,1.303200*%
%ADD29C,1.803200*%
%ADD30R,1.753200X0.503200*%
%ADD31R,2.953200X1.403200*%
%ADD32C,3.530600*%
%ADD33R,3.203200X1.103200*%
%ADD34R,1.200000X2.200000*%
%ADD35R,2.203200X1.403200*%
%ADD36R,1.553200X0.803200*%
%ADD37R,2.200000X1.200000*%
%ADD38C,0.505344*%
%ADD39C,1.270000*%
%ADD40C,1.703200*%

G36*
X669166Y2072657D02*
X669166Y2072657D01*
X669193Y2072653D01*
X669234Y2072671D01*
X669276Y2072680D01*
X669312Y2072706D01*
X669321Y2072710D01*
X669325Y2072715D01*
X669336Y2072724D01*
X693336Y2096724D01*
X693357Y2096762D01*
X693386Y2096795D01*
X693390Y2096822D01*
X693403Y2096846D01*
X693400Y2096890D01*
X693407Y2096933D01*
X693396Y2096959D01*
X693394Y2096986D01*
X693368Y2097021D01*
X693350Y2097061D01*
X693327Y2097076D01*
X693311Y2097098D01*
X693270Y2097114D01*
X693234Y2097138D01*
X693190Y2097145D01*
X693181Y2097148D01*
X693174Y2097147D01*
X693160Y2097149D01*
X669160Y2097149D01*
X669144Y2097144D01*
X669127Y2097147D01*
X669077Y2097125D01*
X669026Y2097110D01*
X669015Y2097097D01*
X668999Y2097090D01*
X668969Y2097045D01*
X668934Y2097005D01*
X668931Y2096988D01*
X668922Y2096974D01*
X668911Y2096900D01*
X668911Y2072900D01*
X668923Y2072858D01*
X668926Y2072814D01*
X668942Y2072792D01*
X668950Y2072766D01*
X668983Y2072737D01*
X669009Y2072702D01*
X669035Y2072692D01*
X669055Y2072674D01*
X669099Y2072667D01*
X669139Y2072652D01*
X669166Y2072657D01*
G37*
G36*
X669166Y1508777D02*
X669166Y1508777D01*
X669193Y1508773D01*
X669234Y1508791D01*
X669276Y1508800D01*
X669312Y1508826D01*
X669321Y1508830D01*
X669325Y1508835D01*
X669336Y1508844D01*
X693336Y1532844D01*
X693357Y1532882D01*
X693386Y1532915D01*
X693390Y1532942D01*
X693403Y1532966D01*
X693400Y1533010D01*
X693407Y1533053D01*
X693396Y1533079D01*
X693394Y1533106D01*
X693368Y1533141D01*
X693350Y1533181D01*
X693327Y1533196D01*
X693311Y1533218D01*
X693270Y1533234D01*
X693234Y1533258D01*
X693190Y1533265D01*
X693181Y1533268D01*
X693174Y1533267D01*
X693160Y1533269D01*
X669160Y1533269D01*
X669144Y1533264D01*
X669127Y1533267D01*
X669077Y1533245D01*
X669026Y1533230D01*
X669015Y1533217D01*
X668999Y1533210D01*
X668969Y1533165D01*
X668934Y1533125D01*
X668931Y1533108D01*
X668922Y1533094D01*
X668911Y1533020D01*
X668911Y1509020D01*
X668923Y1508978D01*
X668926Y1508934D01*
X668942Y1508912D01*
X668950Y1508886D01*
X668983Y1508857D01*
X669009Y1508822D01*
X669035Y1508812D01*
X669055Y1508794D01*
X669099Y1508787D01*
X669139Y1508772D01*
X669166Y1508777D01*
G37*
G36*
X669166Y944897D02*
X669166Y944897D01*
X669193Y944893D01*
X669234Y944911D01*
X669276Y944920D01*
X669312Y944946D01*
X669321Y944950D01*
X669325Y944955D01*
X669336Y944964D01*
X693336Y968964D01*
X693357Y969002D01*
X693386Y969035D01*
X693390Y969062D01*
X693403Y969086D01*
X693400Y969130D01*
X693407Y969173D01*
X693396Y969199D01*
X693394Y969226D01*
X693368Y969261D01*
X693350Y969301D01*
X693327Y969316D01*
X693311Y969338D01*
X693270Y969354D01*
X693234Y969378D01*
X693190Y969385D01*
X693181Y969388D01*
X693174Y969387D01*
X693160Y969389D01*
X669160Y969389D01*
X669144Y969384D01*
X669127Y969387D01*
X669077Y969365D01*
X669026Y969350D01*
X669015Y969337D01*
X668999Y969330D01*
X668969Y969285D01*
X668934Y969245D01*
X668931Y969228D01*
X668922Y969214D01*
X668911Y969140D01*
X668911Y945140D01*
X668923Y945098D01*
X668926Y945054D01*
X668942Y945032D01*
X668950Y945006D01*
X668983Y944977D01*
X669009Y944942D01*
X669035Y944932D01*
X669055Y944914D01*
X669099Y944907D01*
X669139Y944892D01*
X669166Y944897D01*
G37*
G36*
X669166Y381017D02*
X669166Y381017D01*
X669193Y381013D01*
X669234Y381031D01*
X669276Y381040D01*
X669312Y381066D01*
X669321Y381070D01*
X669325Y381075D01*
X669336Y381084D01*
X693336Y405084D01*
X693357Y405122D01*
X693386Y405155D01*
X693390Y405182D01*
X693403Y405206D01*
X693400Y405250D01*
X693407Y405293D01*
X693396Y405319D01*
X693394Y405346D01*
X693368Y405381D01*
X693350Y405421D01*
X693327Y405436D01*
X693311Y405458D01*
X693270Y405474D01*
X693234Y405498D01*
X693190Y405505D01*
X693181Y405508D01*
X693174Y405507D01*
X693160Y405509D01*
X669160Y405509D01*
X669144Y405504D01*
X669127Y405507D01*
X669077Y405485D01*
X669026Y405470D01*
X669015Y405457D01*
X668999Y405450D01*
X668969Y405405D01*
X668934Y405365D01*
X668931Y405348D01*
X668922Y405334D01*
X668911Y405260D01*
X668911Y381260D01*
X668923Y381218D01*
X668926Y381174D01*
X668942Y381152D01*
X668950Y381126D01*
X668983Y381097D01*
X669009Y381062D01*
X669035Y381052D01*
X669055Y381034D01*
X669099Y381027D01*
X669139Y381012D01*
X669166Y381017D01*
G37*
G36*
X60304Y128554D02*
X60304Y128554D01*
X60307Y128551D01*
X61429Y128706D01*
X61434Y128711D01*
X61438Y128708D01*
X62509Y129079D01*
X62513Y129085D01*
X62518Y129083D01*
X63495Y129656D01*
X63498Y129662D01*
X63503Y129661D01*
X64350Y130414D01*
X64352Y130421D01*
X64357Y130421D01*
X65041Y131324D01*
X65041Y131331D01*
X65046Y131332D01*
X65541Y132351D01*
X65539Y132358D01*
X65544Y132360D01*
X65831Y133457D01*
X65829Y133461D01*
X65831Y133462D01*
X65829Y133464D01*
X65832Y133466D01*
X65899Y134597D01*
X65897Y134601D01*
X65899Y134603D01*
X65832Y135734D01*
X65827Y135739D01*
X65831Y135743D01*
X65544Y136840D01*
X65538Y136844D01*
X65541Y136849D01*
X65046Y137868D01*
X65040Y137871D01*
X65041Y137876D01*
X64357Y138779D01*
X64350Y138781D01*
X64350Y138786D01*
X63503Y139539D01*
X63496Y139539D01*
X63495Y139544D01*
X62518Y140117D01*
X62511Y140116D01*
X62509Y140121D01*
X61438Y140492D01*
X61432Y140489D01*
X61429Y140494D01*
X60307Y140649D01*
X60302Y140646D01*
X60300Y140649D01*
X48300Y140649D01*
X48295Y140646D01*
X48292Y140649D01*
X47025Y140444D01*
X47019Y140438D01*
X47015Y140441D01*
X45825Y139959D01*
X45821Y139952D01*
X45815Y139954D01*
X44762Y139220D01*
X44760Y139212D01*
X44754Y139213D01*
X43891Y138263D01*
X43890Y138254D01*
X43885Y138254D01*
X43255Y137135D01*
X43256Y137127D01*
X43250Y137125D01*
X42885Y135895D01*
X42888Y135887D01*
X42883Y135884D01*
X42801Y134603D01*
X42804Y134599D01*
X42801Y134597D01*
X42883Y133316D01*
X42889Y133310D01*
X42885Y133305D01*
X43250Y132075D01*
X43257Y132070D01*
X43255Y132065D01*
X43885Y130946D01*
X43892Y130943D01*
X43891Y130937D01*
X44754Y129987D01*
X44762Y129986D01*
X44762Y129980D01*
X45815Y129246D01*
X45823Y129246D01*
X45825Y129241D01*
X47015Y128759D01*
X47022Y128761D01*
X47025Y128756D01*
X48292Y128551D01*
X48297Y128554D01*
X48300Y128551D01*
X60300Y128551D01*
X60304Y128554D01*
G37*
G36*
X60304Y1906594D02*
X60304Y1906594D01*
X60307Y1906591D01*
X61429Y1906746D01*
X61434Y1906751D01*
X61438Y1906748D01*
X62509Y1907119D01*
X62513Y1907125D01*
X62518Y1907123D01*
X63495Y1907696D01*
X63498Y1907702D01*
X63503Y1907701D01*
X64350Y1908454D01*
X64352Y1908461D01*
X64357Y1908461D01*
X65041Y1909364D01*
X65041Y1909371D01*
X65046Y1909372D01*
X65541Y1910391D01*
X65539Y1910398D01*
X65544Y1910400D01*
X65831Y1911497D01*
X65829Y1911501D01*
X65831Y1911502D01*
X65829Y1911504D01*
X65832Y1911506D01*
X65899Y1912637D01*
X65897Y1912641D01*
X65899Y1912643D01*
X65832Y1913774D01*
X65827Y1913779D01*
X65831Y1913783D01*
X65544Y1914880D01*
X65538Y1914884D01*
X65541Y1914889D01*
X65046Y1915908D01*
X65040Y1915911D01*
X65041Y1915916D01*
X64357Y1916819D01*
X64350Y1916821D01*
X64350Y1916826D01*
X63503Y1917579D01*
X63496Y1917579D01*
X63495Y1917584D01*
X62518Y1918157D01*
X62511Y1918156D01*
X62509Y1918161D01*
X61438Y1918532D01*
X61432Y1918529D01*
X61429Y1918534D01*
X60307Y1918689D01*
X60302Y1918686D01*
X60300Y1918689D01*
X48300Y1918689D01*
X48295Y1918686D01*
X48292Y1918689D01*
X47025Y1918484D01*
X47019Y1918478D01*
X47015Y1918481D01*
X45825Y1917999D01*
X45821Y1917992D01*
X45815Y1917994D01*
X44762Y1917260D01*
X44760Y1917252D01*
X44754Y1917253D01*
X43891Y1916303D01*
X43890Y1916294D01*
X43885Y1916294D01*
X43255Y1915175D01*
X43256Y1915167D01*
X43250Y1915165D01*
X42885Y1913935D01*
X42888Y1913927D01*
X42883Y1913924D01*
X42801Y1912643D01*
X42804Y1912639D01*
X42801Y1912637D01*
X42883Y1911356D01*
X42889Y1911350D01*
X42885Y1911345D01*
X43250Y1910115D01*
X43257Y1910110D01*
X43255Y1910105D01*
X43885Y1908986D01*
X43892Y1908983D01*
X43891Y1908977D01*
X44754Y1908027D01*
X44762Y1908026D01*
X44762Y1908020D01*
X45815Y1907286D01*
X45823Y1907286D01*
X45825Y1907281D01*
X47015Y1906799D01*
X47022Y1906801D01*
X47025Y1906796D01*
X48292Y1906591D01*
X48297Y1906594D01*
X48300Y1906591D01*
X60300Y1906591D01*
X60304Y1906594D01*
G37*
G36*
X60304Y1820194D02*
X60304Y1820194D01*
X60307Y1820191D01*
X61429Y1820346D01*
X61434Y1820351D01*
X61438Y1820348D01*
X62509Y1820719D01*
X62513Y1820725D01*
X62518Y1820723D01*
X63495Y1821296D01*
X63498Y1821302D01*
X63503Y1821301D01*
X64350Y1822054D01*
X64352Y1822061D01*
X64357Y1822061D01*
X65041Y1822964D01*
X65041Y1822971D01*
X65046Y1822972D01*
X65541Y1823991D01*
X65539Y1823998D01*
X65544Y1824000D01*
X65831Y1825097D01*
X65829Y1825101D01*
X65831Y1825102D01*
X65829Y1825104D01*
X65832Y1825106D01*
X65899Y1826237D01*
X65897Y1826241D01*
X65899Y1826243D01*
X65832Y1827374D01*
X65827Y1827379D01*
X65831Y1827383D01*
X65544Y1828480D01*
X65538Y1828484D01*
X65541Y1828489D01*
X65046Y1829508D01*
X65040Y1829511D01*
X65041Y1829516D01*
X64357Y1830419D01*
X64350Y1830421D01*
X64350Y1830426D01*
X63503Y1831179D01*
X63496Y1831179D01*
X63495Y1831184D01*
X62518Y1831757D01*
X62511Y1831756D01*
X62509Y1831761D01*
X61438Y1832132D01*
X61432Y1832129D01*
X61429Y1832134D01*
X60307Y1832289D01*
X60302Y1832286D01*
X60300Y1832289D01*
X48300Y1832289D01*
X48295Y1832286D01*
X48292Y1832289D01*
X47025Y1832084D01*
X47019Y1832078D01*
X47015Y1832081D01*
X45825Y1831599D01*
X45821Y1831592D01*
X45815Y1831594D01*
X44762Y1830860D01*
X44760Y1830852D01*
X44754Y1830853D01*
X43891Y1829903D01*
X43890Y1829894D01*
X43885Y1829894D01*
X43255Y1828775D01*
X43256Y1828767D01*
X43250Y1828765D01*
X42885Y1827535D01*
X42888Y1827527D01*
X42883Y1827524D01*
X42801Y1826243D01*
X42804Y1826239D01*
X42801Y1826237D01*
X42883Y1824956D01*
X42889Y1824950D01*
X42885Y1824945D01*
X43250Y1823715D01*
X43257Y1823710D01*
X43255Y1823705D01*
X43885Y1822586D01*
X43892Y1822583D01*
X43891Y1822577D01*
X44754Y1821627D01*
X44762Y1821626D01*
X44762Y1821620D01*
X45815Y1820886D01*
X45823Y1820886D01*
X45825Y1820881D01*
X47015Y1820399D01*
X47022Y1820401D01*
X47025Y1820396D01*
X48292Y1820191D01*
X48297Y1820194D01*
X48300Y1820191D01*
X60300Y1820191D01*
X60304Y1820194D01*
G37*
G36*
X60304Y1342714D02*
X60304Y1342714D01*
X60307Y1342711D01*
X61429Y1342866D01*
X61434Y1342871D01*
X61438Y1342868D01*
X62509Y1343239D01*
X62513Y1343245D01*
X62518Y1343243D01*
X63495Y1343816D01*
X63498Y1343822D01*
X63503Y1343821D01*
X64350Y1344574D01*
X64352Y1344581D01*
X64357Y1344581D01*
X65041Y1345484D01*
X65041Y1345491D01*
X65046Y1345492D01*
X65541Y1346511D01*
X65539Y1346518D01*
X65544Y1346520D01*
X65831Y1347617D01*
X65829Y1347621D01*
X65831Y1347622D01*
X65829Y1347624D01*
X65832Y1347626D01*
X65899Y1348757D01*
X65897Y1348761D01*
X65899Y1348763D01*
X65832Y1349894D01*
X65827Y1349899D01*
X65831Y1349903D01*
X65544Y1351000D01*
X65538Y1351004D01*
X65541Y1351009D01*
X65046Y1352028D01*
X65040Y1352031D01*
X65041Y1352036D01*
X64357Y1352939D01*
X64350Y1352941D01*
X64350Y1352946D01*
X63503Y1353699D01*
X63496Y1353699D01*
X63495Y1353704D01*
X62518Y1354277D01*
X62511Y1354276D01*
X62509Y1354281D01*
X61438Y1354652D01*
X61432Y1354649D01*
X61429Y1354654D01*
X60307Y1354809D01*
X60302Y1354806D01*
X60300Y1354809D01*
X48300Y1354809D01*
X48295Y1354806D01*
X48292Y1354809D01*
X47025Y1354604D01*
X47019Y1354598D01*
X47015Y1354601D01*
X45825Y1354119D01*
X45821Y1354112D01*
X45815Y1354114D01*
X44762Y1353380D01*
X44760Y1353372D01*
X44754Y1353373D01*
X43891Y1352423D01*
X43890Y1352414D01*
X43885Y1352414D01*
X43255Y1351295D01*
X43256Y1351287D01*
X43250Y1351285D01*
X42885Y1350055D01*
X42888Y1350047D01*
X42883Y1350044D01*
X42801Y1348763D01*
X42804Y1348759D01*
X42801Y1348757D01*
X42883Y1347476D01*
X42889Y1347470D01*
X42885Y1347465D01*
X43250Y1346235D01*
X43257Y1346230D01*
X43255Y1346225D01*
X43885Y1345106D01*
X43892Y1345103D01*
X43891Y1345097D01*
X44754Y1344147D01*
X44762Y1344146D01*
X44762Y1344140D01*
X45815Y1343406D01*
X45823Y1343406D01*
X45825Y1343401D01*
X47015Y1342919D01*
X47022Y1342921D01*
X47025Y1342916D01*
X48292Y1342711D01*
X48297Y1342714D01*
X48300Y1342711D01*
X60300Y1342711D01*
X60304Y1342714D01*
G37*
G36*
X60304Y1256314D02*
X60304Y1256314D01*
X60307Y1256311D01*
X61429Y1256466D01*
X61434Y1256471D01*
X61438Y1256468D01*
X62509Y1256839D01*
X62513Y1256845D01*
X62518Y1256843D01*
X63495Y1257416D01*
X63498Y1257422D01*
X63503Y1257421D01*
X64350Y1258174D01*
X64352Y1258181D01*
X64357Y1258181D01*
X65041Y1259084D01*
X65041Y1259091D01*
X65046Y1259092D01*
X65541Y1260111D01*
X65539Y1260118D01*
X65544Y1260120D01*
X65831Y1261217D01*
X65829Y1261221D01*
X65831Y1261222D01*
X65829Y1261224D01*
X65832Y1261226D01*
X65899Y1262357D01*
X65897Y1262361D01*
X65899Y1262363D01*
X65832Y1263494D01*
X65827Y1263499D01*
X65831Y1263503D01*
X65544Y1264600D01*
X65538Y1264604D01*
X65541Y1264609D01*
X65046Y1265628D01*
X65040Y1265631D01*
X65041Y1265636D01*
X64357Y1266539D01*
X64350Y1266541D01*
X64350Y1266546D01*
X63503Y1267299D01*
X63496Y1267299D01*
X63495Y1267304D01*
X62518Y1267877D01*
X62511Y1267876D01*
X62509Y1267881D01*
X61438Y1268252D01*
X61432Y1268249D01*
X61429Y1268254D01*
X60307Y1268409D01*
X60302Y1268406D01*
X60300Y1268409D01*
X48300Y1268409D01*
X48295Y1268406D01*
X48292Y1268409D01*
X47025Y1268204D01*
X47019Y1268198D01*
X47015Y1268201D01*
X45825Y1267719D01*
X45821Y1267712D01*
X45815Y1267714D01*
X44762Y1266980D01*
X44760Y1266972D01*
X44754Y1266973D01*
X43891Y1266023D01*
X43890Y1266014D01*
X43885Y1266014D01*
X43255Y1264895D01*
X43256Y1264887D01*
X43250Y1264885D01*
X42885Y1263655D01*
X42888Y1263647D01*
X42883Y1263644D01*
X42801Y1262363D01*
X42804Y1262359D01*
X42801Y1262357D01*
X42883Y1261076D01*
X42889Y1261070D01*
X42885Y1261065D01*
X43250Y1259835D01*
X43257Y1259830D01*
X43255Y1259825D01*
X43885Y1258706D01*
X43892Y1258703D01*
X43891Y1258697D01*
X44754Y1257747D01*
X44762Y1257746D01*
X44762Y1257740D01*
X45815Y1257006D01*
X45823Y1257006D01*
X45825Y1257001D01*
X47015Y1256519D01*
X47022Y1256521D01*
X47025Y1256516D01*
X48292Y1256311D01*
X48297Y1256314D01*
X48300Y1256311D01*
X60300Y1256311D01*
X60304Y1256314D01*
G37*
G36*
X60304Y778834D02*
X60304Y778834D01*
X60307Y778831D01*
X61429Y778986D01*
X61434Y778991D01*
X61438Y778988D01*
X62509Y779359D01*
X62513Y779365D01*
X62518Y779363D01*
X63495Y779936D01*
X63498Y779942D01*
X63503Y779941D01*
X64350Y780694D01*
X64352Y780701D01*
X64357Y780701D01*
X65041Y781604D01*
X65041Y781611D01*
X65046Y781612D01*
X65541Y782631D01*
X65539Y782638D01*
X65544Y782640D01*
X65831Y783737D01*
X65829Y783741D01*
X65831Y783742D01*
X65829Y783744D01*
X65832Y783746D01*
X65899Y784877D01*
X65897Y784881D01*
X65899Y784883D01*
X65832Y786014D01*
X65827Y786019D01*
X65831Y786023D01*
X65544Y787120D01*
X65538Y787124D01*
X65541Y787129D01*
X65046Y788148D01*
X65040Y788151D01*
X65041Y788156D01*
X64357Y789059D01*
X64350Y789061D01*
X64350Y789066D01*
X63503Y789819D01*
X63496Y789819D01*
X63495Y789824D01*
X62518Y790397D01*
X62511Y790396D01*
X62509Y790401D01*
X61438Y790772D01*
X61432Y790769D01*
X61429Y790774D01*
X60307Y790929D01*
X60302Y790926D01*
X60300Y790929D01*
X48300Y790929D01*
X48295Y790926D01*
X48292Y790929D01*
X47025Y790724D01*
X47019Y790718D01*
X47015Y790721D01*
X45825Y790239D01*
X45821Y790232D01*
X45815Y790234D01*
X44762Y789500D01*
X44760Y789492D01*
X44754Y789493D01*
X43891Y788543D01*
X43890Y788534D01*
X43885Y788534D01*
X43255Y787415D01*
X43256Y787407D01*
X43250Y787405D01*
X42885Y786175D01*
X42888Y786167D01*
X42883Y786164D01*
X42801Y784883D01*
X42804Y784879D01*
X42801Y784877D01*
X42883Y783596D01*
X42889Y783590D01*
X42885Y783585D01*
X43250Y782355D01*
X43257Y782350D01*
X43255Y782345D01*
X43885Y781226D01*
X43892Y781223D01*
X43891Y781217D01*
X44754Y780267D01*
X44762Y780266D01*
X44762Y780260D01*
X45815Y779526D01*
X45823Y779526D01*
X45825Y779521D01*
X47015Y779039D01*
X47022Y779041D01*
X47025Y779036D01*
X48292Y778831D01*
X48297Y778834D01*
X48300Y778831D01*
X60300Y778831D01*
X60304Y778834D01*
G37*
G36*
X60304Y692434D02*
X60304Y692434D01*
X60307Y692431D01*
X61429Y692586D01*
X61434Y692591D01*
X61438Y692588D01*
X62509Y692959D01*
X62513Y692965D01*
X62518Y692963D01*
X63495Y693536D01*
X63498Y693542D01*
X63503Y693541D01*
X64350Y694294D01*
X64352Y694301D01*
X64357Y694301D01*
X65041Y695204D01*
X65041Y695211D01*
X65046Y695212D01*
X65541Y696231D01*
X65539Y696238D01*
X65544Y696240D01*
X65831Y697337D01*
X65829Y697341D01*
X65831Y697342D01*
X65829Y697344D01*
X65832Y697346D01*
X65899Y698477D01*
X65897Y698481D01*
X65899Y698483D01*
X65832Y699614D01*
X65827Y699619D01*
X65831Y699623D01*
X65544Y700720D01*
X65538Y700724D01*
X65541Y700729D01*
X65046Y701748D01*
X65040Y701751D01*
X65041Y701756D01*
X64357Y702659D01*
X64350Y702661D01*
X64350Y702666D01*
X63503Y703419D01*
X63496Y703419D01*
X63495Y703424D01*
X62518Y703997D01*
X62511Y703996D01*
X62509Y704001D01*
X61438Y704372D01*
X61432Y704369D01*
X61429Y704374D01*
X60307Y704529D01*
X60302Y704526D01*
X60300Y704529D01*
X48300Y704529D01*
X48295Y704526D01*
X48292Y704529D01*
X47025Y704324D01*
X47019Y704318D01*
X47015Y704321D01*
X45825Y703839D01*
X45821Y703832D01*
X45815Y703834D01*
X44762Y703100D01*
X44760Y703092D01*
X44754Y703093D01*
X43891Y702143D01*
X43890Y702134D01*
X43885Y702134D01*
X43255Y701015D01*
X43256Y701007D01*
X43250Y701005D01*
X42885Y699775D01*
X42888Y699767D01*
X42883Y699764D01*
X42801Y698483D01*
X42804Y698479D01*
X42801Y698477D01*
X42883Y697196D01*
X42889Y697190D01*
X42885Y697185D01*
X43250Y695955D01*
X43257Y695950D01*
X43255Y695945D01*
X43885Y694826D01*
X43892Y694823D01*
X43891Y694817D01*
X44754Y693867D01*
X44762Y693866D01*
X44762Y693860D01*
X45815Y693126D01*
X45823Y693126D01*
X45825Y693121D01*
X47015Y692639D01*
X47022Y692641D01*
X47025Y692636D01*
X48292Y692431D01*
X48297Y692434D01*
X48300Y692431D01*
X60300Y692431D01*
X60304Y692434D01*
G37*
G36*
X60304Y214954D02*
X60304Y214954D01*
X60307Y214951D01*
X61429Y215106D01*
X61434Y215111D01*
X61438Y215108D01*
X62509Y215479D01*
X62513Y215485D01*
X62518Y215483D01*
X63495Y216056D01*
X63498Y216062D01*
X63503Y216061D01*
X64350Y216814D01*
X64352Y216821D01*
X64357Y216821D01*
X65041Y217724D01*
X65041Y217731D01*
X65046Y217732D01*
X65541Y218751D01*
X65539Y218758D01*
X65544Y218760D01*
X65831Y219857D01*
X65829Y219861D01*
X65831Y219862D01*
X65829Y219864D01*
X65832Y219866D01*
X65899Y220997D01*
X65897Y221001D01*
X65899Y221003D01*
X65832Y222134D01*
X65827Y222139D01*
X65831Y222143D01*
X65544Y223240D01*
X65538Y223244D01*
X65541Y223249D01*
X65046Y224268D01*
X65040Y224271D01*
X65041Y224276D01*
X64357Y225179D01*
X64350Y225181D01*
X64350Y225186D01*
X63503Y225939D01*
X63496Y225939D01*
X63495Y225944D01*
X62518Y226517D01*
X62511Y226516D01*
X62509Y226521D01*
X61438Y226892D01*
X61432Y226889D01*
X61429Y226894D01*
X60307Y227049D01*
X60302Y227046D01*
X60300Y227049D01*
X48300Y227049D01*
X48295Y227046D01*
X48292Y227049D01*
X47025Y226844D01*
X47019Y226838D01*
X47015Y226841D01*
X45825Y226359D01*
X45821Y226352D01*
X45815Y226354D01*
X44762Y225620D01*
X44760Y225612D01*
X44754Y225613D01*
X43891Y224663D01*
X43890Y224654D01*
X43885Y224654D01*
X43255Y223535D01*
X43256Y223527D01*
X43250Y223525D01*
X42885Y222295D01*
X42888Y222287D01*
X42883Y222284D01*
X42801Y221003D01*
X42804Y220999D01*
X42801Y220997D01*
X42883Y219716D01*
X42889Y219710D01*
X42885Y219705D01*
X43250Y218475D01*
X43257Y218470D01*
X43255Y218465D01*
X43885Y217346D01*
X43892Y217343D01*
X43891Y217337D01*
X44754Y216387D01*
X44762Y216386D01*
X44762Y216380D01*
X45815Y215646D01*
X45823Y215646D01*
X45825Y215641D01*
X47015Y215159D01*
X47022Y215161D01*
X47025Y215156D01*
X48292Y214951D01*
X48297Y214954D01*
X48300Y214951D01*
X60300Y214951D01*
X60304Y214954D01*
G37*
G36*
X15503Y128553D02*
X15503Y128553D01*
X15505Y128551D01*
X16681Y128662D01*
X16686Y128667D01*
X16690Y128664D01*
X17822Y129002D01*
X17826Y129008D01*
X17831Y129006D01*
X18875Y129558D01*
X18878Y129565D01*
X18883Y129563D01*
X19799Y130309D01*
X19800Y130316D01*
X19806Y130316D01*
X20559Y131226D01*
X20559Y131233D01*
X20564Y131234D01*
X21125Y132273D01*
X21124Y132278D01*
X21128Y132280D01*
X21127Y132281D01*
X21129Y132282D01*
X21476Y133411D01*
X21476Y133412D01*
X21477Y133413D01*
X21474Y133417D01*
X21478Y133420D01*
X21599Y134595D01*
X21595Y134602D01*
X21599Y134606D01*
X21442Y135946D01*
X21437Y135952D01*
X21440Y135957D01*
X20989Y137228D01*
X20982Y137233D01*
X20984Y137238D01*
X20262Y138377D01*
X20254Y138380D01*
X20255Y138386D01*
X19297Y139336D01*
X19289Y139337D01*
X19288Y139343D01*
X18143Y140056D01*
X18135Y140055D01*
X18133Y140061D01*
X16857Y140501D01*
X16850Y140499D01*
X16847Y140503D01*
X15505Y140649D01*
X15502Y140647D01*
X15500Y140649D01*
X9500Y140649D01*
X9497Y140647D01*
X9494Y140649D01*
X8165Y140494D01*
X8159Y140488D01*
X8155Y140491D01*
X6894Y140044D01*
X6889Y140037D01*
X6884Y140039D01*
X5754Y139322D01*
X5751Y139315D01*
X5745Y139316D01*
X4803Y138366D01*
X4802Y138357D01*
X4796Y138357D01*
X4089Y137221D01*
X4090Y137213D01*
X4084Y137211D01*
X3648Y135946D01*
X3650Y135938D01*
X3645Y135936D01*
X3501Y134605D01*
X3505Y134599D01*
X3501Y134595D01*
X3611Y133429D01*
X3616Y133424D01*
X3613Y133420D01*
X3948Y132297D01*
X3954Y132293D01*
X3952Y132289D01*
X4500Y131253D01*
X4506Y131250D01*
X4505Y131245D01*
X5244Y130337D01*
X5251Y130335D01*
X5251Y130330D01*
X6153Y129583D01*
X6161Y129583D01*
X6161Y129578D01*
X7192Y129021D01*
X7199Y129022D01*
X7201Y129017D01*
X8320Y128673D01*
X8327Y128675D01*
X8330Y128671D01*
X9495Y128551D01*
X9498Y128553D01*
X9500Y128551D01*
X15500Y128551D01*
X15503Y128553D01*
G37*
G36*
X15503Y1906593D02*
X15503Y1906593D01*
X15505Y1906591D01*
X16681Y1906702D01*
X16686Y1906707D01*
X16690Y1906704D01*
X17822Y1907042D01*
X17826Y1907048D01*
X17831Y1907046D01*
X18875Y1907598D01*
X18878Y1907605D01*
X18883Y1907603D01*
X19799Y1908349D01*
X19800Y1908356D01*
X19806Y1908356D01*
X20559Y1909266D01*
X20559Y1909273D01*
X20564Y1909274D01*
X21125Y1910313D01*
X21124Y1910318D01*
X21128Y1910320D01*
X21127Y1910321D01*
X21129Y1910322D01*
X21476Y1911451D01*
X21476Y1911452D01*
X21477Y1911453D01*
X21474Y1911457D01*
X21478Y1911460D01*
X21599Y1912635D01*
X21595Y1912642D01*
X21599Y1912646D01*
X21442Y1913986D01*
X21437Y1913992D01*
X21440Y1913997D01*
X20989Y1915268D01*
X20982Y1915273D01*
X20984Y1915278D01*
X20262Y1916417D01*
X20254Y1916420D01*
X20255Y1916426D01*
X19297Y1917376D01*
X19289Y1917377D01*
X19288Y1917383D01*
X18143Y1918096D01*
X18135Y1918095D01*
X18133Y1918101D01*
X16857Y1918541D01*
X16850Y1918539D01*
X16847Y1918543D01*
X15505Y1918689D01*
X15502Y1918687D01*
X15500Y1918689D01*
X9500Y1918689D01*
X9497Y1918687D01*
X9494Y1918689D01*
X8165Y1918534D01*
X8159Y1918528D01*
X8155Y1918531D01*
X6894Y1918084D01*
X6889Y1918077D01*
X6884Y1918079D01*
X5754Y1917362D01*
X5751Y1917355D01*
X5745Y1917356D01*
X4803Y1916406D01*
X4802Y1916397D01*
X4796Y1916397D01*
X4089Y1915261D01*
X4090Y1915253D01*
X4084Y1915251D01*
X3648Y1913986D01*
X3650Y1913978D01*
X3645Y1913976D01*
X3501Y1912645D01*
X3505Y1912639D01*
X3501Y1912635D01*
X3611Y1911469D01*
X3616Y1911464D01*
X3613Y1911460D01*
X3948Y1910337D01*
X3954Y1910333D01*
X3952Y1910329D01*
X4500Y1909293D01*
X4506Y1909290D01*
X4505Y1909285D01*
X5244Y1908377D01*
X5251Y1908375D01*
X5251Y1908370D01*
X6153Y1907623D01*
X6161Y1907623D01*
X6161Y1907618D01*
X7192Y1907061D01*
X7199Y1907062D01*
X7201Y1907057D01*
X8320Y1906713D01*
X8327Y1906715D01*
X8330Y1906711D01*
X9495Y1906591D01*
X9498Y1906593D01*
X9500Y1906591D01*
X15500Y1906591D01*
X15503Y1906593D01*
G37*
G36*
X15503Y1820193D02*
X15503Y1820193D01*
X15505Y1820191D01*
X16681Y1820302D01*
X16686Y1820307D01*
X16690Y1820304D01*
X17822Y1820642D01*
X17826Y1820648D01*
X17831Y1820646D01*
X18875Y1821198D01*
X18878Y1821205D01*
X18883Y1821203D01*
X19799Y1821949D01*
X19800Y1821956D01*
X19806Y1821956D01*
X20559Y1822866D01*
X20559Y1822873D01*
X20564Y1822874D01*
X21125Y1823913D01*
X21124Y1823918D01*
X21128Y1823920D01*
X21127Y1823921D01*
X21129Y1823922D01*
X21476Y1825051D01*
X21476Y1825052D01*
X21477Y1825053D01*
X21474Y1825057D01*
X21478Y1825060D01*
X21599Y1826235D01*
X21595Y1826242D01*
X21599Y1826246D01*
X21442Y1827586D01*
X21437Y1827592D01*
X21440Y1827597D01*
X20989Y1828868D01*
X20982Y1828873D01*
X20984Y1828878D01*
X20262Y1830017D01*
X20254Y1830020D01*
X20255Y1830026D01*
X19297Y1830976D01*
X19289Y1830977D01*
X19288Y1830983D01*
X18143Y1831696D01*
X18135Y1831695D01*
X18133Y1831701D01*
X16857Y1832141D01*
X16850Y1832139D01*
X16847Y1832143D01*
X15505Y1832289D01*
X15502Y1832287D01*
X15500Y1832289D01*
X9500Y1832289D01*
X9497Y1832287D01*
X9494Y1832289D01*
X8165Y1832134D01*
X8159Y1832128D01*
X8155Y1832131D01*
X6894Y1831684D01*
X6889Y1831677D01*
X6884Y1831679D01*
X5754Y1830962D01*
X5751Y1830955D01*
X5745Y1830956D01*
X4803Y1830006D01*
X4802Y1829997D01*
X4796Y1829997D01*
X4089Y1828861D01*
X4090Y1828853D01*
X4084Y1828851D01*
X3648Y1827586D01*
X3650Y1827578D01*
X3645Y1827576D01*
X3501Y1826245D01*
X3505Y1826239D01*
X3501Y1826235D01*
X3611Y1825069D01*
X3616Y1825064D01*
X3613Y1825060D01*
X3948Y1823937D01*
X3954Y1823933D01*
X3952Y1823929D01*
X4500Y1822893D01*
X4506Y1822890D01*
X4505Y1822885D01*
X5244Y1821977D01*
X5251Y1821975D01*
X5251Y1821970D01*
X6153Y1821223D01*
X6161Y1821223D01*
X6161Y1821218D01*
X7192Y1820661D01*
X7199Y1820662D01*
X7201Y1820657D01*
X8320Y1820313D01*
X8327Y1820315D01*
X8330Y1820311D01*
X9495Y1820191D01*
X9498Y1820193D01*
X9500Y1820191D01*
X15500Y1820191D01*
X15503Y1820193D01*
G37*
G36*
X15503Y1342713D02*
X15503Y1342713D01*
X15505Y1342711D01*
X16681Y1342822D01*
X16686Y1342827D01*
X16690Y1342824D01*
X17822Y1343162D01*
X17826Y1343168D01*
X17831Y1343166D01*
X18875Y1343718D01*
X18878Y1343725D01*
X18883Y1343723D01*
X19799Y1344469D01*
X19800Y1344476D01*
X19806Y1344476D01*
X20559Y1345386D01*
X20559Y1345393D01*
X20564Y1345394D01*
X21125Y1346433D01*
X21124Y1346438D01*
X21128Y1346440D01*
X21127Y1346441D01*
X21129Y1346442D01*
X21476Y1347571D01*
X21476Y1347572D01*
X21477Y1347573D01*
X21474Y1347577D01*
X21478Y1347580D01*
X21599Y1348755D01*
X21595Y1348762D01*
X21599Y1348766D01*
X21442Y1350106D01*
X21437Y1350112D01*
X21440Y1350117D01*
X20989Y1351388D01*
X20982Y1351393D01*
X20984Y1351398D01*
X20262Y1352537D01*
X20254Y1352540D01*
X20255Y1352546D01*
X19297Y1353496D01*
X19289Y1353497D01*
X19288Y1353503D01*
X18143Y1354216D01*
X18135Y1354215D01*
X18133Y1354221D01*
X16857Y1354661D01*
X16850Y1354659D01*
X16847Y1354663D01*
X15505Y1354809D01*
X15502Y1354807D01*
X15500Y1354809D01*
X9500Y1354809D01*
X9497Y1354807D01*
X9494Y1354809D01*
X8165Y1354654D01*
X8159Y1354648D01*
X8155Y1354651D01*
X6894Y1354204D01*
X6889Y1354197D01*
X6884Y1354199D01*
X5754Y1353482D01*
X5751Y1353475D01*
X5745Y1353476D01*
X4803Y1352526D01*
X4802Y1352517D01*
X4796Y1352517D01*
X4089Y1351381D01*
X4090Y1351373D01*
X4084Y1351371D01*
X3648Y1350106D01*
X3650Y1350098D01*
X3645Y1350096D01*
X3501Y1348765D01*
X3505Y1348759D01*
X3501Y1348755D01*
X3611Y1347589D01*
X3616Y1347584D01*
X3613Y1347580D01*
X3948Y1346457D01*
X3954Y1346453D01*
X3952Y1346449D01*
X4500Y1345413D01*
X4506Y1345410D01*
X4505Y1345405D01*
X5244Y1344497D01*
X5251Y1344495D01*
X5251Y1344490D01*
X6153Y1343743D01*
X6161Y1343743D01*
X6161Y1343738D01*
X7192Y1343181D01*
X7199Y1343182D01*
X7201Y1343177D01*
X8320Y1342833D01*
X8327Y1342835D01*
X8330Y1342831D01*
X9495Y1342711D01*
X9498Y1342713D01*
X9500Y1342711D01*
X15500Y1342711D01*
X15503Y1342713D01*
G37*
G36*
X15503Y1256313D02*
X15503Y1256313D01*
X15505Y1256311D01*
X16681Y1256422D01*
X16686Y1256427D01*
X16690Y1256424D01*
X17822Y1256762D01*
X17826Y1256768D01*
X17831Y1256766D01*
X18875Y1257318D01*
X18878Y1257325D01*
X18883Y1257323D01*
X19799Y1258069D01*
X19800Y1258076D01*
X19806Y1258076D01*
X20559Y1258986D01*
X20559Y1258993D01*
X20564Y1258994D01*
X21125Y1260033D01*
X21124Y1260038D01*
X21128Y1260040D01*
X21127Y1260041D01*
X21129Y1260042D01*
X21476Y1261171D01*
X21476Y1261172D01*
X21477Y1261173D01*
X21474Y1261177D01*
X21478Y1261180D01*
X21599Y1262355D01*
X21595Y1262362D01*
X21599Y1262366D01*
X21442Y1263706D01*
X21437Y1263712D01*
X21440Y1263717D01*
X20989Y1264988D01*
X20982Y1264993D01*
X20984Y1264998D01*
X20262Y1266137D01*
X20254Y1266140D01*
X20255Y1266146D01*
X19297Y1267096D01*
X19289Y1267097D01*
X19288Y1267103D01*
X18143Y1267816D01*
X18135Y1267815D01*
X18133Y1267821D01*
X16857Y1268261D01*
X16850Y1268259D01*
X16847Y1268263D01*
X15505Y1268409D01*
X15502Y1268407D01*
X15500Y1268409D01*
X9500Y1268409D01*
X9497Y1268407D01*
X9494Y1268409D01*
X8165Y1268254D01*
X8159Y1268248D01*
X8155Y1268251D01*
X6894Y1267804D01*
X6889Y1267797D01*
X6884Y1267799D01*
X5754Y1267082D01*
X5751Y1267075D01*
X5745Y1267076D01*
X4803Y1266126D01*
X4802Y1266117D01*
X4796Y1266117D01*
X4089Y1264981D01*
X4090Y1264973D01*
X4084Y1264971D01*
X3648Y1263706D01*
X3650Y1263698D01*
X3645Y1263696D01*
X3501Y1262365D01*
X3505Y1262359D01*
X3501Y1262355D01*
X3611Y1261189D01*
X3616Y1261184D01*
X3613Y1261180D01*
X3948Y1260057D01*
X3954Y1260053D01*
X3952Y1260049D01*
X4500Y1259013D01*
X4506Y1259010D01*
X4505Y1259005D01*
X5244Y1258097D01*
X5251Y1258095D01*
X5251Y1258090D01*
X6153Y1257343D01*
X6161Y1257343D01*
X6161Y1257338D01*
X7192Y1256781D01*
X7199Y1256782D01*
X7201Y1256777D01*
X8320Y1256433D01*
X8327Y1256435D01*
X8330Y1256431D01*
X9495Y1256311D01*
X9498Y1256313D01*
X9500Y1256311D01*
X15500Y1256311D01*
X15503Y1256313D01*
G37*
G36*
X15503Y778833D02*
X15503Y778833D01*
X15505Y778831D01*
X16681Y778942D01*
X16686Y778947D01*
X16690Y778944D01*
X17822Y779282D01*
X17826Y779288D01*
X17831Y779286D01*
X18875Y779838D01*
X18878Y779845D01*
X18883Y779843D01*
X19799Y780589D01*
X19800Y780596D01*
X19806Y780596D01*
X20559Y781506D01*
X20559Y781513D01*
X20564Y781514D01*
X21125Y782553D01*
X21124Y782558D01*
X21128Y782560D01*
X21127Y782561D01*
X21129Y782562D01*
X21476Y783691D01*
X21476Y783692D01*
X21477Y783693D01*
X21474Y783697D01*
X21478Y783700D01*
X21599Y784875D01*
X21595Y784882D01*
X21599Y784886D01*
X21442Y786226D01*
X21437Y786232D01*
X21440Y786237D01*
X20989Y787508D01*
X20982Y787513D01*
X20984Y787518D01*
X20262Y788657D01*
X20254Y788660D01*
X20255Y788666D01*
X19297Y789616D01*
X19289Y789617D01*
X19288Y789623D01*
X18143Y790336D01*
X18135Y790335D01*
X18133Y790341D01*
X16857Y790781D01*
X16850Y790779D01*
X16847Y790783D01*
X15505Y790929D01*
X15502Y790927D01*
X15500Y790929D01*
X9500Y790929D01*
X9497Y790927D01*
X9494Y790929D01*
X8165Y790774D01*
X8159Y790768D01*
X8155Y790771D01*
X6894Y790324D01*
X6889Y790317D01*
X6884Y790319D01*
X5754Y789602D01*
X5751Y789595D01*
X5745Y789596D01*
X4803Y788646D01*
X4802Y788637D01*
X4796Y788637D01*
X4089Y787501D01*
X4090Y787493D01*
X4084Y787491D01*
X3648Y786226D01*
X3650Y786218D01*
X3645Y786216D01*
X3501Y784885D01*
X3505Y784879D01*
X3501Y784875D01*
X3611Y783709D01*
X3616Y783704D01*
X3613Y783700D01*
X3948Y782577D01*
X3954Y782573D01*
X3952Y782569D01*
X4500Y781533D01*
X4506Y781530D01*
X4505Y781525D01*
X5244Y780617D01*
X5251Y780615D01*
X5251Y780610D01*
X6153Y779863D01*
X6161Y779863D01*
X6161Y779858D01*
X7192Y779301D01*
X7199Y779302D01*
X7201Y779297D01*
X8320Y778953D01*
X8327Y778955D01*
X8330Y778951D01*
X9495Y778831D01*
X9498Y778833D01*
X9500Y778831D01*
X15500Y778831D01*
X15503Y778833D01*
G37*
G36*
X15503Y692433D02*
X15503Y692433D01*
X15505Y692431D01*
X16681Y692542D01*
X16686Y692547D01*
X16690Y692544D01*
X17822Y692882D01*
X17826Y692888D01*
X17831Y692886D01*
X18875Y693438D01*
X18878Y693445D01*
X18883Y693443D01*
X19799Y694189D01*
X19800Y694196D01*
X19806Y694196D01*
X20559Y695106D01*
X20559Y695113D01*
X20564Y695114D01*
X21125Y696153D01*
X21124Y696158D01*
X21128Y696160D01*
X21127Y696161D01*
X21129Y696162D01*
X21476Y697291D01*
X21476Y697292D01*
X21477Y697293D01*
X21474Y697297D01*
X21478Y697300D01*
X21599Y698475D01*
X21595Y698482D01*
X21599Y698486D01*
X21442Y699826D01*
X21437Y699832D01*
X21440Y699837D01*
X20989Y701108D01*
X20982Y701113D01*
X20984Y701118D01*
X20262Y702257D01*
X20254Y702260D01*
X20255Y702266D01*
X19297Y703216D01*
X19289Y703217D01*
X19288Y703223D01*
X18143Y703936D01*
X18135Y703935D01*
X18133Y703941D01*
X16857Y704381D01*
X16850Y704379D01*
X16847Y704383D01*
X15505Y704529D01*
X15502Y704527D01*
X15500Y704529D01*
X9500Y704529D01*
X9497Y704527D01*
X9494Y704529D01*
X8165Y704374D01*
X8159Y704368D01*
X8155Y704371D01*
X6894Y703924D01*
X6889Y703917D01*
X6884Y703919D01*
X5754Y703202D01*
X5751Y703195D01*
X5745Y703196D01*
X4803Y702246D01*
X4802Y702237D01*
X4796Y702237D01*
X4089Y701101D01*
X4090Y701093D01*
X4084Y701091D01*
X3648Y699826D01*
X3650Y699818D01*
X3645Y699816D01*
X3501Y698485D01*
X3505Y698479D01*
X3501Y698475D01*
X3611Y697309D01*
X3616Y697304D01*
X3613Y697300D01*
X3948Y696177D01*
X3954Y696173D01*
X3952Y696169D01*
X4500Y695133D01*
X4506Y695130D01*
X4505Y695125D01*
X5244Y694217D01*
X5251Y694215D01*
X5251Y694210D01*
X6153Y693463D01*
X6161Y693463D01*
X6161Y693458D01*
X7192Y692901D01*
X7199Y692902D01*
X7201Y692897D01*
X8320Y692553D01*
X8327Y692555D01*
X8330Y692551D01*
X9495Y692431D01*
X9498Y692433D01*
X9500Y692431D01*
X15500Y692431D01*
X15503Y692433D01*
G37*
G36*
X15503Y214953D02*
X15503Y214953D01*
X15505Y214951D01*
X16681Y215062D01*
X16686Y215067D01*
X16690Y215064D01*
X17822Y215402D01*
X17826Y215408D01*
X17831Y215406D01*
X18875Y215958D01*
X18878Y215965D01*
X18883Y215963D01*
X19799Y216709D01*
X19800Y216716D01*
X19806Y216716D01*
X20559Y217626D01*
X20559Y217633D01*
X20564Y217634D01*
X21125Y218673D01*
X21124Y218678D01*
X21128Y218680D01*
X21127Y218681D01*
X21129Y218682D01*
X21476Y219811D01*
X21476Y219812D01*
X21477Y219813D01*
X21474Y219817D01*
X21478Y219820D01*
X21599Y220995D01*
X21595Y221002D01*
X21599Y221006D01*
X21442Y222346D01*
X21437Y222352D01*
X21440Y222357D01*
X20989Y223628D01*
X20982Y223633D01*
X20984Y223638D01*
X20262Y224777D01*
X20254Y224780D01*
X20255Y224786D01*
X19297Y225736D01*
X19289Y225737D01*
X19288Y225743D01*
X18143Y226456D01*
X18135Y226455D01*
X18133Y226461D01*
X16857Y226901D01*
X16850Y226899D01*
X16847Y226903D01*
X15505Y227049D01*
X15502Y227047D01*
X15500Y227049D01*
X9500Y227049D01*
X9497Y227047D01*
X9494Y227049D01*
X8165Y226894D01*
X8159Y226888D01*
X8155Y226891D01*
X6894Y226444D01*
X6889Y226437D01*
X6884Y226439D01*
X5754Y225722D01*
X5751Y225715D01*
X5745Y225716D01*
X4803Y224766D01*
X4802Y224757D01*
X4796Y224757D01*
X4089Y223621D01*
X4090Y223613D01*
X4084Y223611D01*
X3648Y222346D01*
X3650Y222338D01*
X3645Y222336D01*
X3501Y221005D01*
X3505Y220999D01*
X3501Y220995D01*
X3611Y219829D01*
X3616Y219824D01*
X3613Y219820D01*
X3948Y218697D01*
X3954Y218693D01*
X3952Y218689D01*
X4500Y217653D01*
X4506Y217650D01*
X4505Y217645D01*
X5244Y216737D01*
X5251Y216735D01*
X5251Y216730D01*
X6153Y215983D01*
X6161Y215983D01*
X6161Y215978D01*
X7192Y215421D01*
X7199Y215422D01*
X7201Y215417D01*
X8320Y215073D01*
X8327Y215075D01*
X8330Y215071D01*
X9495Y214951D01*
X9498Y214953D01*
X9500Y214951D01*
X15500Y214951D01*
X15503Y214953D01*
G37*
G36*
X108650Y1827923D02*
X108650Y1827923D01*
X108716Y1827925D01*
X108759Y1827943D01*
X108806Y1827951D01*
X108863Y1827985D01*
X108923Y1828010D01*
X108958Y1828041D01*
X108999Y1828066D01*
X109041Y1828117D01*
X109089Y1828161D01*
X109111Y1828203D01*
X109140Y1828240D01*
X109161Y1828302D01*
X109192Y1828361D01*
X109200Y1828415D01*
X109212Y1828452D01*
X109211Y1828492D01*
X109219Y1828546D01*
X109219Y1834134D01*
X109208Y1834199D01*
X109206Y1834265D01*
X109188Y1834308D01*
X109180Y1834355D01*
X109146Y1834412D01*
X109121Y1834472D01*
X109090Y1834507D01*
X109065Y1834548D01*
X109014Y1834590D01*
X108970Y1834638D01*
X108928Y1834660D01*
X108891Y1834689D01*
X108829Y1834710D01*
X108770Y1834741D01*
X108716Y1834749D01*
X108679Y1834761D01*
X108639Y1834760D01*
X108585Y1834768D01*
X104775Y1834768D01*
X104710Y1834757D01*
X104644Y1834755D01*
X104601Y1834737D01*
X104554Y1834729D01*
X104497Y1834695D01*
X104437Y1834670D01*
X104402Y1834639D01*
X104361Y1834614D01*
X104320Y1834563D01*
X104271Y1834519D01*
X104249Y1834477D01*
X104220Y1834440D01*
X104199Y1834378D01*
X104168Y1834319D01*
X104160Y1834265D01*
X104148Y1834228D01*
X104149Y1834188D01*
X104141Y1834134D01*
X104141Y1828546D01*
X104152Y1828481D01*
X104154Y1828415D01*
X104172Y1828372D01*
X104180Y1828325D01*
X104214Y1828268D01*
X104239Y1828208D01*
X104270Y1828173D01*
X104295Y1828132D01*
X104346Y1828091D01*
X104390Y1828042D01*
X104432Y1828020D01*
X104469Y1827991D01*
X104531Y1827970D01*
X104590Y1827939D01*
X104644Y1827931D01*
X104681Y1827919D01*
X104721Y1827920D01*
X104775Y1827912D01*
X108585Y1827912D01*
X108650Y1827923D01*
G37*
G36*
X108650Y1264043D02*
X108650Y1264043D01*
X108716Y1264045D01*
X108759Y1264063D01*
X108806Y1264071D01*
X108863Y1264105D01*
X108923Y1264130D01*
X108958Y1264161D01*
X108999Y1264186D01*
X109041Y1264237D01*
X109089Y1264281D01*
X109111Y1264323D01*
X109140Y1264360D01*
X109161Y1264422D01*
X109192Y1264481D01*
X109200Y1264535D01*
X109212Y1264572D01*
X109211Y1264612D01*
X109219Y1264666D01*
X109219Y1270254D01*
X109208Y1270319D01*
X109206Y1270385D01*
X109188Y1270428D01*
X109180Y1270475D01*
X109146Y1270532D01*
X109121Y1270592D01*
X109090Y1270627D01*
X109065Y1270668D01*
X109014Y1270710D01*
X108970Y1270758D01*
X108928Y1270780D01*
X108891Y1270809D01*
X108829Y1270830D01*
X108770Y1270861D01*
X108716Y1270869D01*
X108679Y1270881D01*
X108639Y1270880D01*
X108585Y1270888D01*
X104775Y1270888D01*
X104710Y1270877D01*
X104644Y1270875D01*
X104601Y1270857D01*
X104554Y1270849D01*
X104497Y1270815D01*
X104437Y1270790D01*
X104402Y1270759D01*
X104361Y1270734D01*
X104320Y1270683D01*
X104271Y1270639D01*
X104249Y1270597D01*
X104220Y1270560D01*
X104199Y1270498D01*
X104168Y1270439D01*
X104160Y1270385D01*
X104148Y1270348D01*
X104149Y1270308D01*
X104141Y1270254D01*
X104141Y1264666D01*
X104152Y1264601D01*
X104154Y1264535D01*
X104172Y1264492D01*
X104180Y1264445D01*
X104214Y1264388D01*
X104239Y1264328D01*
X104270Y1264293D01*
X104295Y1264252D01*
X104346Y1264211D01*
X104390Y1264162D01*
X104432Y1264140D01*
X104469Y1264111D01*
X104531Y1264090D01*
X104590Y1264059D01*
X104644Y1264051D01*
X104681Y1264039D01*
X104721Y1264040D01*
X104775Y1264032D01*
X108585Y1264032D01*
X108650Y1264043D01*
G37*
G36*
X108650Y700163D02*
X108650Y700163D01*
X108716Y700165D01*
X108759Y700183D01*
X108806Y700191D01*
X108863Y700225D01*
X108923Y700250D01*
X108958Y700281D01*
X108999Y700306D01*
X109041Y700357D01*
X109089Y700401D01*
X109111Y700443D01*
X109140Y700480D01*
X109161Y700542D01*
X109192Y700601D01*
X109200Y700655D01*
X109212Y700692D01*
X109211Y700732D01*
X109219Y700786D01*
X109219Y706374D01*
X109208Y706439D01*
X109206Y706505D01*
X109188Y706548D01*
X109180Y706595D01*
X109146Y706652D01*
X109121Y706712D01*
X109090Y706747D01*
X109065Y706788D01*
X109014Y706830D01*
X108970Y706878D01*
X108928Y706900D01*
X108891Y706929D01*
X108829Y706950D01*
X108770Y706981D01*
X108716Y706989D01*
X108679Y707001D01*
X108639Y707000D01*
X108585Y707008D01*
X104775Y707008D01*
X104710Y706997D01*
X104644Y706995D01*
X104601Y706977D01*
X104554Y706969D01*
X104497Y706935D01*
X104437Y706910D01*
X104402Y706879D01*
X104361Y706854D01*
X104320Y706803D01*
X104271Y706759D01*
X104249Y706717D01*
X104220Y706680D01*
X104199Y706618D01*
X104168Y706559D01*
X104160Y706505D01*
X104148Y706468D01*
X104149Y706428D01*
X104141Y706374D01*
X104141Y700786D01*
X104152Y700721D01*
X104154Y700655D01*
X104172Y700612D01*
X104180Y700565D01*
X104214Y700508D01*
X104239Y700448D01*
X104270Y700413D01*
X104295Y700372D01*
X104346Y700331D01*
X104390Y700282D01*
X104432Y700260D01*
X104469Y700231D01*
X104531Y700210D01*
X104590Y700179D01*
X104644Y700171D01*
X104681Y700159D01*
X104721Y700160D01*
X104775Y700152D01*
X108585Y700152D01*
X108650Y700163D01*
G37*
G36*
X108650Y136283D02*
X108650Y136283D01*
X108716Y136285D01*
X108759Y136303D01*
X108806Y136311D01*
X108863Y136345D01*
X108923Y136370D01*
X108958Y136401D01*
X108999Y136426D01*
X109041Y136477D01*
X109089Y136521D01*
X109111Y136563D01*
X109140Y136600D01*
X109161Y136662D01*
X109192Y136721D01*
X109200Y136775D01*
X109212Y136812D01*
X109211Y136852D01*
X109219Y136906D01*
X109219Y142494D01*
X109208Y142559D01*
X109206Y142625D01*
X109188Y142668D01*
X109180Y142715D01*
X109146Y142772D01*
X109121Y142832D01*
X109090Y142867D01*
X109065Y142908D01*
X109014Y142950D01*
X108970Y142998D01*
X108928Y143020D01*
X108891Y143049D01*
X108829Y143070D01*
X108770Y143101D01*
X108716Y143109D01*
X108679Y143121D01*
X108639Y143120D01*
X108585Y143128D01*
X104775Y143128D01*
X104710Y143117D01*
X104644Y143115D01*
X104601Y143097D01*
X104554Y143089D01*
X104497Y143055D01*
X104437Y143030D01*
X104402Y142999D01*
X104361Y142974D01*
X104320Y142923D01*
X104271Y142879D01*
X104249Y142837D01*
X104220Y142800D01*
X104199Y142738D01*
X104168Y142679D01*
X104160Y142625D01*
X104148Y142588D01*
X104149Y142548D01*
X104141Y142494D01*
X104141Y136906D01*
X104152Y136841D01*
X104154Y136775D01*
X104172Y136732D01*
X104180Y136685D01*
X104214Y136628D01*
X104239Y136568D01*
X104270Y136533D01*
X104295Y136492D01*
X104346Y136451D01*
X104390Y136402D01*
X104432Y136380D01*
X104469Y136351D01*
X104531Y136330D01*
X104590Y136299D01*
X104644Y136291D01*
X104681Y136279D01*
X104721Y136280D01*
X104775Y136272D01*
X108585Y136272D01*
X108650Y136283D01*
G37*
D10*
X60100Y170300D03*
X60100Y175300D03*
D11*
X60100Y145550D03*
X60100Y153300D03*
D10*
X60100Y160300D03*
X60100Y165300D03*
X60100Y185300D03*
X60100Y180300D03*
D11*
X60100Y210050D03*
X60100Y202300D03*
D10*
X60100Y195300D03*
X60100Y190300D03*
D12*
X49050Y206700D03*
X49050Y148900D03*
D13*
X76200Y211700D03*
X76200Y194700D03*
X76200Y143900D03*
X76200Y160900D03*
D14*
X91850Y164050D03*
X98350Y164050D03*
X104850Y164050D03*
X111350Y164050D03*
X111350Y191550D03*
X104850Y191550D03*
X98350Y191550D03*
X91850Y191550D03*
D15*
X101600Y177800D03*
D16*
X93100Y215900D03*
X110100Y215900D03*
D17*
X45720Y45720D03*
X816770Y513080D03*
D18*
X838200Y533400D03*
X25400Y533400D03*
X838200Y25400D03*
X25400Y25400D03*
D19*
X714460Y384460D03*
D20*
X633660Y388620D03*
X656660Y388620D03*
D16*
X653914Y405384D03*
X636914Y405384D03*
D20*
X633660Y372110D03*
X656660Y372110D03*
D21*
X152400Y19050D03*
X96520Y19050D03*
X152400Y57150D03*
X96520Y57150D03*
D16*
X93100Y231140D03*
X110100Y231140D03*
D22*
X34798Y278384D03*
X42926Y278384D03*
D23*
X23608Y248412D03*
X53608Y248412D03*
D24*
X104678Y255270D03*
X76678Y255270D03*
D13*
X149860Y222640D03*
X149860Y239640D03*
X134874Y239894D03*
X134874Y222894D03*
D22*
X101600Y139700D03*
X111760Y139700D03*
D25*
X93980Y139700D03*
X119380Y139700D03*
D26*
X211582Y252476D03*
X211582Y265176D03*
X211582Y277876D03*
X211582Y290576D03*
X211582Y239776D03*
X198882Y252476D03*
X198882Y265176D03*
X198882Y277876D03*
X198882Y290576D03*
X198882Y239776D03*
D21*
X231140Y19050D03*
X175260Y19050D03*
X231140Y57150D03*
X175260Y57150D03*
D27*
X555498Y239268D03*
D16*
X130692Y185674D03*
X147692Y185674D03*
D20*
X127692Y168656D03*
X150692Y168656D03*
D13*
X139700Y140580D03*
X139700Y123580D03*
X154940Y140580D03*
X154940Y123580D03*
X170180Y140580D03*
X170180Y123580D03*
D28*
X355600Y179400D03*
D29*
X355600Y379400D03*
D30*
X302850Y186900D03*
D31*
X310600Y175900D03*
X310600Y382900D03*
D30*
X378350Y189400D03*
X302850Y191900D03*
X378350Y194400D03*
X302850Y196900D03*
X378350Y199400D03*
X302850Y201900D03*
X378350Y204400D03*
X302850Y206900D03*
X378350Y209400D03*
X302850Y211900D03*
X378350Y214400D03*
X302850Y216900D03*
X378350Y219400D03*
X302850Y221900D03*
X378350Y224400D03*
X302850Y226900D03*
X378350Y229400D03*
X302850Y231900D03*
X378350Y234400D03*
X302850Y236900D03*
X378350Y239400D03*
X302850Y241900D03*
X378350Y264400D03*
X302850Y266900D03*
X378350Y269400D03*
X302850Y271900D03*
X378350Y274400D03*
X302850Y276900D03*
X378350Y279400D03*
X302850Y281900D03*
X378350Y284400D03*
X302850Y286900D03*
X378350Y289400D03*
X302850Y291900D03*
X378350Y294400D03*
X302850Y296900D03*
X378350Y299400D03*
X302850Y301900D03*
X378350Y304400D03*
X302850Y306900D03*
X378350Y309400D03*
X302850Y311900D03*
X378350Y314400D03*
X302850Y316900D03*
X378350Y319400D03*
X302850Y321900D03*
X378350Y324400D03*
X302850Y326900D03*
X378350Y329400D03*
X302850Y331900D03*
X378350Y334400D03*
X302850Y336900D03*
X378350Y339400D03*
X302850Y341900D03*
X378350Y344400D03*
X302850Y346900D03*
X378350Y349400D03*
X302850Y351900D03*
X378350Y354400D03*
X302850Y356900D03*
X378350Y359400D03*
X302850Y361900D03*
X378350Y364400D03*
X302850Y366900D03*
X378350Y369400D03*
X302850Y371900D03*
D32*
X93500Y303403D03*
X93500Y434721D03*
D33*
X135620Y379062D03*
X135620Y404062D03*
X135620Y359062D03*
X135620Y334062D03*
D25*
X850900Y381000D03*
X850900Y355600D03*
X850900Y330200D03*
X850900Y304800D03*
D34*
X546300Y67400D03*
X546100Y34400D03*
X571700Y67400D03*
X571500Y34400D03*
X520800Y67400D03*
X520600Y34400D03*
X495500Y67400D03*
X495300Y34400D03*
X470100Y67400D03*
X469900Y34400D03*
X444600Y67400D03*
X444400Y34400D03*
X393900Y67400D03*
X393700Y34400D03*
X419300Y67400D03*
X419100Y34400D03*
D25*
X571500Y12700D03*
X546100Y12700D03*
X520700Y12700D03*
X495300Y12700D03*
X469900Y12700D03*
X444500Y12700D03*
X419100Y12700D03*
X393700Y12700D03*
D34*
X762200Y67400D03*
X762000Y34400D03*
X787600Y67400D03*
X787400Y34400D03*
X736700Y67400D03*
X736500Y34400D03*
X711400Y67400D03*
X711200Y34400D03*
X686000Y67400D03*
X685800Y34400D03*
X660500Y67400D03*
X660300Y34400D03*
X609800Y67400D03*
X609600Y34400D03*
X635200Y67400D03*
X635000Y34400D03*
D25*
X787400Y12700D03*
X762000Y12700D03*
X736600Y12700D03*
X711200Y12700D03*
X685800Y12700D03*
X660400Y12700D03*
X635000Y12700D03*
X609600Y12700D03*
D35*
X849550Y403800D03*
X849550Y459800D03*
D36*
X812800Y416800D03*
X812800Y426800D03*
X812800Y436800D03*
X812800Y446800D03*
D35*
X849550Y73600D03*
X849550Y129600D03*
D36*
X812800Y86600D03*
X812800Y96600D03*
X812800Y106600D03*
X812800Y116600D03*
D25*
X76350Y546100D03*
X101750Y546100D03*
X127150Y546100D03*
X152550Y546100D03*
D37*
X796200Y355800D03*
X829200Y355600D03*
X796200Y381200D03*
X829200Y381000D03*
X796200Y330300D03*
X829200Y330100D03*
X796200Y305000D03*
X829200Y304800D03*
D34*
X418900Y491400D03*
X419100Y524400D03*
X393500Y491400D03*
X393700Y524400D03*
X444400Y491400D03*
X444600Y524400D03*
X469700Y491400D03*
X469900Y524400D03*
X495100Y491400D03*
X495300Y524400D03*
X520600Y491400D03*
X520800Y524400D03*
X571300Y491400D03*
X571500Y524400D03*
X545900Y491400D03*
X546100Y524400D03*
X634800Y491400D03*
X635000Y524400D03*
X609400Y491400D03*
X609600Y524400D03*
X660300Y491400D03*
X660500Y524400D03*
X685600Y491400D03*
X685800Y524400D03*
X711000Y491400D03*
X711200Y524400D03*
X736500Y491400D03*
X736700Y524400D03*
X787200Y491400D03*
X787400Y524400D03*
X761800Y491400D03*
X762000Y524400D03*
X330400Y67400D03*
X330200Y34400D03*
X355800Y67400D03*
X355600Y34400D03*
X304900Y67400D03*
X304700Y34400D03*
X279600Y67400D03*
X279400Y34400D03*
D25*
X279400Y12700D03*
X304800Y12700D03*
X330200Y12700D03*
X355600Y12700D03*
X168910Y398780D03*
X168910Y373380D03*
X168910Y347980D03*
X168910Y322580D03*
D34*
X101400Y491400D03*
X101600Y524400D03*
X76000Y491400D03*
X76200Y524400D03*
X126900Y491400D03*
X127100Y524400D03*
X152200Y491400D03*
X152400Y524400D03*
X177600Y491400D03*
X177800Y524400D03*
X203100Y491400D03*
X203300Y524400D03*
X253800Y491400D03*
X254000Y524400D03*
X228400Y491400D03*
X228600Y524400D03*
X279200Y491400D03*
X279400Y524400D03*
X304700Y491400D03*
X304900Y524400D03*
X355400Y491400D03*
X355600Y524400D03*
X330000Y491400D03*
X330200Y524400D03*
D25*
X355600Y546100D03*
X330200Y546100D03*
X304800Y546100D03*
X279400Y546100D03*
X254000Y546100D03*
X228600Y546100D03*
X203200Y546100D03*
X177800Y546100D03*
D38*
X71320Y92390D02*
X71320Y85410D01*
X71320Y92390D02*
X78300Y92390D01*
X78300Y85410D01*
X71320Y85410D01*
X71320Y90210D02*
X78300Y90210D01*
X53780Y92390D02*
X53780Y85410D01*
X53780Y92390D02*
X60760Y92390D01*
X60760Y85410D01*
X53780Y85410D01*
X53780Y90210D02*
X60760Y90210D01*
X71320Y72070D02*
X71320Y65090D01*
X71320Y72070D02*
X78300Y72070D01*
X78300Y65090D01*
X71320Y65090D01*
X71320Y69890D02*
X78300Y69890D01*
X53780Y72070D02*
X53780Y65090D01*
X53780Y72070D02*
X60760Y72070D01*
X60760Y65090D01*
X53780Y65090D01*
X53780Y69890D02*
X60760Y69890D01*
D16*
X38980Y88900D03*
X21980Y88900D03*
X40250Y68580D03*
X23250Y68580D03*
D25*
X850900Y254000D03*
X850900Y228600D03*
X850900Y203200D03*
X850900Y177800D03*
X850900Y152400D03*
D37*
X796200Y228800D03*
X829200Y228600D03*
X796200Y254200D03*
X829200Y254000D03*
X796200Y203300D03*
X829200Y203100D03*
X796200Y178000D03*
X829200Y177800D03*
X796200Y152600D03*
X829200Y152400D03*
D18*
X635000Y228600D03*
X635000Y330200D03*
D25*
X393700Y546100D03*
X419100Y546100D03*
X444500Y546100D03*
X469900Y546100D03*
X495300Y546100D03*
X520700Y546100D03*
X546100Y546100D03*
X571500Y546100D03*
X609600Y546100D03*
X635000Y546100D03*
X660400Y546100D03*
X685800Y546100D03*
X711200Y546100D03*
X736600Y546100D03*
X762000Y546100D03*
X787400Y546100D03*
D22*
X185166Y181610D03*
X193294Y181610D03*
D10*
X60100Y734180D03*
X60100Y739180D03*
D11*
X60100Y709430D03*
X60100Y717180D03*
D10*
X60100Y724180D03*
X60100Y729180D03*
X60100Y749180D03*
X60100Y744180D03*
D11*
X60100Y773930D03*
X60100Y766180D03*
D10*
X60100Y759180D03*
X60100Y754180D03*
D12*
X49050Y770580D03*
X49050Y712780D03*
D13*
X76200Y775580D03*
X76200Y758580D03*
X76200Y707780D03*
X76200Y724780D03*
D14*
X91850Y727930D03*
X98350Y727930D03*
X104850Y727930D03*
X111350Y727930D03*
X111350Y755430D03*
X104850Y755430D03*
X98350Y755430D03*
X91850Y755430D03*
D15*
X101600Y741680D03*
D16*
X93100Y779780D03*
X110100Y779780D03*
D17*
X45720Y609600D03*
X816770Y1076960D03*
D18*
X838200Y1097280D03*
X25400Y1097280D03*
X838200Y589280D03*
X25400Y589280D03*
D19*
X714460Y948340D03*
D20*
X633660Y952500D03*
X656660Y952500D03*
D16*
X653914Y969264D03*
X636914Y969264D03*
D20*
X633660Y935990D03*
X656660Y935990D03*
D21*
X152400Y582930D03*
X96520Y582930D03*
X152400Y621030D03*
X96520Y621030D03*
D16*
X93100Y795020D03*
X110100Y795020D03*
D22*
X34798Y842264D03*
X42926Y842264D03*
D23*
X23608Y812292D03*
X53608Y812292D03*
D24*
X104678Y819150D03*
X76678Y819150D03*
D13*
X149860Y786520D03*
X149860Y803520D03*
X134874Y803774D03*
X134874Y786774D03*
D22*
X101600Y703580D03*
X111760Y703580D03*
D25*
X93980Y703580D03*
X119380Y703580D03*
D26*
X211582Y816356D03*
X211582Y829056D03*
X211582Y841756D03*
X211582Y854456D03*
X211582Y803656D03*
X198882Y816356D03*
X198882Y829056D03*
X198882Y841756D03*
X198882Y854456D03*
X198882Y803656D03*
D21*
X231140Y582930D03*
X175260Y582930D03*
X231140Y621030D03*
X175260Y621030D03*
D27*
X555498Y803148D03*
D16*
X130692Y749554D03*
X147692Y749554D03*
D20*
X127692Y732536D03*
X150692Y732536D03*
D13*
X139700Y704460D03*
X139700Y687460D03*
X154940Y704460D03*
X154940Y687460D03*
X170180Y704460D03*
X170180Y687460D03*
D28*
X355600Y743280D03*
D29*
X355600Y943280D03*
D30*
X302850Y750780D03*
D31*
X310600Y739780D03*
X310600Y946780D03*
D30*
X378350Y753280D03*
X302850Y755780D03*
X378350Y758280D03*
X302850Y760780D03*
X378350Y763280D03*
X302850Y765780D03*
X378350Y768280D03*
X302850Y770780D03*
X378350Y773280D03*
X302850Y775780D03*
X378350Y778280D03*
X302850Y780780D03*
X378350Y783280D03*
X302850Y785780D03*
X378350Y788280D03*
X302850Y790780D03*
X378350Y793280D03*
X302850Y795780D03*
X378350Y798280D03*
X302850Y800780D03*
X378350Y803280D03*
X302850Y805780D03*
X378350Y828280D03*
X302850Y830780D03*
X378350Y833280D03*
X302850Y835780D03*
X378350Y838280D03*
X302850Y840780D03*
X378350Y843280D03*
X302850Y845780D03*
X378350Y848280D03*
X302850Y850780D03*
X378350Y853280D03*
X302850Y855780D03*
X378350Y858280D03*
X302850Y860780D03*
X378350Y863280D03*
X302850Y865780D03*
X378350Y868280D03*
X302850Y870780D03*
X378350Y873280D03*
X302850Y875780D03*
X378350Y878280D03*
X302850Y880780D03*
X378350Y883280D03*
X302850Y885780D03*
X378350Y888280D03*
X302850Y890780D03*
X378350Y893280D03*
X302850Y895780D03*
X378350Y898280D03*
X302850Y900780D03*
X378350Y903280D03*
X302850Y905780D03*
X378350Y908280D03*
X302850Y910780D03*
X378350Y913280D03*
X302850Y915780D03*
X378350Y918280D03*
X302850Y920780D03*
X378350Y923280D03*
X302850Y925780D03*
X378350Y928280D03*
X302850Y930780D03*
X378350Y933280D03*
X302850Y935780D03*
D32*
X93500Y867283D03*
X93500Y998601D03*
D33*
X135620Y942942D03*
X135620Y967942D03*
X135620Y922942D03*
X135620Y897942D03*
D25*
X850900Y944880D03*
X850900Y919480D03*
X850900Y894080D03*
X850900Y868680D03*
D34*
X546300Y631280D03*
X546100Y598280D03*
X571700Y631280D03*
X571500Y598280D03*
X520800Y631280D03*
X520600Y598280D03*
X495500Y631280D03*
X495300Y598280D03*
X470100Y631280D03*
X469900Y598280D03*
X444600Y631280D03*
X444400Y598280D03*
X393900Y631280D03*
X393700Y598280D03*
X419300Y631280D03*
X419100Y598280D03*
D25*
X571500Y576580D03*
X546100Y576580D03*
X520700Y576580D03*
X495300Y576580D03*
X469900Y576580D03*
X444500Y576580D03*
X419100Y576580D03*
X393700Y576580D03*
D34*
X762200Y631280D03*
X762000Y598280D03*
X787600Y631280D03*
X787400Y598280D03*
X736700Y631280D03*
X736500Y598280D03*
X711400Y631280D03*
X711200Y598280D03*
X686000Y631280D03*
X685800Y598280D03*
X660500Y631280D03*
X660300Y598280D03*
X609800Y631280D03*
X609600Y598280D03*
X635200Y631280D03*
X635000Y598280D03*
D25*
X787400Y576580D03*
X762000Y576580D03*
X736600Y576580D03*
X711200Y576580D03*
X685800Y576580D03*
X660400Y576580D03*
X635000Y576580D03*
X609600Y576580D03*
D35*
X849550Y967680D03*
X849550Y1023680D03*
D36*
X812800Y980680D03*
X812800Y990680D03*
X812800Y1000680D03*
X812800Y1010680D03*
D35*
X849550Y637480D03*
X849550Y693480D03*
D36*
X812800Y650480D03*
X812800Y660480D03*
X812800Y670480D03*
X812800Y680480D03*
D25*
X76350Y1109980D03*
X101750Y1109980D03*
X127150Y1109980D03*
X152550Y1109980D03*
D37*
X796200Y919680D03*
X829200Y919480D03*
X796200Y945080D03*
X829200Y944880D03*
X796200Y894180D03*
X829200Y893980D03*
X796200Y868880D03*
X829200Y868680D03*
D34*
X418900Y1055280D03*
X419100Y1088280D03*
X393500Y1055280D03*
X393700Y1088280D03*
X444400Y1055280D03*
X444600Y1088280D03*
X469700Y1055280D03*
X469900Y1088280D03*
X495100Y1055280D03*
X495300Y1088280D03*
X520600Y1055280D03*
X520800Y1088280D03*
X571300Y1055280D03*
X571500Y1088280D03*
X545900Y1055280D03*
X546100Y1088280D03*
X634800Y1055280D03*
X635000Y1088280D03*
X609400Y1055280D03*
X609600Y1088280D03*
X660300Y1055280D03*
X660500Y1088280D03*
X685600Y1055280D03*
X685800Y1088280D03*
X711000Y1055280D03*
X711200Y1088280D03*
X736500Y1055280D03*
X736700Y1088280D03*
X787200Y1055280D03*
X787400Y1088280D03*
X761800Y1055280D03*
X762000Y1088280D03*
X330400Y631280D03*
X330200Y598280D03*
X355800Y631280D03*
X355600Y598280D03*
X304900Y631280D03*
X304700Y598280D03*
X279600Y631280D03*
X279400Y598280D03*
D25*
X279400Y576580D03*
X304800Y576580D03*
X330200Y576580D03*
X355600Y576580D03*
X168910Y962660D03*
X168910Y937260D03*
X168910Y911860D03*
X168910Y886460D03*
D34*
X101400Y1055280D03*
X101600Y1088280D03*
X76000Y1055280D03*
X76200Y1088280D03*
X126900Y1055280D03*
X127100Y1088280D03*
X152200Y1055280D03*
X152400Y1088280D03*
X177600Y1055280D03*
X177800Y1088280D03*
X203100Y1055280D03*
X203300Y1088280D03*
X253800Y1055280D03*
X254000Y1088280D03*
X228400Y1055280D03*
X228600Y1088280D03*
X279200Y1055280D03*
X279400Y1088280D03*
X304700Y1055280D03*
X304900Y1088280D03*
X355400Y1055280D03*
X355600Y1088280D03*
X330000Y1055280D03*
X330200Y1088280D03*
D25*
X355600Y1109980D03*
X330200Y1109980D03*
X304800Y1109980D03*
X279400Y1109980D03*
X254000Y1109980D03*
X228600Y1109980D03*
X203200Y1109980D03*
X177800Y1109980D03*
D38*
X71320Y656270D02*
X71320Y649290D01*
X71320Y656270D02*
X78300Y656270D01*
X78300Y649290D01*
X71320Y649290D01*
X71320Y654090D02*
X78300Y654090D01*
X53780Y656270D02*
X53780Y649290D01*
X53780Y656270D02*
X60760Y656270D01*
X60760Y649290D01*
X53780Y649290D01*
X53780Y654090D02*
X60760Y654090D01*
X71320Y635950D02*
X71320Y628970D01*
X71320Y635950D02*
X78300Y635950D01*
X78300Y628970D01*
X71320Y628970D01*
X71320Y633770D02*
X78300Y633770D01*
X53780Y635950D02*
X53780Y628970D01*
X53780Y635950D02*
X60760Y635950D01*
X60760Y628970D01*
X53780Y628970D01*
X53780Y633770D02*
X60760Y633770D01*
D16*
X38980Y652780D03*
X21980Y652780D03*
X40250Y632460D03*
X23250Y632460D03*
D25*
X850900Y817880D03*
X850900Y792480D03*
X850900Y767080D03*
X850900Y741680D03*
X850900Y716280D03*
D37*
X796200Y792680D03*
X829200Y792480D03*
X796200Y818080D03*
X829200Y817880D03*
X796200Y767180D03*
X829200Y766980D03*
X796200Y741880D03*
X829200Y741680D03*
X796200Y716480D03*
X829200Y716280D03*
D18*
X635000Y792480D03*
X635000Y894080D03*
D25*
X393700Y1109980D03*
X419100Y1109980D03*
X444500Y1109980D03*
X469900Y1109980D03*
X495300Y1109980D03*
X520700Y1109980D03*
X546100Y1109980D03*
X571500Y1109980D03*
X609600Y1109980D03*
X635000Y1109980D03*
X660400Y1109980D03*
X685800Y1109980D03*
X711200Y1109980D03*
X736600Y1109980D03*
X762000Y1109980D03*
X787400Y1109980D03*
D22*
X185166Y745490D03*
X193294Y745490D03*
D10*
X60100Y1298060D03*
X60100Y1303060D03*
D11*
X60100Y1273310D03*
X60100Y1281060D03*
D10*
X60100Y1288060D03*
X60100Y1293060D03*
X60100Y1313060D03*
X60100Y1308060D03*
D11*
X60100Y1337810D03*
X60100Y1330060D03*
D10*
X60100Y1323060D03*
X60100Y1318060D03*
D12*
X49050Y1334460D03*
X49050Y1276660D03*
D13*
X76200Y1339460D03*
X76200Y1322460D03*
X76200Y1271660D03*
X76200Y1288660D03*
D14*
X91850Y1291810D03*
X98350Y1291810D03*
X104850Y1291810D03*
X111350Y1291810D03*
X111350Y1319310D03*
X104850Y1319310D03*
X98350Y1319310D03*
X91850Y1319310D03*
D15*
X101600Y1305560D03*
D16*
X93100Y1343660D03*
X110100Y1343660D03*
D17*
X45720Y1173480D03*
X816770Y1640840D03*
D18*
X838200Y1661160D03*
X25400Y1661160D03*
X838200Y1153160D03*
X25400Y1153160D03*
D19*
X714460Y1512220D03*
D20*
X633660Y1516380D03*
X656660Y1516380D03*
D16*
X653914Y1533144D03*
X636914Y1533144D03*
D20*
X633660Y1499870D03*
X656660Y1499870D03*
D21*
X152400Y1146810D03*
X96520Y1146810D03*
X152400Y1184910D03*
X96520Y1184910D03*
D16*
X93100Y1358900D03*
X110100Y1358900D03*
D22*
X34798Y1406144D03*
X42926Y1406144D03*
D23*
X23608Y1376172D03*
X53608Y1376172D03*
D24*
X104678Y1383030D03*
X76678Y1383030D03*
D13*
X149860Y1350400D03*
X149860Y1367400D03*
X134874Y1367654D03*
X134874Y1350654D03*
D22*
X101600Y1267460D03*
X111760Y1267460D03*
D25*
X93980Y1267460D03*
X119380Y1267460D03*
D26*
X211582Y1380236D03*
X211582Y1392936D03*
X211582Y1405636D03*
X211582Y1418336D03*
X211582Y1367536D03*
X198882Y1380236D03*
X198882Y1392936D03*
X198882Y1405636D03*
X198882Y1418336D03*
X198882Y1367536D03*
D21*
X231140Y1146810D03*
X175260Y1146810D03*
X231140Y1184910D03*
X175260Y1184910D03*
D27*
X555498Y1367028D03*
D16*
X130692Y1313434D03*
X147692Y1313434D03*
D20*
X127692Y1296416D03*
X150692Y1296416D03*
D13*
X139700Y1268340D03*
X139700Y1251340D03*
X154940Y1268340D03*
X154940Y1251340D03*
X170180Y1268340D03*
X170180Y1251340D03*
D28*
X355600Y1307160D03*
D29*
X355600Y1507160D03*
D30*
X302850Y1314660D03*
D31*
X310600Y1303660D03*
X310600Y1510660D03*
D30*
X378350Y1317160D03*
X302850Y1319660D03*
X378350Y1322160D03*
X302850Y1324660D03*
X378350Y1327160D03*
X302850Y1329660D03*
X378350Y1332160D03*
X302850Y1334660D03*
X378350Y1337160D03*
X302850Y1339660D03*
X378350Y1342160D03*
X302850Y1344660D03*
X378350Y1347160D03*
X302850Y1349660D03*
X378350Y1352160D03*
X302850Y1354660D03*
X378350Y1357160D03*
X302850Y1359660D03*
X378350Y1362160D03*
X302850Y1364660D03*
X378350Y1367160D03*
X302850Y1369660D03*
X378350Y1392160D03*
X302850Y1394660D03*
X378350Y1397160D03*
X302850Y1399660D03*
X378350Y1402160D03*
X302850Y1404660D03*
X378350Y1407160D03*
X302850Y1409660D03*
X378350Y1412160D03*
X302850Y1414660D03*
X378350Y1417160D03*
X302850Y1419660D03*
X378350Y1422160D03*
X302850Y1424660D03*
X378350Y1427160D03*
X302850Y1429660D03*
X378350Y1432160D03*
X302850Y1434660D03*
X378350Y1437160D03*
X302850Y1439660D03*
X378350Y1442160D03*
X302850Y1444660D03*
X378350Y1447160D03*
X302850Y1449660D03*
X378350Y1452160D03*
X302850Y1454660D03*
X378350Y1457160D03*
X302850Y1459660D03*
X378350Y1462160D03*
X302850Y1464660D03*
X378350Y1467160D03*
X302850Y1469660D03*
X378350Y1472160D03*
X302850Y1474660D03*
X378350Y1477160D03*
X302850Y1479660D03*
X378350Y1482160D03*
X302850Y1484660D03*
X378350Y1487160D03*
X302850Y1489660D03*
X378350Y1492160D03*
X302850Y1494660D03*
X378350Y1497160D03*
X302850Y1499660D03*
D32*
X93500Y1431163D03*
X93500Y1562481D03*
D33*
X135620Y1506822D03*
X135620Y1531822D03*
X135620Y1486822D03*
X135620Y1461822D03*
D25*
X850900Y1508760D03*
X850900Y1483360D03*
X850900Y1457960D03*
X850900Y1432560D03*
D34*
X546300Y1195160D03*
X546100Y1162160D03*
X571700Y1195160D03*
X571500Y1162160D03*
X520800Y1195160D03*
X520600Y1162160D03*
X495500Y1195160D03*
X495300Y1162160D03*
X470100Y1195160D03*
X469900Y1162160D03*
X444600Y1195160D03*
X444400Y1162160D03*
X393900Y1195160D03*
X393700Y1162160D03*
X419300Y1195160D03*
X419100Y1162160D03*
D25*
X571500Y1140460D03*
X546100Y1140460D03*
X520700Y1140460D03*
X495300Y1140460D03*
X469900Y1140460D03*
X444500Y1140460D03*
X419100Y1140460D03*
X393700Y1140460D03*
D34*
X762200Y1195160D03*
X762000Y1162160D03*
X787600Y1195160D03*
X787400Y1162160D03*
X736700Y1195160D03*
X736500Y1162160D03*
X711400Y1195160D03*
X711200Y1162160D03*
X686000Y1195160D03*
X685800Y1162160D03*
X660500Y1195160D03*
X660300Y1162160D03*
X609800Y1195160D03*
X609600Y1162160D03*
X635200Y1195160D03*
X635000Y1162160D03*
D25*
X787400Y1140460D03*
X762000Y1140460D03*
X736600Y1140460D03*
X711200Y1140460D03*
X685800Y1140460D03*
X660400Y1140460D03*
X635000Y1140460D03*
X609600Y1140460D03*
D35*
X849550Y1531560D03*
X849550Y1587560D03*
D36*
X812800Y1544560D03*
X812800Y1554560D03*
X812800Y1564560D03*
X812800Y1574560D03*
D35*
X849550Y1201360D03*
X849550Y1257360D03*
D36*
X812800Y1214360D03*
X812800Y1224360D03*
X812800Y1234360D03*
X812800Y1244360D03*
D25*
X76350Y1673860D03*
X101750Y1673860D03*
X127150Y1673860D03*
X152550Y1673860D03*
D37*
X796200Y1483560D03*
X829200Y1483360D03*
X796200Y1508960D03*
X829200Y1508760D03*
X796200Y1458060D03*
X829200Y1457860D03*
X796200Y1432760D03*
X829200Y1432560D03*
D34*
X418900Y1619160D03*
X419100Y1652160D03*
X393500Y1619160D03*
X393700Y1652160D03*
X444400Y1619160D03*
X444600Y1652160D03*
X469700Y1619160D03*
X469900Y1652160D03*
X495100Y1619160D03*
X495300Y1652160D03*
X520600Y1619160D03*
X520800Y1652160D03*
X571300Y1619160D03*
X571500Y1652160D03*
X545900Y1619160D03*
X546100Y1652160D03*
X634800Y1619160D03*
X635000Y1652160D03*
X609400Y1619160D03*
X609600Y1652160D03*
X660300Y1619160D03*
X660500Y1652160D03*
X685600Y1619160D03*
X685800Y1652160D03*
X711000Y1619160D03*
X711200Y1652160D03*
X736500Y1619160D03*
X736700Y1652160D03*
X787200Y1619160D03*
X787400Y1652160D03*
X761800Y1619160D03*
X762000Y1652160D03*
X330400Y1195160D03*
X330200Y1162160D03*
X355800Y1195160D03*
X355600Y1162160D03*
X304900Y1195160D03*
X304700Y1162160D03*
X279600Y1195160D03*
X279400Y1162160D03*
D25*
X279400Y1140460D03*
X304800Y1140460D03*
X330200Y1140460D03*
X355600Y1140460D03*
X168910Y1526540D03*
X168910Y1501140D03*
X168910Y1475740D03*
X168910Y1450340D03*
D34*
X101400Y1619160D03*
X101600Y1652160D03*
X76000Y1619160D03*
X76200Y1652160D03*
X126900Y1619160D03*
X127100Y1652160D03*
X152200Y1619160D03*
X152400Y1652160D03*
X177600Y1619160D03*
X177800Y1652160D03*
X203100Y1619160D03*
X203300Y1652160D03*
X253800Y1619160D03*
X254000Y1652160D03*
X228400Y1619160D03*
X228600Y1652160D03*
X279200Y1619160D03*
X279400Y1652160D03*
X304700Y1619160D03*
X304900Y1652160D03*
X355400Y1619160D03*
X355600Y1652160D03*
X330000Y1619160D03*
X330200Y1652160D03*
D25*
X355600Y1673860D03*
X330200Y1673860D03*
X304800Y1673860D03*
X279400Y1673860D03*
X254000Y1673860D03*
X228600Y1673860D03*
X203200Y1673860D03*
X177800Y1673860D03*
D38*
X71320Y1220150D02*
X71320Y1213170D01*
X71320Y1220150D02*
X78300Y1220150D01*
X78300Y1213170D01*
X71320Y1213170D01*
X71320Y1217970D02*
X78300Y1217970D01*
X53780Y1220150D02*
X53780Y1213170D01*
X53780Y1220150D02*
X60760Y1220150D01*
X60760Y1213170D01*
X53780Y1213170D01*
X53780Y1217970D02*
X60760Y1217970D01*
X71320Y1199830D02*
X71320Y1192850D01*
X71320Y1199830D02*
X78300Y1199830D01*
X78300Y1192850D01*
X71320Y1192850D01*
X71320Y1197650D02*
X78300Y1197650D01*
X53780Y1199830D02*
X53780Y1192850D01*
X53780Y1199830D02*
X60760Y1199830D01*
X60760Y1192850D01*
X53780Y1192850D01*
X53780Y1197650D02*
X60760Y1197650D01*
D16*
X38980Y1216660D03*
X21980Y1216660D03*
X40250Y1196340D03*
X23250Y1196340D03*
D25*
X850900Y1381760D03*
X850900Y1356360D03*
X850900Y1330960D03*
X850900Y1305560D03*
X850900Y1280160D03*
D37*
X796200Y1356560D03*
X829200Y1356360D03*
X796200Y1381960D03*
X829200Y1381760D03*
X796200Y1331060D03*
X829200Y1330860D03*
X796200Y1305760D03*
X829200Y1305560D03*
X796200Y1280360D03*
X829200Y1280160D03*
D18*
X635000Y1356360D03*
X635000Y1457960D03*
D25*
X393700Y1673860D03*
X419100Y1673860D03*
X444500Y1673860D03*
X469900Y1673860D03*
X495300Y1673860D03*
X520700Y1673860D03*
X546100Y1673860D03*
X571500Y1673860D03*
X609600Y1673860D03*
X635000Y1673860D03*
X660400Y1673860D03*
X685800Y1673860D03*
X711200Y1673860D03*
X736600Y1673860D03*
X762000Y1673860D03*
X787400Y1673860D03*
D22*
X185166Y1309370D03*
X193294Y1309370D03*
D10*
X60100Y1861940D03*
X60100Y1866940D03*
D11*
X60100Y1837190D03*
X60100Y1844940D03*
D10*
X60100Y1851940D03*
X60100Y1856940D03*
X60100Y1876940D03*
X60100Y1871940D03*
D11*
X60100Y1901690D03*
X60100Y1893940D03*
D10*
X60100Y1886940D03*
X60100Y1881940D03*
D12*
X49050Y1898340D03*
X49050Y1840540D03*
D13*
X76200Y1903340D03*
X76200Y1886340D03*
X76200Y1835540D03*
X76200Y1852540D03*
D14*
X91850Y1855690D03*
X98350Y1855690D03*
X104850Y1855690D03*
X111350Y1855690D03*
X111350Y1883190D03*
X104850Y1883190D03*
X98350Y1883190D03*
X91850Y1883190D03*
D15*
X101600Y1869440D03*
D16*
X93100Y1907540D03*
X110100Y1907540D03*
D17*
X45720Y1737360D03*
X816770Y2204720D03*
D18*
X838200Y2225040D03*
X25400Y2225040D03*
X838200Y1717040D03*
X25400Y1717040D03*
D19*
X714460Y2076100D03*
D20*
X633660Y2080260D03*
X656660Y2080260D03*
D16*
X653914Y2097024D03*
X636914Y2097024D03*
D20*
X633660Y2063750D03*
X656660Y2063750D03*
D21*
X152400Y1710690D03*
X96520Y1710690D03*
X152400Y1748790D03*
X96520Y1748790D03*
D16*
X93100Y1922780D03*
X110100Y1922780D03*
D22*
X34798Y1970024D03*
X42926Y1970024D03*
D23*
X23608Y1940052D03*
X53608Y1940052D03*
D24*
X104678Y1946910D03*
X76678Y1946910D03*
D13*
X149860Y1914280D03*
X149860Y1931280D03*
X134874Y1931534D03*
X134874Y1914534D03*
D22*
X101600Y1831340D03*
X111760Y1831340D03*
D25*
X93980Y1831340D03*
X119380Y1831340D03*
D26*
X211582Y1944116D03*
X211582Y1956816D03*
X211582Y1969516D03*
X211582Y1982216D03*
X211582Y1931416D03*
X198882Y1944116D03*
X198882Y1956816D03*
X198882Y1969516D03*
X198882Y1982216D03*
X198882Y1931416D03*
D21*
X231140Y1710690D03*
X175260Y1710690D03*
X231140Y1748790D03*
X175260Y1748790D03*
D27*
X555498Y1930908D03*
D16*
X130692Y1877314D03*
X147692Y1877314D03*
D20*
X127692Y1860296D03*
X150692Y1860296D03*
D13*
X139700Y1832220D03*
X139700Y1815220D03*
X154940Y1832220D03*
X154940Y1815220D03*
X170180Y1832220D03*
X170180Y1815220D03*
D28*
X355600Y1871040D03*
D29*
X355600Y2071040D03*
D30*
X302850Y1878540D03*
D31*
X310600Y1867540D03*
X310600Y2074540D03*
D30*
X378350Y1881040D03*
X302850Y1883540D03*
X378350Y1886040D03*
X302850Y1888540D03*
X378350Y1891040D03*
X302850Y1893540D03*
X378350Y1896040D03*
X302850Y1898540D03*
X378350Y1901040D03*
X302850Y1903540D03*
X378350Y1906040D03*
X302850Y1908540D03*
X378350Y1911040D03*
X302850Y1913540D03*
X378350Y1916040D03*
X302850Y1918540D03*
X378350Y1921040D03*
X302850Y1923540D03*
X378350Y1926040D03*
X302850Y1928540D03*
X378350Y1931040D03*
X302850Y1933540D03*
X378350Y1956040D03*
X302850Y1958540D03*
X378350Y1961040D03*
X302850Y1963540D03*
X378350Y1966040D03*
X302850Y1968540D03*
X378350Y1971040D03*
X302850Y1973540D03*
X378350Y1976040D03*
X302850Y1978540D03*
X378350Y1981040D03*
X302850Y1983540D03*
X378350Y1986040D03*
X302850Y1988540D03*
X378350Y1991040D03*
X302850Y1993540D03*
X378350Y1996040D03*
X302850Y1998540D03*
X378350Y2001040D03*
X302850Y2003540D03*
X378350Y2006040D03*
X302850Y2008540D03*
X378350Y2011040D03*
X302850Y2013540D03*
X378350Y2016040D03*
X302850Y2018540D03*
X378350Y2021040D03*
X302850Y2023540D03*
X378350Y2026040D03*
X302850Y2028540D03*
X378350Y2031040D03*
X302850Y2033540D03*
X378350Y2036040D03*
X302850Y2038540D03*
X378350Y2041040D03*
X302850Y2043540D03*
X378350Y2046040D03*
X302850Y2048540D03*
X378350Y2051040D03*
X302850Y2053540D03*
X378350Y2056040D03*
X302850Y2058540D03*
X378350Y2061040D03*
X302850Y2063540D03*
D32*
X93500Y1995043D03*
X93500Y2126361D03*
D33*
X135620Y2070702D03*
X135620Y2095702D03*
X135620Y2050702D03*
X135620Y2025702D03*
D25*
X850900Y2072640D03*
X850900Y2047240D03*
X850900Y2021840D03*
X850900Y1996440D03*
D34*
X546300Y1759040D03*
X546100Y1726040D03*
X571700Y1759040D03*
X571500Y1726040D03*
X520800Y1759040D03*
X520600Y1726040D03*
X495500Y1759040D03*
X495300Y1726040D03*
X470100Y1759040D03*
X469900Y1726040D03*
X444600Y1759040D03*
X444400Y1726040D03*
X393900Y1759040D03*
X393700Y1726040D03*
X419300Y1759040D03*
X419100Y1726040D03*
D25*
X571500Y1704340D03*
X546100Y1704340D03*
X520700Y1704340D03*
X495300Y1704340D03*
X469900Y1704340D03*
X444500Y1704340D03*
X419100Y1704340D03*
X393700Y1704340D03*
D34*
X762200Y1759040D03*
X762000Y1726040D03*
X787600Y1759040D03*
X787400Y1726040D03*
X736700Y1759040D03*
X736500Y1726040D03*
X711400Y1759040D03*
X711200Y1726040D03*
X686000Y1759040D03*
X685800Y1726040D03*
X660500Y1759040D03*
X660300Y1726040D03*
X609800Y1759040D03*
X609600Y1726040D03*
X635200Y1759040D03*
X635000Y1726040D03*
D25*
X787400Y1704340D03*
X762000Y1704340D03*
X736600Y1704340D03*
X711200Y1704340D03*
X685800Y1704340D03*
X660400Y1704340D03*
X635000Y1704340D03*
X609600Y1704340D03*
D35*
X849550Y2095440D03*
X849550Y2151440D03*
D36*
X812800Y2108440D03*
X812800Y2118440D03*
X812800Y2128440D03*
X812800Y2138440D03*
D35*
X849550Y1765240D03*
X849550Y1821240D03*
D36*
X812800Y1778240D03*
X812800Y1788240D03*
X812800Y1798240D03*
X812800Y1808240D03*
D25*
X76350Y2237740D03*
X101750Y2237740D03*
X127150Y2237740D03*
X152550Y2237740D03*
D37*
X796200Y2047440D03*
X829200Y2047240D03*
X796200Y2072840D03*
X829200Y2072640D03*
X796200Y2021940D03*
X829200Y2021740D03*
X796200Y1996640D03*
X829200Y1996440D03*
D34*
X418900Y2183040D03*
X419100Y2216040D03*
X393500Y2183040D03*
X393700Y2216040D03*
X444400Y2183040D03*
X444600Y2216040D03*
X469700Y2183040D03*
X469900Y2216040D03*
X495100Y2183040D03*
X495300Y2216040D03*
X520600Y2183040D03*
X520800Y2216040D03*
X571300Y2183040D03*
X571500Y2216040D03*
X545900Y2183040D03*
X546100Y2216040D03*
X634800Y2183040D03*
X635000Y2216040D03*
X609400Y2183040D03*
X609600Y2216040D03*
X660300Y2183040D03*
X660500Y2216040D03*
X685600Y2183040D03*
X685800Y2216040D03*
X711000Y2183040D03*
X711200Y2216040D03*
X736500Y2183040D03*
X736700Y2216040D03*
X787200Y2183040D03*
X787400Y2216040D03*
X761800Y2183040D03*
X762000Y2216040D03*
X330400Y1759040D03*
X330200Y1726040D03*
X355800Y1759040D03*
X355600Y1726040D03*
X304900Y1759040D03*
X304700Y1726040D03*
X279600Y1759040D03*
X279400Y1726040D03*
D25*
X279400Y1704340D03*
X304800Y1704340D03*
X330200Y1704340D03*
X355600Y1704340D03*
X168910Y2090420D03*
X168910Y2065020D03*
X168910Y2039620D03*
X168910Y2014220D03*
D34*
X101400Y2183040D03*
X101600Y2216040D03*
X76000Y2183040D03*
X76200Y2216040D03*
X126900Y2183040D03*
X127100Y2216040D03*
X152200Y2183040D03*
X152400Y2216040D03*
X177600Y2183040D03*
X177800Y2216040D03*
X203100Y2183040D03*
X203300Y2216040D03*
X253800Y2183040D03*
X254000Y2216040D03*
X228400Y2183040D03*
X228600Y2216040D03*
X279200Y2183040D03*
X279400Y2216040D03*
X304700Y2183040D03*
X304900Y2216040D03*
X355400Y2183040D03*
X355600Y2216040D03*
X330000Y2183040D03*
X330200Y2216040D03*
D25*
X355600Y2237740D03*
X330200Y2237740D03*
X304800Y2237740D03*
X279400Y2237740D03*
X254000Y2237740D03*
X228600Y2237740D03*
X203200Y2237740D03*
X177800Y2237740D03*
D38*
X71320Y1784030D02*
X71320Y1777050D01*
X71320Y1784030D02*
X78300Y1784030D01*
X78300Y1777050D01*
X71320Y1777050D01*
X71320Y1781850D02*
X78300Y1781850D01*
X53780Y1784030D02*
X53780Y1777050D01*
X53780Y1784030D02*
X60760Y1784030D01*
X60760Y1777050D01*
X53780Y1777050D01*
X53780Y1781850D02*
X60760Y1781850D01*
X71320Y1763710D02*
X71320Y1756730D01*
X71320Y1763710D02*
X78300Y1763710D01*
X78300Y1756730D01*
X71320Y1756730D01*
X71320Y1761530D02*
X78300Y1761530D01*
X53780Y1763710D02*
X53780Y1756730D01*
X53780Y1763710D02*
X60760Y1763710D01*
X60760Y1756730D01*
X53780Y1756730D01*
X53780Y1761530D02*
X60760Y1761530D01*
D16*
X38980Y1780540D03*
X21980Y1780540D03*
X40250Y1760220D03*
X23250Y1760220D03*
D25*
X850900Y1945640D03*
X850900Y1920240D03*
X850900Y1894840D03*
X850900Y1869440D03*
X850900Y1844040D03*
D37*
X796200Y1920440D03*
X829200Y1920240D03*
X796200Y1945840D03*
X829200Y1945640D03*
X796200Y1894940D03*
X829200Y1894740D03*
X796200Y1869640D03*
X829200Y1869440D03*
X796200Y1844240D03*
X829200Y1844040D03*
D18*
X635000Y1920240D03*
X635000Y2021840D03*
D25*
X393700Y2237740D03*
X419100Y2237740D03*
X444500Y2237740D03*
X469900Y2237740D03*
X495300Y2237740D03*
X520700Y2237740D03*
X546100Y2237740D03*
X571500Y2237740D03*
X609600Y2237740D03*
X635000Y2237740D03*
X660400Y2237740D03*
X685800Y2237740D03*
X711200Y2237740D03*
X736600Y2237740D03*
X762000Y2237740D03*
X787400Y2237740D03*
D22*
X185166Y1873250D03*
X193294Y1873250D03*
D26*
X93980Y2271395D03*
X845185Y2271395D03*
D39*
X84925Y-20955D02*
X84928Y-20733D01*
X84936Y-20511D01*
X84950Y-20289D01*
X84969Y-20067D01*
X84993Y-19847D01*
X85023Y-19626D01*
X85058Y-19407D01*
X85099Y-19188D01*
X85145Y-18971D01*
X85196Y-18755D01*
X85253Y-18540D01*
X85315Y-18326D01*
X85382Y-18115D01*
X85454Y-17904D01*
X85532Y-17696D01*
X85614Y-17490D01*
X85702Y-17286D01*
X85794Y-17083D01*
X85892Y-16884D01*
X85994Y-16687D01*
X86101Y-16492D01*
X86213Y-16300D01*
X86330Y-16111D01*
X86451Y-15924D01*
X86577Y-15741D01*
X86707Y-15561D01*
X86842Y-15384D01*
X86980Y-15211D01*
X87123Y-15041D01*
X87271Y-14874D01*
X87422Y-14711D01*
X87577Y-14552D01*
X87736Y-14397D01*
X87899Y-14246D01*
X88066Y-14098D01*
X88236Y-13955D01*
X88409Y-13817D01*
X88586Y-13682D01*
X88766Y-13552D01*
X88949Y-13426D01*
X89136Y-13305D01*
X89325Y-13188D01*
X89517Y-13076D01*
X89712Y-12969D01*
X89909Y-12867D01*
X90108Y-12769D01*
X90311Y-12677D01*
X90515Y-12589D01*
X90721Y-12507D01*
X90929Y-12429D01*
X91140Y-12357D01*
X91351Y-12290D01*
X91565Y-12228D01*
X91780Y-12171D01*
X91996Y-12120D01*
X92213Y-12074D01*
X92432Y-12033D01*
X92651Y-11998D01*
X92872Y-11968D01*
X93092Y-11944D01*
X93314Y-11925D01*
X93536Y-11911D01*
X93758Y-11903D01*
X93980Y-11900D01*
X94202Y-11903D01*
X94424Y-11911D01*
X94646Y-11925D01*
X94868Y-11944D01*
X95088Y-11968D01*
X95309Y-11998D01*
X95528Y-12033D01*
X95747Y-12074D01*
X95964Y-12120D01*
X96180Y-12171D01*
X96395Y-12228D01*
X96609Y-12290D01*
X96820Y-12357D01*
X97031Y-12429D01*
X97239Y-12507D01*
X97445Y-12589D01*
X97649Y-12677D01*
X97852Y-12769D01*
X98051Y-12867D01*
X98248Y-12969D01*
X98443Y-13076D01*
X98635Y-13188D01*
X98824Y-13305D01*
X99011Y-13426D01*
X99194Y-13552D01*
X99374Y-13682D01*
X99551Y-13817D01*
X99724Y-13955D01*
X99894Y-14098D01*
X100061Y-14246D01*
X100224Y-14397D01*
X100383Y-14552D01*
X100538Y-14711D01*
X100689Y-14874D01*
X100837Y-15041D01*
X100980Y-15211D01*
X101118Y-15384D01*
X101253Y-15561D01*
X101383Y-15741D01*
X101509Y-15924D01*
X101630Y-16111D01*
X101747Y-16300D01*
X101859Y-16492D01*
X101966Y-16687D01*
X102068Y-16884D01*
X102166Y-17083D01*
X102258Y-17286D01*
X102346Y-17490D01*
X102428Y-17696D01*
X102506Y-17904D01*
X102578Y-18115D01*
X102645Y-18326D01*
X102707Y-18540D01*
X102764Y-18755D01*
X102815Y-18971D01*
X102861Y-19188D01*
X102902Y-19407D01*
X102937Y-19626D01*
X102967Y-19847D01*
X102991Y-20067D01*
X103010Y-20289D01*
X103024Y-20511D01*
X103032Y-20733D01*
X103035Y-20955D01*
X103032Y-21177D01*
X103024Y-21399D01*
X103010Y-21621D01*
X102991Y-21843D01*
X102967Y-22063D01*
X102937Y-22284D01*
X102902Y-22503D01*
X102861Y-22722D01*
X102815Y-22939D01*
X102764Y-23155D01*
X102707Y-23370D01*
X102645Y-23584D01*
X102578Y-23795D01*
X102506Y-24006D01*
X102428Y-24214D01*
X102346Y-24420D01*
X102258Y-24624D01*
X102166Y-24827D01*
X102068Y-25026D01*
X101966Y-25223D01*
X101859Y-25418D01*
X101747Y-25610D01*
X101630Y-25799D01*
X101509Y-25986D01*
X101383Y-26169D01*
X101253Y-26349D01*
X101118Y-26526D01*
X100980Y-26699D01*
X100837Y-26869D01*
X100689Y-27036D01*
X100538Y-27199D01*
X100383Y-27358D01*
X100224Y-27513D01*
X100061Y-27664D01*
X99894Y-27812D01*
X99724Y-27955D01*
X99551Y-28093D01*
X99374Y-28228D01*
X99194Y-28358D01*
X99011Y-28484D01*
X98824Y-28605D01*
X98635Y-28722D01*
X98443Y-28834D01*
X98248Y-28941D01*
X98051Y-29043D01*
X97852Y-29141D01*
X97649Y-29233D01*
X97445Y-29321D01*
X97239Y-29403D01*
X97031Y-29481D01*
X96820Y-29553D01*
X96609Y-29620D01*
X96395Y-29682D01*
X96180Y-29739D01*
X95964Y-29790D01*
X95747Y-29836D01*
X95528Y-29877D01*
X95309Y-29912D01*
X95088Y-29942D01*
X94868Y-29966D01*
X94646Y-29985D01*
X94424Y-29999D01*
X94202Y-30007D01*
X93980Y-30010D01*
X93758Y-30007D01*
X93536Y-29999D01*
X93314Y-29985D01*
X93092Y-29966D01*
X92872Y-29942D01*
X92651Y-29912D01*
X92432Y-29877D01*
X92213Y-29836D01*
X91996Y-29790D01*
X91780Y-29739D01*
X91565Y-29682D01*
X91351Y-29620D01*
X91140Y-29553D01*
X90929Y-29481D01*
X90721Y-29403D01*
X90515Y-29321D01*
X90311Y-29233D01*
X90108Y-29141D01*
X89909Y-29043D01*
X89712Y-28941D01*
X89517Y-28834D01*
X89325Y-28722D01*
X89136Y-28605D01*
X88949Y-28484D01*
X88766Y-28358D01*
X88586Y-28228D01*
X88409Y-28093D01*
X88236Y-27955D01*
X88066Y-27812D01*
X87899Y-27664D01*
X87736Y-27513D01*
X87577Y-27358D01*
X87422Y-27199D01*
X87271Y-27036D01*
X87123Y-26869D01*
X86980Y-26699D01*
X86842Y-26526D01*
X86707Y-26349D01*
X86577Y-26169D01*
X86451Y-25986D01*
X86330Y-25799D01*
X86213Y-25610D01*
X86101Y-25418D01*
X85994Y-25223D01*
X85892Y-25026D01*
X85794Y-24827D01*
X85702Y-24624D01*
X85614Y-24420D01*
X85532Y-24214D01*
X85454Y-24006D01*
X85382Y-23795D01*
X85315Y-23584D01*
X85253Y-23370D01*
X85196Y-23155D01*
X85145Y-22939D01*
X85099Y-22722D01*
X85058Y-22503D01*
X85023Y-22284D01*
X84993Y-22063D01*
X84969Y-21843D01*
X84950Y-21621D01*
X84936Y-21399D01*
X84928Y-21177D01*
X84925Y-20955D01*
D40*
X93980Y-20955D03*
M02*
