G04 EAGLE Gerber RS-274X export*
G75*
%MOMM*%
%FSLAX34Y34*%
%LPD*%
%INSolderpaste Top*%
%IPPOS*%
%AMOC8*
5,1,8,0,0,1.08239X$1,22.5*%
G01*
%ADD10R,1.000000X0.300000*%
%ADD11R,1.000000X0.600000*%
%ADD12R,1.000000X1.100000*%
%ADD13R,1.375000X0.800000*%
%ADD14R,0.300000X0.650000*%
%ADD15R,1.100000X1.000000*%
%ADD16R,1.700000X4.200000*%
%ADD17R,0.630000X0.830000*%
%ADD18R,1.524000X0.762000*%
%ADD19R,1.000000X2.800000*%
%ADD20R,1.400000X1.600000*%
%ADD21R,2.750000X1.200000*%
%ADD22R,1.450000X0.200000*%
%ADD23R,3.000000X0.900000*%
%ADD24R,1.200000X2.200000*%
%ADD25R,2.000000X1.200000*%
%ADD26R,1.350000X0.600000*%
%ADD27R,2.000000X1.000000*%
%ADD28R,2.200000X1.200000*%
%ADD29R,1.000000X2.000000*%
%ADD30C,0.300000*%

G36*
X551557Y1900419D02*
X551557Y1900419D01*
X551602Y1900420D01*
X551653Y1900442D01*
X551708Y1900455D01*
X551744Y1900481D01*
X551784Y1900499D01*
X551823Y1900540D01*
X551868Y1900573D01*
X551891Y1900611D01*
X551921Y1900643D01*
X551941Y1900696D01*
X551970Y1900744D01*
X551978Y1900795D01*
X551991Y1900829D01*
X551990Y1900863D01*
X551997Y1900908D01*
X551997Y1911908D01*
X551987Y1911961D01*
X551986Y1912014D01*
X551967Y1912057D01*
X551958Y1912103D01*
X551927Y1912147D01*
X551906Y1912196D01*
X551872Y1912228D01*
X551845Y1912267D01*
X551800Y1912296D01*
X551761Y1912332D01*
X551710Y1912353D01*
X551678Y1912374D01*
X551646Y1912379D01*
X551607Y1912395D01*
X548872Y1913006D01*
X546308Y1914034D01*
X543944Y1915461D01*
X541840Y1917250D01*
X540051Y1919354D01*
X538624Y1921718D01*
X537596Y1924282D01*
X536985Y1927017D01*
X536963Y1927066D01*
X536951Y1927118D01*
X536923Y1927156D01*
X536904Y1927198D01*
X536865Y1927235D01*
X536833Y1927278D01*
X536793Y1927302D01*
X536759Y1927334D01*
X536708Y1927352D01*
X536662Y1927380D01*
X536608Y1927389D01*
X536572Y1927402D01*
X536540Y1927400D01*
X536498Y1927407D01*
X525498Y1927407D01*
X525443Y1927396D01*
X525387Y1927395D01*
X525346Y1927376D01*
X525303Y1927368D01*
X525257Y1927336D01*
X525206Y1927313D01*
X525176Y1927280D01*
X525139Y1927255D01*
X525109Y1927208D01*
X525071Y1927166D01*
X525056Y1927125D01*
X525032Y1927088D01*
X525023Y1927032D01*
X525004Y1926979D01*
X525005Y1926927D01*
X524999Y1926891D01*
X525007Y1926859D01*
X525007Y1926854D01*
X525007Y1926852D01*
X525007Y1926851D01*
X525008Y1926813D01*
X525847Y1922492D01*
X525859Y1922463D01*
X525867Y1922421D01*
X527336Y1918271D01*
X527352Y1918244D01*
X527366Y1918204D01*
X529432Y1914317D01*
X529452Y1914293D01*
X529471Y1914255D01*
X532089Y1910716D01*
X532113Y1910695D01*
X532138Y1910660D01*
X535250Y1907548D01*
X535265Y1907538D01*
X535273Y1907527D01*
X535288Y1907518D01*
X535306Y1907499D01*
X538845Y1904881D01*
X538873Y1904868D01*
X538907Y1904842D01*
X542794Y1902776D01*
X542824Y1902767D01*
X542861Y1902746D01*
X547011Y1901277D01*
X547042Y1901272D01*
X547082Y1901257D01*
X551403Y1900418D01*
X551459Y1900418D01*
X551515Y1900409D01*
X551557Y1900419D01*
G37*
G36*
X551557Y208779D02*
X551557Y208779D01*
X551602Y208780D01*
X551653Y208802D01*
X551708Y208815D01*
X551744Y208841D01*
X551784Y208859D01*
X551823Y208900D01*
X551868Y208933D01*
X551891Y208971D01*
X551921Y209003D01*
X551941Y209056D01*
X551970Y209104D01*
X551978Y209155D01*
X551991Y209189D01*
X551990Y209223D01*
X551997Y209268D01*
X551997Y220268D01*
X551987Y220321D01*
X551986Y220374D01*
X551967Y220417D01*
X551958Y220463D01*
X551927Y220507D01*
X551906Y220556D01*
X551872Y220588D01*
X551845Y220627D01*
X551800Y220656D01*
X551761Y220692D01*
X551710Y220713D01*
X551678Y220734D01*
X551646Y220739D01*
X551607Y220755D01*
X548872Y221366D01*
X546308Y222394D01*
X543944Y223821D01*
X541840Y225610D01*
X540051Y227714D01*
X538624Y230078D01*
X537596Y232642D01*
X536985Y235377D01*
X536963Y235426D01*
X536951Y235478D01*
X536923Y235516D01*
X536904Y235558D01*
X536865Y235595D01*
X536833Y235638D01*
X536793Y235662D01*
X536759Y235694D01*
X536708Y235712D01*
X536662Y235740D01*
X536608Y235749D01*
X536572Y235762D01*
X536540Y235760D01*
X536498Y235767D01*
X525498Y235767D01*
X525443Y235756D01*
X525387Y235755D01*
X525346Y235736D01*
X525303Y235728D01*
X525257Y235696D01*
X525206Y235673D01*
X525176Y235640D01*
X525139Y235615D01*
X525109Y235568D01*
X525071Y235526D01*
X525056Y235485D01*
X525032Y235448D01*
X525023Y235392D01*
X525004Y235339D01*
X525005Y235287D01*
X524999Y235251D01*
X525007Y235219D01*
X525007Y235214D01*
X525007Y235212D01*
X525007Y235211D01*
X525008Y235173D01*
X525847Y230852D01*
X525859Y230823D01*
X525867Y230781D01*
X527336Y226631D01*
X527352Y226604D01*
X527366Y226564D01*
X529432Y222677D01*
X529452Y222653D01*
X529471Y222615D01*
X532089Y219076D01*
X532113Y219055D01*
X532138Y219020D01*
X535250Y215908D01*
X535265Y215898D01*
X535273Y215887D01*
X535288Y215878D01*
X535306Y215859D01*
X538845Y213241D01*
X538873Y213228D01*
X538907Y213202D01*
X542794Y211136D01*
X542824Y211127D01*
X542861Y211106D01*
X547011Y209637D01*
X547042Y209632D01*
X547082Y209617D01*
X551403Y208778D01*
X551459Y208778D01*
X551515Y208769D01*
X551557Y208779D01*
G37*
G36*
X551557Y1336539D02*
X551557Y1336539D01*
X551602Y1336540D01*
X551653Y1336562D01*
X551708Y1336575D01*
X551744Y1336601D01*
X551784Y1336619D01*
X551823Y1336660D01*
X551868Y1336693D01*
X551891Y1336731D01*
X551921Y1336763D01*
X551941Y1336816D01*
X551970Y1336864D01*
X551978Y1336915D01*
X551991Y1336949D01*
X551990Y1336983D01*
X551997Y1337028D01*
X551997Y1348028D01*
X551987Y1348081D01*
X551986Y1348134D01*
X551967Y1348177D01*
X551958Y1348223D01*
X551927Y1348267D01*
X551906Y1348316D01*
X551872Y1348348D01*
X551845Y1348387D01*
X551800Y1348416D01*
X551761Y1348452D01*
X551710Y1348473D01*
X551678Y1348494D01*
X551646Y1348499D01*
X551607Y1348515D01*
X548872Y1349126D01*
X546308Y1350154D01*
X543944Y1351581D01*
X541840Y1353370D01*
X540051Y1355474D01*
X538624Y1357838D01*
X537596Y1360402D01*
X536985Y1363137D01*
X536963Y1363186D01*
X536951Y1363238D01*
X536923Y1363276D01*
X536904Y1363318D01*
X536865Y1363355D01*
X536833Y1363398D01*
X536793Y1363422D01*
X536759Y1363454D01*
X536708Y1363472D01*
X536662Y1363500D01*
X536608Y1363509D01*
X536572Y1363522D01*
X536540Y1363520D01*
X536498Y1363527D01*
X525498Y1363527D01*
X525443Y1363516D01*
X525387Y1363515D01*
X525346Y1363496D01*
X525303Y1363488D01*
X525257Y1363456D01*
X525206Y1363433D01*
X525176Y1363400D01*
X525139Y1363375D01*
X525109Y1363328D01*
X525071Y1363286D01*
X525056Y1363245D01*
X525032Y1363208D01*
X525023Y1363152D01*
X525004Y1363099D01*
X525005Y1363047D01*
X524999Y1363011D01*
X525007Y1362979D01*
X525007Y1362974D01*
X525007Y1362972D01*
X525007Y1362971D01*
X525008Y1362933D01*
X525847Y1358612D01*
X525859Y1358583D01*
X525867Y1358541D01*
X527336Y1354391D01*
X527352Y1354364D01*
X527366Y1354324D01*
X529432Y1350437D01*
X529452Y1350413D01*
X529471Y1350375D01*
X532089Y1346836D01*
X532113Y1346815D01*
X532138Y1346780D01*
X535250Y1343668D01*
X535265Y1343658D01*
X535273Y1343647D01*
X535288Y1343638D01*
X535306Y1343619D01*
X538845Y1341001D01*
X538873Y1340988D01*
X538907Y1340962D01*
X542794Y1338896D01*
X542824Y1338887D01*
X542861Y1338866D01*
X547011Y1337397D01*
X547042Y1337392D01*
X547082Y1337377D01*
X551403Y1336538D01*
X551459Y1336538D01*
X551515Y1336529D01*
X551557Y1336539D01*
G37*
G36*
X551557Y772659D02*
X551557Y772659D01*
X551602Y772660D01*
X551653Y772682D01*
X551708Y772695D01*
X551744Y772721D01*
X551784Y772739D01*
X551823Y772780D01*
X551868Y772813D01*
X551891Y772851D01*
X551921Y772883D01*
X551941Y772936D01*
X551970Y772984D01*
X551978Y773035D01*
X551991Y773069D01*
X551990Y773103D01*
X551997Y773148D01*
X551997Y784148D01*
X551987Y784201D01*
X551986Y784254D01*
X551967Y784297D01*
X551958Y784343D01*
X551927Y784387D01*
X551906Y784436D01*
X551872Y784468D01*
X551845Y784507D01*
X551800Y784536D01*
X551761Y784572D01*
X551710Y784593D01*
X551678Y784614D01*
X551646Y784619D01*
X551607Y784635D01*
X548872Y785246D01*
X546308Y786274D01*
X543944Y787701D01*
X541840Y789490D01*
X540051Y791594D01*
X538624Y793958D01*
X537596Y796522D01*
X536985Y799257D01*
X536963Y799306D01*
X536951Y799358D01*
X536923Y799396D01*
X536904Y799438D01*
X536865Y799475D01*
X536833Y799518D01*
X536793Y799542D01*
X536759Y799574D01*
X536708Y799592D01*
X536662Y799620D01*
X536608Y799629D01*
X536572Y799642D01*
X536540Y799640D01*
X536498Y799647D01*
X525498Y799647D01*
X525443Y799636D01*
X525387Y799635D01*
X525346Y799616D01*
X525303Y799608D01*
X525257Y799576D01*
X525206Y799553D01*
X525176Y799520D01*
X525139Y799495D01*
X525109Y799448D01*
X525071Y799406D01*
X525056Y799365D01*
X525032Y799328D01*
X525023Y799272D01*
X525004Y799219D01*
X525005Y799167D01*
X524999Y799131D01*
X525007Y799099D01*
X525007Y799094D01*
X525007Y799092D01*
X525007Y799091D01*
X525008Y799053D01*
X525847Y794732D01*
X525859Y794703D01*
X525867Y794661D01*
X527336Y790511D01*
X527352Y790484D01*
X527366Y790444D01*
X529432Y786557D01*
X529452Y786533D01*
X529471Y786495D01*
X532089Y782956D01*
X532113Y782935D01*
X532138Y782900D01*
X535250Y779788D01*
X535265Y779778D01*
X535273Y779767D01*
X535288Y779758D01*
X535306Y779739D01*
X538845Y777121D01*
X538873Y777108D01*
X538907Y777082D01*
X542794Y775016D01*
X542824Y775007D01*
X542861Y774986D01*
X547011Y773517D01*
X547042Y773512D01*
X547082Y773497D01*
X551403Y772658D01*
X551459Y772658D01*
X551515Y772649D01*
X551557Y772659D01*
G37*
G36*
X536551Y1934419D02*
X536551Y1934419D01*
X536604Y1934420D01*
X536647Y1934439D01*
X536693Y1934448D01*
X536737Y1934479D01*
X536786Y1934500D01*
X536818Y1934534D01*
X536857Y1934561D01*
X536886Y1934606D01*
X536922Y1934645D01*
X536943Y1934696D01*
X536964Y1934728D01*
X536969Y1934760D01*
X536985Y1934799D01*
X537596Y1937534D01*
X538624Y1940098D01*
X540051Y1942462D01*
X541840Y1944566D01*
X543944Y1946355D01*
X546308Y1947782D01*
X548872Y1948810D01*
X551607Y1949421D01*
X551656Y1949443D01*
X551708Y1949455D01*
X551746Y1949483D01*
X551788Y1949502D01*
X551825Y1949541D01*
X551868Y1949573D01*
X551892Y1949613D01*
X551924Y1949647D01*
X551942Y1949698D01*
X551970Y1949744D01*
X551979Y1949798D01*
X551992Y1949834D01*
X551990Y1949866D01*
X551997Y1949908D01*
X551997Y1960908D01*
X551986Y1960963D01*
X551985Y1961019D01*
X551966Y1961060D01*
X551958Y1961103D01*
X551926Y1961149D01*
X551903Y1961201D01*
X551870Y1961230D01*
X551845Y1961267D01*
X551798Y1961297D01*
X551756Y1961335D01*
X551715Y1961350D01*
X551678Y1961374D01*
X551622Y1961383D01*
X551569Y1961402D01*
X551517Y1961401D01*
X551481Y1961407D01*
X551449Y1961399D01*
X551403Y1961398D01*
X547082Y1960559D01*
X547053Y1960547D01*
X547011Y1960539D01*
X542861Y1959070D01*
X542834Y1959054D01*
X542794Y1959040D01*
X538907Y1956974D01*
X538883Y1956954D01*
X538845Y1956935D01*
X535306Y1954317D01*
X535285Y1954293D01*
X535250Y1954268D01*
X532138Y1951156D01*
X532120Y1951130D01*
X532089Y1951100D01*
X529471Y1947562D01*
X529458Y1947533D01*
X529432Y1947499D01*
X527366Y1943612D01*
X527359Y1943589D01*
X527350Y1943575D01*
X527349Y1943567D01*
X527336Y1943545D01*
X525867Y1939395D01*
X525862Y1939364D01*
X525847Y1939324D01*
X525008Y1935003D01*
X525008Y1934947D01*
X524999Y1934891D01*
X525009Y1934849D01*
X525010Y1934804D01*
X525032Y1934753D01*
X525045Y1934698D01*
X525071Y1934663D01*
X525089Y1934622D01*
X525130Y1934583D01*
X525163Y1934538D01*
X525201Y1934515D01*
X525233Y1934485D01*
X525286Y1934465D01*
X525334Y1934436D01*
X525385Y1934428D01*
X525419Y1934415D01*
X525453Y1934416D01*
X525498Y1934409D01*
X536498Y1934409D01*
X536551Y1934419D01*
G37*
G36*
X536551Y242779D02*
X536551Y242779D01*
X536604Y242780D01*
X536647Y242799D01*
X536693Y242808D01*
X536737Y242839D01*
X536786Y242860D01*
X536818Y242894D01*
X536857Y242921D01*
X536886Y242966D01*
X536922Y243005D01*
X536943Y243056D01*
X536964Y243088D01*
X536969Y243120D01*
X536985Y243159D01*
X537596Y245894D01*
X538624Y248458D01*
X540051Y250822D01*
X541840Y252926D01*
X543944Y254715D01*
X546308Y256142D01*
X548872Y257170D01*
X551607Y257781D01*
X551656Y257803D01*
X551708Y257815D01*
X551746Y257843D01*
X551788Y257862D01*
X551825Y257901D01*
X551868Y257933D01*
X551892Y257973D01*
X551924Y258007D01*
X551942Y258058D01*
X551970Y258104D01*
X551979Y258158D01*
X551992Y258194D01*
X551990Y258226D01*
X551997Y258268D01*
X551997Y269268D01*
X551986Y269323D01*
X551985Y269379D01*
X551966Y269420D01*
X551958Y269463D01*
X551926Y269509D01*
X551903Y269561D01*
X551870Y269590D01*
X551845Y269627D01*
X551798Y269657D01*
X551756Y269695D01*
X551715Y269710D01*
X551678Y269734D01*
X551622Y269743D01*
X551569Y269762D01*
X551517Y269761D01*
X551481Y269767D01*
X551449Y269759D01*
X551403Y269758D01*
X547082Y268919D01*
X547053Y268907D01*
X547011Y268899D01*
X542861Y267430D01*
X542834Y267414D01*
X542794Y267400D01*
X538907Y265334D01*
X538883Y265314D01*
X538845Y265295D01*
X535306Y262677D01*
X535285Y262653D01*
X535250Y262628D01*
X532138Y259516D01*
X532120Y259490D01*
X532089Y259460D01*
X529471Y255922D01*
X529458Y255893D01*
X529432Y255859D01*
X527366Y251972D01*
X527359Y251949D01*
X527350Y251935D01*
X527349Y251927D01*
X527336Y251905D01*
X525867Y247755D01*
X525862Y247724D01*
X525847Y247684D01*
X525008Y243363D01*
X525008Y243307D01*
X524999Y243251D01*
X525009Y243209D01*
X525010Y243164D01*
X525032Y243113D01*
X525045Y243058D01*
X525071Y243023D01*
X525089Y242982D01*
X525130Y242943D01*
X525163Y242898D01*
X525201Y242875D01*
X525233Y242845D01*
X525286Y242825D01*
X525334Y242796D01*
X525385Y242788D01*
X525419Y242775D01*
X525453Y242776D01*
X525498Y242769D01*
X536498Y242769D01*
X536551Y242779D01*
G37*
G36*
X536551Y806659D02*
X536551Y806659D01*
X536604Y806660D01*
X536647Y806679D01*
X536693Y806688D01*
X536737Y806719D01*
X536786Y806740D01*
X536818Y806774D01*
X536857Y806801D01*
X536886Y806846D01*
X536922Y806885D01*
X536943Y806936D01*
X536964Y806968D01*
X536969Y807000D01*
X536985Y807039D01*
X537596Y809774D01*
X538624Y812338D01*
X540051Y814702D01*
X541840Y816806D01*
X543944Y818595D01*
X546308Y820022D01*
X548872Y821050D01*
X551607Y821661D01*
X551656Y821683D01*
X551708Y821695D01*
X551746Y821723D01*
X551788Y821742D01*
X551825Y821781D01*
X551868Y821813D01*
X551892Y821853D01*
X551924Y821887D01*
X551942Y821938D01*
X551970Y821984D01*
X551979Y822038D01*
X551992Y822074D01*
X551990Y822106D01*
X551997Y822148D01*
X551997Y833148D01*
X551986Y833203D01*
X551985Y833259D01*
X551966Y833300D01*
X551958Y833343D01*
X551926Y833389D01*
X551903Y833441D01*
X551870Y833470D01*
X551845Y833507D01*
X551798Y833537D01*
X551756Y833575D01*
X551715Y833590D01*
X551678Y833614D01*
X551622Y833623D01*
X551569Y833642D01*
X551517Y833641D01*
X551481Y833647D01*
X551449Y833639D01*
X551403Y833638D01*
X547082Y832799D01*
X547053Y832787D01*
X547011Y832779D01*
X542861Y831310D01*
X542834Y831294D01*
X542794Y831280D01*
X538907Y829214D01*
X538883Y829194D01*
X538845Y829175D01*
X535306Y826557D01*
X535285Y826533D01*
X535250Y826508D01*
X532138Y823396D01*
X532120Y823370D01*
X532089Y823340D01*
X529471Y819802D01*
X529458Y819773D01*
X529432Y819739D01*
X527366Y815852D01*
X527359Y815829D01*
X527350Y815815D01*
X527349Y815807D01*
X527336Y815785D01*
X525867Y811635D01*
X525862Y811604D01*
X525847Y811564D01*
X525008Y807243D01*
X525008Y807187D01*
X524999Y807131D01*
X525009Y807089D01*
X525010Y807044D01*
X525032Y806993D01*
X525045Y806938D01*
X525071Y806903D01*
X525089Y806862D01*
X525130Y806823D01*
X525163Y806778D01*
X525201Y806755D01*
X525233Y806725D01*
X525286Y806705D01*
X525334Y806676D01*
X525385Y806668D01*
X525419Y806655D01*
X525453Y806656D01*
X525498Y806649D01*
X536498Y806649D01*
X536551Y806659D01*
G37*
G36*
X536551Y1370539D02*
X536551Y1370539D01*
X536604Y1370540D01*
X536647Y1370559D01*
X536693Y1370568D01*
X536737Y1370599D01*
X536786Y1370620D01*
X536818Y1370654D01*
X536857Y1370681D01*
X536886Y1370726D01*
X536922Y1370765D01*
X536943Y1370816D01*
X536964Y1370848D01*
X536969Y1370880D01*
X536985Y1370919D01*
X537596Y1373654D01*
X538624Y1376218D01*
X540051Y1378582D01*
X541840Y1380686D01*
X543944Y1382475D01*
X546308Y1383902D01*
X548872Y1384930D01*
X551607Y1385541D01*
X551656Y1385563D01*
X551708Y1385575D01*
X551746Y1385603D01*
X551788Y1385622D01*
X551825Y1385661D01*
X551868Y1385693D01*
X551892Y1385733D01*
X551924Y1385767D01*
X551942Y1385818D01*
X551970Y1385864D01*
X551979Y1385918D01*
X551992Y1385954D01*
X551990Y1385986D01*
X551997Y1386028D01*
X551997Y1397028D01*
X551986Y1397083D01*
X551985Y1397139D01*
X551966Y1397180D01*
X551958Y1397223D01*
X551926Y1397269D01*
X551903Y1397321D01*
X551870Y1397350D01*
X551845Y1397387D01*
X551798Y1397417D01*
X551756Y1397455D01*
X551715Y1397470D01*
X551678Y1397494D01*
X551622Y1397503D01*
X551569Y1397522D01*
X551517Y1397521D01*
X551481Y1397527D01*
X551449Y1397519D01*
X551403Y1397518D01*
X547082Y1396679D01*
X547053Y1396667D01*
X547011Y1396659D01*
X542861Y1395190D01*
X542834Y1395174D01*
X542794Y1395160D01*
X538907Y1393094D01*
X538883Y1393074D01*
X538845Y1393055D01*
X535306Y1390437D01*
X535285Y1390413D01*
X535250Y1390388D01*
X532138Y1387276D01*
X532120Y1387250D01*
X532089Y1387220D01*
X529471Y1383682D01*
X529458Y1383653D01*
X529432Y1383619D01*
X527366Y1379732D01*
X527359Y1379709D01*
X527350Y1379695D01*
X527349Y1379687D01*
X527336Y1379665D01*
X525867Y1375515D01*
X525862Y1375484D01*
X525847Y1375444D01*
X525008Y1371123D01*
X525008Y1371067D01*
X524999Y1371011D01*
X525009Y1370969D01*
X525010Y1370924D01*
X525032Y1370873D01*
X525045Y1370818D01*
X525071Y1370783D01*
X525089Y1370742D01*
X525130Y1370703D01*
X525163Y1370658D01*
X525201Y1370635D01*
X525233Y1370605D01*
X525286Y1370585D01*
X525334Y1370556D01*
X525385Y1370548D01*
X525419Y1370535D01*
X525453Y1370536D01*
X525498Y1370529D01*
X536498Y1370529D01*
X536551Y1370539D01*
G37*
G36*
X585553Y806660D02*
X585553Y806660D01*
X585609Y806661D01*
X585650Y806680D01*
X585693Y806688D01*
X585739Y806720D01*
X585791Y806743D01*
X585820Y806776D01*
X585857Y806801D01*
X585887Y806848D01*
X585925Y806890D01*
X585940Y806931D01*
X585964Y806968D01*
X585973Y807024D01*
X585992Y807077D01*
X585991Y807129D01*
X585997Y807165D01*
X585989Y807197D01*
X585988Y807243D01*
X585149Y811564D01*
X585137Y811593D01*
X585129Y811635D01*
X583660Y815785D01*
X583644Y815812D01*
X583635Y815839D01*
X583633Y815845D01*
X583632Y815847D01*
X583630Y815852D01*
X581564Y819739D01*
X581544Y819763D01*
X581525Y819802D01*
X578907Y823340D01*
X578883Y823361D01*
X578858Y823396D01*
X575746Y826508D01*
X575720Y826526D01*
X575690Y826557D01*
X572152Y829175D01*
X572123Y829188D01*
X572089Y829214D01*
X568202Y831280D01*
X568172Y831289D01*
X568135Y831310D01*
X563985Y832779D01*
X563954Y832784D01*
X563914Y832799D01*
X559593Y833638D01*
X559537Y833638D01*
X559481Y833647D01*
X559439Y833637D01*
X559394Y833636D01*
X559343Y833614D01*
X559288Y833601D01*
X559253Y833575D01*
X559212Y833557D01*
X559173Y833516D01*
X559128Y833483D01*
X559105Y833445D01*
X559075Y833413D01*
X559055Y833360D01*
X559026Y833312D01*
X559018Y833261D01*
X559005Y833227D01*
X559006Y833193D01*
X558999Y833148D01*
X558999Y822148D01*
X559009Y822095D01*
X559010Y822042D01*
X559029Y821999D01*
X559038Y821953D01*
X559069Y821909D01*
X559090Y821860D01*
X559124Y821828D01*
X559151Y821789D01*
X559196Y821760D01*
X559235Y821724D01*
X559286Y821703D01*
X559318Y821682D01*
X559350Y821677D01*
X559389Y821661D01*
X562124Y821050D01*
X564688Y820022D01*
X567052Y818595D01*
X569156Y816806D01*
X570945Y814702D01*
X572372Y812338D01*
X573400Y809774D01*
X574011Y807039D01*
X574033Y806990D01*
X574045Y806938D01*
X574073Y806900D01*
X574092Y806858D01*
X574131Y806821D01*
X574163Y806778D01*
X574203Y806754D01*
X574237Y806722D01*
X574288Y806704D01*
X574334Y806676D01*
X574388Y806667D01*
X574424Y806654D01*
X574456Y806656D01*
X574498Y806649D01*
X585498Y806649D01*
X585553Y806660D01*
G37*
G36*
X585553Y1934420D02*
X585553Y1934420D01*
X585609Y1934421D01*
X585650Y1934440D01*
X585693Y1934448D01*
X585739Y1934480D01*
X585791Y1934503D01*
X585820Y1934536D01*
X585857Y1934561D01*
X585887Y1934608D01*
X585925Y1934650D01*
X585940Y1934691D01*
X585964Y1934728D01*
X585973Y1934784D01*
X585992Y1934837D01*
X585991Y1934889D01*
X585997Y1934925D01*
X585989Y1934957D01*
X585988Y1935003D01*
X585149Y1939324D01*
X585137Y1939353D01*
X585129Y1939395D01*
X583660Y1943545D01*
X583644Y1943572D01*
X583635Y1943599D01*
X583633Y1943605D01*
X583632Y1943607D01*
X583630Y1943612D01*
X581564Y1947499D01*
X581544Y1947523D01*
X581525Y1947562D01*
X578907Y1951100D01*
X578883Y1951121D01*
X578858Y1951156D01*
X575746Y1954268D01*
X575720Y1954286D01*
X575690Y1954317D01*
X572152Y1956935D01*
X572123Y1956948D01*
X572089Y1956974D01*
X568202Y1959040D01*
X568172Y1959049D01*
X568135Y1959070D01*
X563985Y1960539D01*
X563954Y1960544D01*
X563914Y1960559D01*
X559593Y1961398D01*
X559537Y1961398D01*
X559481Y1961407D01*
X559439Y1961397D01*
X559394Y1961396D01*
X559343Y1961374D01*
X559288Y1961361D01*
X559253Y1961335D01*
X559212Y1961317D01*
X559173Y1961276D01*
X559128Y1961243D01*
X559105Y1961205D01*
X559075Y1961173D01*
X559055Y1961120D01*
X559026Y1961072D01*
X559018Y1961021D01*
X559005Y1960987D01*
X559006Y1960953D01*
X558999Y1960908D01*
X558999Y1949908D01*
X559009Y1949855D01*
X559010Y1949802D01*
X559029Y1949759D01*
X559038Y1949713D01*
X559069Y1949669D01*
X559090Y1949620D01*
X559124Y1949588D01*
X559151Y1949549D01*
X559196Y1949520D01*
X559235Y1949484D01*
X559286Y1949463D01*
X559318Y1949442D01*
X559350Y1949437D01*
X559389Y1949421D01*
X562124Y1948810D01*
X564688Y1947782D01*
X567052Y1946355D01*
X569156Y1944566D01*
X570945Y1942462D01*
X572372Y1940098D01*
X573400Y1937534D01*
X574011Y1934799D01*
X574033Y1934750D01*
X574045Y1934698D01*
X574073Y1934660D01*
X574092Y1934618D01*
X574131Y1934581D01*
X574163Y1934538D01*
X574203Y1934514D01*
X574237Y1934482D01*
X574288Y1934464D01*
X574334Y1934436D01*
X574388Y1934427D01*
X574424Y1934414D01*
X574456Y1934416D01*
X574498Y1934409D01*
X585498Y1934409D01*
X585553Y1934420D01*
G37*
G36*
X585553Y242780D02*
X585553Y242780D01*
X585609Y242781D01*
X585650Y242800D01*
X585693Y242808D01*
X585739Y242840D01*
X585791Y242863D01*
X585820Y242896D01*
X585857Y242921D01*
X585887Y242968D01*
X585925Y243010D01*
X585940Y243051D01*
X585964Y243088D01*
X585973Y243144D01*
X585992Y243197D01*
X585991Y243249D01*
X585997Y243285D01*
X585989Y243317D01*
X585988Y243363D01*
X585149Y247684D01*
X585137Y247713D01*
X585129Y247755D01*
X583660Y251905D01*
X583644Y251932D01*
X583635Y251959D01*
X583633Y251965D01*
X583632Y251967D01*
X583630Y251972D01*
X581564Y255859D01*
X581544Y255883D01*
X581525Y255922D01*
X578907Y259460D01*
X578883Y259481D01*
X578858Y259516D01*
X575746Y262628D01*
X575720Y262646D01*
X575690Y262677D01*
X572152Y265295D01*
X572123Y265308D01*
X572089Y265334D01*
X568202Y267400D01*
X568172Y267409D01*
X568135Y267430D01*
X563985Y268899D01*
X563954Y268904D01*
X563914Y268919D01*
X559593Y269758D01*
X559537Y269758D01*
X559481Y269767D01*
X559439Y269757D01*
X559394Y269756D01*
X559343Y269734D01*
X559288Y269721D01*
X559253Y269695D01*
X559212Y269677D01*
X559173Y269636D01*
X559128Y269603D01*
X559105Y269565D01*
X559075Y269533D01*
X559055Y269480D01*
X559026Y269432D01*
X559018Y269381D01*
X559005Y269347D01*
X559006Y269313D01*
X558999Y269268D01*
X558999Y258268D01*
X559009Y258215D01*
X559010Y258162D01*
X559029Y258119D01*
X559038Y258073D01*
X559069Y258029D01*
X559090Y257980D01*
X559124Y257948D01*
X559151Y257909D01*
X559196Y257880D01*
X559235Y257844D01*
X559286Y257823D01*
X559318Y257802D01*
X559350Y257797D01*
X559389Y257781D01*
X562124Y257170D01*
X564688Y256142D01*
X567052Y254715D01*
X569156Y252926D01*
X570945Y250822D01*
X572372Y248458D01*
X573400Y245894D01*
X574011Y243159D01*
X574033Y243110D01*
X574045Y243058D01*
X574073Y243020D01*
X574092Y242978D01*
X574131Y242941D01*
X574163Y242898D01*
X574203Y242874D01*
X574237Y242842D01*
X574288Y242824D01*
X574334Y242796D01*
X574388Y242787D01*
X574424Y242774D01*
X574456Y242776D01*
X574498Y242769D01*
X585498Y242769D01*
X585553Y242780D01*
G37*
G36*
X585553Y1370540D02*
X585553Y1370540D01*
X585609Y1370541D01*
X585650Y1370560D01*
X585693Y1370568D01*
X585739Y1370600D01*
X585791Y1370623D01*
X585820Y1370656D01*
X585857Y1370681D01*
X585887Y1370728D01*
X585925Y1370770D01*
X585940Y1370811D01*
X585964Y1370848D01*
X585973Y1370904D01*
X585992Y1370957D01*
X585991Y1371009D01*
X585997Y1371045D01*
X585989Y1371077D01*
X585988Y1371123D01*
X585149Y1375444D01*
X585137Y1375473D01*
X585129Y1375515D01*
X583660Y1379665D01*
X583644Y1379692D01*
X583635Y1379719D01*
X583633Y1379725D01*
X583632Y1379727D01*
X583630Y1379732D01*
X581564Y1383619D01*
X581544Y1383643D01*
X581525Y1383682D01*
X578907Y1387220D01*
X578883Y1387241D01*
X578858Y1387276D01*
X575746Y1390388D01*
X575720Y1390406D01*
X575690Y1390437D01*
X572152Y1393055D01*
X572123Y1393068D01*
X572089Y1393094D01*
X568202Y1395160D01*
X568172Y1395169D01*
X568135Y1395190D01*
X563985Y1396659D01*
X563954Y1396664D01*
X563914Y1396679D01*
X559593Y1397518D01*
X559537Y1397518D01*
X559481Y1397527D01*
X559439Y1397517D01*
X559394Y1397516D01*
X559343Y1397494D01*
X559288Y1397481D01*
X559253Y1397455D01*
X559212Y1397437D01*
X559173Y1397396D01*
X559128Y1397363D01*
X559105Y1397325D01*
X559075Y1397293D01*
X559055Y1397240D01*
X559026Y1397192D01*
X559018Y1397141D01*
X559005Y1397107D01*
X559006Y1397073D01*
X558999Y1397028D01*
X558999Y1386028D01*
X559009Y1385975D01*
X559010Y1385922D01*
X559029Y1385879D01*
X559038Y1385833D01*
X559069Y1385789D01*
X559090Y1385740D01*
X559124Y1385708D01*
X559151Y1385669D01*
X559196Y1385640D01*
X559235Y1385604D01*
X559286Y1385583D01*
X559318Y1385562D01*
X559350Y1385557D01*
X559389Y1385541D01*
X562124Y1384930D01*
X564688Y1383902D01*
X567052Y1382475D01*
X569156Y1380686D01*
X570945Y1378582D01*
X572372Y1376218D01*
X573400Y1373654D01*
X574011Y1370919D01*
X574033Y1370870D01*
X574045Y1370818D01*
X574073Y1370780D01*
X574092Y1370738D01*
X574131Y1370701D01*
X574163Y1370658D01*
X574203Y1370634D01*
X574237Y1370602D01*
X574288Y1370584D01*
X574334Y1370556D01*
X574388Y1370547D01*
X574424Y1370534D01*
X574456Y1370536D01*
X574498Y1370529D01*
X585498Y1370529D01*
X585553Y1370540D01*
G37*
G36*
X559547Y1900417D02*
X559547Y1900417D01*
X559593Y1900418D01*
X563914Y1901257D01*
X563943Y1901269D01*
X563985Y1901277D01*
X568135Y1902746D01*
X568162Y1902762D01*
X568202Y1902776D01*
X572089Y1904842D01*
X572113Y1904862D01*
X572152Y1904881D01*
X575690Y1907499D01*
X575711Y1907523D01*
X575746Y1907548D01*
X578858Y1910660D01*
X578876Y1910687D01*
X578907Y1910716D01*
X581525Y1914255D01*
X581538Y1914283D01*
X581564Y1914317D01*
X583630Y1918204D01*
X583639Y1918234D01*
X583660Y1918271D01*
X585129Y1922421D01*
X585134Y1922452D01*
X585149Y1922492D01*
X585988Y1926813D01*
X585988Y1926869D01*
X585997Y1926925D01*
X585987Y1926967D01*
X585986Y1927012D01*
X585964Y1927063D01*
X585951Y1927118D01*
X585925Y1927154D01*
X585907Y1927194D01*
X585866Y1927233D01*
X585833Y1927278D01*
X585795Y1927301D01*
X585763Y1927331D01*
X585710Y1927351D01*
X585662Y1927380D01*
X585611Y1927388D01*
X585577Y1927401D01*
X585543Y1927400D01*
X585498Y1927407D01*
X574498Y1927407D01*
X574445Y1927397D01*
X574392Y1927396D01*
X574349Y1927377D01*
X574303Y1927368D01*
X574259Y1927337D01*
X574210Y1927316D01*
X574178Y1927282D01*
X574139Y1927255D01*
X574110Y1927210D01*
X574074Y1927171D01*
X574053Y1927120D01*
X574032Y1927088D01*
X574027Y1927056D01*
X574024Y1927050D01*
X574023Y1927049D01*
X574023Y1927048D01*
X574011Y1927017D01*
X573400Y1924282D01*
X572372Y1921718D01*
X570945Y1919354D01*
X569156Y1917250D01*
X567052Y1915461D01*
X564688Y1914034D01*
X562124Y1913006D01*
X559389Y1912395D01*
X559340Y1912373D01*
X559288Y1912361D01*
X559250Y1912333D01*
X559208Y1912314D01*
X559171Y1912275D01*
X559128Y1912243D01*
X559104Y1912203D01*
X559072Y1912169D01*
X559054Y1912118D01*
X559026Y1912072D01*
X559017Y1912018D01*
X559004Y1911982D01*
X559006Y1911950D01*
X558999Y1911908D01*
X558999Y1900908D01*
X559010Y1900853D01*
X559011Y1900797D01*
X559030Y1900756D01*
X559038Y1900713D01*
X559070Y1900667D01*
X559093Y1900616D01*
X559126Y1900586D01*
X559151Y1900549D01*
X559198Y1900519D01*
X559240Y1900481D01*
X559281Y1900466D01*
X559318Y1900442D01*
X559374Y1900433D01*
X559427Y1900414D01*
X559479Y1900415D01*
X559515Y1900409D01*
X559547Y1900417D01*
G37*
G36*
X559547Y208777D02*
X559547Y208777D01*
X559593Y208778D01*
X563914Y209617D01*
X563943Y209629D01*
X563985Y209637D01*
X568135Y211106D01*
X568162Y211122D01*
X568202Y211136D01*
X572089Y213202D01*
X572113Y213222D01*
X572152Y213241D01*
X575690Y215859D01*
X575711Y215883D01*
X575746Y215908D01*
X578858Y219020D01*
X578876Y219047D01*
X578907Y219076D01*
X581525Y222615D01*
X581538Y222643D01*
X581564Y222677D01*
X583630Y226564D01*
X583639Y226594D01*
X583660Y226631D01*
X585129Y230781D01*
X585134Y230812D01*
X585149Y230852D01*
X585988Y235173D01*
X585988Y235229D01*
X585997Y235285D01*
X585987Y235327D01*
X585986Y235372D01*
X585964Y235423D01*
X585951Y235478D01*
X585925Y235514D01*
X585907Y235554D01*
X585866Y235593D01*
X585833Y235638D01*
X585795Y235661D01*
X585763Y235691D01*
X585710Y235711D01*
X585662Y235740D01*
X585611Y235748D01*
X585577Y235761D01*
X585543Y235760D01*
X585498Y235767D01*
X574498Y235767D01*
X574445Y235757D01*
X574392Y235756D01*
X574349Y235737D01*
X574303Y235728D01*
X574259Y235697D01*
X574210Y235676D01*
X574178Y235642D01*
X574139Y235615D01*
X574110Y235570D01*
X574074Y235531D01*
X574053Y235480D01*
X574032Y235448D01*
X574027Y235416D01*
X574024Y235410D01*
X574023Y235409D01*
X574023Y235408D01*
X574011Y235377D01*
X573400Y232642D01*
X572372Y230078D01*
X570945Y227714D01*
X569156Y225610D01*
X567052Y223821D01*
X564688Y222394D01*
X562124Y221366D01*
X559389Y220755D01*
X559340Y220733D01*
X559288Y220721D01*
X559250Y220693D01*
X559208Y220674D01*
X559171Y220635D01*
X559128Y220603D01*
X559104Y220563D01*
X559072Y220529D01*
X559054Y220478D01*
X559026Y220432D01*
X559017Y220378D01*
X559004Y220342D01*
X559006Y220310D01*
X558999Y220268D01*
X558999Y209268D01*
X559010Y209213D01*
X559011Y209157D01*
X559030Y209116D01*
X559038Y209073D01*
X559070Y209027D01*
X559093Y208976D01*
X559126Y208946D01*
X559151Y208909D01*
X559198Y208879D01*
X559240Y208841D01*
X559281Y208826D01*
X559318Y208802D01*
X559374Y208793D01*
X559427Y208774D01*
X559479Y208775D01*
X559515Y208769D01*
X559547Y208777D01*
G37*
G36*
X559547Y1336537D02*
X559547Y1336537D01*
X559593Y1336538D01*
X563914Y1337377D01*
X563943Y1337389D01*
X563985Y1337397D01*
X568135Y1338866D01*
X568162Y1338882D01*
X568202Y1338896D01*
X572089Y1340962D01*
X572113Y1340982D01*
X572152Y1341001D01*
X575690Y1343619D01*
X575711Y1343643D01*
X575746Y1343668D01*
X578858Y1346780D01*
X578876Y1346807D01*
X578907Y1346836D01*
X581525Y1350375D01*
X581538Y1350403D01*
X581564Y1350437D01*
X583630Y1354324D01*
X583639Y1354354D01*
X583660Y1354391D01*
X585129Y1358541D01*
X585134Y1358572D01*
X585149Y1358612D01*
X585988Y1362933D01*
X585988Y1362989D01*
X585997Y1363045D01*
X585987Y1363087D01*
X585986Y1363132D01*
X585964Y1363183D01*
X585951Y1363238D01*
X585925Y1363274D01*
X585907Y1363314D01*
X585866Y1363353D01*
X585833Y1363398D01*
X585795Y1363421D01*
X585763Y1363451D01*
X585710Y1363471D01*
X585662Y1363500D01*
X585611Y1363508D01*
X585577Y1363521D01*
X585543Y1363520D01*
X585498Y1363527D01*
X574498Y1363527D01*
X574445Y1363517D01*
X574392Y1363516D01*
X574349Y1363497D01*
X574303Y1363488D01*
X574259Y1363457D01*
X574210Y1363436D01*
X574178Y1363402D01*
X574139Y1363375D01*
X574110Y1363330D01*
X574074Y1363291D01*
X574053Y1363240D01*
X574032Y1363208D01*
X574027Y1363176D01*
X574024Y1363170D01*
X574023Y1363169D01*
X574023Y1363168D01*
X574011Y1363137D01*
X573400Y1360402D01*
X572372Y1357838D01*
X570945Y1355474D01*
X569156Y1353370D01*
X567052Y1351581D01*
X564688Y1350154D01*
X562124Y1349126D01*
X559389Y1348515D01*
X559340Y1348493D01*
X559288Y1348481D01*
X559250Y1348453D01*
X559208Y1348434D01*
X559171Y1348395D01*
X559128Y1348363D01*
X559104Y1348323D01*
X559072Y1348289D01*
X559054Y1348238D01*
X559026Y1348192D01*
X559017Y1348138D01*
X559004Y1348102D01*
X559006Y1348070D01*
X558999Y1348028D01*
X558999Y1337028D01*
X559010Y1336973D01*
X559011Y1336917D01*
X559030Y1336876D01*
X559038Y1336833D01*
X559070Y1336787D01*
X559093Y1336736D01*
X559126Y1336706D01*
X559151Y1336669D01*
X559198Y1336639D01*
X559240Y1336601D01*
X559281Y1336586D01*
X559318Y1336562D01*
X559374Y1336553D01*
X559427Y1336534D01*
X559479Y1336535D01*
X559515Y1336529D01*
X559547Y1336537D01*
G37*
G36*
X559547Y772657D02*
X559547Y772657D01*
X559593Y772658D01*
X563914Y773497D01*
X563943Y773509D01*
X563985Y773517D01*
X568135Y774986D01*
X568162Y775002D01*
X568202Y775016D01*
X572089Y777082D01*
X572113Y777102D01*
X572152Y777121D01*
X575690Y779739D01*
X575711Y779763D01*
X575746Y779788D01*
X578858Y782900D01*
X578876Y782927D01*
X578907Y782956D01*
X581525Y786495D01*
X581538Y786523D01*
X581564Y786557D01*
X583630Y790444D01*
X583639Y790474D01*
X583660Y790511D01*
X585129Y794661D01*
X585134Y794692D01*
X585149Y794732D01*
X585988Y799053D01*
X585988Y799109D01*
X585997Y799165D01*
X585987Y799207D01*
X585986Y799252D01*
X585964Y799303D01*
X585951Y799358D01*
X585925Y799394D01*
X585907Y799434D01*
X585866Y799473D01*
X585833Y799518D01*
X585795Y799541D01*
X585763Y799571D01*
X585710Y799591D01*
X585662Y799620D01*
X585611Y799628D01*
X585577Y799641D01*
X585543Y799640D01*
X585498Y799647D01*
X574498Y799647D01*
X574445Y799637D01*
X574392Y799636D01*
X574349Y799617D01*
X574303Y799608D01*
X574259Y799577D01*
X574210Y799556D01*
X574178Y799522D01*
X574139Y799495D01*
X574110Y799450D01*
X574074Y799411D01*
X574053Y799360D01*
X574032Y799328D01*
X574027Y799296D01*
X574024Y799290D01*
X574023Y799289D01*
X574023Y799288D01*
X574011Y799257D01*
X573400Y796522D01*
X572372Y793958D01*
X570945Y791594D01*
X569156Y789490D01*
X567052Y787701D01*
X564688Y786274D01*
X562124Y785246D01*
X559389Y784635D01*
X559340Y784613D01*
X559288Y784601D01*
X559250Y784573D01*
X559208Y784554D01*
X559171Y784515D01*
X559128Y784483D01*
X559104Y784443D01*
X559072Y784409D01*
X559054Y784358D01*
X559026Y784312D01*
X559017Y784258D01*
X559004Y784222D01*
X559006Y784190D01*
X558999Y784148D01*
X558999Y773148D01*
X559010Y773093D01*
X559011Y773037D01*
X559030Y772996D01*
X559038Y772953D01*
X559070Y772907D01*
X559093Y772856D01*
X559126Y772826D01*
X559151Y772789D01*
X559198Y772759D01*
X559240Y772721D01*
X559281Y772706D01*
X559318Y772682D01*
X559374Y772673D01*
X559427Y772654D01*
X559479Y772655D01*
X559515Y772649D01*
X559547Y772657D01*
G37*
G36*
X669166Y2072657D02*
X669166Y2072657D01*
X669193Y2072653D01*
X669234Y2072671D01*
X669276Y2072680D01*
X669312Y2072706D01*
X669321Y2072710D01*
X669325Y2072715D01*
X669336Y2072724D01*
X693336Y2096724D01*
X693357Y2096762D01*
X693386Y2096795D01*
X693390Y2096822D01*
X693403Y2096846D01*
X693400Y2096890D01*
X693407Y2096933D01*
X693396Y2096959D01*
X693394Y2096986D01*
X693368Y2097021D01*
X693350Y2097061D01*
X693327Y2097076D01*
X693311Y2097098D01*
X693270Y2097114D01*
X693234Y2097138D01*
X693190Y2097145D01*
X693181Y2097148D01*
X693174Y2097147D01*
X693160Y2097149D01*
X669160Y2097149D01*
X669144Y2097144D01*
X669127Y2097147D01*
X669077Y2097125D01*
X669026Y2097110D01*
X669015Y2097097D01*
X668999Y2097090D01*
X668969Y2097045D01*
X668934Y2097005D01*
X668931Y2096988D01*
X668922Y2096974D01*
X668911Y2096900D01*
X668911Y2072900D01*
X668923Y2072858D01*
X668926Y2072814D01*
X668942Y2072792D01*
X668950Y2072766D01*
X668983Y2072737D01*
X669009Y2072702D01*
X669035Y2072692D01*
X669055Y2072674D01*
X669099Y2072667D01*
X669139Y2072652D01*
X669166Y2072657D01*
G37*
G36*
X669166Y1508777D02*
X669166Y1508777D01*
X669193Y1508773D01*
X669234Y1508791D01*
X669276Y1508800D01*
X669312Y1508826D01*
X669321Y1508830D01*
X669325Y1508835D01*
X669336Y1508844D01*
X693336Y1532844D01*
X693357Y1532882D01*
X693386Y1532915D01*
X693390Y1532942D01*
X693403Y1532966D01*
X693400Y1533010D01*
X693407Y1533053D01*
X693396Y1533079D01*
X693394Y1533106D01*
X693368Y1533141D01*
X693350Y1533181D01*
X693327Y1533196D01*
X693311Y1533218D01*
X693270Y1533234D01*
X693234Y1533258D01*
X693190Y1533265D01*
X693181Y1533268D01*
X693174Y1533267D01*
X693160Y1533269D01*
X669160Y1533269D01*
X669144Y1533264D01*
X669127Y1533267D01*
X669077Y1533245D01*
X669026Y1533230D01*
X669015Y1533217D01*
X668999Y1533210D01*
X668969Y1533165D01*
X668934Y1533125D01*
X668931Y1533108D01*
X668922Y1533094D01*
X668911Y1533020D01*
X668911Y1509020D01*
X668923Y1508978D01*
X668926Y1508934D01*
X668942Y1508912D01*
X668950Y1508886D01*
X668983Y1508857D01*
X669009Y1508822D01*
X669035Y1508812D01*
X669055Y1508794D01*
X669099Y1508787D01*
X669139Y1508772D01*
X669166Y1508777D01*
G37*
G36*
X669166Y944897D02*
X669166Y944897D01*
X669193Y944893D01*
X669234Y944911D01*
X669276Y944920D01*
X669312Y944946D01*
X669321Y944950D01*
X669325Y944955D01*
X669336Y944964D01*
X693336Y968964D01*
X693357Y969002D01*
X693386Y969035D01*
X693390Y969062D01*
X693403Y969086D01*
X693400Y969130D01*
X693407Y969173D01*
X693396Y969199D01*
X693394Y969226D01*
X693368Y969261D01*
X693350Y969301D01*
X693327Y969316D01*
X693311Y969338D01*
X693270Y969354D01*
X693234Y969378D01*
X693190Y969385D01*
X693181Y969388D01*
X693174Y969387D01*
X693160Y969389D01*
X669160Y969389D01*
X669144Y969384D01*
X669127Y969387D01*
X669077Y969365D01*
X669026Y969350D01*
X669015Y969337D01*
X668999Y969330D01*
X668969Y969285D01*
X668934Y969245D01*
X668931Y969228D01*
X668922Y969214D01*
X668911Y969140D01*
X668911Y945140D01*
X668923Y945098D01*
X668926Y945054D01*
X668942Y945032D01*
X668950Y945006D01*
X668983Y944977D01*
X669009Y944942D01*
X669035Y944932D01*
X669055Y944914D01*
X669099Y944907D01*
X669139Y944892D01*
X669166Y944897D01*
G37*
G36*
X669166Y381017D02*
X669166Y381017D01*
X669193Y381013D01*
X669234Y381031D01*
X669276Y381040D01*
X669312Y381066D01*
X669321Y381070D01*
X669325Y381075D01*
X669336Y381084D01*
X693336Y405084D01*
X693357Y405122D01*
X693386Y405155D01*
X693390Y405182D01*
X693403Y405206D01*
X693400Y405250D01*
X693407Y405293D01*
X693396Y405319D01*
X693394Y405346D01*
X693368Y405381D01*
X693350Y405421D01*
X693327Y405436D01*
X693311Y405458D01*
X693270Y405474D01*
X693234Y405498D01*
X693190Y405505D01*
X693181Y405508D01*
X693174Y405507D01*
X693160Y405509D01*
X669160Y405509D01*
X669144Y405504D01*
X669127Y405507D01*
X669077Y405485D01*
X669026Y405470D01*
X669015Y405457D01*
X668999Y405450D01*
X668969Y405405D01*
X668934Y405365D01*
X668931Y405348D01*
X668922Y405334D01*
X668911Y405260D01*
X668911Y381260D01*
X668923Y381218D01*
X668926Y381174D01*
X668942Y381152D01*
X668950Y381126D01*
X668983Y381097D01*
X669009Y381062D01*
X669035Y381052D01*
X669055Y381034D01*
X669099Y381027D01*
X669139Y381012D01*
X669166Y381017D01*
G37*
G36*
X60305Y1257314D02*
X60305Y1257314D01*
X60308Y1257311D01*
X61403Y1257491D01*
X61409Y1257497D01*
X61414Y1257494D01*
X62442Y1257913D01*
X62446Y1257920D01*
X62451Y1257918D01*
X63360Y1258556D01*
X63363Y1258563D01*
X63368Y1258563D01*
X64112Y1259386D01*
X64113Y1259394D01*
X64119Y1259395D01*
X64661Y1260363D01*
X64660Y1260372D01*
X64666Y1260374D01*
X64979Y1261438D01*
X64976Y1261446D01*
X64981Y1261449D01*
X65049Y1262557D01*
X65045Y1262564D01*
X65049Y1262567D01*
X64879Y1263675D01*
X64873Y1263681D01*
X64876Y1263686D01*
X64464Y1264728D01*
X64457Y1264732D01*
X64459Y1264737D01*
X63825Y1265662D01*
X63817Y1265664D01*
X63818Y1265670D01*
X62995Y1266430D01*
X62986Y1266431D01*
X62986Y1266437D01*
X62014Y1266994D01*
X62006Y1266993D01*
X62004Y1266999D01*
X60932Y1267326D01*
X60924Y1267323D01*
X60921Y1267328D01*
X59804Y1267409D01*
X59801Y1267408D01*
X59800Y1267409D01*
X47800Y1267409D01*
X47797Y1267407D01*
X47790Y1267407D01*
X47789Y1267408D01*
X46845Y1267189D01*
X46839Y1267183D01*
X46834Y1267185D01*
X45962Y1266762D01*
X45959Y1266754D01*
X45953Y1266756D01*
X45197Y1266149D01*
X45195Y1266141D01*
X45189Y1266141D01*
X44588Y1265381D01*
X44588Y1265372D01*
X44582Y1265371D01*
X44164Y1264496D01*
X44166Y1264488D01*
X44161Y1264486D01*
X43949Y1263540D01*
X43952Y1263533D01*
X43947Y1263529D01*
X43951Y1262560D01*
X43951Y1262559D01*
X43970Y1261491D01*
X43975Y1261484D01*
X43971Y1261480D01*
X44227Y1260443D01*
X44234Y1260438D01*
X44231Y1260432D01*
X44712Y1259478D01*
X44719Y1259475D01*
X44718Y1259469D01*
X45399Y1258646D01*
X45407Y1258644D01*
X45407Y1258638D01*
X46254Y1257987D01*
X46262Y1257987D01*
X46263Y1257981D01*
X47234Y1257534D01*
X47242Y1257536D01*
X47244Y1257531D01*
X48290Y1257312D01*
X48297Y1257315D01*
X48300Y1257311D01*
X60300Y1257311D01*
X60305Y1257314D01*
G37*
G36*
X60305Y693434D02*
X60305Y693434D01*
X60308Y693431D01*
X61403Y693611D01*
X61409Y693617D01*
X61414Y693614D01*
X62442Y694033D01*
X62446Y694040D01*
X62451Y694038D01*
X63360Y694676D01*
X63363Y694683D01*
X63368Y694683D01*
X64112Y695506D01*
X64113Y695514D01*
X64119Y695515D01*
X64661Y696483D01*
X64660Y696492D01*
X64666Y696494D01*
X64979Y697558D01*
X64976Y697566D01*
X64981Y697569D01*
X65049Y698677D01*
X65045Y698684D01*
X65049Y698687D01*
X64879Y699795D01*
X64873Y699801D01*
X64876Y699806D01*
X64464Y700848D01*
X64457Y700852D01*
X64459Y700857D01*
X63825Y701782D01*
X63817Y701784D01*
X63818Y701790D01*
X62995Y702550D01*
X62986Y702551D01*
X62986Y702557D01*
X62014Y703114D01*
X62006Y703113D01*
X62004Y703119D01*
X60932Y703446D01*
X60924Y703443D01*
X60921Y703448D01*
X59804Y703529D01*
X59801Y703528D01*
X59800Y703529D01*
X47800Y703529D01*
X47797Y703527D01*
X47790Y703527D01*
X47789Y703528D01*
X46845Y703309D01*
X46839Y703303D01*
X46834Y703305D01*
X45962Y702882D01*
X45959Y702874D01*
X45953Y702876D01*
X45197Y702269D01*
X45195Y702261D01*
X45189Y702261D01*
X44588Y701501D01*
X44588Y701492D01*
X44582Y701491D01*
X44164Y700616D01*
X44166Y700608D01*
X44161Y700606D01*
X43949Y699660D01*
X43952Y699653D01*
X43947Y699649D01*
X43951Y698680D01*
X43951Y698679D01*
X43970Y697611D01*
X43975Y697604D01*
X43971Y697600D01*
X44227Y696563D01*
X44234Y696558D01*
X44231Y696552D01*
X44712Y695598D01*
X44719Y695595D01*
X44718Y695589D01*
X45399Y694766D01*
X45407Y694764D01*
X45407Y694758D01*
X46254Y694107D01*
X46262Y694107D01*
X46263Y694101D01*
X47234Y693654D01*
X47242Y693656D01*
X47244Y693651D01*
X48290Y693432D01*
X48297Y693435D01*
X48300Y693431D01*
X60300Y693431D01*
X60305Y693434D01*
G37*
G36*
X60305Y1821194D02*
X60305Y1821194D01*
X60308Y1821191D01*
X61403Y1821371D01*
X61409Y1821377D01*
X61414Y1821374D01*
X62442Y1821793D01*
X62446Y1821800D01*
X62451Y1821798D01*
X63360Y1822436D01*
X63363Y1822443D01*
X63368Y1822443D01*
X64112Y1823266D01*
X64113Y1823274D01*
X64119Y1823275D01*
X64661Y1824243D01*
X64660Y1824252D01*
X64666Y1824254D01*
X64979Y1825318D01*
X64976Y1825326D01*
X64981Y1825329D01*
X65049Y1826437D01*
X65045Y1826444D01*
X65049Y1826447D01*
X64879Y1827555D01*
X64873Y1827561D01*
X64876Y1827566D01*
X64464Y1828608D01*
X64457Y1828612D01*
X64459Y1828617D01*
X63825Y1829542D01*
X63817Y1829544D01*
X63818Y1829550D01*
X62995Y1830310D01*
X62986Y1830311D01*
X62986Y1830317D01*
X62014Y1830874D01*
X62006Y1830873D01*
X62004Y1830879D01*
X60932Y1831206D01*
X60924Y1831203D01*
X60921Y1831208D01*
X59804Y1831289D01*
X59801Y1831288D01*
X59800Y1831289D01*
X47800Y1831289D01*
X47797Y1831287D01*
X47790Y1831287D01*
X47789Y1831288D01*
X46845Y1831069D01*
X46839Y1831063D01*
X46834Y1831065D01*
X45962Y1830642D01*
X45959Y1830634D01*
X45953Y1830636D01*
X45197Y1830029D01*
X45195Y1830021D01*
X45189Y1830021D01*
X44588Y1829261D01*
X44588Y1829252D01*
X44582Y1829251D01*
X44164Y1828376D01*
X44166Y1828368D01*
X44161Y1828366D01*
X43949Y1827420D01*
X43952Y1827413D01*
X43947Y1827409D01*
X43951Y1826440D01*
X43951Y1826439D01*
X43970Y1825371D01*
X43975Y1825364D01*
X43971Y1825360D01*
X44227Y1824323D01*
X44234Y1824318D01*
X44231Y1824312D01*
X44712Y1823358D01*
X44719Y1823355D01*
X44718Y1823349D01*
X45399Y1822526D01*
X45407Y1822524D01*
X45407Y1822518D01*
X46254Y1821867D01*
X46262Y1821867D01*
X46263Y1821861D01*
X47234Y1821414D01*
X47242Y1821416D01*
X47244Y1821411D01*
X48290Y1821192D01*
X48297Y1821195D01*
X48300Y1821191D01*
X60300Y1821191D01*
X60305Y1821194D01*
G37*
G36*
X60305Y129554D02*
X60305Y129554D01*
X60308Y129551D01*
X61403Y129731D01*
X61409Y129737D01*
X61414Y129734D01*
X62442Y130153D01*
X62446Y130160D01*
X62451Y130158D01*
X63360Y130796D01*
X63363Y130803D01*
X63368Y130803D01*
X64112Y131626D01*
X64113Y131634D01*
X64119Y131635D01*
X64661Y132603D01*
X64660Y132612D01*
X64666Y132614D01*
X64979Y133678D01*
X64976Y133686D01*
X64981Y133689D01*
X65049Y134797D01*
X65045Y134804D01*
X65049Y134807D01*
X64879Y135915D01*
X64873Y135921D01*
X64876Y135926D01*
X64464Y136968D01*
X64457Y136972D01*
X64459Y136977D01*
X63825Y137902D01*
X63817Y137904D01*
X63818Y137910D01*
X62995Y138670D01*
X62986Y138671D01*
X62986Y138677D01*
X62014Y139234D01*
X62006Y139233D01*
X62004Y139239D01*
X60932Y139566D01*
X60924Y139563D01*
X60921Y139568D01*
X59804Y139649D01*
X59801Y139648D01*
X59800Y139649D01*
X47800Y139649D01*
X47797Y139647D01*
X47790Y139647D01*
X47789Y139648D01*
X46845Y139429D01*
X46839Y139423D01*
X46834Y139425D01*
X45962Y139002D01*
X45959Y138994D01*
X45953Y138996D01*
X45197Y138389D01*
X45195Y138381D01*
X45189Y138381D01*
X44588Y137621D01*
X44588Y137612D01*
X44582Y137611D01*
X44164Y136736D01*
X44166Y136728D01*
X44161Y136726D01*
X43949Y135780D01*
X43952Y135773D01*
X43947Y135769D01*
X43951Y134800D01*
X43951Y134799D01*
X43970Y133731D01*
X43975Y133724D01*
X43971Y133720D01*
X44227Y132683D01*
X44234Y132678D01*
X44231Y132672D01*
X44712Y131718D01*
X44719Y131715D01*
X44718Y131709D01*
X45399Y130886D01*
X45407Y130884D01*
X45407Y130878D01*
X46254Y130227D01*
X46262Y130227D01*
X46263Y130221D01*
X47234Y129774D01*
X47242Y129776D01*
X47244Y129771D01*
X48290Y129552D01*
X48297Y129555D01*
X48300Y129551D01*
X60300Y129551D01*
X60305Y129554D01*
G37*
G36*
X60305Y1343715D02*
X60305Y1343715D01*
X60308Y1343711D01*
X61414Y1343904D01*
X61419Y1343909D01*
X61419Y1343910D01*
X61424Y1343907D01*
X62459Y1344340D01*
X62463Y1344347D01*
X62468Y1344345D01*
X63381Y1344998D01*
X63383Y1345006D01*
X63389Y1345005D01*
X64133Y1345844D01*
X64134Y1345853D01*
X64139Y1345853D01*
X64678Y1346837D01*
X64677Y1346845D01*
X64678Y1346846D01*
X64682Y1346847D01*
X64683Y1346849D01*
X64865Y1347490D01*
X64989Y1347926D01*
X64987Y1347931D01*
X64989Y1347933D01*
X64987Y1347935D01*
X64991Y1347937D01*
X65049Y1349057D01*
X65046Y1349062D01*
X65049Y1349066D01*
X64931Y1350111D01*
X64925Y1350117D01*
X64929Y1350122D01*
X64581Y1351116D01*
X64574Y1351120D01*
X64576Y1351125D01*
X64016Y1352017D01*
X64009Y1352020D01*
X64009Y1352025D01*
X63265Y1352769D01*
X63257Y1352771D01*
X63257Y1352776D01*
X62365Y1353336D01*
X62357Y1353336D01*
X62356Y1353341D01*
X61362Y1353689D01*
X61354Y1353686D01*
X61351Y1353691D01*
X60306Y1353809D01*
X60302Y1353807D01*
X60300Y1353809D01*
X48300Y1353809D01*
X48297Y1353807D01*
X48294Y1353807D01*
X48292Y1353809D01*
X47296Y1353651D01*
X47290Y1353645D01*
X47285Y1353648D01*
X46349Y1353273D01*
X46345Y1353266D01*
X46339Y1353268D01*
X45510Y1352694D01*
X45507Y1352686D01*
X45502Y1352687D01*
X44821Y1351943D01*
X44820Y1351934D01*
X44814Y1351934D01*
X44316Y1351057D01*
X44317Y1351049D01*
X44312Y1351046D01*
X44124Y1350422D01*
X44021Y1350081D01*
X44022Y1350078D01*
X44021Y1350077D01*
X44024Y1350073D01*
X44019Y1350070D01*
X43951Y1349063D01*
X43952Y1349061D01*
X43951Y1349060D01*
X43960Y1347979D01*
X43965Y1347972D01*
X43961Y1347968D01*
X44211Y1346916D01*
X44217Y1346911D01*
X44214Y1346906D01*
X44691Y1345936D01*
X44699Y1345933D01*
X44697Y1345927D01*
X45378Y1345088D01*
X45386Y1345086D01*
X45386Y1345080D01*
X46237Y1344414D01*
X46245Y1344413D01*
X46246Y1344408D01*
X47223Y1343947D01*
X47231Y1343949D01*
X47234Y1343944D01*
X48289Y1343712D01*
X48297Y1343715D01*
X48300Y1343711D01*
X60300Y1343711D01*
X60305Y1343715D01*
G37*
G36*
X60305Y779835D02*
X60305Y779835D01*
X60308Y779831D01*
X61414Y780024D01*
X61419Y780029D01*
X61419Y780030D01*
X61424Y780027D01*
X62459Y780460D01*
X62463Y780467D01*
X62468Y780465D01*
X63381Y781118D01*
X63383Y781126D01*
X63389Y781125D01*
X64133Y781964D01*
X64134Y781973D01*
X64139Y781973D01*
X64678Y782957D01*
X64677Y782965D01*
X64678Y782966D01*
X64682Y782967D01*
X64683Y782969D01*
X64865Y783610D01*
X64989Y784046D01*
X64987Y784051D01*
X64989Y784053D01*
X64987Y784055D01*
X64991Y784057D01*
X65049Y785177D01*
X65046Y785182D01*
X65049Y785186D01*
X64931Y786231D01*
X64925Y786237D01*
X64929Y786242D01*
X64581Y787236D01*
X64574Y787240D01*
X64576Y787245D01*
X64016Y788137D01*
X64009Y788140D01*
X64009Y788145D01*
X63265Y788889D01*
X63257Y788891D01*
X63257Y788896D01*
X62365Y789456D01*
X62357Y789456D01*
X62356Y789461D01*
X61362Y789809D01*
X61354Y789806D01*
X61351Y789811D01*
X60306Y789929D01*
X60302Y789927D01*
X60300Y789929D01*
X48300Y789929D01*
X48297Y789927D01*
X48294Y789927D01*
X48292Y789929D01*
X47296Y789771D01*
X47290Y789765D01*
X47285Y789768D01*
X46349Y789393D01*
X46345Y789386D01*
X46339Y789388D01*
X45510Y788814D01*
X45507Y788806D01*
X45502Y788807D01*
X44821Y788063D01*
X44820Y788054D01*
X44814Y788054D01*
X44316Y787177D01*
X44317Y787169D01*
X44312Y787166D01*
X44124Y786542D01*
X44021Y786201D01*
X44022Y786198D01*
X44021Y786197D01*
X44024Y786193D01*
X44019Y786190D01*
X43951Y785183D01*
X43952Y785181D01*
X43951Y785180D01*
X43960Y784099D01*
X43965Y784092D01*
X43961Y784088D01*
X44211Y783036D01*
X44217Y783031D01*
X44214Y783026D01*
X44691Y782056D01*
X44699Y782053D01*
X44697Y782047D01*
X45378Y781208D01*
X45386Y781206D01*
X45386Y781200D01*
X46237Y780534D01*
X46245Y780533D01*
X46246Y780528D01*
X47223Y780067D01*
X47231Y780069D01*
X47234Y780064D01*
X48289Y779832D01*
X48297Y779835D01*
X48300Y779831D01*
X60300Y779831D01*
X60305Y779835D01*
G37*
G36*
X60305Y1907595D02*
X60305Y1907595D01*
X60308Y1907591D01*
X61414Y1907784D01*
X61419Y1907789D01*
X61419Y1907790D01*
X61424Y1907787D01*
X62459Y1908220D01*
X62463Y1908227D01*
X62468Y1908225D01*
X63381Y1908878D01*
X63383Y1908886D01*
X63389Y1908885D01*
X64133Y1909724D01*
X64134Y1909733D01*
X64139Y1909733D01*
X64678Y1910717D01*
X64677Y1910725D01*
X64678Y1910726D01*
X64682Y1910727D01*
X64683Y1910729D01*
X64865Y1911370D01*
X64989Y1911806D01*
X64987Y1911811D01*
X64989Y1911813D01*
X64987Y1911815D01*
X64991Y1911817D01*
X65049Y1912937D01*
X65046Y1912942D01*
X65049Y1912946D01*
X64931Y1913991D01*
X64925Y1913997D01*
X64929Y1914002D01*
X64581Y1914996D01*
X64574Y1915000D01*
X64576Y1915005D01*
X64016Y1915897D01*
X64009Y1915900D01*
X64009Y1915905D01*
X63265Y1916649D01*
X63257Y1916651D01*
X63257Y1916656D01*
X62365Y1917216D01*
X62357Y1917216D01*
X62356Y1917221D01*
X61362Y1917569D01*
X61354Y1917566D01*
X61351Y1917571D01*
X60306Y1917689D01*
X60302Y1917687D01*
X60300Y1917689D01*
X48300Y1917689D01*
X48297Y1917687D01*
X48294Y1917687D01*
X48292Y1917689D01*
X47296Y1917531D01*
X47290Y1917525D01*
X47285Y1917528D01*
X46349Y1917153D01*
X46345Y1917146D01*
X46339Y1917148D01*
X45510Y1916574D01*
X45507Y1916566D01*
X45502Y1916567D01*
X44821Y1915823D01*
X44820Y1915814D01*
X44814Y1915814D01*
X44316Y1914937D01*
X44317Y1914929D01*
X44312Y1914926D01*
X44124Y1914302D01*
X44021Y1913961D01*
X44022Y1913958D01*
X44021Y1913957D01*
X44024Y1913953D01*
X44019Y1913950D01*
X43951Y1912943D01*
X43952Y1912941D01*
X43951Y1912940D01*
X43960Y1911859D01*
X43965Y1911852D01*
X43961Y1911848D01*
X44211Y1910796D01*
X44217Y1910791D01*
X44214Y1910786D01*
X44691Y1909816D01*
X44699Y1909813D01*
X44697Y1909807D01*
X45378Y1908968D01*
X45386Y1908966D01*
X45386Y1908960D01*
X46237Y1908294D01*
X46245Y1908293D01*
X46246Y1908288D01*
X47223Y1907827D01*
X47231Y1907829D01*
X47234Y1907824D01*
X48289Y1907592D01*
X48297Y1907595D01*
X48300Y1907591D01*
X60300Y1907591D01*
X60305Y1907595D01*
G37*
G36*
X60305Y215955D02*
X60305Y215955D01*
X60308Y215951D01*
X61414Y216144D01*
X61419Y216149D01*
X61419Y216150D01*
X61424Y216147D01*
X62459Y216580D01*
X62463Y216587D01*
X62468Y216585D01*
X63381Y217238D01*
X63383Y217246D01*
X63389Y217245D01*
X64133Y218084D01*
X64134Y218093D01*
X64139Y218093D01*
X64678Y219077D01*
X64677Y219085D01*
X64678Y219086D01*
X64682Y219087D01*
X64683Y219089D01*
X64865Y219730D01*
X64989Y220166D01*
X64987Y220171D01*
X64989Y220173D01*
X64987Y220175D01*
X64991Y220177D01*
X65049Y221297D01*
X65046Y221302D01*
X65049Y221306D01*
X64931Y222351D01*
X64925Y222357D01*
X64929Y222362D01*
X64581Y223356D01*
X64574Y223360D01*
X64576Y223365D01*
X64016Y224257D01*
X64009Y224260D01*
X64009Y224265D01*
X63265Y225009D01*
X63257Y225011D01*
X63257Y225016D01*
X62365Y225576D01*
X62357Y225576D01*
X62356Y225581D01*
X61362Y225929D01*
X61354Y225926D01*
X61351Y225931D01*
X60306Y226049D01*
X60302Y226047D01*
X60300Y226049D01*
X48300Y226049D01*
X48297Y226047D01*
X48294Y226047D01*
X48292Y226049D01*
X47296Y225891D01*
X47290Y225885D01*
X47285Y225888D01*
X46349Y225513D01*
X46345Y225506D01*
X46339Y225508D01*
X45510Y224934D01*
X45507Y224926D01*
X45502Y224927D01*
X44821Y224183D01*
X44820Y224174D01*
X44814Y224174D01*
X44316Y223297D01*
X44317Y223289D01*
X44312Y223286D01*
X44124Y222662D01*
X44021Y222321D01*
X44022Y222318D01*
X44021Y222317D01*
X44024Y222313D01*
X44019Y222310D01*
X43951Y221303D01*
X43952Y221301D01*
X43951Y221300D01*
X43960Y220219D01*
X43965Y220212D01*
X43961Y220208D01*
X44211Y219156D01*
X44217Y219151D01*
X44214Y219146D01*
X44691Y218176D01*
X44699Y218173D01*
X44697Y218167D01*
X45378Y217328D01*
X45386Y217326D01*
X45386Y217320D01*
X46237Y216654D01*
X46245Y216653D01*
X46246Y216648D01*
X47223Y216187D01*
X47231Y216189D01*
X47234Y216184D01*
X48289Y215952D01*
X48297Y215955D01*
X48300Y215951D01*
X60300Y215951D01*
X60305Y215955D01*
G37*
G36*
X15504Y693434D02*
X15504Y693434D01*
X15506Y693431D01*
X16639Y693581D01*
X16645Y693587D01*
X16650Y693584D01*
X17720Y693982D01*
X17724Y693989D01*
X17730Y693987D01*
X18685Y694614D01*
X18688Y694622D01*
X18693Y694621D01*
X19485Y695444D01*
X19486Y695452D01*
X19492Y695453D01*
X20081Y696432D01*
X20080Y696440D01*
X20085Y696442D01*
X20441Y697527D01*
X20439Y697535D01*
X20443Y697538D01*
X20549Y698675D01*
X20544Y698684D01*
X20548Y698689D01*
X20341Y699826D01*
X20335Y699832D01*
X20338Y699837D01*
X19883Y700899D01*
X19876Y700903D01*
X19878Y700909D01*
X19198Y701844D01*
X19190Y701846D01*
X19191Y701852D01*
X18320Y702612D01*
X18312Y702612D01*
X18311Y702618D01*
X17292Y703165D01*
X17284Y703164D01*
X17282Y703169D01*
X16168Y703476D01*
X16160Y703473D01*
X16157Y703478D01*
X15002Y703529D01*
X15001Y703528D01*
X15000Y703529D01*
X9000Y703529D01*
X8997Y703527D01*
X8992Y703527D01*
X8991Y703528D01*
X7910Y703316D01*
X7905Y703310D01*
X7900Y703313D01*
X6894Y702866D01*
X6890Y702859D01*
X6884Y702861D01*
X6003Y702201D01*
X6000Y702193D01*
X5995Y702193D01*
X5282Y701354D01*
X5282Y701346D01*
X5276Y701345D01*
X4768Y700368D01*
X4769Y700360D01*
X4764Y700358D01*
X4486Y699293D01*
X4489Y699285D01*
X4485Y699282D01*
X4451Y698182D01*
X4455Y698176D01*
X4451Y698173D01*
X4606Y697098D01*
X4612Y697092D01*
X4609Y697087D01*
X4999Y696073D01*
X5006Y696069D01*
X5005Y696063D01*
X5611Y695161D01*
X5619Y695159D01*
X5618Y695153D01*
X6410Y694409D01*
X6418Y694408D01*
X6418Y694402D01*
X7356Y693853D01*
X7364Y693854D01*
X7366Y693848D01*
X8402Y693521D01*
X8410Y693524D01*
X8413Y693519D01*
X9496Y693431D01*
X9499Y693433D01*
X9500Y693431D01*
X15500Y693431D01*
X15504Y693434D01*
G37*
G36*
X15504Y1257314D02*
X15504Y1257314D01*
X15506Y1257311D01*
X16639Y1257461D01*
X16645Y1257467D01*
X16650Y1257464D01*
X17720Y1257862D01*
X17724Y1257869D01*
X17730Y1257867D01*
X18685Y1258494D01*
X18688Y1258502D01*
X18693Y1258501D01*
X19485Y1259324D01*
X19486Y1259332D01*
X19492Y1259333D01*
X20081Y1260312D01*
X20080Y1260320D01*
X20085Y1260322D01*
X20441Y1261407D01*
X20439Y1261415D01*
X20443Y1261418D01*
X20549Y1262555D01*
X20544Y1262564D01*
X20548Y1262569D01*
X20341Y1263706D01*
X20335Y1263712D01*
X20338Y1263717D01*
X19883Y1264779D01*
X19876Y1264783D01*
X19878Y1264789D01*
X19198Y1265724D01*
X19190Y1265726D01*
X19191Y1265732D01*
X18320Y1266492D01*
X18312Y1266492D01*
X18311Y1266498D01*
X17292Y1267045D01*
X17284Y1267044D01*
X17282Y1267049D01*
X16168Y1267356D01*
X16160Y1267353D01*
X16157Y1267358D01*
X15002Y1267409D01*
X15001Y1267408D01*
X15000Y1267409D01*
X9000Y1267409D01*
X8997Y1267407D01*
X8992Y1267407D01*
X8991Y1267408D01*
X7910Y1267196D01*
X7905Y1267190D01*
X7900Y1267193D01*
X6894Y1266746D01*
X6890Y1266739D01*
X6884Y1266741D01*
X6003Y1266081D01*
X6000Y1266073D01*
X5995Y1266073D01*
X5282Y1265234D01*
X5282Y1265226D01*
X5276Y1265225D01*
X4768Y1264248D01*
X4769Y1264240D01*
X4764Y1264238D01*
X4486Y1263173D01*
X4489Y1263165D01*
X4485Y1263162D01*
X4451Y1262062D01*
X4455Y1262056D01*
X4451Y1262053D01*
X4606Y1260978D01*
X4612Y1260972D01*
X4609Y1260967D01*
X4999Y1259953D01*
X5006Y1259949D01*
X5005Y1259943D01*
X5611Y1259041D01*
X5619Y1259039D01*
X5618Y1259033D01*
X6410Y1258289D01*
X6418Y1258288D01*
X6418Y1258282D01*
X7356Y1257733D01*
X7364Y1257734D01*
X7366Y1257728D01*
X8402Y1257401D01*
X8410Y1257404D01*
X8413Y1257399D01*
X9496Y1257311D01*
X9499Y1257313D01*
X9500Y1257311D01*
X15500Y1257311D01*
X15504Y1257314D01*
G37*
G36*
X15504Y1821194D02*
X15504Y1821194D01*
X15506Y1821191D01*
X16639Y1821341D01*
X16645Y1821347D01*
X16650Y1821344D01*
X17720Y1821742D01*
X17724Y1821749D01*
X17730Y1821747D01*
X18685Y1822374D01*
X18688Y1822382D01*
X18693Y1822381D01*
X19485Y1823204D01*
X19486Y1823212D01*
X19492Y1823213D01*
X20081Y1824192D01*
X20080Y1824200D01*
X20085Y1824202D01*
X20441Y1825287D01*
X20439Y1825295D01*
X20443Y1825298D01*
X20549Y1826435D01*
X20544Y1826444D01*
X20548Y1826449D01*
X20341Y1827586D01*
X20335Y1827592D01*
X20338Y1827597D01*
X19883Y1828659D01*
X19876Y1828663D01*
X19878Y1828669D01*
X19198Y1829604D01*
X19190Y1829606D01*
X19191Y1829612D01*
X18320Y1830372D01*
X18312Y1830372D01*
X18311Y1830378D01*
X17292Y1830925D01*
X17284Y1830924D01*
X17282Y1830929D01*
X16168Y1831236D01*
X16160Y1831233D01*
X16157Y1831238D01*
X15002Y1831289D01*
X15001Y1831288D01*
X15000Y1831289D01*
X9000Y1831289D01*
X8997Y1831287D01*
X8992Y1831287D01*
X8991Y1831288D01*
X7910Y1831076D01*
X7905Y1831070D01*
X7900Y1831073D01*
X6894Y1830626D01*
X6890Y1830619D01*
X6884Y1830621D01*
X6003Y1829961D01*
X6000Y1829953D01*
X5995Y1829953D01*
X5282Y1829114D01*
X5282Y1829106D01*
X5276Y1829105D01*
X4768Y1828128D01*
X4769Y1828120D01*
X4764Y1828118D01*
X4486Y1827053D01*
X4489Y1827045D01*
X4485Y1827042D01*
X4451Y1825942D01*
X4455Y1825936D01*
X4451Y1825933D01*
X4606Y1824858D01*
X4612Y1824852D01*
X4609Y1824847D01*
X4999Y1823833D01*
X5006Y1823829D01*
X5005Y1823823D01*
X5611Y1822921D01*
X5619Y1822919D01*
X5618Y1822913D01*
X6410Y1822169D01*
X6418Y1822168D01*
X6418Y1822162D01*
X7356Y1821613D01*
X7364Y1821614D01*
X7366Y1821608D01*
X8402Y1821281D01*
X8410Y1821284D01*
X8413Y1821279D01*
X9496Y1821191D01*
X9499Y1821193D01*
X9500Y1821191D01*
X15500Y1821191D01*
X15504Y1821194D01*
G37*
G36*
X15504Y129554D02*
X15504Y129554D01*
X15506Y129551D01*
X16639Y129701D01*
X16645Y129707D01*
X16650Y129704D01*
X17720Y130102D01*
X17724Y130109D01*
X17730Y130107D01*
X18685Y130734D01*
X18688Y130742D01*
X18693Y130741D01*
X19485Y131564D01*
X19486Y131572D01*
X19492Y131573D01*
X20081Y132552D01*
X20080Y132560D01*
X20085Y132562D01*
X20441Y133647D01*
X20439Y133655D01*
X20443Y133658D01*
X20549Y134795D01*
X20544Y134804D01*
X20548Y134809D01*
X20341Y135946D01*
X20335Y135952D01*
X20338Y135957D01*
X19883Y137019D01*
X19876Y137023D01*
X19878Y137029D01*
X19198Y137964D01*
X19190Y137966D01*
X19191Y137972D01*
X18320Y138732D01*
X18312Y138732D01*
X18311Y138738D01*
X17292Y139285D01*
X17284Y139284D01*
X17282Y139289D01*
X16168Y139596D01*
X16160Y139593D01*
X16157Y139598D01*
X15002Y139649D01*
X15001Y139648D01*
X15000Y139649D01*
X9000Y139649D01*
X8997Y139647D01*
X8992Y139647D01*
X8991Y139648D01*
X7910Y139436D01*
X7905Y139430D01*
X7900Y139433D01*
X6894Y138986D01*
X6890Y138979D01*
X6884Y138981D01*
X6003Y138321D01*
X6000Y138313D01*
X5995Y138313D01*
X5282Y137474D01*
X5282Y137466D01*
X5276Y137465D01*
X4768Y136488D01*
X4769Y136480D01*
X4764Y136478D01*
X4486Y135413D01*
X4489Y135405D01*
X4485Y135402D01*
X4451Y134302D01*
X4455Y134296D01*
X4451Y134293D01*
X4606Y133218D01*
X4612Y133212D01*
X4609Y133207D01*
X4999Y132193D01*
X5006Y132189D01*
X5005Y132183D01*
X5611Y131281D01*
X5619Y131279D01*
X5618Y131273D01*
X6410Y130529D01*
X6418Y130528D01*
X6418Y130522D01*
X7356Y129973D01*
X7364Y129974D01*
X7366Y129968D01*
X8402Y129641D01*
X8410Y129644D01*
X8413Y129639D01*
X9496Y129551D01*
X9499Y129553D01*
X9500Y129551D01*
X15500Y129551D01*
X15504Y129554D01*
G37*
G36*
X15503Y1343713D02*
X15503Y1343713D01*
X15505Y1343711D01*
X16597Y1343812D01*
X16603Y1343817D01*
X16608Y1343814D01*
X17651Y1344155D01*
X17656Y1344162D01*
X17661Y1344160D01*
X18602Y1344724D01*
X18605Y1344732D01*
X18611Y1344731D01*
X19403Y1345491D01*
X19404Y1345499D01*
X19410Y1345500D01*
X20013Y1346417D01*
X20012Y1346425D01*
X20018Y1346427D01*
X20401Y1347455D01*
X20399Y1347463D01*
X20404Y1347466D01*
X20549Y1348554D01*
X20545Y1348561D01*
X20549Y1348565D01*
X20443Y1349702D01*
X20438Y1349708D01*
X20441Y1349713D01*
X20085Y1350798D01*
X20078Y1350803D01*
X20081Y1350808D01*
X19492Y1351787D01*
X19484Y1351790D01*
X19485Y1351796D01*
X18693Y1352619D01*
X18685Y1352620D01*
X18685Y1352626D01*
X17730Y1353253D01*
X17722Y1353252D01*
X17720Y1353258D01*
X16650Y1353656D01*
X16642Y1353654D01*
X16639Y1353659D01*
X15506Y1353809D01*
X15503Y1353807D01*
X15502Y1353807D01*
X15500Y1353809D01*
X9500Y1353809D01*
X9497Y1353807D01*
X9495Y1353807D01*
X9494Y1353809D01*
X8361Y1353659D01*
X8355Y1353653D01*
X8350Y1353656D01*
X7280Y1353258D01*
X7276Y1353251D01*
X7270Y1353253D01*
X6315Y1352626D01*
X6312Y1352618D01*
X6307Y1352619D01*
X5515Y1351796D01*
X5514Y1351788D01*
X5508Y1351787D01*
X4919Y1350808D01*
X4920Y1350800D01*
X4915Y1350798D01*
X4559Y1349713D01*
X4562Y1349705D01*
X4557Y1349702D01*
X4451Y1348565D01*
X4455Y1348558D01*
X4451Y1348554D01*
X4596Y1347466D01*
X4602Y1347460D01*
X4599Y1347455D01*
X4983Y1346427D01*
X4989Y1346422D01*
X4988Y1346417D01*
X5590Y1345500D01*
X5598Y1345497D01*
X5597Y1345491D01*
X6389Y1344731D01*
X6397Y1344730D01*
X6398Y1344724D01*
X7339Y1344160D01*
X7347Y1344161D01*
X7349Y1344155D01*
X8392Y1343814D01*
X8400Y1343816D01*
X8403Y1343812D01*
X9496Y1343711D01*
X9498Y1343713D01*
X9500Y1343711D01*
X15500Y1343711D01*
X15503Y1343713D01*
G37*
G36*
X15503Y779833D02*
X15503Y779833D01*
X15505Y779831D01*
X16597Y779932D01*
X16603Y779937D01*
X16608Y779934D01*
X17651Y780275D01*
X17656Y780282D01*
X17661Y780280D01*
X18602Y780844D01*
X18605Y780852D01*
X18611Y780851D01*
X19403Y781611D01*
X19404Y781619D01*
X19410Y781620D01*
X20013Y782537D01*
X20012Y782545D01*
X20018Y782547D01*
X20401Y783575D01*
X20399Y783583D01*
X20404Y783586D01*
X20549Y784674D01*
X20545Y784681D01*
X20549Y784685D01*
X20443Y785822D01*
X20438Y785828D01*
X20441Y785833D01*
X20085Y786918D01*
X20078Y786923D01*
X20081Y786928D01*
X19492Y787907D01*
X19484Y787910D01*
X19485Y787916D01*
X18693Y788739D01*
X18685Y788740D01*
X18685Y788746D01*
X17730Y789373D01*
X17722Y789372D01*
X17720Y789378D01*
X16650Y789776D01*
X16642Y789774D01*
X16639Y789779D01*
X15506Y789929D01*
X15503Y789927D01*
X15502Y789927D01*
X15500Y789929D01*
X9500Y789929D01*
X9497Y789927D01*
X9495Y789927D01*
X9494Y789929D01*
X8361Y789779D01*
X8355Y789773D01*
X8350Y789776D01*
X7280Y789378D01*
X7276Y789371D01*
X7270Y789373D01*
X6315Y788746D01*
X6312Y788738D01*
X6307Y788739D01*
X5515Y787916D01*
X5514Y787908D01*
X5508Y787907D01*
X4919Y786928D01*
X4920Y786920D01*
X4915Y786918D01*
X4559Y785833D01*
X4562Y785825D01*
X4557Y785822D01*
X4451Y784685D01*
X4455Y784678D01*
X4451Y784674D01*
X4596Y783586D01*
X4602Y783580D01*
X4599Y783575D01*
X4983Y782547D01*
X4989Y782542D01*
X4988Y782537D01*
X5590Y781620D01*
X5598Y781617D01*
X5597Y781611D01*
X6389Y780851D01*
X6397Y780850D01*
X6398Y780844D01*
X7339Y780280D01*
X7347Y780281D01*
X7349Y780275D01*
X8392Y779934D01*
X8400Y779936D01*
X8403Y779932D01*
X9496Y779831D01*
X9498Y779833D01*
X9500Y779831D01*
X15500Y779831D01*
X15503Y779833D01*
G37*
G36*
X15503Y1907593D02*
X15503Y1907593D01*
X15505Y1907591D01*
X16597Y1907692D01*
X16603Y1907697D01*
X16608Y1907694D01*
X17651Y1908035D01*
X17656Y1908042D01*
X17661Y1908040D01*
X18602Y1908604D01*
X18605Y1908612D01*
X18611Y1908611D01*
X19403Y1909371D01*
X19404Y1909379D01*
X19410Y1909380D01*
X20013Y1910297D01*
X20012Y1910305D01*
X20018Y1910307D01*
X20401Y1911335D01*
X20399Y1911343D01*
X20404Y1911346D01*
X20549Y1912434D01*
X20545Y1912441D01*
X20549Y1912445D01*
X20443Y1913582D01*
X20438Y1913588D01*
X20441Y1913593D01*
X20085Y1914678D01*
X20078Y1914683D01*
X20081Y1914688D01*
X19492Y1915667D01*
X19484Y1915670D01*
X19485Y1915676D01*
X18693Y1916499D01*
X18685Y1916500D01*
X18685Y1916506D01*
X17730Y1917133D01*
X17722Y1917132D01*
X17720Y1917138D01*
X16650Y1917536D01*
X16642Y1917534D01*
X16639Y1917539D01*
X15506Y1917689D01*
X15503Y1917687D01*
X15502Y1917687D01*
X15500Y1917689D01*
X9500Y1917689D01*
X9497Y1917687D01*
X9495Y1917687D01*
X9494Y1917689D01*
X8361Y1917539D01*
X8355Y1917533D01*
X8350Y1917536D01*
X7280Y1917138D01*
X7276Y1917131D01*
X7270Y1917133D01*
X6315Y1916506D01*
X6312Y1916498D01*
X6307Y1916499D01*
X5515Y1915676D01*
X5514Y1915668D01*
X5508Y1915667D01*
X4919Y1914688D01*
X4920Y1914680D01*
X4915Y1914678D01*
X4559Y1913593D01*
X4562Y1913585D01*
X4557Y1913582D01*
X4451Y1912445D01*
X4455Y1912438D01*
X4451Y1912434D01*
X4596Y1911346D01*
X4602Y1911340D01*
X4599Y1911335D01*
X4983Y1910307D01*
X4989Y1910302D01*
X4988Y1910297D01*
X5590Y1909380D01*
X5598Y1909377D01*
X5597Y1909371D01*
X6389Y1908611D01*
X6397Y1908610D01*
X6398Y1908604D01*
X7339Y1908040D01*
X7347Y1908041D01*
X7349Y1908035D01*
X8392Y1907694D01*
X8400Y1907696D01*
X8403Y1907692D01*
X9496Y1907591D01*
X9498Y1907593D01*
X9500Y1907591D01*
X15500Y1907591D01*
X15503Y1907593D01*
G37*
G36*
X15503Y215953D02*
X15503Y215953D01*
X15505Y215951D01*
X16597Y216052D01*
X16603Y216057D01*
X16608Y216054D01*
X17651Y216395D01*
X17656Y216402D01*
X17661Y216400D01*
X18602Y216964D01*
X18605Y216972D01*
X18611Y216971D01*
X19403Y217731D01*
X19404Y217739D01*
X19410Y217740D01*
X20013Y218657D01*
X20012Y218665D01*
X20018Y218667D01*
X20401Y219695D01*
X20399Y219703D01*
X20404Y219706D01*
X20549Y220794D01*
X20545Y220801D01*
X20549Y220805D01*
X20443Y221942D01*
X20438Y221948D01*
X20441Y221953D01*
X20085Y223038D01*
X20078Y223043D01*
X20081Y223048D01*
X19492Y224027D01*
X19484Y224030D01*
X19485Y224036D01*
X18693Y224859D01*
X18685Y224860D01*
X18685Y224866D01*
X17730Y225493D01*
X17722Y225492D01*
X17720Y225498D01*
X16650Y225896D01*
X16642Y225894D01*
X16639Y225899D01*
X15506Y226049D01*
X15503Y226047D01*
X15502Y226047D01*
X15500Y226049D01*
X9500Y226049D01*
X9497Y226047D01*
X9495Y226047D01*
X9494Y226049D01*
X8361Y225899D01*
X8355Y225893D01*
X8350Y225896D01*
X7280Y225498D01*
X7276Y225491D01*
X7270Y225493D01*
X6315Y224866D01*
X6312Y224858D01*
X6307Y224859D01*
X5515Y224036D01*
X5514Y224028D01*
X5508Y224027D01*
X4919Y223048D01*
X4920Y223040D01*
X4915Y223038D01*
X4559Y221953D01*
X4562Y221945D01*
X4557Y221942D01*
X4451Y220805D01*
X4455Y220798D01*
X4451Y220794D01*
X4596Y219706D01*
X4602Y219700D01*
X4599Y219695D01*
X4983Y218667D01*
X4989Y218662D01*
X4988Y218657D01*
X5590Y217740D01*
X5598Y217737D01*
X5597Y217731D01*
X6389Y216971D01*
X6397Y216970D01*
X6398Y216964D01*
X7339Y216400D01*
X7347Y216401D01*
X7349Y216395D01*
X8392Y216054D01*
X8400Y216056D01*
X8403Y216052D01*
X9496Y215951D01*
X9498Y215953D01*
X9500Y215951D01*
X15500Y215951D01*
X15503Y215953D01*
G37*
D10*
X60100Y170300D03*
X60100Y175300D03*
D11*
X60100Y145550D03*
X60100Y153300D03*
D10*
X60100Y160300D03*
X60100Y165300D03*
X60100Y185300D03*
X60100Y180300D03*
D11*
X60100Y210050D03*
X60100Y202300D03*
D10*
X60100Y195300D03*
X60100Y190300D03*
D12*
X76200Y211700D03*
X76200Y194700D03*
X76200Y143900D03*
X76200Y160900D03*
D13*
X101600Y177800D03*
D14*
X91850Y164050D03*
X98350Y164050D03*
X104850Y164050D03*
X111350Y164050D03*
X111350Y191550D03*
X104850Y191550D03*
X98350Y191550D03*
X91850Y191550D03*
D15*
X93100Y215900D03*
X110100Y215900D03*
D16*
X714460Y384460D03*
D17*
X633660Y388620D03*
X656660Y388620D03*
D15*
X653914Y405384D03*
X636914Y405384D03*
D17*
X633660Y372110D03*
X656660Y372110D03*
D18*
X152400Y19050D03*
X96520Y19050D03*
X152400Y57150D03*
X96520Y57150D03*
D15*
X93100Y231140D03*
X110100Y231140D03*
D19*
X23608Y248412D03*
X53608Y248412D03*
D20*
X104678Y255270D03*
X76678Y255270D03*
D12*
X149860Y222640D03*
X149860Y239640D03*
X134874Y239894D03*
X134874Y222894D03*
D18*
X231140Y19050D03*
X175260Y19050D03*
X231140Y57150D03*
X175260Y57150D03*
D15*
X130692Y185674D03*
X147692Y185674D03*
D17*
X127692Y168656D03*
X150692Y168656D03*
D12*
X139700Y140580D03*
X139700Y123580D03*
X154940Y140580D03*
X154940Y123580D03*
X170180Y140580D03*
X170180Y123580D03*
D21*
X310600Y175900D03*
X310600Y382900D03*
D22*
X378350Y369400D03*
X302850Y371900D03*
X378350Y364400D03*
X302850Y366900D03*
X378350Y359400D03*
X302850Y361900D03*
X378350Y354400D03*
X302850Y356900D03*
X378350Y349400D03*
X302850Y351900D03*
X378350Y344400D03*
X302850Y346900D03*
X378350Y339400D03*
X302850Y341900D03*
X378350Y334400D03*
X302850Y336900D03*
X378350Y329400D03*
X302850Y331900D03*
X378350Y324400D03*
X302850Y326900D03*
X378350Y319400D03*
X302850Y321900D03*
X378350Y314400D03*
X302850Y316900D03*
X378350Y309400D03*
X302850Y311900D03*
X378350Y304400D03*
X302850Y306900D03*
X378350Y299400D03*
X302850Y301900D03*
X378350Y294400D03*
X302850Y296900D03*
X378350Y289400D03*
X302850Y291900D03*
X378350Y284400D03*
X302850Y286900D03*
X378350Y279400D03*
X302850Y281900D03*
X378350Y274400D03*
X302850Y276900D03*
X378350Y269400D03*
X302850Y271900D03*
X378350Y264400D03*
X302850Y266900D03*
X378350Y239400D03*
X302850Y241900D03*
X378350Y234400D03*
X302850Y236900D03*
X378350Y229400D03*
X302850Y231900D03*
X378350Y224400D03*
X302850Y226900D03*
X378350Y219400D03*
X302850Y221900D03*
X378350Y214400D03*
X302850Y216900D03*
X378350Y209400D03*
X302850Y211900D03*
X378350Y204400D03*
X302850Y206900D03*
X378350Y199400D03*
X302850Y201900D03*
X378350Y194400D03*
X302850Y196900D03*
X378350Y189400D03*
X302850Y191900D03*
X302850Y186900D03*
D23*
X135620Y379062D03*
X135620Y404062D03*
X135620Y359062D03*
X135620Y334062D03*
D24*
X546300Y67400D03*
X546100Y34400D03*
X571700Y67400D03*
X571500Y34400D03*
X520800Y67400D03*
X520600Y34400D03*
X495500Y67400D03*
X495300Y34400D03*
X470100Y67400D03*
X469900Y34400D03*
X444600Y67400D03*
X444400Y34400D03*
X393900Y67400D03*
X393700Y34400D03*
X419300Y67400D03*
X419100Y34400D03*
X762200Y67400D03*
X762000Y34400D03*
X787600Y67400D03*
X787400Y34400D03*
X736700Y67400D03*
X736500Y34400D03*
X711400Y67400D03*
X711200Y34400D03*
X686000Y67400D03*
X685800Y34400D03*
X660500Y67400D03*
X660300Y34400D03*
X609800Y67400D03*
X609600Y34400D03*
X635200Y67400D03*
X635000Y34400D03*
D25*
X849550Y403800D03*
X849550Y459800D03*
D26*
X812800Y416800D03*
X812800Y426800D03*
X812800Y436800D03*
X812800Y446800D03*
D25*
X849550Y73600D03*
X849550Y129600D03*
D26*
X812800Y86600D03*
X812800Y96600D03*
X812800Y106600D03*
X812800Y116600D03*
D27*
X829300Y381000D03*
D28*
X796200Y355800D03*
X829200Y355600D03*
X796200Y381200D03*
X829200Y381000D03*
X796200Y330300D03*
X829200Y330100D03*
X796200Y305000D03*
X829200Y304800D03*
D27*
X829300Y355600D03*
D24*
X418900Y491400D03*
X419100Y524400D03*
X393500Y491400D03*
X393700Y524400D03*
X444400Y491400D03*
X444600Y524400D03*
X469700Y491400D03*
X469900Y524400D03*
X495100Y491400D03*
X495300Y524400D03*
X520600Y491400D03*
X520800Y524400D03*
X571300Y491400D03*
X571500Y524400D03*
X545900Y491400D03*
X546100Y524400D03*
X634800Y491400D03*
X635000Y524400D03*
X609400Y491400D03*
X609600Y524400D03*
X660300Y491400D03*
X660500Y524400D03*
X685600Y491400D03*
X685800Y524400D03*
X711000Y491400D03*
X711200Y524400D03*
X736500Y491400D03*
X736700Y524400D03*
X787200Y491400D03*
X787400Y524400D03*
X761800Y491400D03*
X762000Y524400D03*
D29*
X355600Y34300D03*
D24*
X330400Y67400D03*
X330200Y34400D03*
X355800Y67400D03*
X355600Y34400D03*
X304900Y67400D03*
X304700Y34400D03*
X279600Y67400D03*
X279400Y34400D03*
D29*
X330200Y34300D03*
X76200Y524500D03*
D24*
X101400Y491400D03*
X101600Y524400D03*
X76000Y491400D03*
X76200Y524400D03*
X126900Y491400D03*
X127100Y524400D03*
X152200Y491400D03*
X152400Y524400D03*
X177600Y491400D03*
X177800Y524400D03*
X203100Y491400D03*
X203300Y524400D03*
X253800Y491400D03*
X254000Y524400D03*
X228400Y491400D03*
X228600Y524400D03*
D29*
X101600Y524500D03*
D24*
X279200Y491400D03*
X279400Y524400D03*
X304700Y491400D03*
X304900Y524400D03*
X355400Y491400D03*
X355600Y524400D03*
X330000Y491400D03*
X330200Y524400D03*
D30*
X71310Y92400D02*
X71310Y85400D01*
X71310Y92400D02*
X78310Y92400D01*
X78310Y85400D01*
X71310Y85400D01*
X71310Y88250D02*
X78310Y88250D01*
X78310Y91100D02*
X71310Y91100D01*
X53770Y92400D02*
X53770Y85400D01*
X53770Y92400D02*
X60770Y92400D01*
X60770Y85400D01*
X53770Y85400D01*
X53770Y88250D02*
X60770Y88250D01*
X60770Y91100D02*
X53770Y91100D01*
X71310Y72080D02*
X71310Y65080D01*
X71310Y72080D02*
X78310Y72080D01*
X78310Y65080D01*
X71310Y65080D01*
X71310Y67930D02*
X78310Y67930D01*
X78310Y70780D02*
X71310Y70780D01*
X53770Y72080D02*
X53770Y65080D01*
X53770Y72080D02*
X60770Y72080D01*
X60770Y65080D01*
X53770Y65080D01*
X53770Y67930D02*
X60770Y67930D01*
X60770Y70780D02*
X53770Y70780D01*
D15*
X38980Y88900D03*
X21980Y88900D03*
X40250Y68580D03*
X23250Y68580D03*
D27*
X829300Y254000D03*
D28*
X796200Y228800D03*
X829200Y228600D03*
X796200Y254200D03*
X829200Y254000D03*
X796200Y203300D03*
X829200Y203100D03*
X796200Y178000D03*
X829200Y177800D03*
X796200Y152600D03*
X829200Y152400D03*
D27*
X829300Y228600D03*
D10*
X60100Y734180D03*
X60100Y739180D03*
D11*
X60100Y709430D03*
X60100Y717180D03*
D10*
X60100Y724180D03*
X60100Y729180D03*
X60100Y749180D03*
X60100Y744180D03*
D11*
X60100Y773930D03*
X60100Y766180D03*
D10*
X60100Y759180D03*
X60100Y754180D03*
D12*
X76200Y775580D03*
X76200Y758580D03*
X76200Y707780D03*
X76200Y724780D03*
D13*
X101600Y741680D03*
D14*
X91850Y727930D03*
X98350Y727930D03*
X104850Y727930D03*
X111350Y727930D03*
X111350Y755430D03*
X104850Y755430D03*
X98350Y755430D03*
X91850Y755430D03*
D15*
X93100Y779780D03*
X110100Y779780D03*
D16*
X714460Y948340D03*
D17*
X633660Y952500D03*
X656660Y952500D03*
D15*
X653914Y969264D03*
X636914Y969264D03*
D17*
X633660Y935990D03*
X656660Y935990D03*
D18*
X152400Y582930D03*
X96520Y582930D03*
X152400Y621030D03*
X96520Y621030D03*
D15*
X93100Y795020D03*
X110100Y795020D03*
D19*
X23608Y812292D03*
X53608Y812292D03*
D20*
X104678Y819150D03*
X76678Y819150D03*
D12*
X149860Y786520D03*
X149860Y803520D03*
X134874Y803774D03*
X134874Y786774D03*
D18*
X231140Y582930D03*
X175260Y582930D03*
X231140Y621030D03*
X175260Y621030D03*
D15*
X130692Y749554D03*
X147692Y749554D03*
D17*
X127692Y732536D03*
X150692Y732536D03*
D12*
X139700Y704460D03*
X139700Y687460D03*
X154940Y704460D03*
X154940Y687460D03*
X170180Y704460D03*
X170180Y687460D03*
D21*
X310600Y739780D03*
X310600Y946780D03*
D22*
X378350Y933280D03*
X302850Y935780D03*
X378350Y928280D03*
X302850Y930780D03*
X378350Y923280D03*
X302850Y925780D03*
X378350Y918280D03*
X302850Y920780D03*
X378350Y913280D03*
X302850Y915780D03*
X378350Y908280D03*
X302850Y910780D03*
X378350Y903280D03*
X302850Y905780D03*
X378350Y898280D03*
X302850Y900780D03*
X378350Y893280D03*
X302850Y895780D03*
X378350Y888280D03*
X302850Y890780D03*
X378350Y883280D03*
X302850Y885780D03*
X378350Y878280D03*
X302850Y880780D03*
X378350Y873280D03*
X302850Y875780D03*
X378350Y868280D03*
X302850Y870780D03*
X378350Y863280D03*
X302850Y865780D03*
X378350Y858280D03*
X302850Y860780D03*
X378350Y853280D03*
X302850Y855780D03*
X378350Y848280D03*
X302850Y850780D03*
X378350Y843280D03*
X302850Y845780D03*
X378350Y838280D03*
X302850Y840780D03*
X378350Y833280D03*
X302850Y835780D03*
X378350Y828280D03*
X302850Y830780D03*
X378350Y803280D03*
X302850Y805780D03*
X378350Y798280D03*
X302850Y800780D03*
X378350Y793280D03*
X302850Y795780D03*
X378350Y788280D03*
X302850Y790780D03*
X378350Y783280D03*
X302850Y785780D03*
X378350Y778280D03*
X302850Y780780D03*
X378350Y773280D03*
X302850Y775780D03*
X378350Y768280D03*
X302850Y770780D03*
X378350Y763280D03*
X302850Y765780D03*
X378350Y758280D03*
X302850Y760780D03*
X378350Y753280D03*
X302850Y755780D03*
X302850Y750780D03*
D23*
X135620Y942942D03*
X135620Y967942D03*
X135620Y922942D03*
X135620Y897942D03*
D24*
X546300Y631280D03*
X546100Y598280D03*
X571700Y631280D03*
X571500Y598280D03*
X520800Y631280D03*
X520600Y598280D03*
X495500Y631280D03*
X495300Y598280D03*
X470100Y631280D03*
X469900Y598280D03*
X444600Y631280D03*
X444400Y598280D03*
X393900Y631280D03*
X393700Y598280D03*
X419300Y631280D03*
X419100Y598280D03*
X762200Y631280D03*
X762000Y598280D03*
X787600Y631280D03*
X787400Y598280D03*
X736700Y631280D03*
X736500Y598280D03*
X711400Y631280D03*
X711200Y598280D03*
X686000Y631280D03*
X685800Y598280D03*
X660500Y631280D03*
X660300Y598280D03*
X609800Y631280D03*
X609600Y598280D03*
X635200Y631280D03*
X635000Y598280D03*
D25*
X849550Y967680D03*
X849550Y1023680D03*
D26*
X812800Y980680D03*
X812800Y990680D03*
X812800Y1000680D03*
X812800Y1010680D03*
D25*
X849550Y637480D03*
X849550Y693480D03*
D26*
X812800Y650480D03*
X812800Y660480D03*
X812800Y670480D03*
X812800Y680480D03*
D27*
X829300Y944880D03*
D28*
X796200Y919680D03*
X829200Y919480D03*
X796200Y945080D03*
X829200Y944880D03*
X796200Y894180D03*
X829200Y893980D03*
X796200Y868880D03*
X829200Y868680D03*
D27*
X829300Y919480D03*
D24*
X418900Y1055280D03*
X419100Y1088280D03*
X393500Y1055280D03*
X393700Y1088280D03*
X444400Y1055280D03*
X444600Y1088280D03*
X469700Y1055280D03*
X469900Y1088280D03*
X495100Y1055280D03*
X495300Y1088280D03*
X520600Y1055280D03*
X520800Y1088280D03*
X571300Y1055280D03*
X571500Y1088280D03*
X545900Y1055280D03*
X546100Y1088280D03*
X634800Y1055280D03*
X635000Y1088280D03*
X609400Y1055280D03*
X609600Y1088280D03*
X660300Y1055280D03*
X660500Y1088280D03*
X685600Y1055280D03*
X685800Y1088280D03*
X711000Y1055280D03*
X711200Y1088280D03*
X736500Y1055280D03*
X736700Y1088280D03*
X787200Y1055280D03*
X787400Y1088280D03*
X761800Y1055280D03*
X762000Y1088280D03*
D29*
X355600Y598180D03*
D24*
X330400Y631280D03*
X330200Y598280D03*
X355800Y631280D03*
X355600Y598280D03*
X304900Y631280D03*
X304700Y598280D03*
X279600Y631280D03*
X279400Y598280D03*
D29*
X330200Y598180D03*
X76200Y1088380D03*
D24*
X101400Y1055280D03*
X101600Y1088280D03*
X76000Y1055280D03*
X76200Y1088280D03*
X126900Y1055280D03*
X127100Y1088280D03*
X152200Y1055280D03*
X152400Y1088280D03*
X177600Y1055280D03*
X177800Y1088280D03*
X203100Y1055280D03*
X203300Y1088280D03*
X253800Y1055280D03*
X254000Y1088280D03*
X228400Y1055280D03*
X228600Y1088280D03*
D29*
X101600Y1088380D03*
D24*
X279200Y1055280D03*
X279400Y1088280D03*
X304700Y1055280D03*
X304900Y1088280D03*
X355400Y1055280D03*
X355600Y1088280D03*
X330000Y1055280D03*
X330200Y1088280D03*
D30*
X71310Y656280D02*
X71310Y649280D01*
X71310Y656280D02*
X78310Y656280D01*
X78310Y649280D01*
X71310Y649280D01*
X71310Y652130D02*
X78310Y652130D01*
X78310Y654980D02*
X71310Y654980D01*
X53770Y656280D02*
X53770Y649280D01*
X53770Y656280D02*
X60770Y656280D01*
X60770Y649280D01*
X53770Y649280D01*
X53770Y652130D02*
X60770Y652130D01*
X60770Y654980D02*
X53770Y654980D01*
X71310Y635960D02*
X71310Y628960D01*
X71310Y635960D02*
X78310Y635960D01*
X78310Y628960D01*
X71310Y628960D01*
X71310Y631810D02*
X78310Y631810D01*
X78310Y634660D02*
X71310Y634660D01*
X53770Y635960D02*
X53770Y628960D01*
X53770Y635960D02*
X60770Y635960D01*
X60770Y628960D01*
X53770Y628960D01*
X53770Y631810D02*
X60770Y631810D01*
X60770Y634660D02*
X53770Y634660D01*
D15*
X38980Y652780D03*
X21980Y652780D03*
X40250Y632460D03*
X23250Y632460D03*
D27*
X829300Y817880D03*
D28*
X796200Y792680D03*
X829200Y792480D03*
X796200Y818080D03*
X829200Y817880D03*
X796200Y767180D03*
X829200Y766980D03*
X796200Y741880D03*
X829200Y741680D03*
X796200Y716480D03*
X829200Y716280D03*
D27*
X829300Y792480D03*
D10*
X60100Y1298060D03*
X60100Y1303060D03*
D11*
X60100Y1273310D03*
X60100Y1281060D03*
D10*
X60100Y1288060D03*
X60100Y1293060D03*
X60100Y1313060D03*
X60100Y1308060D03*
D11*
X60100Y1337810D03*
X60100Y1330060D03*
D10*
X60100Y1323060D03*
X60100Y1318060D03*
D12*
X76200Y1339460D03*
X76200Y1322460D03*
X76200Y1271660D03*
X76200Y1288660D03*
D13*
X101600Y1305560D03*
D14*
X91850Y1291810D03*
X98350Y1291810D03*
X104850Y1291810D03*
X111350Y1291810D03*
X111350Y1319310D03*
X104850Y1319310D03*
X98350Y1319310D03*
X91850Y1319310D03*
D15*
X93100Y1343660D03*
X110100Y1343660D03*
D16*
X714460Y1512220D03*
D17*
X633660Y1516380D03*
X656660Y1516380D03*
D15*
X653914Y1533144D03*
X636914Y1533144D03*
D17*
X633660Y1499870D03*
X656660Y1499870D03*
D18*
X152400Y1146810D03*
X96520Y1146810D03*
X152400Y1184910D03*
X96520Y1184910D03*
D15*
X93100Y1358900D03*
X110100Y1358900D03*
D19*
X23608Y1376172D03*
X53608Y1376172D03*
D20*
X104678Y1383030D03*
X76678Y1383030D03*
D12*
X149860Y1350400D03*
X149860Y1367400D03*
X134874Y1367654D03*
X134874Y1350654D03*
D18*
X231140Y1146810D03*
X175260Y1146810D03*
X231140Y1184910D03*
X175260Y1184910D03*
D15*
X130692Y1313434D03*
X147692Y1313434D03*
D17*
X127692Y1296416D03*
X150692Y1296416D03*
D12*
X139700Y1268340D03*
X139700Y1251340D03*
X154940Y1268340D03*
X154940Y1251340D03*
X170180Y1268340D03*
X170180Y1251340D03*
D21*
X310600Y1303660D03*
X310600Y1510660D03*
D22*
X378350Y1497160D03*
X302850Y1499660D03*
X378350Y1492160D03*
X302850Y1494660D03*
X378350Y1487160D03*
X302850Y1489660D03*
X378350Y1482160D03*
X302850Y1484660D03*
X378350Y1477160D03*
X302850Y1479660D03*
X378350Y1472160D03*
X302850Y1474660D03*
X378350Y1467160D03*
X302850Y1469660D03*
X378350Y1462160D03*
X302850Y1464660D03*
X378350Y1457160D03*
X302850Y1459660D03*
X378350Y1452160D03*
X302850Y1454660D03*
X378350Y1447160D03*
X302850Y1449660D03*
X378350Y1442160D03*
X302850Y1444660D03*
X378350Y1437160D03*
X302850Y1439660D03*
X378350Y1432160D03*
X302850Y1434660D03*
X378350Y1427160D03*
X302850Y1429660D03*
X378350Y1422160D03*
X302850Y1424660D03*
X378350Y1417160D03*
X302850Y1419660D03*
X378350Y1412160D03*
X302850Y1414660D03*
X378350Y1407160D03*
X302850Y1409660D03*
X378350Y1402160D03*
X302850Y1404660D03*
X378350Y1397160D03*
X302850Y1399660D03*
X378350Y1392160D03*
X302850Y1394660D03*
X378350Y1367160D03*
X302850Y1369660D03*
X378350Y1362160D03*
X302850Y1364660D03*
X378350Y1357160D03*
X302850Y1359660D03*
X378350Y1352160D03*
X302850Y1354660D03*
X378350Y1347160D03*
X302850Y1349660D03*
X378350Y1342160D03*
X302850Y1344660D03*
X378350Y1337160D03*
X302850Y1339660D03*
X378350Y1332160D03*
X302850Y1334660D03*
X378350Y1327160D03*
X302850Y1329660D03*
X378350Y1322160D03*
X302850Y1324660D03*
X378350Y1317160D03*
X302850Y1319660D03*
X302850Y1314660D03*
D23*
X135620Y1506822D03*
X135620Y1531822D03*
X135620Y1486822D03*
X135620Y1461822D03*
D24*
X546300Y1195160D03*
X546100Y1162160D03*
X571700Y1195160D03*
X571500Y1162160D03*
X520800Y1195160D03*
X520600Y1162160D03*
X495500Y1195160D03*
X495300Y1162160D03*
X470100Y1195160D03*
X469900Y1162160D03*
X444600Y1195160D03*
X444400Y1162160D03*
X393900Y1195160D03*
X393700Y1162160D03*
X419300Y1195160D03*
X419100Y1162160D03*
X762200Y1195160D03*
X762000Y1162160D03*
X787600Y1195160D03*
X787400Y1162160D03*
X736700Y1195160D03*
X736500Y1162160D03*
X711400Y1195160D03*
X711200Y1162160D03*
X686000Y1195160D03*
X685800Y1162160D03*
X660500Y1195160D03*
X660300Y1162160D03*
X609800Y1195160D03*
X609600Y1162160D03*
X635200Y1195160D03*
X635000Y1162160D03*
D25*
X849550Y1531560D03*
X849550Y1587560D03*
D26*
X812800Y1544560D03*
X812800Y1554560D03*
X812800Y1564560D03*
X812800Y1574560D03*
D25*
X849550Y1201360D03*
X849550Y1257360D03*
D26*
X812800Y1214360D03*
X812800Y1224360D03*
X812800Y1234360D03*
X812800Y1244360D03*
D27*
X829300Y1508760D03*
D28*
X796200Y1483560D03*
X829200Y1483360D03*
X796200Y1508960D03*
X829200Y1508760D03*
X796200Y1458060D03*
X829200Y1457860D03*
X796200Y1432760D03*
X829200Y1432560D03*
D27*
X829300Y1483360D03*
D24*
X418900Y1619160D03*
X419100Y1652160D03*
X393500Y1619160D03*
X393700Y1652160D03*
X444400Y1619160D03*
X444600Y1652160D03*
X469700Y1619160D03*
X469900Y1652160D03*
X495100Y1619160D03*
X495300Y1652160D03*
X520600Y1619160D03*
X520800Y1652160D03*
X571300Y1619160D03*
X571500Y1652160D03*
X545900Y1619160D03*
X546100Y1652160D03*
X634800Y1619160D03*
X635000Y1652160D03*
X609400Y1619160D03*
X609600Y1652160D03*
X660300Y1619160D03*
X660500Y1652160D03*
X685600Y1619160D03*
X685800Y1652160D03*
X711000Y1619160D03*
X711200Y1652160D03*
X736500Y1619160D03*
X736700Y1652160D03*
X787200Y1619160D03*
X787400Y1652160D03*
X761800Y1619160D03*
X762000Y1652160D03*
D29*
X355600Y1162060D03*
D24*
X330400Y1195160D03*
X330200Y1162160D03*
X355800Y1195160D03*
X355600Y1162160D03*
X304900Y1195160D03*
X304700Y1162160D03*
X279600Y1195160D03*
X279400Y1162160D03*
D29*
X330200Y1162060D03*
X76200Y1652260D03*
D24*
X101400Y1619160D03*
X101600Y1652160D03*
X76000Y1619160D03*
X76200Y1652160D03*
X126900Y1619160D03*
X127100Y1652160D03*
X152200Y1619160D03*
X152400Y1652160D03*
X177600Y1619160D03*
X177800Y1652160D03*
X203100Y1619160D03*
X203300Y1652160D03*
X253800Y1619160D03*
X254000Y1652160D03*
X228400Y1619160D03*
X228600Y1652160D03*
D29*
X101600Y1652260D03*
D24*
X279200Y1619160D03*
X279400Y1652160D03*
X304700Y1619160D03*
X304900Y1652160D03*
X355400Y1619160D03*
X355600Y1652160D03*
X330000Y1619160D03*
X330200Y1652160D03*
D30*
X71310Y1220160D02*
X71310Y1213160D01*
X71310Y1220160D02*
X78310Y1220160D01*
X78310Y1213160D01*
X71310Y1213160D01*
X71310Y1216010D02*
X78310Y1216010D01*
X78310Y1218860D02*
X71310Y1218860D01*
X53770Y1220160D02*
X53770Y1213160D01*
X53770Y1220160D02*
X60770Y1220160D01*
X60770Y1213160D01*
X53770Y1213160D01*
X53770Y1216010D02*
X60770Y1216010D01*
X60770Y1218860D02*
X53770Y1218860D01*
X71310Y1199840D02*
X71310Y1192840D01*
X71310Y1199840D02*
X78310Y1199840D01*
X78310Y1192840D01*
X71310Y1192840D01*
X71310Y1195690D02*
X78310Y1195690D01*
X78310Y1198540D02*
X71310Y1198540D01*
X53770Y1199840D02*
X53770Y1192840D01*
X53770Y1199840D02*
X60770Y1199840D01*
X60770Y1192840D01*
X53770Y1192840D01*
X53770Y1195690D02*
X60770Y1195690D01*
X60770Y1198540D02*
X53770Y1198540D01*
D15*
X38980Y1216660D03*
X21980Y1216660D03*
X40250Y1196340D03*
X23250Y1196340D03*
D27*
X829300Y1381760D03*
D28*
X796200Y1356560D03*
X829200Y1356360D03*
X796200Y1381960D03*
X829200Y1381760D03*
X796200Y1331060D03*
X829200Y1330860D03*
X796200Y1305760D03*
X829200Y1305560D03*
X796200Y1280360D03*
X829200Y1280160D03*
D27*
X829300Y1356360D03*
D10*
X60100Y1861940D03*
X60100Y1866940D03*
D11*
X60100Y1837190D03*
X60100Y1844940D03*
D10*
X60100Y1851940D03*
X60100Y1856940D03*
X60100Y1876940D03*
X60100Y1871940D03*
D11*
X60100Y1901690D03*
X60100Y1893940D03*
D10*
X60100Y1886940D03*
X60100Y1881940D03*
D12*
X76200Y1903340D03*
X76200Y1886340D03*
X76200Y1835540D03*
X76200Y1852540D03*
D13*
X101600Y1869440D03*
D14*
X91850Y1855690D03*
X98350Y1855690D03*
X104850Y1855690D03*
X111350Y1855690D03*
X111350Y1883190D03*
X104850Y1883190D03*
X98350Y1883190D03*
X91850Y1883190D03*
D15*
X93100Y1907540D03*
X110100Y1907540D03*
D16*
X714460Y2076100D03*
D17*
X633660Y2080260D03*
X656660Y2080260D03*
D15*
X653914Y2097024D03*
X636914Y2097024D03*
D17*
X633660Y2063750D03*
X656660Y2063750D03*
D18*
X152400Y1710690D03*
X96520Y1710690D03*
X152400Y1748790D03*
X96520Y1748790D03*
D15*
X93100Y1922780D03*
X110100Y1922780D03*
D19*
X23608Y1940052D03*
X53608Y1940052D03*
D20*
X104678Y1946910D03*
X76678Y1946910D03*
D12*
X149860Y1914280D03*
X149860Y1931280D03*
X134874Y1931534D03*
X134874Y1914534D03*
D18*
X231140Y1710690D03*
X175260Y1710690D03*
X231140Y1748790D03*
X175260Y1748790D03*
D15*
X130692Y1877314D03*
X147692Y1877314D03*
D17*
X127692Y1860296D03*
X150692Y1860296D03*
D12*
X139700Y1832220D03*
X139700Y1815220D03*
X154940Y1832220D03*
X154940Y1815220D03*
X170180Y1832220D03*
X170180Y1815220D03*
D21*
X310600Y1867540D03*
X310600Y2074540D03*
D22*
X378350Y2061040D03*
X302850Y2063540D03*
X378350Y2056040D03*
X302850Y2058540D03*
X378350Y2051040D03*
X302850Y2053540D03*
X378350Y2046040D03*
X302850Y2048540D03*
X378350Y2041040D03*
X302850Y2043540D03*
X378350Y2036040D03*
X302850Y2038540D03*
X378350Y2031040D03*
X302850Y2033540D03*
X378350Y2026040D03*
X302850Y2028540D03*
X378350Y2021040D03*
X302850Y2023540D03*
X378350Y2016040D03*
X302850Y2018540D03*
X378350Y2011040D03*
X302850Y2013540D03*
X378350Y2006040D03*
X302850Y2008540D03*
X378350Y2001040D03*
X302850Y2003540D03*
X378350Y1996040D03*
X302850Y1998540D03*
X378350Y1991040D03*
X302850Y1993540D03*
X378350Y1986040D03*
X302850Y1988540D03*
X378350Y1981040D03*
X302850Y1983540D03*
X378350Y1976040D03*
X302850Y1978540D03*
X378350Y1971040D03*
X302850Y1973540D03*
X378350Y1966040D03*
X302850Y1968540D03*
X378350Y1961040D03*
X302850Y1963540D03*
X378350Y1956040D03*
X302850Y1958540D03*
X378350Y1931040D03*
X302850Y1933540D03*
X378350Y1926040D03*
X302850Y1928540D03*
X378350Y1921040D03*
X302850Y1923540D03*
X378350Y1916040D03*
X302850Y1918540D03*
X378350Y1911040D03*
X302850Y1913540D03*
X378350Y1906040D03*
X302850Y1908540D03*
X378350Y1901040D03*
X302850Y1903540D03*
X378350Y1896040D03*
X302850Y1898540D03*
X378350Y1891040D03*
X302850Y1893540D03*
X378350Y1886040D03*
X302850Y1888540D03*
X378350Y1881040D03*
X302850Y1883540D03*
X302850Y1878540D03*
D23*
X135620Y2070702D03*
X135620Y2095702D03*
X135620Y2050702D03*
X135620Y2025702D03*
D24*
X546300Y1759040D03*
X546100Y1726040D03*
X571700Y1759040D03*
X571500Y1726040D03*
X520800Y1759040D03*
X520600Y1726040D03*
X495500Y1759040D03*
X495300Y1726040D03*
X470100Y1759040D03*
X469900Y1726040D03*
X444600Y1759040D03*
X444400Y1726040D03*
X393900Y1759040D03*
X393700Y1726040D03*
X419300Y1759040D03*
X419100Y1726040D03*
X762200Y1759040D03*
X762000Y1726040D03*
X787600Y1759040D03*
X787400Y1726040D03*
X736700Y1759040D03*
X736500Y1726040D03*
X711400Y1759040D03*
X711200Y1726040D03*
X686000Y1759040D03*
X685800Y1726040D03*
X660500Y1759040D03*
X660300Y1726040D03*
X609800Y1759040D03*
X609600Y1726040D03*
X635200Y1759040D03*
X635000Y1726040D03*
D25*
X849550Y2095440D03*
X849550Y2151440D03*
D26*
X812800Y2108440D03*
X812800Y2118440D03*
X812800Y2128440D03*
X812800Y2138440D03*
D25*
X849550Y1765240D03*
X849550Y1821240D03*
D26*
X812800Y1778240D03*
X812800Y1788240D03*
X812800Y1798240D03*
X812800Y1808240D03*
D27*
X829300Y2072640D03*
D28*
X796200Y2047440D03*
X829200Y2047240D03*
X796200Y2072840D03*
X829200Y2072640D03*
X796200Y2021940D03*
X829200Y2021740D03*
X796200Y1996640D03*
X829200Y1996440D03*
D27*
X829300Y2047240D03*
D24*
X418900Y2183040D03*
X419100Y2216040D03*
X393500Y2183040D03*
X393700Y2216040D03*
X444400Y2183040D03*
X444600Y2216040D03*
X469700Y2183040D03*
X469900Y2216040D03*
X495100Y2183040D03*
X495300Y2216040D03*
X520600Y2183040D03*
X520800Y2216040D03*
X571300Y2183040D03*
X571500Y2216040D03*
X545900Y2183040D03*
X546100Y2216040D03*
X634800Y2183040D03*
X635000Y2216040D03*
X609400Y2183040D03*
X609600Y2216040D03*
X660300Y2183040D03*
X660500Y2216040D03*
X685600Y2183040D03*
X685800Y2216040D03*
X711000Y2183040D03*
X711200Y2216040D03*
X736500Y2183040D03*
X736700Y2216040D03*
X787200Y2183040D03*
X787400Y2216040D03*
X761800Y2183040D03*
X762000Y2216040D03*
D29*
X355600Y1725940D03*
D24*
X330400Y1759040D03*
X330200Y1726040D03*
X355800Y1759040D03*
X355600Y1726040D03*
X304900Y1759040D03*
X304700Y1726040D03*
X279600Y1759040D03*
X279400Y1726040D03*
D29*
X330200Y1725940D03*
X76200Y2216140D03*
D24*
X101400Y2183040D03*
X101600Y2216040D03*
X76000Y2183040D03*
X76200Y2216040D03*
X126900Y2183040D03*
X127100Y2216040D03*
X152200Y2183040D03*
X152400Y2216040D03*
X177600Y2183040D03*
X177800Y2216040D03*
X203100Y2183040D03*
X203300Y2216040D03*
X253800Y2183040D03*
X254000Y2216040D03*
X228400Y2183040D03*
X228600Y2216040D03*
D29*
X101600Y2216140D03*
D24*
X279200Y2183040D03*
X279400Y2216040D03*
X304700Y2183040D03*
X304900Y2216040D03*
X355400Y2183040D03*
X355600Y2216040D03*
X330000Y2183040D03*
X330200Y2216040D03*
D30*
X71310Y1784040D02*
X71310Y1777040D01*
X71310Y1784040D02*
X78310Y1784040D01*
X78310Y1777040D01*
X71310Y1777040D01*
X71310Y1779890D02*
X78310Y1779890D01*
X78310Y1782740D02*
X71310Y1782740D01*
X53770Y1784040D02*
X53770Y1777040D01*
X53770Y1784040D02*
X60770Y1784040D01*
X60770Y1777040D01*
X53770Y1777040D01*
X53770Y1779890D02*
X60770Y1779890D01*
X60770Y1782740D02*
X53770Y1782740D01*
X71310Y1763720D02*
X71310Y1756720D01*
X71310Y1763720D02*
X78310Y1763720D01*
X78310Y1756720D01*
X71310Y1756720D01*
X71310Y1759570D02*
X78310Y1759570D01*
X78310Y1762420D02*
X71310Y1762420D01*
X53770Y1763720D02*
X53770Y1756720D01*
X53770Y1763720D02*
X60770Y1763720D01*
X60770Y1756720D01*
X53770Y1756720D01*
X53770Y1759570D02*
X60770Y1759570D01*
X60770Y1762420D02*
X53770Y1762420D01*
D15*
X38980Y1780540D03*
X21980Y1780540D03*
X40250Y1760220D03*
X23250Y1760220D03*
D27*
X829300Y1945640D03*
D28*
X796200Y1920440D03*
X829200Y1920240D03*
X796200Y1945840D03*
X829200Y1945640D03*
X796200Y1894940D03*
X829200Y1894740D03*
X796200Y1869640D03*
X829200Y1869440D03*
X796200Y1844240D03*
X829200Y1844040D03*
D27*
X829300Y1920240D03*
M02*
