M48
;GenerationSoftware,Autodesk,EAGLE,9.5.2*%
;CreationDate,2020-07-30T21:05:49Z*%
FMAT,2
ICI,OFF
METRIC,TZ,000.000
T11C0.305
T10C0.350
T9C0.400
T8C0.508
T7C0.650
T6C1.016
T5C1.100
T4C1.600
T3C2.311
T2C3.302
T1C3.800
%
G90
M71
T1
X55550Y23927
X144958Y80315
X144958Y23927
X55550Y80315
T2
X63500Y33020
X63500Y79248
X63500Y89408
X2540Y109728
X173228Y109728
X91948Y109728
X173228Y58928
X91948Y58928
X2540Y2540
X2540Y53340
X152908Y79248
X152908Y89408
X83820Y58928
X83820Y2540
X2540Y58928
X83820Y53340
X63500Y22860
X173228Y53340
X91948Y53340
X173228Y2540
X91948Y2540
X152908Y22860
X152908Y33020
X83820Y109728
T3
X98758Y43472
X98758Y30340
X98758Y99860
X98758Y86728
X9350Y30340
X9350Y99860
X9350Y43472
X9350Y86728
T4
X124968Y37940
X35560Y37940
X124968Y94328
X35560Y94328
T5
X124968Y74328
X124968Y17940
X35560Y17940
X35560Y74328
T6
X63500Y1270
X160528Y57658
X157988Y57658
X155448Y57658
X152908Y57658
X150368Y57658
X97043Y110998
X99583Y110998
X102123Y110998
X15255Y110998
X104663Y110998
X117348Y57658
X119888Y57658
X122428Y57658
X124968Y57658
X106299Y96266
X106299Y93726
X106299Y91186
X106299Y88646
X124968Y110998
X122428Y110998
X119888Y110998
X117348Y110998
X99568Y13970
X114808Y110998
X112268Y110998
X109728Y110998
X107188Y110998
X174498Y81788
X10160Y13970
X12700Y13970
X174498Y79248
X174498Y76708
X174498Y74168
X174498Y71628
X128778Y110998
X131318Y110998
X133858Y110998
X136398Y110998
X138938Y110998
X141478Y110998
X85090Y38100
X85090Y35560
X85090Y33020
X85090Y30480
X57150Y1270
X54610Y1270
X52070Y1270
X49530Y1270
X46990Y1270
X44450Y1270
X41910Y1270
X39370Y1270
X78740Y1270
X76200Y1270
X73660Y1270
X71120Y1270
X68580Y1270
X66040Y1270
X144018Y110998
X60960Y1270
X7635Y54610
X10175Y54610
X12715Y54610
X15255Y54610
X27940Y1270
X30480Y1270
X33020Y1270
X35560Y1270
X16891Y39878
X16891Y37338
X16891Y34798
X16891Y32258
X35560Y54610
X33020Y54610
X30480Y54610
X27940Y54610
X25400Y54610
X22860Y54610
X20320Y54610
X17780Y54610
X85090Y25400
X85090Y22860
X85090Y20320
X85090Y17780
X85090Y15240
X39370Y54610
X41910Y54610
X44450Y54610
X46990Y54610
X49530Y54610
X52070Y54610
X54610Y54610
X57150Y54610
X60960Y54610
X63500Y54610
X66040Y54610
X68580Y54610
X71120Y54610
X73660Y54610
X76200Y54610
X78740Y54610
X146558Y110998
X150368Y110998
X152908Y110998
X155448Y110998
X102108Y13970
X157988Y110998
X160528Y110998
X163068Y110998
X165608Y110998
X168148Y110998
X174498Y38100
X174498Y35560
X174498Y33020
X174498Y30480
X146558Y1270
X144018Y1270
X141478Y1270
X138938Y1270
X136398Y1270
X133858Y1270
X131318Y1270
X128778Y1270
X168148Y1270
X165608Y1270
X163068Y1270
X160528Y1270
X157988Y1270
X155448Y1270
X152908Y1270
X150368Y1270
X97043Y54610
X99583Y54610
X102123Y54610
X104663Y54610
X117348Y1270
X119888Y1270
X122428Y1270
X124968Y1270
X106299Y39878
X106299Y37338
X106299Y34798
X106299Y32258
X165608Y57658
X122428Y54610
X119888Y54610
X117348Y54610
X114808Y54610
X112268Y54610
X109728Y54610
X107188Y54610
X174498Y25400
X174498Y22860
X174498Y20320
X174498Y17780
X174498Y15240
X128778Y54610
X131318Y54610
X133858Y54610
X136398Y54610
X138938Y54610
X141478Y54610
X144018Y54610
X146558Y54610
X150368Y54610
X152908Y54610
X155448Y54610
X157988Y54610
X160528Y54610
X163068Y54610
X165608Y54610
X168148Y54610
X10160Y70358
X12700Y70358
X124968Y54610
X85090Y94488
X85090Y91948
X85090Y89408
X85090Y86868
X57150Y57658
X54610Y57658
X52070Y57658
X49530Y57658
X46990Y57658
X44450Y57658
X41910Y57658
X39370Y57658
X78740Y57658
X76200Y57658
X73660Y57658
X71120Y57658
X68580Y57658
X66040Y57658
X63500Y57658
X60960Y57658
X7635Y110998
X10175Y110998
X12715Y110998
X27940Y57658
X30480Y57658
X33020Y57658
X35560Y57658
X16891Y96266
X16891Y93726
X16891Y91186
X16891Y88646
X35560Y110998
X33020Y110998
X30480Y110998
X27940Y110998
X25400Y110998
X22860Y110998
X20320Y110998
X17780Y110998
X85090Y81788
X85090Y79248
X85090Y76708
X85090Y74168
X85090Y71628
X39370Y110998
X41910Y110998
X44450Y110998
X46990Y110998
X49530Y110998
X52070Y110998
X54610Y110998
X57150Y110998
X60960Y110998
X63500Y110998
X66040Y110998
X68580Y110998
X71120Y110998
X73660Y110998
X76200Y110998
X78740Y110998
X99568Y70358
X102108Y70358
X174498Y94488
X174498Y91948
X174498Y89408
X174498Y86868
X146558Y57658
X144018Y57658
X141478Y57658
X138938Y57658
X136398Y57658
X133858Y57658
X131318Y57658
X128778Y57658
X168148Y57658
X163068Y57658
T7
X4905Y71278
X4905Y20670
X4905Y14890
X94313Y20670
X94313Y14890
X4905Y77058
X94313Y77058
X94313Y71278
T8
X109296Y85446
X109296Y80366
X109296Y26518
X109296Y25248
X109296Y29058
X21158Y81636
X21158Y82906
X21158Y84176
X21158Y85446
X109296Y27788
X21158Y80366
X19888Y81636
X19888Y82906
X19888Y84176
X19888Y85446
X19888Y80366
X109296Y23978
X110566Y81636
X110566Y82906
X21158Y25248
X21158Y26518
X21158Y27788
X21158Y29058
X21158Y23978
X19888Y25248
X19888Y26518
X19888Y27788
X19888Y29058
X19888Y23978
X110566Y84176
X110566Y85446
X110566Y80366
X109296Y81636
X110566Y25248
X110566Y26518
X110566Y27788
X110566Y29058
X110566Y23978
X109296Y82906
X109296Y84176
T9
X1255Y22098
X1255Y13462
X5435Y13462
X5435Y22098
X90663Y22098
X90663Y13462
X94843Y69850
X94843Y78486
X1255Y69850
X94843Y22098
X5435Y69850
X5435Y78486
X94843Y13462
X1255Y78486
X90663Y78486
X90663Y69850
T10
X58420Y36830
X77826Y66553
X78740Y65024
X58420Y93218
X80010Y67056
X77826Y10165
X78740Y8636
X167234Y10165
X168148Y8636
X169418Y67056
X167234Y66553
X168148Y65024
X147828Y93218
X147828Y36830
X169418Y10668
X80010Y10668
T11
X41402Y69088
X40386Y81026
X40386Y72644
X44196Y68047
X44450Y64618
X44602Y77343
X44501Y79604
X41859Y81636
X41910Y73152
X54610Y67818
X54610Y65434
X42367Y80785
X42418Y72644
X57150Y68326
X57150Y65434
X68580Y67564
X68580Y65532
X43891Y82321
X43840Y73406
X66040Y69557
X66040Y65532
X42799Y81610
X42926Y73152
X60960Y68834
X60960Y65532
X73660Y67056
X73660Y65532
X43291Y81169
X43434Y72644
X63500Y69342
X63449Y65532
X28480Y86589
X45514Y96218
X27870Y86265
X44958Y96723
X32004Y88138
X48387Y92761
X32512Y87630
X47924Y92253
X77724Y93980
X77724Y94996
X71120Y67136
X71120Y65532
X39878Y70612
X44450Y70612
X25654Y81534
X44983Y99136
X26162Y80772
X44958Y98447
X21336Y74676
X36551Y76378
X27635Y74625
X8636Y65278
X8636Y63246
X35567Y76447
X27051Y75121
X97028Y69469
X101219Y71755
X100330Y74168
X101600Y74168
X99060Y74168
X106909Y72695
X104267Y67564
X105537Y67564
X106807Y67564
X106477Y77521
X102413Y78130
X104886Y81534
X97028Y78867
X129565Y83795
X121056Y85979
X121031Y75946
X118085Y76556
X118440Y93574
X125628Y83693
X122504Y93574
X159969Y93066
X162636Y73000
X155524Y73000
X149174Y73000
X144094Y73000
X139014Y72746
X134442Y72746
X136474Y70968
X141554Y70968
X126060Y70714
X126060Y72746
X118694Y72746
X121234Y70714
X117170Y70714
X109982Y69342
X110058Y72746
X63500Y12954
X169215Y68148
X165405Y81890
X165405Y85700
X165405Y77318
X165151Y69952
X165151Y95098
X165151Y97892
X166167Y100178
X168707Y101194
X126543Y102464
X130099Y102464
X113360Y93574
X121056Y82677
X118262Y82677
X167513Y83312
X167513Y85598
X155956Y93472
X128778Y75311
X128778Y93472
X108204Y70358
X108204Y78461
X7620Y13081
X169418Y100076
X96520Y74800
X107163Y75946
X94361Y74168
X107137Y75209
X11811Y15367
X10922Y17780
X116078Y81280
X135255Y98117
X116586Y80772
X134617Y97406
X129413Y92837
X138704Y92710
X12192Y17780
X115976Y73787
X116078Y77078
X91440Y75692
X92964Y76987
X112268Y88392
X113335Y89459
X115291Y73812
X115316Y77586
X130353Y81401
X130353Y73152
X130556Y68326
X129642Y64414
X130861Y80975
X130810Y72644
X131318Y64643
X130810Y69088
X129794Y81026
X129794Y72644
X133604Y68047
X133858Y64618
X134010Y77343
X133909Y79604
X131267Y81636
X131318Y73152
X144018Y67818
X144018Y65434
X131775Y80785
X131826Y72644
X146558Y68326
X146558Y65434
X157988Y67564
X157988Y65532
X133299Y82321
X133248Y73406
X155448Y69557
X155448Y65532
X132207Y81610
X132334Y73152
X150368Y68834
X150368Y65532
X163068Y67056
X163068Y65532
X132699Y81169
X132842Y72644
X152908Y69342
X152857Y65532
X117888Y86589
X134922Y96218
X117278Y86265
X134366Y96723
X121412Y88138
X137795Y92761
X121920Y87630
X137332Y92253
X167132Y93980
X167132Y94996
X160528Y67136
X160528Y65532
X129286Y70612
X133858Y70612
X115062Y81534
X134391Y99136
X115570Y80772
X134366Y98447
X110744Y74676
X125959Y76378
X117043Y74625
X98044Y65278
X98044Y63246
X124975Y76447
X116459Y75121
X9652Y17780
X17501Y16307
X14859Y11176
X16129Y11176
X17399Y11176
X17069Y21133
X13005Y21742
X15478Y25146
X7620Y22479
X172085Y68072
X40157Y27407
X31648Y29591
X31623Y19558
X28677Y20168
X29032Y37186
X36220Y27305
X33096Y37186
X70561Y36678
X73228Y16612
X66116Y16612
X59766Y16612
X54686Y16612
X49606Y16358
X45034Y16358
X47066Y14580
X52146Y14580
X36652Y14326
X36652Y16358
X29286Y16358
X31826Y14326
X27762Y14326
X20574Y12954
X20650Y16358
X82677Y11684
X79807Y11760
X75997Y25502
X75997Y29312
X75997Y20930
X75743Y13564
X75743Y38710
X75743Y41504
X76759Y43790
X79299Y44806
X37135Y46076
X40691Y46076
X23952Y37186
X31648Y26289
X28854Y26289
X78105Y26924
X78105Y29210
X66548Y37084
X39370Y18923
X39370Y37084
X18796Y13970
X18796Y22073
X80010Y43688
X7112Y18412
X17755Y19558
X4953Y17780
X17729Y18821
X26670Y24892
X45847Y41729
X27178Y24384
X45209Y41018
X40005Y36449
X49296Y36322
X26568Y17399
X26670Y20690
X2032Y19304
X3556Y20599
X22860Y32004
X23927Y33071
X25883Y17424
X25908Y21198
X40945Y25013
X40945Y16764
X41148Y11938
X40234Y8026
X41453Y24587
X41402Y16256
X41910Y8255
X41402Y12700
X40386Y24638
X40386Y16256
X44196Y11659
X44450Y8230
X44602Y20955
X44501Y23216
X41859Y25248
X41910Y16764
X54610Y11430
X54610Y9046
X42367Y24397
X42418Y16256
X57150Y11938
X57150Y9046
X68580Y11176
X68580Y9144
X43891Y25933
X43840Y17018
X66040Y13169
X66040Y9144
X42799Y25222
X42926Y16764
X60960Y12446
X60960Y9144
X73660Y10668
X73660Y9144
X43291Y24781
X43434Y16256
X63449Y9144
X28480Y30201
X45514Y39830
X27870Y29877
X44958Y40335
X32004Y31750
X48387Y36373
X32512Y31242
X47924Y35865
X77724Y37592
X77724Y38608
X71120Y10748
X71120Y9144
X39878Y14224
X44450Y14224
X25654Y25146
X44983Y42748
X26162Y24384
X44958Y42059
X21336Y18288
X36551Y19990
X27635Y18237
X8636Y8890
X8636Y6858
X35567Y20059
X27051Y18733
X97028Y13081
X101219Y15367
X100330Y17780
X101600Y17780
X99060Y17780
X106909Y16307
X104267Y11176
X105537Y11176
X106807Y11176
X106477Y21133
X102413Y21742
X104886Y25146
X97028Y22479
X129565Y27407
X121056Y29591
X121031Y19558
X118085Y20168
X118440Y37186
X125628Y27305
X122504Y37186
X159969Y36678
X162636Y16612
X155524Y16612
X149174Y16612
X144094Y16612
X139014Y16358
X134442Y16358
X136474Y14580
X141554Y14580
X126060Y14326
X126060Y16358
X118694Y16358
X121234Y14326
X117170Y14326
X109982Y12954
X110058Y16358
X172085Y11684
X169215Y11760
X165405Y25502
X165405Y29312
X165405Y20930
X165151Y13564
X165151Y38710
X165151Y41504
X166167Y43790
X168707Y44806
X126543Y46076
X130099Y46076
X113360Y37186
X121056Y26289
X118262Y26289
X167513Y26924
X167513Y29210
X155956Y37084
X128778Y18923
X128778Y37084
X108204Y13970
X108204Y22073
X169418Y43688
X96520Y18412
X107163Y19558
X94361Y17780
X107137Y18821
X116078Y24892
X135255Y41729
X116586Y24384
X134617Y41018
X129413Y36449
X138704Y36322
X115976Y17399
X116078Y20690
X91440Y19304
X92964Y20599
X112268Y32004
X113335Y33071
X115291Y17424
X115316Y21198
X130353Y25013
X130353Y16764
X130556Y11938
X129642Y8026
X130861Y24587
X130810Y16256
X131318Y8255
X130810Y12700
X129794Y24638
X129794Y16256
X133604Y11659
X133858Y8230
X134010Y20955
X133909Y23216
X131267Y25248
X131318Y16764
X144018Y11430
X144018Y9046
X131775Y24397
X131826Y16256
X146558Y11938
X146558Y9046
X157988Y11176
X157988Y9144
X133299Y25933
X133248Y17018
X155448Y13169
X155448Y9144
X132207Y25222
X17729Y75209
X132334Y16764
X150368Y12446
X150368Y9144
X163068Y10668
X163068Y9144
X132699Y24781
X132842Y16256
X152908Y12954
X152857Y9144
X117888Y30201
X134922Y39830
X117278Y29877
X134366Y40335
X121412Y31750
X137795Y36373
X121920Y31242
X137332Y35865
X167132Y37592
X167132Y38608
X160528Y10748
X160528Y9144
X129286Y14224
X133858Y14224
X115062Y25146
X134391Y42748
X115570Y24384
X134366Y42059
X110744Y18288
X125959Y19990
X117043Y18237
X98044Y8890
X98044Y6858
X124975Y20059
X116459Y18733
X7620Y69469
X11811Y71755
X10922Y74168
X12192Y74168
X9652Y74168
X17501Y72695
X14859Y67564
X16129Y67564
X17399Y67564
X17069Y77521
X13005Y78130
X15478Y81534
X7620Y78867
X40157Y83795
X31648Y85979
X31623Y75946
X28677Y76556
X29032Y93574
X36220Y83693
X33096Y93574
X70561Y93066
X73228Y73000
X66116Y73000
X59766Y73000
X54686Y73000
X49606Y72746
X45034Y72746
X47066Y70968
X52146Y70968
X36652Y70714
X36652Y72746
X29286Y72746
X31826Y70714
X27762Y70714
X20574Y69342
X20650Y72746
X82677Y68072
X79807Y68148
X75997Y81890
X75997Y85700
X75997Y77318
X75743Y69952
X75743Y95098
X75743Y97892
X76759Y100178
X79299Y101194
X37135Y102464
X40691Y102464
X23952Y93574
X31648Y82677
X28854Y82677
X78105Y83312
X78105Y85598
X66548Y93472
X39370Y75311
X39370Y93472
X18796Y70358
X18796Y78461
X80010Y100076
X7112Y74800
X17755Y75946
X4953Y74168
X26670Y81280
X45847Y98117
X27178Y80772
X45209Y97406
X40005Y92837
X49296Y92710
X26568Y73787
X26670Y77078
X2032Y75692
X3556Y76987
X22860Y88392
X23927Y89459
X25883Y73812
X25908Y77586
X40945Y81401
X40945Y73152
X41148Y68326
X40234Y64414
X41453Y80975
X41402Y72644
X41910Y64643
M30