G04 EAGLE Gerber RS-274X export*
G75*
%MOMM*%
%FSLAX34Y34*%
%LPD*%
%INSoldermask Top*%
%IPPOS*%
%AMOC8*
5,1,8,0,0,1.08239X$1,22.5*%
G01*
%ADD10R,1.203200X0.503200*%
%ADD11R,1.203200X0.803200*%
%ADD12C,0.853200*%
%ADD13R,1.203200X1.303200*%
%ADD14R,0.503200X0.853200*%
%ADD15R,2.553200X1.803200*%
%ADD16R,1.303200X1.203200*%
%ADD17C,0.838200*%
%ADD18C,3.505200*%
%ADD19R,1.700000X4.200000*%
%ADD20R,0.833200X1.033200*%
%ADD21R,1.727200X0.965200*%
%ADD22R,0.838200X1.473200*%
%ADD23R,1.203200X3.003200*%
%ADD24R,1.603200X1.803200*%
%ADD25C,2.082800*%
%ADD26C,1.203200*%
%ADD27C,6.203200*%
%ADD28C,1.303200*%
%ADD29C,1.803200*%
%ADD30R,1.753200X0.503200*%
%ADD31R,2.953200X1.403200*%
%ADD32C,3.530600*%
%ADD33R,3.203200X1.103200*%
%ADD34R,1.200000X2.200000*%
%ADD35R,2.203200X1.403200*%
%ADD36R,1.553200X0.803200*%
%ADD37R,2.200000X1.200000*%
%ADD38C,0.505344*%
%ADD39R,2.413200X1.723200*%
%ADD40C,1.270000*%
%ADD41C,1.703200*%

G36*
X1563246Y944897D02*
X1563246Y944897D01*
X1563273Y944893D01*
X1563314Y944911D01*
X1563356Y944920D01*
X1563392Y944946D01*
X1563401Y944950D01*
X1563405Y944955D01*
X1563416Y944964D01*
X1587416Y968964D01*
X1587437Y969002D01*
X1587466Y969035D01*
X1587470Y969062D01*
X1587483Y969086D01*
X1587480Y969130D01*
X1587487Y969173D01*
X1587476Y969199D01*
X1587474Y969226D01*
X1587448Y969261D01*
X1587430Y969301D01*
X1587407Y969316D01*
X1587391Y969338D01*
X1587350Y969354D01*
X1587314Y969378D01*
X1587270Y969385D01*
X1587261Y969388D01*
X1587254Y969387D01*
X1587240Y969389D01*
X1563240Y969389D01*
X1563224Y969384D01*
X1563207Y969387D01*
X1563157Y969365D01*
X1563106Y969350D01*
X1563095Y969337D01*
X1563079Y969330D01*
X1563049Y969285D01*
X1563014Y969245D01*
X1563011Y969228D01*
X1563002Y969214D01*
X1562991Y969140D01*
X1562991Y945140D01*
X1563003Y945098D01*
X1563006Y945054D01*
X1563022Y945032D01*
X1563030Y945006D01*
X1563063Y944977D01*
X1563089Y944942D01*
X1563115Y944932D01*
X1563135Y944914D01*
X1563179Y944907D01*
X1563219Y944892D01*
X1563246Y944897D01*
G37*
G36*
X669166Y944897D02*
X669166Y944897D01*
X669193Y944893D01*
X669234Y944911D01*
X669276Y944920D01*
X669312Y944946D01*
X669321Y944950D01*
X669325Y944955D01*
X669336Y944964D01*
X693336Y968964D01*
X693357Y969002D01*
X693386Y969035D01*
X693390Y969062D01*
X693403Y969086D01*
X693400Y969130D01*
X693407Y969173D01*
X693396Y969199D01*
X693394Y969226D01*
X693368Y969261D01*
X693350Y969301D01*
X693327Y969316D01*
X693311Y969338D01*
X693270Y969354D01*
X693234Y969378D01*
X693190Y969385D01*
X693181Y969388D01*
X693174Y969387D01*
X693160Y969389D01*
X669160Y969389D01*
X669144Y969384D01*
X669127Y969387D01*
X669077Y969365D01*
X669026Y969350D01*
X669015Y969337D01*
X668999Y969330D01*
X668969Y969285D01*
X668934Y969245D01*
X668931Y969228D01*
X668922Y969214D01*
X668911Y969140D01*
X668911Y945140D01*
X668923Y945098D01*
X668926Y945054D01*
X668942Y945032D01*
X668950Y945006D01*
X668983Y944977D01*
X669009Y944942D01*
X669035Y944932D01*
X669055Y944914D01*
X669099Y944907D01*
X669139Y944892D01*
X669166Y944897D01*
G37*
G36*
X1563246Y381017D02*
X1563246Y381017D01*
X1563273Y381013D01*
X1563314Y381031D01*
X1563356Y381040D01*
X1563392Y381066D01*
X1563401Y381070D01*
X1563405Y381075D01*
X1563416Y381084D01*
X1587416Y405084D01*
X1587437Y405122D01*
X1587466Y405155D01*
X1587470Y405182D01*
X1587483Y405206D01*
X1587480Y405250D01*
X1587487Y405293D01*
X1587476Y405319D01*
X1587474Y405346D01*
X1587448Y405381D01*
X1587430Y405421D01*
X1587407Y405436D01*
X1587391Y405458D01*
X1587350Y405474D01*
X1587314Y405498D01*
X1587270Y405505D01*
X1587261Y405508D01*
X1587254Y405507D01*
X1587240Y405509D01*
X1563240Y405509D01*
X1563224Y405504D01*
X1563207Y405507D01*
X1563157Y405485D01*
X1563106Y405470D01*
X1563095Y405457D01*
X1563079Y405450D01*
X1563049Y405405D01*
X1563014Y405365D01*
X1563011Y405348D01*
X1563002Y405334D01*
X1562991Y405260D01*
X1562991Y381260D01*
X1563003Y381218D01*
X1563006Y381174D01*
X1563022Y381152D01*
X1563030Y381126D01*
X1563063Y381097D01*
X1563089Y381062D01*
X1563115Y381052D01*
X1563135Y381034D01*
X1563179Y381027D01*
X1563219Y381012D01*
X1563246Y381017D01*
G37*
G36*
X669166Y381017D02*
X669166Y381017D01*
X669193Y381013D01*
X669234Y381031D01*
X669276Y381040D01*
X669312Y381066D01*
X669321Y381070D01*
X669325Y381075D01*
X669336Y381084D01*
X693336Y405084D01*
X693357Y405122D01*
X693386Y405155D01*
X693390Y405182D01*
X693403Y405206D01*
X693400Y405250D01*
X693407Y405293D01*
X693396Y405319D01*
X693394Y405346D01*
X693368Y405381D01*
X693350Y405421D01*
X693327Y405436D01*
X693311Y405458D01*
X693270Y405474D01*
X693234Y405498D01*
X693190Y405505D01*
X693181Y405508D01*
X693174Y405507D01*
X693160Y405509D01*
X669160Y405509D01*
X669144Y405504D01*
X669127Y405507D01*
X669077Y405485D01*
X669026Y405470D01*
X669015Y405457D01*
X668999Y405450D01*
X668969Y405405D01*
X668934Y405365D01*
X668931Y405348D01*
X668922Y405334D01*
X668911Y405260D01*
X668911Y381260D01*
X668923Y381218D01*
X668926Y381174D01*
X668942Y381152D01*
X668950Y381126D01*
X668983Y381097D01*
X669009Y381062D01*
X669035Y381052D01*
X669055Y381034D01*
X669099Y381027D01*
X669139Y381012D01*
X669166Y381017D01*
G37*
G36*
X60304Y128554D02*
X60304Y128554D01*
X60307Y128551D01*
X61429Y128706D01*
X61434Y128711D01*
X61438Y128708D01*
X62509Y129079D01*
X62513Y129085D01*
X62518Y129083D01*
X63495Y129656D01*
X63498Y129662D01*
X63503Y129661D01*
X64350Y130414D01*
X64352Y130421D01*
X64357Y130421D01*
X65041Y131324D01*
X65041Y131331D01*
X65046Y131332D01*
X65541Y132351D01*
X65539Y132358D01*
X65544Y132360D01*
X65831Y133457D01*
X65829Y133461D01*
X65831Y133462D01*
X65829Y133464D01*
X65832Y133466D01*
X65899Y134597D01*
X65897Y134601D01*
X65899Y134603D01*
X65832Y135734D01*
X65827Y135739D01*
X65831Y135743D01*
X65544Y136840D01*
X65538Y136844D01*
X65541Y136849D01*
X65046Y137868D01*
X65040Y137871D01*
X65041Y137876D01*
X64357Y138779D01*
X64350Y138781D01*
X64350Y138786D01*
X63503Y139539D01*
X63496Y139539D01*
X63495Y139544D01*
X62518Y140117D01*
X62511Y140116D01*
X62509Y140121D01*
X61438Y140492D01*
X61432Y140489D01*
X61429Y140494D01*
X60307Y140649D01*
X60302Y140646D01*
X60300Y140649D01*
X48300Y140649D01*
X48295Y140646D01*
X48292Y140649D01*
X47025Y140444D01*
X47019Y140438D01*
X47015Y140441D01*
X45825Y139959D01*
X45821Y139952D01*
X45815Y139954D01*
X44762Y139220D01*
X44760Y139212D01*
X44754Y139213D01*
X43891Y138263D01*
X43890Y138254D01*
X43885Y138254D01*
X43255Y137135D01*
X43256Y137127D01*
X43250Y137125D01*
X42885Y135895D01*
X42888Y135887D01*
X42883Y135884D01*
X42801Y134603D01*
X42804Y134599D01*
X42801Y134597D01*
X42883Y133316D01*
X42889Y133310D01*
X42885Y133305D01*
X43250Y132075D01*
X43257Y132070D01*
X43255Y132065D01*
X43885Y130946D01*
X43892Y130943D01*
X43891Y130937D01*
X44754Y129987D01*
X44762Y129986D01*
X44762Y129980D01*
X45815Y129246D01*
X45823Y129246D01*
X45825Y129241D01*
X47015Y128759D01*
X47022Y128761D01*
X47025Y128756D01*
X48292Y128551D01*
X48297Y128554D01*
X48300Y128551D01*
X60300Y128551D01*
X60304Y128554D01*
G37*
G36*
X954384Y128554D02*
X954384Y128554D01*
X954387Y128551D01*
X955509Y128706D01*
X955514Y128711D01*
X955518Y128708D01*
X956589Y129079D01*
X956593Y129085D01*
X956598Y129083D01*
X957575Y129656D01*
X957578Y129662D01*
X957583Y129661D01*
X958430Y130414D01*
X958432Y130421D01*
X958437Y130421D01*
X959121Y131324D01*
X959121Y131331D01*
X959126Y131332D01*
X959621Y132351D01*
X959619Y132358D01*
X959624Y132360D01*
X959911Y133457D01*
X959909Y133461D01*
X959911Y133462D01*
X959909Y133464D01*
X959912Y133466D01*
X959979Y134597D01*
X959977Y134601D01*
X959979Y134603D01*
X959912Y135734D01*
X959907Y135739D01*
X959911Y135743D01*
X959624Y136840D01*
X959618Y136844D01*
X959621Y136849D01*
X959126Y137868D01*
X959120Y137871D01*
X959121Y137876D01*
X958437Y138779D01*
X958430Y138781D01*
X958430Y138786D01*
X957583Y139539D01*
X957576Y139539D01*
X957575Y139544D01*
X956598Y140117D01*
X956591Y140116D01*
X956589Y140121D01*
X955518Y140492D01*
X955512Y140489D01*
X955509Y140494D01*
X954387Y140649D01*
X954382Y140646D01*
X954380Y140649D01*
X942380Y140649D01*
X942375Y140646D01*
X942372Y140649D01*
X941105Y140444D01*
X941099Y140438D01*
X941095Y140441D01*
X939905Y139959D01*
X939901Y139952D01*
X939895Y139954D01*
X938842Y139220D01*
X938840Y139212D01*
X938834Y139213D01*
X937971Y138263D01*
X937970Y138254D01*
X937965Y138254D01*
X937335Y137135D01*
X937336Y137127D01*
X937330Y137125D01*
X936965Y135895D01*
X936968Y135887D01*
X936963Y135884D01*
X936881Y134603D01*
X936884Y134599D01*
X936881Y134597D01*
X936963Y133316D01*
X936969Y133310D01*
X936965Y133305D01*
X937330Y132075D01*
X937337Y132070D01*
X937335Y132065D01*
X937965Y130946D01*
X937972Y130943D01*
X937971Y130937D01*
X938834Y129987D01*
X938842Y129986D01*
X938842Y129980D01*
X939895Y129246D01*
X939903Y129246D01*
X939905Y129241D01*
X941095Y128759D01*
X941102Y128761D01*
X941105Y128756D01*
X942372Y128551D01*
X942377Y128554D01*
X942380Y128551D01*
X954380Y128551D01*
X954384Y128554D01*
G37*
G36*
X954384Y778834D02*
X954384Y778834D01*
X954387Y778831D01*
X955509Y778986D01*
X955514Y778991D01*
X955518Y778988D01*
X956589Y779359D01*
X956593Y779365D01*
X956598Y779363D01*
X957575Y779936D01*
X957578Y779942D01*
X957583Y779941D01*
X958430Y780694D01*
X958432Y780701D01*
X958437Y780701D01*
X959121Y781604D01*
X959121Y781611D01*
X959126Y781612D01*
X959621Y782631D01*
X959619Y782638D01*
X959624Y782640D01*
X959911Y783737D01*
X959909Y783741D01*
X959911Y783742D01*
X959909Y783744D01*
X959912Y783746D01*
X959979Y784877D01*
X959977Y784881D01*
X959979Y784883D01*
X959912Y786014D01*
X959907Y786019D01*
X959911Y786023D01*
X959624Y787120D01*
X959618Y787124D01*
X959621Y787129D01*
X959126Y788148D01*
X959120Y788151D01*
X959121Y788156D01*
X958437Y789059D01*
X958430Y789061D01*
X958430Y789066D01*
X957583Y789819D01*
X957576Y789819D01*
X957575Y789824D01*
X956598Y790397D01*
X956591Y790396D01*
X956589Y790401D01*
X955518Y790772D01*
X955512Y790769D01*
X955509Y790774D01*
X954387Y790929D01*
X954382Y790926D01*
X954380Y790929D01*
X942380Y790929D01*
X942375Y790926D01*
X942372Y790929D01*
X941105Y790724D01*
X941099Y790718D01*
X941095Y790721D01*
X939905Y790239D01*
X939901Y790232D01*
X939895Y790234D01*
X938842Y789500D01*
X938840Y789492D01*
X938834Y789493D01*
X937971Y788543D01*
X937970Y788534D01*
X937965Y788534D01*
X937335Y787415D01*
X937336Y787407D01*
X937330Y787405D01*
X936965Y786175D01*
X936968Y786167D01*
X936963Y786164D01*
X936881Y784883D01*
X936884Y784879D01*
X936881Y784877D01*
X936963Y783596D01*
X936969Y783590D01*
X936965Y783585D01*
X937330Y782355D01*
X937337Y782350D01*
X937335Y782345D01*
X937965Y781226D01*
X937972Y781223D01*
X937971Y781217D01*
X938834Y780267D01*
X938842Y780266D01*
X938842Y780260D01*
X939895Y779526D01*
X939903Y779526D01*
X939905Y779521D01*
X941095Y779039D01*
X941102Y779041D01*
X941105Y779036D01*
X942372Y778831D01*
X942377Y778834D01*
X942380Y778831D01*
X954380Y778831D01*
X954384Y778834D01*
G37*
G36*
X60304Y778834D02*
X60304Y778834D01*
X60307Y778831D01*
X61429Y778986D01*
X61434Y778991D01*
X61438Y778988D01*
X62509Y779359D01*
X62513Y779365D01*
X62518Y779363D01*
X63495Y779936D01*
X63498Y779942D01*
X63503Y779941D01*
X64350Y780694D01*
X64352Y780701D01*
X64357Y780701D01*
X65041Y781604D01*
X65041Y781611D01*
X65046Y781612D01*
X65541Y782631D01*
X65539Y782638D01*
X65544Y782640D01*
X65831Y783737D01*
X65829Y783741D01*
X65831Y783742D01*
X65829Y783744D01*
X65832Y783746D01*
X65899Y784877D01*
X65897Y784881D01*
X65899Y784883D01*
X65832Y786014D01*
X65827Y786019D01*
X65831Y786023D01*
X65544Y787120D01*
X65538Y787124D01*
X65541Y787129D01*
X65046Y788148D01*
X65040Y788151D01*
X65041Y788156D01*
X64357Y789059D01*
X64350Y789061D01*
X64350Y789066D01*
X63503Y789819D01*
X63496Y789819D01*
X63495Y789824D01*
X62518Y790397D01*
X62511Y790396D01*
X62509Y790401D01*
X61438Y790772D01*
X61432Y790769D01*
X61429Y790774D01*
X60307Y790929D01*
X60302Y790926D01*
X60300Y790929D01*
X48300Y790929D01*
X48295Y790926D01*
X48292Y790929D01*
X47025Y790724D01*
X47019Y790718D01*
X47015Y790721D01*
X45825Y790239D01*
X45821Y790232D01*
X45815Y790234D01*
X44762Y789500D01*
X44760Y789492D01*
X44754Y789493D01*
X43891Y788543D01*
X43890Y788534D01*
X43885Y788534D01*
X43255Y787415D01*
X43256Y787407D01*
X43250Y787405D01*
X42885Y786175D01*
X42888Y786167D01*
X42883Y786164D01*
X42801Y784883D01*
X42804Y784879D01*
X42801Y784877D01*
X42883Y783596D01*
X42889Y783590D01*
X42885Y783585D01*
X43250Y782355D01*
X43257Y782350D01*
X43255Y782345D01*
X43885Y781226D01*
X43892Y781223D01*
X43891Y781217D01*
X44754Y780267D01*
X44762Y780266D01*
X44762Y780260D01*
X45815Y779526D01*
X45823Y779526D01*
X45825Y779521D01*
X47015Y779039D01*
X47022Y779041D01*
X47025Y779036D01*
X48292Y778831D01*
X48297Y778834D01*
X48300Y778831D01*
X60300Y778831D01*
X60304Y778834D01*
G37*
G36*
X60304Y692434D02*
X60304Y692434D01*
X60307Y692431D01*
X61429Y692586D01*
X61434Y692591D01*
X61438Y692588D01*
X62509Y692959D01*
X62513Y692965D01*
X62518Y692963D01*
X63495Y693536D01*
X63498Y693542D01*
X63503Y693541D01*
X64350Y694294D01*
X64352Y694301D01*
X64357Y694301D01*
X65041Y695204D01*
X65041Y695211D01*
X65046Y695212D01*
X65541Y696231D01*
X65539Y696238D01*
X65544Y696240D01*
X65831Y697337D01*
X65829Y697341D01*
X65831Y697342D01*
X65829Y697344D01*
X65832Y697346D01*
X65899Y698477D01*
X65897Y698481D01*
X65899Y698483D01*
X65832Y699614D01*
X65827Y699619D01*
X65831Y699623D01*
X65544Y700720D01*
X65538Y700724D01*
X65541Y700729D01*
X65046Y701748D01*
X65040Y701751D01*
X65041Y701756D01*
X64357Y702659D01*
X64350Y702661D01*
X64350Y702666D01*
X63503Y703419D01*
X63496Y703419D01*
X63495Y703424D01*
X62518Y703997D01*
X62511Y703996D01*
X62509Y704001D01*
X61438Y704372D01*
X61432Y704369D01*
X61429Y704374D01*
X60307Y704529D01*
X60302Y704526D01*
X60300Y704529D01*
X48300Y704529D01*
X48295Y704526D01*
X48292Y704529D01*
X47025Y704324D01*
X47019Y704318D01*
X47015Y704321D01*
X45825Y703839D01*
X45821Y703832D01*
X45815Y703834D01*
X44762Y703100D01*
X44760Y703092D01*
X44754Y703093D01*
X43891Y702143D01*
X43890Y702134D01*
X43885Y702134D01*
X43255Y701015D01*
X43256Y701007D01*
X43250Y701005D01*
X42885Y699775D01*
X42888Y699767D01*
X42883Y699764D01*
X42801Y698483D01*
X42804Y698479D01*
X42801Y698477D01*
X42883Y697196D01*
X42889Y697190D01*
X42885Y697185D01*
X43250Y695955D01*
X43257Y695950D01*
X43255Y695945D01*
X43885Y694826D01*
X43892Y694823D01*
X43891Y694817D01*
X44754Y693867D01*
X44762Y693866D01*
X44762Y693860D01*
X45815Y693126D01*
X45823Y693126D01*
X45825Y693121D01*
X47015Y692639D01*
X47022Y692641D01*
X47025Y692636D01*
X48292Y692431D01*
X48297Y692434D01*
X48300Y692431D01*
X60300Y692431D01*
X60304Y692434D01*
G37*
G36*
X954384Y692434D02*
X954384Y692434D01*
X954387Y692431D01*
X955509Y692586D01*
X955514Y692591D01*
X955518Y692588D01*
X956589Y692959D01*
X956593Y692965D01*
X956598Y692963D01*
X957575Y693536D01*
X957578Y693542D01*
X957583Y693541D01*
X958430Y694294D01*
X958432Y694301D01*
X958437Y694301D01*
X959121Y695204D01*
X959121Y695211D01*
X959126Y695212D01*
X959621Y696231D01*
X959619Y696238D01*
X959624Y696240D01*
X959911Y697337D01*
X959909Y697341D01*
X959911Y697342D01*
X959909Y697344D01*
X959912Y697346D01*
X959979Y698477D01*
X959977Y698481D01*
X959979Y698483D01*
X959912Y699614D01*
X959907Y699619D01*
X959911Y699623D01*
X959624Y700720D01*
X959618Y700724D01*
X959621Y700729D01*
X959126Y701748D01*
X959120Y701751D01*
X959121Y701756D01*
X958437Y702659D01*
X958430Y702661D01*
X958430Y702666D01*
X957583Y703419D01*
X957576Y703419D01*
X957575Y703424D01*
X956598Y703997D01*
X956591Y703996D01*
X956589Y704001D01*
X955518Y704372D01*
X955512Y704369D01*
X955509Y704374D01*
X954387Y704529D01*
X954382Y704526D01*
X954380Y704529D01*
X942380Y704529D01*
X942375Y704526D01*
X942372Y704529D01*
X941105Y704324D01*
X941099Y704318D01*
X941095Y704321D01*
X939905Y703839D01*
X939901Y703832D01*
X939895Y703834D01*
X938842Y703100D01*
X938840Y703092D01*
X938834Y703093D01*
X937971Y702143D01*
X937970Y702134D01*
X937965Y702134D01*
X937335Y701015D01*
X937336Y701007D01*
X937330Y701005D01*
X936965Y699775D01*
X936968Y699767D01*
X936963Y699764D01*
X936881Y698483D01*
X936884Y698479D01*
X936881Y698477D01*
X936963Y697196D01*
X936969Y697190D01*
X936965Y697185D01*
X937330Y695955D01*
X937337Y695950D01*
X937335Y695945D01*
X937965Y694826D01*
X937972Y694823D01*
X937971Y694817D01*
X938834Y693867D01*
X938842Y693866D01*
X938842Y693860D01*
X939895Y693126D01*
X939903Y693126D01*
X939905Y693121D01*
X941095Y692639D01*
X941102Y692641D01*
X941105Y692636D01*
X942372Y692431D01*
X942377Y692434D01*
X942380Y692431D01*
X954380Y692431D01*
X954384Y692434D01*
G37*
G36*
X954384Y214954D02*
X954384Y214954D01*
X954387Y214951D01*
X955509Y215106D01*
X955514Y215111D01*
X955518Y215108D01*
X956589Y215479D01*
X956593Y215485D01*
X956598Y215483D01*
X957575Y216056D01*
X957578Y216062D01*
X957583Y216061D01*
X958430Y216814D01*
X958432Y216821D01*
X958437Y216821D01*
X959121Y217724D01*
X959121Y217731D01*
X959126Y217732D01*
X959621Y218751D01*
X959619Y218758D01*
X959624Y218760D01*
X959911Y219857D01*
X959909Y219861D01*
X959911Y219862D01*
X959909Y219864D01*
X959912Y219866D01*
X959979Y220997D01*
X959977Y221001D01*
X959979Y221003D01*
X959912Y222134D01*
X959907Y222139D01*
X959911Y222143D01*
X959624Y223240D01*
X959618Y223244D01*
X959621Y223249D01*
X959126Y224268D01*
X959120Y224271D01*
X959121Y224276D01*
X958437Y225179D01*
X958430Y225181D01*
X958430Y225186D01*
X957583Y225939D01*
X957576Y225939D01*
X957575Y225944D01*
X956598Y226517D01*
X956591Y226516D01*
X956589Y226521D01*
X955518Y226892D01*
X955512Y226889D01*
X955509Y226894D01*
X954387Y227049D01*
X954382Y227046D01*
X954380Y227049D01*
X942380Y227049D01*
X942375Y227046D01*
X942372Y227049D01*
X941105Y226844D01*
X941099Y226838D01*
X941095Y226841D01*
X939905Y226359D01*
X939901Y226352D01*
X939895Y226354D01*
X938842Y225620D01*
X938840Y225612D01*
X938834Y225613D01*
X937971Y224663D01*
X937970Y224654D01*
X937965Y224654D01*
X937335Y223535D01*
X937336Y223527D01*
X937330Y223525D01*
X936965Y222295D01*
X936968Y222287D01*
X936963Y222284D01*
X936881Y221003D01*
X936884Y220999D01*
X936881Y220997D01*
X936963Y219716D01*
X936969Y219710D01*
X936965Y219705D01*
X937330Y218475D01*
X937337Y218470D01*
X937335Y218465D01*
X937965Y217346D01*
X937972Y217343D01*
X937971Y217337D01*
X938834Y216387D01*
X938842Y216386D01*
X938842Y216380D01*
X939895Y215646D01*
X939903Y215646D01*
X939905Y215641D01*
X941095Y215159D01*
X941102Y215161D01*
X941105Y215156D01*
X942372Y214951D01*
X942377Y214954D01*
X942380Y214951D01*
X954380Y214951D01*
X954384Y214954D01*
G37*
G36*
X60304Y214954D02*
X60304Y214954D01*
X60307Y214951D01*
X61429Y215106D01*
X61434Y215111D01*
X61438Y215108D01*
X62509Y215479D01*
X62513Y215485D01*
X62518Y215483D01*
X63495Y216056D01*
X63498Y216062D01*
X63503Y216061D01*
X64350Y216814D01*
X64352Y216821D01*
X64357Y216821D01*
X65041Y217724D01*
X65041Y217731D01*
X65046Y217732D01*
X65541Y218751D01*
X65539Y218758D01*
X65544Y218760D01*
X65831Y219857D01*
X65829Y219861D01*
X65831Y219862D01*
X65829Y219864D01*
X65832Y219866D01*
X65899Y220997D01*
X65897Y221001D01*
X65899Y221003D01*
X65832Y222134D01*
X65827Y222139D01*
X65831Y222143D01*
X65544Y223240D01*
X65538Y223244D01*
X65541Y223249D01*
X65046Y224268D01*
X65040Y224271D01*
X65041Y224276D01*
X64357Y225179D01*
X64350Y225181D01*
X64350Y225186D01*
X63503Y225939D01*
X63496Y225939D01*
X63495Y225944D01*
X62518Y226517D01*
X62511Y226516D01*
X62509Y226521D01*
X61438Y226892D01*
X61432Y226889D01*
X61429Y226894D01*
X60307Y227049D01*
X60302Y227046D01*
X60300Y227049D01*
X48300Y227049D01*
X48295Y227046D01*
X48292Y227049D01*
X47025Y226844D01*
X47019Y226838D01*
X47015Y226841D01*
X45825Y226359D01*
X45821Y226352D01*
X45815Y226354D01*
X44762Y225620D01*
X44760Y225612D01*
X44754Y225613D01*
X43891Y224663D01*
X43890Y224654D01*
X43885Y224654D01*
X43255Y223535D01*
X43256Y223527D01*
X43250Y223525D01*
X42885Y222295D01*
X42888Y222287D01*
X42883Y222284D01*
X42801Y221003D01*
X42804Y220999D01*
X42801Y220997D01*
X42883Y219716D01*
X42889Y219710D01*
X42885Y219705D01*
X43250Y218475D01*
X43257Y218470D01*
X43255Y218465D01*
X43885Y217346D01*
X43892Y217343D01*
X43891Y217337D01*
X44754Y216387D01*
X44762Y216386D01*
X44762Y216380D01*
X45815Y215646D01*
X45823Y215646D01*
X45825Y215641D01*
X47015Y215159D01*
X47022Y215161D01*
X47025Y215156D01*
X48292Y214951D01*
X48297Y214954D01*
X48300Y214951D01*
X60300Y214951D01*
X60304Y214954D01*
G37*
G36*
X15503Y128553D02*
X15503Y128553D01*
X15505Y128551D01*
X16681Y128662D01*
X16686Y128667D01*
X16690Y128664D01*
X17822Y129002D01*
X17826Y129008D01*
X17831Y129006D01*
X18875Y129558D01*
X18878Y129565D01*
X18883Y129563D01*
X19799Y130309D01*
X19800Y130316D01*
X19806Y130316D01*
X20559Y131226D01*
X20559Y131233D01*
X20564Y131234D01*
X21125Y132273D01*
X21124Y132278D01*
X21128Y132280D01*
X21127Y132281D01*
X21129Y132282D01*
X21476Y133411D01*
X21476Y133412D01*
X21477Y133413D01*
X21474Y133417D01*
X21478Y133420D01*
X21599Y134595D01*
X21595Y134602D01*
X21599Y134606D01*
X21442Y135946D01*
X21437Y135952D01*
X21440Y135957D01*
X20989Y137228D01*
X20982Y137233D01*
X20984Y137238D01*
X20262Y138377D01*
X20254Y138380D01*
X20255Y138386D01*
X19297Y139336D01*
X19289Y139337D01*
X19288Y139343D01*
X18143Y140056D01*
X18135Y140055D01*
X18133Y140061D01*
X16857Y140501D01*
X16850Y140499D01*
X16847Y140503D01*
X15505Y140649D01*
X15502Y140647D01*
X15500Y140649D01*
X9500Y140649D01*
X9497Y140647D01*
X9494Y140649D01*
X8165Y140494D01*
X8159Y140488D01*
X8155Y140491D01*
X6894Y140044D01*
X6889Y140037D01*
X6884Y140039D01*
X5754Y139322D01*
X5751Y139315D01*
X5745Y139316D01*
X4803Y138366D01*
X4802Y138357D01*
X4796Y138357D01*
X4089Y137221D01*
X4090Y137213D01*
X4084Y137211D01*
X3648Y135946D01*
X3650Y135938D01*
X3645Y135936D01*
X3501Y134605D01*
X3505Y134599D01*
X3501Y134595D01*
X3611Y133429D01*
X3616Y133424D01*
X3613Y133420D01*
X3948Y132297D01*
X3954Y132293D01*
X3952Y132289D01*
X4500Y131253D01*
X4506Y131250D01*
X4505Y131245D01*
X5244Y130337D01*
X5251Y130335D01*
X5251Y130330D01*
X6153Y129583D01*
X6161Y129583D01*
X6161Y129578D01*
X7192Y129021D01*
X7199Y129022D01*
X7201Y129017D01*
X8320Y128673D01*
X8327Y128675D01*
X8330Y128671D01*
X9495Y128551D01*
X9498Y128553D01*
X9500Y128551D01*
X15500Y128551D01*
X15503Y128553D01*
G37*
G36*
X909583Y128553D02*
X909583Y128553D01*
X909585Y128551D01*
X910761Y128662D01*
X910766Y128667D01*
X910770Y128664D01*
X911902Y129002D01*
X911906Y129008D01*
X911911Y129006D01*
X912955Y129558D01*
X912958Y129565D01*
X912963Y129563D01*
X913879Y130309D01*
X913880Y130316D01*
X913886Y130316D01*
X914639Y131226D01*
X914639Y131233D01*
X914644Y131234D01*
X915205Y132273D01*
X915204Y132278D01*
X915208Y132280D01*
X915207Y132281D01*
X915209Y132282D01*
X915556Y133411D01*
X915556Y133412D01*
X915557Y133413D01*
X915554Y133417D01*
X915558Y133420D01*
X915679Y134595D01*
X915675Y134602D01*
X915679Y134606D01*
X915522Y135946D01*
X915517Y135952D01*
X915520Y135957D01*
X915069Y137228D01*
X915062Y137233D01*
X915064Y137238D01*
X914342Y138377D01*
X914334Y138380D01*
X914335Y138386D01*
X913377Y139336D01*
X913369Y139337D01*
X913368Y139343D01*
X912223Y140056D01*
X912215Y140055D01*
X912213Y140061D01*
X910937Y140501D01*
X910930Y140499D01*
X910927Y140503D01*
X909585Y140649D01*
X909582Y140647D01*
X909580Y140649D01*
X903580Y140649D01*
X903577Y140647D01*
X903574Y140649D01*
X902245Y140494D01*
X902239Y140488D01*
X902235Y140491D01*
X900974Y140044D01*
X900969Y140037D01*
X900964Y140039D01*
X899834Y139322D01*
X899831Y139315D01*
X899825Y139316D01*
X898883Y138366D01*
X898882Y138357D01*
X898876Y138357D01*
X898169Y137221D01*
X898170Y137213D01*
X898164Y137211D01*
X897728Y135946D01*
X897730Y135938D01*
X897725Y135936D01*
X897581Y134605D01*
X897585Y134599D01*
X897581Y134595D01*
X897691Y133429D01*
X897696Y133424D01*
X897693Y133420D01*
X898028Y132297D01*
X898034Y132293D01*
X898032Y132289D01*
X898580Y131253D01*
X898586Y131250D01*
X898585Y131245D01*
X899324Y130337D01*
X899331Y130335D01*
X899331Y130330D01*
X900233Y129583D01*
X900241Y129583D01*
X900241Y129578D01*
X901272Y129021D01*
X901279Y129022D01*
X901281Y129017D01*
X902400Y128673D01*
X902407Y128675D01*
X902410Y128671D01*
X903575Y128551D01*
X903578Y128553D01*
X903580Y128551D01*
X909580Y128551D01*
X909583Y128553D01*
G37*
G36*
X15503Y778833D02*
X15503Y778833D01*
X15505Y778831D01*
X16681Y778942D01*
X16686Y778947D01*
X16690Y778944D01*
X17822Y779282D01*
X17826Y779288D01*
X17831Y779286D01*
X18875Y779838D01*
X18878Y779845D01*
X18883Y779843D01*
X19799Y780589D01*
X19800Y780596D01*
X19806Y780596D01*
X20559Y781506D01*
X20559Y781513D01*
X20564Y781514D01*
X21125Y782553D01*
X21124Y782558D01*
X21128Y782560D01*
X21127Y782561D01*
X21129Y782562D01*
X21476Y783691D01*
X21476Y783692D01*
X21477Y783693D01*
X21474Y783697D01*
X21478Y783700D01*
X21599Y784875D01*
X21595Y784882D01*
X21599Y784886D01*
X21442Y786226D01*
X21437Y786232D01*
X21440Y786237D01*
X20989Y787508D01*
X20982Y787513D01*
X20984Y787518D01*
X20262Y788657D01*
X20254Y788660D01*
X20255Y788666D01*
X19297Y789616D01*
X19289Y789617D01*
X19288Y789623D01*
X18143Y790336D01*
X18135Y790335D01*
X18133Y790341D01*
X16857Y790781D01*
X16850Y790779D01*
X16847Y790783D01*
X15505Y790929D01*
X15502Y790927D01*
X15500Y790929D01*
X9500Y790929D01*
X9497Y790927D01*
X9494Y790929D01*
X8165Y790774D01*
X8159Y790768D01*
X8155Y790771D01*
X6894Y790324D01*
X6889Y790317D01*
X6884Y790319D01*
X5754Y789602D01*
X5751Y789595D01*
X5745Y789596D01*
X4803Y788646D01*
X4802Y788637D01*
X4796Y788637D01*
X4089Y787501D01*
X4090Y787493D01*
X4084Y787491D01*
X3648Y786226D01*
X3650Y786218D01*
X3645Y786216D01*
X3501Y784885D01*
X3505Y784879D01*
X3501Y784875D01*
X3611Y783709D01*
X3616Y783704D01*
X3613Y783700D01*
X3948Y782577D01*
X3954Y782573D01*
X3952Y782569D01*
X4500Y781533D01*
X4506Y781530D01*
X4505Y781525D01*
X5244Y780617D01*
X5251Y780615D01*
X5251Y780610D01*
X6153Y779863D01*
X6161Y779863D01*
X6161Y779858D01*
X7192Y779301D01*
X7199Y779302D01*
X7201Y779297D01*
X8320Y778953D01*
X8327Y778955D01*
X8330Y778951D01*
X9495Y778831D01*
X9498Y778833D01*
X9500Y778831D01*
X15500Y778831D01*
X15503Y778833D01*
G37*
G36*
X909583Y778833D02*
X909583Y778833D01*
X909585Y778831D01*
X910761Y778942D01*
X910766Y778947D01*
X910770Y778944D01*
X911902Y779282D01*
X911906Y779288D01*
X911911Y779286D01*
X912955Y779838D01*
X912958Y779845D01*
X912963Y779843D01*
X913879Y780589D01*
X913880Y780596D01*
X913886Y780596D01*
X914639Y781506D01*
X914639Y781513D01*
X914644Y781514D01*
X915205Y782553D01*
X915204Y782558D01*
X915208Y782560D01*
X915207Y782561D01*
X915209Y782562D01*
X915556Y783691D01*
X915556Y783692D01*
X915557Y783693D01*
X915554Y783697D01*
X915558Y783700D01*
X915679Y784875D01*
X915675Y784882D01*
X915679Y784886D01*
X915522Y786226D01*
X915517Y786232D01*
X915520Y786237D01*
X915069Y787508D01*
X915062Y787513D01*
X915064Y787518D01*
X914342Y788657D01*
X914334Y788660D01*
X914335Y788666D01*
X913377Y789616D01*
X913369Y789617D01*
X913368Y789623D01*
X912223Y790336D01*
X912215Y790335D01*
X912213Y790341D01*
X910937Y790781D01*
X910930Y790779D01*
X910927Y790783D01*
X909585Y790929D01*
X909582Y790927D01*
X909580Y790929D01*
X903580Y790929D01*
X903577Y790927D01*
X903574Y790929D01*
X902245Y790774D01*
X902239Y790768D01*
X902235Y790771D01*
X900974Y790324D01*
X900969Y790317D01*
X900964Y790319D01*
X899834Y789602D01*
X899831Y789595D01*
X899825Y789596D01*
X898883Y788646D01*
X898882Y788637D01*
X898876Y788637D01*
X898169Y787501D01*
X898170Y787493D01*
X898164Y787491D01*
X897728Y786226D01*
X897730Y786218D01*
X897725Y786216D01*
X897581Y784885D01*
X897585Y784879D01*
X897581Y784875D01*
X897691Y783709D01*
X897696Y783704D01*
X897693Y783700D01*
X898028Y782577D01*
X898034Y782573D01*
X898032Y782569D01*
X898580Y781533D01*
X898586Y781530D01*
X898585Y781525D01*
X899324Y780617D01*
X899331Y780615D01*
X899331Y780610D01*
X900233Y779863D01*
X900241Y779863D01*
X900241Y779858D01*
X901272Y779301D01*
X901279Y779302D01*
X901281Y779297D01*
X902400Y778953D01*
X902407Y778955D01*
X902410Y778951D01*
X903575Y778831D01*
X903578Y778833D01*
X903580Y778831D01*
X909580Y778831D01*
X909583Y778833D01*
G37*
G36*
X909583Y692433D02*
X909583Y692433D01*
X909585Y692431D01*
X910761Y692542D01*
X910766Y692547D01*
X910770Y692544D01*
X911902Y692882D01*
X911906Y692888D01*
X911911Y692886D01*
X912955Y693438D01*
X912958Y693445D01*
X912963Y693443D01*
X913879Y694189D01*
X913880Y694196D01*
X913886Y694196D01*
X914639Y695106D01*
X914639Y695113D01*
X914644Y695114D01*
X915205Y696153D01*
X915204Y696158D01*
X915208Y696160D01*
X915207Y696161D01*
X915209Y696162D01*
X915556Y697291D01*
X915556Y697292D01*
X915557Y697293D01*
X915554Y697297D01*
X915558Y697300D01*
X915679Y698475D01*
X915675Y698482D01*
X915679Y698486D01*
X915522Y699826D01*
X915517Y699832D01*
X915520Y699837D01*
X915069Y701108D01*
X915062Y701113D01*
X915064Y701118D01*
X914342Y702257D01*
X914334Y702260D01*
X914335Y702266D01*
X913377Y703216D01*
X913369Y703217D01*
X913368Y703223D01*
X912223Y703936D01*
X912215Y703935D01*
X912213Y703941D01*
X910937Y704381D01*
X910930Y704379D01*
X910927Y704383D01*
X909585Y704529D01*
X909582Y704527D01*
X909580Y704529D01*
X903580Y704529D01*
X903577Y704527D01*
X903574Y704529D01*
X902245Y704374D01*
X902239Y704368D01*
X902235Y704371D01*
X900974Y703924D01*
X900969Y703917D01*
X900964Y703919D01*
X899834Y703202D01*
X899831Y703195D01*
X899825Y703196D01*
X898883Y702246D01*
X898882Y702237D01*
X898876Y702237D01*
X898169Y701101D01*
X898170Y701093D01*
X898164Y701091D01*
X897728Y699826D01*
X897730Y699818D01*
X897725Y699816D01*
X897581Y698485D01*
X897585Y698479D01*
X897581Y698475D01*
X897691Y697309D01*
X897696Y697304D01*
X897693Y697300D01*
X898028Y696177D01*
X898034Y696173D01*
X898032Y696169D01*
X898580Y695133D01*
X898586Y695130D01*
X898585Y695125D01*
X899324Y694217D01*
X899331Y694215D01*
X899331Y694210D01*
X900233Y693463D01*
X900241Y693463D01*
X900241Y693458D01*
X901272Y692901D01*
X901279Y692902D01*
X901281Y692897D01*
X902400Y692553D01*
X902407Y692555D01*
X902410Y692551D01*
X903575Y692431D01*
X903578Y692433D01*
X903580Y692431D01*
X909580Y692431D01*
X909583Y692433D01*
G37*
G36*
X15503Y692433D02*
X15503Y692433D01*
X15505Y692431D01*
X16681Y692542D01*
X16686Y692547D01*
X16690Y692544D01*
X17822Y692882D01*
X17826Y692888D01*
X17831Y692886D01*
X18875Y693438D01*
X18878Y693445D01*
X18883Y693443D01*
X19799Y694189D01*
X19800Y694196D01*
X19806Y694196D01*
X20559Y695106D01*
X20559Y695113D01*
X20564Y695114D01*
X21125Y696153D01*
X21124Y696158D01*
X21128Y696160D01*
X21127Y696161D01*
X21129Y696162D01*
X21476Y697291D01*
X21476Y697292D01*
X21477Y697293D01*
X21474Y697297D01*
X21478Y697300D01*
X21599Y698475D01*
X21595Y698482D01*
X21599Y698486D01*
X21442Y699826D01*
X21437Y699832D01*
X21440Y699837D01*
X20989Y701108D01*
X20982Y701113D01*
X20984Y701118D01*
X20262Y702257D01*
X20254Y702260D01*
X20255Y702266D01*
X19297Y703216D01*
X19289Y703217D01*
X19288Y703223D01*
X18143Y703936D01*
X18135Y703935D01*
X18133Y703941D01*
X16857Y704381D01*
X16850Y704379D01*
X16847Y704383D01*
X15505Y704529D01*
X15502Y704527D01*
X15500Y704529D01*
X9500Y704529D01*
X9497Y704527D01*
X9494Y704529D01*
X8165Y704374D01*
X8159Y704368D01*
X8155Y704371D01*
X6894Y703924D01*
X6889Y703917D01*
X6884Y703919D01*
X5754Y703202D01*
X5751Y703195D01*
X5745Y703196D01*
X4803Y702246D01*
X4802Y702237D01*
X4796Y702237D01*
X4089Y701101D01*
X4090Y701093D01*
X4084Y701091D01*
X3648Y699826D01*
X3650Y699818D01*
X3645Y699816D01*
X3501Y698485D01*
X3505Y698479D01*
X3501Y698475D01*
X3611Y697309D01*
X3616Y697304D01*
X3613Y697300D01*
X3948Y696177D01*
X3954Y696173D01*
X3952Y696169D01*
X4500Y695133D01*
X4506Y695130D01*
X4505Y695125D01*
X5244Y694217D01*
X5251Y694215D01*
X5251Y694210D01*
X6153Y693463D01*
X6161Y693463D01*
X6161Y693458D01*
X7192Y692901D01*
X7199Y692902D01*
X7201Y692897D01*
X8320Y692553D01*
X8327Y692555D01*
X8330Y692551D01*
X9495Y692431D01*
X9498Y692433D01*
X9500Y692431D01*
X15500Y692431D01*
X15503Y692433D01*
G37*
G36*
X15503Y214953D02*
X15503Y214953D01*
X15505Y214951D01*
X16681Y215062D01*
X16686Y215067D01*
X16690Y215064D01*
X17822Y215402D01*
X17826Y215408D01*
X17831Y215406D01*
X18875Y215958D01*
X18878Y215965D01*
X18883Y215963D01*
X19799Y216709D01*
X19800Y216716D01*
X19806Y216716D01*
X20559Y217626D01*
X20559Y217633D01*
X20564Y217634D01*
X21125Y218673D01*
X21124Y218678D01*
X21128Y218680D01*
X21127Y218681D01*
X21129Y218682D01*
X21476Y219811D01*
X21476Y219812D01*
X21477Y219813D01*
X21474Y219817D01*
X21478Y219820D01*
X21599Y220995D01*
X21595Y221002D01*
X21599Y221006D01*
X21442Y222346D01*
X21437Y222352D01*
X21440Y222357D01*
X20989Y223628D01*
X20982Y223633D01*
X20984Y223638D01*
X20262Y224777D01*
X20254Y224780D01*
X20255Y224786D01*
X19297Y225736D01*
X19289Y225737D01*
X19288Y225743D01*
X18143Y226456D01*
X18135Y226455D01*
X18133Y226461D01*
X16857Y226901D01*
X16850Y226899D01*
X16847Y226903D01*
X15505Y227049D01*
X15502Y227047D01*
X15500Y227049D01*
X9500Y227049D01*
X9497Y227047D01*
X9494Y227049D01*
X8165Y226894D01*
X8159Y226888D01*
X8155Y226891D01*
X6894Y226444D01*
X6889Y226437D01*
X6884Y226439D01*
X5754Y225722D01*
X5751Y225715D01*
X5745Y225716D01*
X4803Y224766D01*
X4802Y224757D01*
X4796Y224757D01*
X4089Y223621D01*
X4090Y223613D01*
X4084Y223611D01*
X3648Y222346D01*
X3650Y222338D01*
X3645Y222336D01*
X3501Y221005D01*
X3505Y220999D01*
X3501Y220995D01*
X3611Y219829D01*
X3616Y219824D01*
X3613Y219820D01*
X3948Y218697D01*
X3954Y218693D01*
X3952Y218689D01*
X4500Y217653D01*
X4506Y217650D01*
X4505Y217645D01*
X5244Y216737D01*
X5251Y216735D01*
X5251Y216730D01*
X6153Y215983D01*
X6161Y215983D01*
X6161Y215978D01*
X7192Y215421D01*
X7199Y215422D01*
X7201Y215417D01*
X8320Y215073D01*
X8327Y215075D01*
X8330Y215071D01*
X9495Y214951D01*
X9498Y214953D01*
X9500Y214951D01*
X15500Y214951D01*
X15503Y214953D01*
G37*
G36*
X909583Y214953D02*
X909583Y214953D01*
X909585Y214951D01*
X910761Y215062D01*
X910766Y215067D01*
X910770Y215064D01*
X911902Y215402D01*
X911906Y215408D01*
X911911Y215406D01*
X912955Y215958D01*
X912958Y215965D01*
X912963Y215963D01*
X913879Y216709D01*
X913880Y216716D01*
X913886Y216716D01*
X914639Y217626D01*
X914639Y217633D01*
X914644Y217634D01*
X915205Y218673D01*
X915204Y218678D01*
X915208Y218680D01*
X915207Y218681D01*
X915209Y218682D01*
X915556Y219811D01*
X915556Y219812D01*
X915557Y219813D01*
X915554Y219817D01*
X915558Y219820D01*
X915679Y220995D01*
X915675Y221002D01*
X915679Y221006D01*
X915522Y222346D01*
X915517Y222352D01*
X915520Y222357D01*
X915069Y223628D01*
X915062Y223633D01*
X915064Y223638D01*
X914342Y224777D01*
X914334Y224780D01*
X914335Y224786D01*
X913377Y225736D01*
X913369Y225737D01*
X913368Y225743D01*
X912223Y226456D01*
X912215Y226455D01*
X912213Y226461D01*
X910937Y226901D01*
X910930Y226899D01*
X910927Y226903D01*
X909585Y227049D01*
X909582Y227047D01*
X909580Y227049D01*
X903580Y227049D01*
X903577Y227047D01*
X903574Y227049D01*
X902245Y226894D01*
X902239Y226888D01*
X902235Y226891D01*
X900974Y226444D01*
X900969Y226437D01*
X900964Y226439D01*
X899834Y225722D01*
X899831Y225715D01*
X899825Y225716D01*
X898883Y224766D01*
X898882Y224757D01*
X898876Y224757D01*
X898169Y223621D01*
X898170Y223613D01*
X898164Y223611D01*
X897728Y222346D01*
X897730Y222338D01*
X897725Y222336D01*
X897581Y221005D01*
X897585Y220999D01*
X897581Y220995D01*
X897691Y219829D01*
X897696Y219824D01*
X897693Y219820D01*
X898028Y218697D01*
X898034Y218693D01*
X898032Y218689D01*
X898580Y217653D01*
X898586Y217650D01*
X898585Y217645D01*
X899324Y216737D01*
X899331Y216735D01*
X899331Y216730D01*
X900233Y215983D01*
X900241Y215983D01*
X900241Y215978D01*
X901272Y215421D01*
X901279Y215422D01*
X901281Y215417D01*
X902400Y215073D01*
X902407Y215075D01*
X902410Y215071D01*
X903575Y214951D01*
X903578Y214953D01*
X903580Y214951D01*
X909580Y214951D01*
X909583Y214953D01*
G37*
G36*
X1010350Y700163D02*
X1010350Y700163D01*
X1010416Y700165D01*
X1010459Y700183D01*
X1010506Y700191D01*
X1010563Y700225D01*
X1010623Y700250D01*
X1010658Y700281D01*
X1010699Y700306D01*
X1010741Y700357D01*
X1010789Y700401D01*
X1010811Y700443D01*
X1010840Y700480D01*
X1010861Y700542D01*
X1010892Y700601D01*
X1010900Y700655D01*
X1010912Y700692D01*
X1010911Y700732D01*
X1010919Y700786D01*
X1010919Y706374D01*
X1010908Y706439D01*
X1010906Y706505D01*
X1010888Y706548D01*
X1010880Y706595D01*
X1010846Y706652D01*
X1010821Y706712D01*
X1010790Y706747D01*
X1010765Y706788D01*
X1010714Y706830D01*
X1010670Y706878D01*
X1010628Y706900D01*
X1010591Y706929D01*
X1010529Y706950D01*
X1010470Y706981D01*
X1010416Y706989D01*
X1010379Y707001D01*
X1010339Y707000D01*
X1010285Y707008D01*
X1006475Y707008D01*
X1006410Y706997D01*
X1006344Y706995D01*
X1006301Y706977D01*
X1006254Y706969D01*
X1006197Y706935D01*
X1006137Y706910D01*
X1006102Y706879D01*
X1006061Y706854D01*
X1006020Y706803D01*
X1005971Y706759D01*
X1005949Y706717D01*
X1005920Y706680D01*
X1005899Y706618D01*
X1005868Y706559D01*
X1005860Y706505D01*
X1005848Y706468D01*
X1005849Y706428D01*
X1005841Y706374D01*
X1005841Y700786D01*
X1005852Y700721D01*
X1005854Y700655D01*
X1005872Y700612D01*
X1005880Y700565D01*
X1005914Y700508D01*
X1005939Y700448D01*
X1005970Y700413D01*
X1005995Y700372D01*
X1006046Y700331D01*
X1006090Y700282D01*
X1006132Y700260D01*
X1006169Y700231D01*
X1006231Y700210D01*
X1006290Y700179D01*
X1006344Y700171D01*
X1006381Y700159D01*
X1006421Y700160D01*
X1006475Y700152D01*
X1010285Y700152D01*
X1010350Y700163D01*
G37*
G36*
X116270Y700163D02*
X116270Y700163D01*
X116336Y700165D01*
X116379Y700183D01*
X116426Y700191D01*
X116483Y700225D01*
X116543Y700250D01*
X116578Y700281D01*
X116619Y700306D01*
X116661Y700357D01*
X116709Y700401D01*
X116731Y700443D01*
X116760Y700480D01*
X116781Y700542D01*
X116812Y700601D01*
X116820Y700655D01*
X116832Y700692D01*
X116831Y700732D01*
X116839Y700786D01*
X116839Y706374D01*
X116828Y706439D01*
X116826Y706505D01*
X116808Y706548D01*
X116800Y706595D01*
X116766Y706652D01*
X116741Y706712D01*
X116710Y706747D01*
X116685Y706788D01*
X116634Y706830D01*
X116590Y706878D01*
X116548Y706900D01*
X116511Y706929D01*
X116449Y706950D01*
X116390Y706981D01*
X116336Y706989D01*
X116299Y707001D01*
X116259Y707000D01*
X116205Y707008D01*
X112395Y707008D01*
X112330Y706997D01*
X112264Y706995D01*
X112221Y706977D01*
X112174Y706969D01*
X112117Y706935D01*
X112057Y706910D01*
X112022Y706879D01*
X111981Y706854D01*
X111940Y706803D01*
X111891Y706759D01*
X111869Y706717D01*
X111840Y706680D01*
X111819Y706618D01*
X111788Y706559D01*
X111780Y706505D01*
X111768Y706468D01*
X111769Y706428D01*
X111761Y706374D01*
X111761Y700786D01*
X111772Y700721D01*
X111774Y700655D01*
X111792Y700612D01*
X111800Y700565D01*
X111834Y700508D01*
X111859Y700448D01*
X111890Y700413D01*
X111915Y700372D01*
X111966Y700331D01*
X112010Y700282D01*
X112052Y700260D01*
X112089Y700231D01*
X112151Y700210D01*
X112210Y700179D01*
X112264Y700171D01*
X112301Y700159D01*
X112341Y700160D01*
X112395Y700152D01*
X116205Y700152D01*
X116270Y700163D01*
G37*
G36*
X1010350Y136283D02*
X1010350Y136283D01*
X1010416Y136285D01*
X1010459Y136303D01*
X1010506Y136311D01*
X1010563Y136345D01*
X1010623Y136370D01*
X1010658Y136401D01*
X1010699Y136426D01*
X1010741Y136477D01*
X1010789Y136521D01*
X1010811Y136563D01*
X1010840Y136600D01*
X1010861Y136662D01*
X1010892Y136721D01*
X1010900Y136775D01*
X1010912Y136812D01*
X1010911Y136852D01*
X1010919Y136906D01*
X1010919Y142494D01*
X1010908Y142559D01*
X1010906Y142625D01*
X1010888Y142668D01*
X1010880Y142715D01*
X1010846Y142772D01*
X1010821Y142832D01*
X1010790Y142867D01*
X1010765Y142908D01*
X1010714Y142950D01*
X1010670Y142998D01*
X1010628Y143020D01*
X1010591Y143049D01*
X1010529Y143070D01*
X1010470Y143101D01*
X1010416Y143109D01*
X1010379Y143121D01*
X1010339Y143120D01*
X1010285Y143128D01*
X1006475Y143128D01*
X1006410Y143117D01*
X1006344Y143115D01*
X1006301Y143097D01*
X1006254Y143089D01*
X1006197Y143055D01*
X1006137Y143030D01*
X1006102Y142999D01*
X1006061Y142974D01*
X1006020Y142923D01*
X1005971Y142879D01*
X1005949Y142837D01*
X1005920Y142800D01*
X1005899Y142738D01*
X1005868Y142679D01*
X1005860Y142625D01*
X1005848Y142588D01*
X1005849Y142548D01*
X1005841Y142494D01*
X1005841Y136906D01*
X1005852Y136841D01*
X1005854Y136775D01*
X1005872Y136732D01*
X1005880Y136685D01*
X1005914Y136628D01*
X1005939Y136568D01*
X1005970Y136533D01*
X1005995Y136492D01*
X1006046Y136451D01*
X1006090Y136402D01*
X1006132Y136380D01*
X1006169Y136351D01*
X1006231Y136330D01*
X1006290Y136299D01*
X1006344Y136291D01*
X1006381Y136279D01*
X1006421Y136280D01*
X1006475Y136272D01*
X1010285Y136272D01*
X1010350Y136283D01*
G37*
G36*
X116270Y136283D02*
X116270Y136283D01*
X116336Y136285D01*
X116379Y136303D01*
X116426Y136311D01*
X116483Y136345D01*
X116543Y136370D01*
X116578Y136401D01*
X116619Y136426D01*
X116661Y136477D01*
X116709Y136521D01*
X116731Y136563D01*
X116760Y136600D01*
X116781Y136662D01*
X116812Y136721D01*
X116820Y136775D01*
X116832Y136812D01*
X116831Y136852D01*
X116839Y136906D01*
X116839Y142494D01*
X116828Y142559D01*
X116826Y142625D01*
X116808Y142668D01*
X116800Y142715D01*
X116766Y142772D01*
X116741Y142832D01*
X116710Y142867D01*
X116685Y142908D01*
X116634Y142950D01*
X116590Y142998D01*
X116548Y143020D01*
X116511Y143049D01*
X116449Y143070D01*
X116390Y143101D01*
X116336Y143109D01*
X116299Y143121D01*
X116259Y143120D01*
X116205Y143128D01*
X112395Y143128D01*
X112330Y143117D01*
X112264Y143115D01*
X112221Y143097D01*
X112174Y143089D01*
X112117Y143055D01*
X112057Y143030D01*
X112022Y142999D01*
X111981Y142974D01*
X111940Y142923D01*
X111891Y142879D01*
X111869Y142837D01*
X111840Y142800D01*
X111819Y142738D01*
X111788Y142679D01*
X111780Y142625D01*
X111768Y142588D01*
X111769Y142548D01*
X111761Y142494D01*
X111761Y136906D01*
X111772Y136841D01*
X111774Y136775D01*
X111792Y136732D01*
X111800Y136685D01*
X111834Y136628D01*
X111859Y136568D01*
X111890Y136533D01*
X111915Y136492D01*
X111966Y136451D01*
X112010Y136402D01*
X112052Y136380D01*
X112089Y136351D01*
X112151Y136330D01*
X112210Y136299D01*
X112264Y136291D01*
X112301Y136279D01*
X112341Y136280D01*
X112395Y136272D01*
X116205Y136272D01*
X116270Y136283D01*
G37*
D10*
X60100Y170300D03*
X60100Y175300D03*
D11*
X60100Y145550D03*
X60100Y153300D03*
D10*
X60100Y160300D03*
X60100Y165300D03*
X60100Y185300D03*
X60100Y180300D03*
D11*
X60100Y210050D03*
X60100Y202300D03*
D10*
X60100Y195300D03*
X60100Y190300D03*
D12*
X49050Y206700D03*
X49050Y148900D03*
D13*
X76200Y211700D03*
X76200Y194700D03*
X76200Y143900D03*
X76200Y160900D03*
D14*
X99470Y164050D03*
X105970Y164050D03*
X112470Y164050D03*
X118970Y164050D03*
X118970Y191550D03*
X112470Y191550D03*
X105970Y191550D03*
X99470Y191550D03*
D15*
X109220Y177800D03*
D16*
X100720Y209804D03*
X117720Y209804D03*
D17*
X45720Y45720D03*
X816770Y513080D03*
D18*
X838200Y533400D03*
X25400Y533400D03*
X838200Y25400D03*
X25400Y25400D03*
D19*
X714460Y384460D03*
D20*
X633660Y388620D03*
X656660Y388620D03*
D16*
X653914Y405384D03*
X636914Y405384D03*
D20*
X633660Y372110D03*
X656660Y372110D03*
D21*
X152400Y19050D03*
X96520Y19050D03*
X152400Y57150D03*
X96520Y57150D03*
D16*
X100720Y225044D03*
X117720Y225044D03*
D22*
X109982Y276606D03*
X118110Y276606D03*
D23*
X58152Y248666D03*
X88152Y248666D03*
D24*
X136682Y251206D03*
X108682Y251206D03*
D13*
X157480Y209940D03*
X157480Y226940D03*
X142494Y227194D03*
X142494Y210194D03*
D22*
X109220Y139700D03*
X119380Y139700D03*
D25*
X101600Y139700D03*
X127000Y139700D03*
D26*
X211582Y252476D03*
X211582Y265176D03*
X211582Y277876D03*
X211582Y290576D03*
X211582Y239776D03*
X198882Y252476D03*
X198882Y265176D03*
X198882Y277876D03*
X198882Y290576D03*
X198882Y239776D03*
D21*
X231140Y19050D03*
X175260Y19050D03*
X231140Y57150D03*
X175260Y57150D03*
D27*
X555498Y239268D03*
D16*
X138312Y185674D03*
X155312Y185674D03*
D20*
X135312Y168656D03*
X158312Y168656D03*
D13*
X147320Y140580D03*
X147320Y123580D03*
X162560Y140580D03*
X162560Y123580D03*
X177800Y140580D03*
X177800Y123580D03*
D28*
X355600Y179400D03*
D29*
X355600Y379400D03*
D30*
X302850Y186900D03*
D31*
X310600Y175900D03*
X310600Y382900D03*
D30*
X378350Y189400D03*
X302850Y191900D03*
X378350Y194400D03*
X302850Y196900D03*
X378350Y199400D03*
X302850Y201900D03*
X378350Y204400D03*
X302850Y206900D03*
X378350Y209400D03*
X302850Y211900D03*
X378350Y214400D03*
X302850Y216900D03*
X378350Y219400D03*
X302850Y221900D03*
X378350Y224400D03*
X302850Y226900D03*
X378350Y229400D03*
X302850Y231900D03*
X378350Y234400D03*
X302850Y236900D03*
X378350Y239400D03*
X302850Y241900D03*
X378350Y264400D03*
X302850Y266900D03*
X378350Y269400D03*
X302850Y271900D03*
X378350Y274400D03*
X302850Y276900D03*
X378350Y279400D03*
X302850Y281900D03*
X378350Y284400D03*
X302850Y286900D03*
X378350Y289400D03*
X302850Y291900D03*
X378350Y294400D03*
X302850Y296900D03*
X378350Y299400D03*
X302850Y301900D03*
X378350Y304400D03*
X302850Y306900D03*
X378350Y309400D03*
X302850Y311900D03*
X378350Y314400D03*
X302850Y316900D03*
X378350Y319400D03*
X302850Y321900D03*
X378350Y324400D03*
X302850Y326900D03*
X378350Y329400D03*
X302850Y331900D03*
X378350Y334400D03*
X302850Y336900D03*
X378350Y339400D03*
X302850Y341900D03*
X378350Y344400D03*
X302850Y346900D03*
X378350Y349400D03*
X302850Y351900D03*
X378350Y354400D03*
X302850Y356900D03*
X378350Y359400D03*
X302850Y361900D03*
X378350Y364400D03*
X302850Y366900D03*
X378350Y369400D03*
X302850Y371900D03*
D32*
X93500Y303403D03*
X93500Y434721D03*
D33*
X135620Y379062D03*
X135620Y404062D03*
X135620Y359062D03*
X135620Y334062D03*
D25*
X850900Y381000D03*
X850900Y355600D03*
X850900Y330200D03*
X850900Y304800D03*
D34*
X546300Y67400D03*
X546100Y34400D03*
X571700Y67400D03*
X571500Y34400D03*
X520800Y67400D03*
X520600Y34400D03*
X495500Y67400D03*
X495300Y34400D03*
X470100Y67400D03*
X469900Y34400D03*
X444600Y67400D03*
X444400Y34400D03*
X393900Y67400D03*
X393700Y34400D03*
X419300Y67400D03*
X419100Y34400D03*
D25*
X571500Y12700D03*
X546100Y12700D03*
X520700Y12700D03*
X495300Y12700D03*
X469900Y12700D03*
X444500Y12700D03*
X419100Y12700D03*
X393700Y12700D03*
D34*
X762200Y67400D03*
X762000Y34400D03*
X787600Y67400D03*
X787400Y34400D03*
X736700Y67400D03*
X736500Y34400D03*
X711400Y67400D03*
X711200Y34400D03*
X686000Y67400D03*
X685800Y34400D03*
X660500Y67400D03*
X660300Y34400D03*
X609800Y67400D03*
X609600Y34400D03*
X635200Y67400D03*
X635000Y34400D03*
D25*
X787400Y12700D03*
X762000Y12700D03*
X736600Y12700D03*
X711200Y12700D03*
X685800Y12700D03*
X660400Y12700D03*
X635000Y12700D03*
X609600Y12700D03*
D35*
X849550Y403800D03*
X849550Y459800D03*
D36*
X812800Y416800D03*
X812800Y426800D03*
X812800Y436800D03*
X812800Y446800D03*
D35*
X849550Y73600D03*
X849550Y129600D03*
D36*
X812800Y86600D03*
X812800Y96600D03*
X812800Y106600D03*
X812800Y116600D03*
D25*
X76350Y546100D03*
X101750Y546100D03*
X127150Y546100D03*
X152550Y546100D03*
D37*
X796200Y355800D03*
X829200Y355600D03*
X796200Y381200D03*
X829200Y381000D03*
X796200Y330300D03*
X829200Y330100D03*
X796200Y305000D03*
X829200Y304800D03*
D34*
X418900Y491400D03*
X419100Y524400D03*
X393500Y491400D03*
X393700Y524400D03*
X444400Y491400D03*
X444600Y524400D03*
X469700Y491400D03*
X469900Y524400D03*
X495100Y491400D03*
X495300Y524400D03*
X520600Y491400D03*
X520800Y524400D03*
X571300Y491400D03*
X571500Y524400D03*
X545900Y491400D03*
X546100Y524400D03*
X634800Y491400D03*
X635000Y524400D03*
X609400Y491400D03*
X609600Y524400D03*
X660300Y491400D03*
X660500Y524400D03*
X685600Y491400D03*
X685800Y524400D03*
X711000Y491400D03*
X711200Y524400D03*
X736500Y491400D03*
X736700Y524400D03*
X787200Y491400D03*
X787400Y524400D03*
X761800Y491400D03*
X762000Y524400D03*
X330400Y67400D03*
X330200Y34400D03*
X355800Y67400D03*
X355600Y34400D03*
X304900Y67400D03*
X304700Y34400D03*
X279600Y67400D03*
X279400Y34400D03*
D25*
X279400Y12700D03*
X304800Y12700D03*
X330200Y12700D03*
X355600Y12700D03*
X168910Y398780D03*
X168910Y373380D03*
X168910Y347980D03*
X168910Y322580D03*
D34*
X101400Y491400D03*
X101600Y524400D03*
X76000Y491400D03*
X76200Y524400D03*
X126900Y491400D03*
X127100Y524400D03*
X152200Y491400D03*
X152400Y524400D03*
X177600Y491400D03*
X177800Y524400D03*
X203100Y491400D03*
X203300Y524400D03*
X253800Y491400D03*
X254000Y524400D03*
X228400Y491400D03*
X228600Y524400D03*
X279200Y491400D03*
X279400Y524400D03*
X304700Y491400D03*
X304900Y524400D03*
X355400Y491400D03*
X355600Y524400D03*
X330000Y491400D03*
X330200Y524400D03*
D25*
X355600Y546100D03*
X330200Y546100D03*
X304800Y546100D03*
X279400Y546100D03*
X254000Y546100D03*
X228600Y546100D03*
X203200Y546100D03*
X177800Y546100D03*
D38*
X71320Y92390D02*
X71320Y85410D01*
X71320Y92390D02*
X78300Y92390D01*
X78300Y85410D01*
X71320Y85410D01*
X71320Y90210D02*
X78300Y90210D01*
X53780Y92390D02*
X53780Y85410D01*
X53780Y92390D02*
X60760Y92390D01*
X60760Y85410D01*
X53780Y85410D01*
X53780Y90210D02*
X60760Y90210D01*
X71320Y72070D02*
X71320Y65090D01*
X71320Y72070D02*
X78300Y72070D01*
X78300Y65090D01*
X71320Y65090D01*
X71320Y69890D02*
X78300Y69890D01*
X53780Y72070D02*
X53780Y65090D01*
X53780Y72070D02*
X60760Y72070D01*
X60760Y65090D01*
X53780Y65090D01*
X53780Y69890D02*
X60760Y69890D01*
D16*
X38980Y88900D03*
X21980Y88900D03*
X40250Y68580D03*
X23250Y68580D03*
D25*
X850900Y254000D03*
X850900Y228600D03*
X850900Y203200D03*
X850900Y177800D03*
X850900Y152400D03*
D37*
X796200Y228800D03*
X829200Y228600D03*
X796200Y254200D03*
X829200Y254000D03*
X796200Y203300D03*
X829200Y203100D03*
X796200Y178000D03*
X829200Y177800D03*
X796200Y152600D03*
X829200Y152400D03*
D18*
X635000Y228600D03*
X635000Y330200D03*
D25*
X393700Y546100D03*
X419100Y546100D03*
X444500Y546100D03*
X469900Y546100D03*
X495300Y546100D03*
X520700Y546100D03*
X546100Y546100D03*
X571500Y546100D03*
X609600Y546100D03*
X635000Y546100D03*
X660400Y546100D03*
X685800Y546100D03*
X711200Y546100D03*
X736600Y546100D03*
X762000Y546100D03*
X787400Y546100D03*
D22*
X185166Y181610D03*
X193294Y181610D03*
D39*
X27178Y240030D03*
X27178Y280730D03*
D10*
X954180Y170300D03*
X954180Y175300D03*
D11*
X954180Y145550D03*
X954180Y153300D03*
D10*
X954180Y160300D03*
X954180Y165300D03*
X954180Y185300D03*
X954180Y180300D03*
D11*
X954180Y210050D03*
X954180Y202300D03*
D10*
X954180Y195300D03*
X954180Y190300D03*
D12*
X943130Y206700D03*
X943130Y148900D03*
D13*
X970280Y211700D03*
X970280Y194700D03*
X970280Y143900D03*
X970280Y160900D03*
D14*
X993550Y164050D03*
X1000050Y164050D03*
X1006550Y164050D03*
X1013050Y164050D03*
X1013050Y191550D03*
X1006550Y191550D03*
X1000050Y191550D03*
X993550Y191550D03*
D15*
X1003300Y177800D03*
D16*
X994800Y209804D03*
X1011800Y209804D03*
D17*
X939800Y45720D03*
X1710850Y513080D03*
D18*
X1732280Y533400D03*
X919480Y533400D03*
X1732280Y25400D03*
X919480Y25400D03*
D19*
X1608540Y384460D03*
D20*
X1527740Y388620D03*
X1550740Y388620D03*
D16*
X1547994Y405384D03*
X1530994Y405384D03*
D20*
X1527740Y372110D03*
X1550740Y372110D03*
D21*
X1046480Y19050D03*
X990600Y19050D03*
X1046480Y57150D03*
X990600Y57150D03*
D16*
X994800Y225044D03*
X1011800Y225044D03*
D22*
X1004062Y276606D03*
X1012190Y276606D03*
D23*
X952232Y248666D03*
X982232Y248666D03*
D24*
X1030762Y251206D03*
X1002762Y251206D03*
D13*
X1051560Y209940D03*
X1051560Y226940D03*
X1036574Y227194D03*
X1036574Y210194D03*
D22*
X1003300Y139700D03*
X1013460Y139700D03*
D25*
X995680Y139700D03*
X1021080Y139700D03*
D26*
X1105662Y252476D03*
X1105662Y265176D03*
X1105662Y277876D03*
X1105662Y290576D03*
X1105662Y239776D03*
X1092962Y252476D03*
X1092962Y265176D03*
X1092962Y277876D03*
X1092962Y290576D03*
X1092962Y239776D03*
D21*
X1125220Y19050D03*
X1069340Y19050D03*
X1125220Y57150D03*
X1069340Y57150D03*
D27*
X1449578Y239268D03*
D16*
X1032392Y185674D03*
X1049392Y185674D03*
D20*
X1029392Y168656D03*
X1052392Y168656D03*
D13*
X1041400Y140580D03*
X1041400Y123580D03*
X1056640Y140580D03*
X1056640Y123580D03*
X1071880Y140580D03*
X1071880Y123580D03*
D28*
X1249680Y179400D03*
D29*
X1249680Y379400D03*
D30*
X1196930Y186900D03*
D31*
X1204680Y175900D03*
X1204680Y382900D03*
D30*
X1272430Y189400D03*
X1196930Y191900D03*
X1272430Y194400D03*
X1196930Y196900D03*
X1272430Y199400D03*
X1196930Y201900D03*
X1272430Y204400D03*
X1196930Y206900D03*
X1272430Y209400D03*
X1196930Y211900D03*
X1272430Y214400D03*
X1196930Y216900D03*
X1272430Y219400D03*
X1196930Y221900D03*
X1272430Y224400D03*
X1196930Y226900D03*
X1272430Y229400D03*
X1196930Y231900D03*
X1272430Y234400D03*
X1196930Y236900D03*
X1272430Y239400D03*
X1196930Y241900D03*
X1272430Y264400D03*
X1196930Y266900D03*
X1272430Y269400D03*
X1196930Y271900D03*
X1272430Y274400D03*
X1196930Y276900D03*
X1272430Y279400D03*
X1196930Y281900D03*
X1272430Y284400D03*
X1196930Y286900D03*
X1272430Y289400D03*
X1196930Y291900D03*
X1272430Y294400D03*
X1196930Y296900D03*
X1272430Y299400D03*
X1196930Y301900D03*
X1272430Y304400D03*
X1196930Y306900D03*
X1272430Y309400D03*
X1196930Y311900D03*
X1272430Y314400D03*
X1196930Y316900D03*
X1272430Y319400D03*
X1196930Y321900D03*
X1272430Y324400D03*
X1196930Y326900D03*
X1272430Y329400D03*
X1196930Y331900D03*
X1272430Y334400D03*
X1196930Y336900D03*
X1272430Y339400D03*
X1196930Y341900D03*
X1272430Y344400D03*
X1196930Y346900D03*
X1272430Y349400D03*
X1196930Y351900D03*
X1272430Y354400D03*
X1196930Y356900D03*
X1272430Y359400D03*
X1196930Y361900D03*
X1272430Y364400D03*
X1196930Y366900D03*
X1272430Y369400D03*
X1196930Y371900D03*
D32*
X987580Y303403D03*
X987580Y434721D03*
D33*
X1029700Y379062D03*
X1029700Y404062D03*
X1029700Y359062D03*
X1029700Y334062D03*
D25*
X1744980Y381000D03*
X1744980Y355600D03*
X1744980Y330200D03*
X1744980Y304800D03*
D34*
X1440380Y67400D03*
X1440180Y34400D03*
X1465780Y67400D03*
X1465580Y34400D03*
X1414880Y67400D03*
X1414680Y34400D03*
X1389580Y67400D03*
X1389380Y34400D03*
X1364180Y67400D03*
X1363980Y34400D03*
X1338680Y67400D03*
X1338480Y34400D03*
X1287980Y67400D03*
X1287780Y34400D03*
X1313380Y67400D03*
X1313180Y34400D03*
D25*
X1465580Y12700D03*
X1440180Y12700D03*
X1414780Y12700D03*
X1389380Y12700D03*
X1363980Y12700D03*
X1338580Y12700D03*
X1313180Y12700D03*
X1287780Y12700D03*
D34*
X1656280Y67400D03*
X1656080Y34400D03*
X1681680Y67400D03*
X1681480Y34400D03*
X1630780Y67400D03*
X1630580Y34400D03*
X1605480Y67400D03*
X1605280Y34400D03*
X1580080Y67400D03*
X1579880Y34400D03*
X1554580Y67400D03*
X1554380Y34400D03*
X1503880Y67400D03*
X1503680Y34400D03*
X1529280Y67400D03*
X1529080Y34400D03*
D25*
X1681480Y12700D03*
X1656080Y12700D03*
X1630680Y12700D03*
X1605280Y12700D03*
X1579880Y12700D03*
X1554480Y12700D03*
X1529080Y12700D03*
X1503680Y12700D03*
D35*
X1743630Y403800D03*
X1743630Y459800D03*
D36*
X1706880Y416800D03*
X1706880Y426800D03*
X1706880Y436800D03*
X1706880Y446800D03*
D35*
X1743630Y73600D03*
X1743630Y129600D03*
D36*
X1706880Y86600D03*
X1706880Y96600D03*
X1706880Y106600D03*
X1706880Y116600D03*
D25*
X970430Y546100D03*
X995830Y546100D03*
X1021230Y546100D03*
X1046630Y546100D03*
D37*
X1690280Y355800D03*
X1723280Y355600D03*
X1690280Y381200D03*
X1723280Y381000D03*
X1690280Y330300D03*
X1723280Y330100D03*
X1690280Y305000D03*
X1723280Y304800D03*
D34*
X1312980Y491400D03*
X1313180Y524400D03*
X1287580Y491400D03*
X1287780Y524400D03*
X1338480Y491400D03*
X1338680Y524400D03*
X1363780Y491400D03*
X1363980Y524400D03*
X1389180Y491400D03*
X1389380Y524400D03*
X1414680Y491400D03*
X1414880Y524400D03*
X1465380Y491400D03*
X1465580Y524400D03*
X1439980Y491400D03*
X1440180Y524400D03*
X1528880Y491400D03*
X1529080Y524400D03*
X1503480Y491400D03*
X1503680Y524400D03*
X1554380Y491400D03*
X1554580Y524400D03*
X1579680Y491400D03*
X1579880Y524400D03*
X1605080Y491400D03*
X1605280Y524400D03*
X1630580Y491400D03*
X1630780Y524400D03*
X1681280Y491400D03*
X1681480Y524400D03*
X1655880Y491400D03*
X1656080Y524400D03*
X1224480Y67400D03*
X1224280Y34400D03*
X1249880Y67400D03*
X1249680Y34400D03*
X1198980Y67400D03*
X1198780Y34400D03*
X1173680Y67400D03*
X1173480Y34400D03*
D25*
X1173480Y12700D03*
X1198880Y12700D03*
X1224280Y12700D03*
X1249680Y12700D03*
X1062990Y398780D03*
X1062990Y373380D03*
X1062990Y347980D03*
X1062990Y322580D03*
D34*
X995480Y491400D03*
X995680Y524400D03*
X970080Y491400D03*
X970280Y524400D03*
X1020980Y491400D03*
X1021180Y524400D03*
X1046280Y491400D03*
X1046480Y524400D03*
X1071680Y491400D03*
X1071880Y524400D03*
X1097180Y491400D03*
X1097380Y524400D03*
X1147880Y491400D03*
X1148080Y524400D03*
X1122480Y491400D03*
X1122680Y524400D03*
X1173280Y491400D03*
X1173480Y524400D03*
X1198780Y491400D03*
X1198980Y524400D03*
X1249480Y491400D03*
X1249680Y524400D03*
X1224080Y491400D03*
X1224280Y524400D03*
D25*
X1249680Y546100D03*
X1224280Y546100D03*
X1198880Y546100D03*
X1173480Y546100D03*
X1148080Y546100D03*
X1122680Y546100D03*
X1097280Y546100D03*
X1071880Y546100D03*
D38*
X965400Y92390D02*
X965400Y85410D01*
X965400Y92390D02*
X972380Y92390D01*
X972380Y85410D01*
X965400Y85410D01*
X965400Y90210D02*
X972380Y90210D01*
X947860Y92390D02*
X947860Y85410D01*
X947860Y92390D02*
X954840Y92390D01*
X954840Y85410D01*
X947860Y85410D01*
X947860Y90210D02*
X954840Y90210D01*
X965400Y72070D02*
X965400Y65090D01*
X965400Y72070D02*
X972380Y72070D01*
X972380Y65090D01*
X965400Y65090D01*
X965400Y69890D02*
X972380Y69890D01*
X947860Y72070D02*
X947860Y65090D01*
X947860Y72070D02*
X954840Y72070D01*
X954840Y65090D01*
X947860Y65090D01*
X947860Y69890D02*
X954840Y69890D01*
D16*
X933060Y88900D03*
X916060Y88900D03*
X934330Y68580D03*
X917330Y68580D03*
D25*
X1744980Y254000D03*
X1744980Y228600D03*
X1744980Y203200D03*
X1744980Y177800D03*
X1744980Y152400D03*
D37*
X1690280Y228800D03*
X1723280Y228600D03*
X1690280Y254200D03*
X1723280Y254000D03*
X1690280Y203300D03*
X1723280Y203100D03*
X1690280Y178000D03*
X1723280Y177800D03*
X1690280Y152600D03*
X1723280Y152400D03*
D18*
X1529080Y228600D03*
X1529080Y330200D03*
D25*
X1287780Y546100D03*
X1313180Y546100D03*
X1338580Y546100D03*
X1363980Y546100D03*
X1389380Y546100D03*
X1414780Y546100D03*
X1440180Y546100D03*
X1465580Y546100D03*
X1503680Y546100D03*
X1529080Y546100D03*
X1554480Y546100D03*
X1579880Y546100D03*
X1605280Y546100D03*
X1630680Y546100D03*
X1656080Y546100D03*
X1681480Y546100D03*
D22*
X1079246Y181610D03*
X1087374Y181610D03*
D39*
X921258Y240030D03*
X921258Y280730D03*
D10*
X60100Y734180D03*
X60100Y739180D03*
D11*
X60100Y709430D03*
X60100Y717180D03*
D10*
X60100Y724180D03*
X60100Y729180D03*
X60100Y749180D03*
X60100Y744180D03*
D11*
X60100Y773930D03*
X60100Y766180D03*
D10*
X60100Y759180D03*
X60100Y754180D03*
D12*
X49050Y770580D03*
X49050Y712780D03*
D13*
X76200Y775580D03*
X76200Y758580D03*
X76200Y707780D03*
X76200Y724780D03*
D14*
X99470Y727930D03*
X105970Y727930D03*
X112470Y727930D03*
X118970Y727930D03*
X118970Y755430D03*
X112470Y755430D03*
X105970Y755430D03*
X99470Y755430D03*
D15*
X109220Y741680D03*
D16*
X100720Y773684D03*
X117720Y773684D03*
D17*
X45720Y609600D03*
X816770Y1076960D03*
D18*
X838200Y1097280D03*
X25400Y1097280D03*
X838200Y589280D03*
X25400Y589280D03*
D19*
X714460Y948340D03*
D20*
X633660Y952500D03*
X656660Y952500D03*
D16*
X653914Y969264D03*
X636914Y969264D03*
D20*
X633660Y935990D03*
X656660Y935990D03*
D21*
X152400Y582930D03*
X96520Y582930D03*
X152400Y621030D03*
X96520Y621030D03*
D16*
X100720Y788924D03*
X117720Y788924D03*
D22*
X109982Y840486D03*
X118110Y840486D03*
D23*
X58152Y812546D03*
X88152Y812546D03*
D24*
X136682Y815086D03*
X108682Y815086D03*
D13*
X157480Y773820D03*
X157480Y790820D03*
X142494Y791074D03*
X142494Y774074D03*
D22*
X109220Y703580D03*
X119380Y703580D03*
D25*
X101600Y703580D03*
X127000Y703580D03*
D26*
X211582Y816356D03*
X211582Y829056D03*
X211582Y841756D03*
X211582Y854456D03*
X211582Y803656D03*
X198882Y816356D03*
X198882Y829056D03*
X198882Y841756D03*
X198882Y854456D03*
X198882Y803656D03*
D21*
X231140Y582930D03*
X175260Y582930D03*
X231140Y621030D03*
X175260Y621030D03*
D27*
X555498Y803148D03*
D16*
X138312Y749554D03*
X155312Y749554D03*
D20*
X135312Y732536D03*
X158312Y732536D03*
D13*
X147320Y704460D03*
X147320Y687460D03*
X162560Y704460D03*
X162560Y687460D03*
X177800Y704460D03*
X177800Y687460D03*
D28*
X355600Y743280D03*
D29*
X355600Y943280D03*
D30*
X302850Y750780D03*
D31*
X310600Y739780D03*
X310600Y946780D03*
D30*
X378350Y753280D03*
X302850Y755780D03*
X378350Y758280D03*
X302850Y760780D03*
X378350Y763280D03*
X302850Y765780D03*
X378350Y768280D03*
X302850Y770780D03*
X378350Y773280D03*
X302850Y775780D03*
X378350Y778280D03*
X302850Y780780D03*
X378350Y783280D03*
X302850Y785780D03*
X378350Y788280D03*
X302850Y790780D03*
X378350Y793280D03*
X302850Y795780D03*
X378350Y798280D03*
X302850Y800780D03*
X378350Y803280D03*
X302850Y805780D03*
X378350Y828280D03*
X302850Y830780D03*
X378350Y833280D03*
X302850Y835780D03*
X378350Y838280D03*
X302850Y840780D03*
X378350Y843280D03*
X302850Y845780D03*
X378350Y848280D03*
X302850Y850780D03*
X378350Y853280D03*
X302850Y855780D03*
X378350Y858280D03*
X302850Y860780D03*
X378350Y863280D03*
X302850Y865780D03*
X378350Y868280D03*
X302850Y870780D03*
X378350Y873280D03*
X302850Y875780D03*
X378350Y878280D03*
X302850Y880780D03*
X378350Y883280D03*
X302850Y885780D03*
X378350Y888280D03*
X302850Y890780D03*
X378350Y893280D03*
X302850Y895780D03*
X378350Y898280D03*
X302850Y900780D03*
X378350Y903280D03*
X302850Y905780D03*
X378350Y908280D03*
X302850Y910780D03*
X378350Y913280D03*
X302850Y915780D03*
X378350Y918280D03*
X302850Y920780D03*
X378350Y923280D03*
X302850Y925780D03*
X378350Y928280D03*
X302850Y930780D03*
X378350Y933280D03*
X302850Y935780D03*
D32*
X93500Y867283D03*
X93500Y998601D03*
D33*
X135620Y942942D03*
X135620Y967942D03*
X135620Y922942D03*
X135620Y897942D03*
D25*
X850900Y944880D03*
X850900Y919480D03*
X850900Y894080D03*
X850900Y868680D03*
D34*
X546300Y631280D03*
X546100Y598280D03*
X571700Y631280D03*
X571500Y598280D03*
X520800Y631280D03*
X520600Y598280D03*
X495500Y631280D03*
X495300Y598280D03*
X470100Y631280D03*
X469900Y598280D03*
X444600Y631280D03*
X444400Y598280D03*
X393900Y631280D03*
X393700Y598280D03*
X419300Y631280D03*
X419100Y598280D03*
D25*
X571500Y576580D03*
X546100Y576580D03*
X520700Y576580D03*
X495300Y576580D03*
X469900Y576580D03*
X444500Y576580D03*
X419100Y576580D03*
X393700Y576580D03*
D34*
X762200Y631280D03*
X762000Y598280D03*
X787600Y631280D03*
X787400Y598280D03*
X736700Y631280D03*
X736500Y598280D03*
X711400Y631280D03*
X711200Y598280D03*
X686000Y631280D03*
X685800Y598280D03*
X660500Y631280D03*
X660300Y598280D03*
X609800Y631280D03*
X609600Y598280D03*
X635200Y631280D03*
X635000Y598280D03*
D25*
X787400Y576580D03*
X762000Y576580D03*
X736600Y576580D03*
X711200Y576580D03*
X685800Y576580D03*
X660400Y576580D03*
X635000Y576580D03*
X609600Y576580D03*
D35*
X849550Y967680D03*
X849550Y1023680D03*
D36*
X812800Y980680D03*
X812800Y990680D03*
X812800Y1000680D03*
X812800Y1010680D03*
D35*
X849550Y637480D03*
X849550Y693480D03*
D36*
X812800Y650480D03*
X812800Y660480D03*
X812800Y670480D03*
X812800Y680480D03*
D25*
X76350Y1109980D03*
X101750Y1109980D03*
X127150Y1109980D03*
X152550Y1109980D03*
D37*
X796200Y919680D03*
X829200Y919480D03*
X796200Y945080D03*
X829200Y944880D03*
X796200Y894180D03*
X829200Y893980D03*
X796200Y868880D03*
X829200Y868680D03*
D34*
X418900Y1055280D03*
X419100Y1088280D03*
X393500Y1055280D03*
X393700Y1088280D03*
X444400Y1055280D03*
X444600Y1088280D03*
X469700Y1055280D03*
X469900Y1088280D03*
X495100Y1055280D03*
X495300Y1088280D03*
X520600Y1055280D03*
X520800Y1088280D03*
X571300Y1055280D03*
X571500Y1088280D03*
X545900Y1055280D03*
X546100Y1088280D03*
X634800Y1055280D03*
X635000Y1088280D03*
X609400Y1055280D03*
X609600Y1088280D03*
X660300Y1055280D03*
X660500Y1088280D03*
X685600Y1055280D03*
X685800Y1088280D03*
X711000Y1055280D03*
X711200Y1088280D03*
X736500Y1055280D03*
X736700Y1088280D03*
X787200Y1055280D03*
X787400Y1088280D03*
X761800Y1055280D03*
X762000Y1088280D03*
X330400Y631280D03*
X330200Y598280D03*
X355800Y631280D03*
X355600Y598280D03*
X304900Y631280D03*
X304700Y598280D03*
X279600Y631280D03*
X279400Y598280D03*
D25*
X279400Y576580D03*
X304800Y576580D03*
X330200Y576580D03*
X355600Y576580D03*
X168910Y962660D03*
X168910Y937260D03*
X168910Y911860D03*
X168910Y886460D03*
D34*
X101400Y1055280D03*
X101600Y1088280D03*
X76000Y1055280D03*
X76200Y1088280D03*
X126900Y1055280D03*
X127100Y1088280D03*
X152200Y1055280D03*
X152400Y1088280D03*
X177600Y1055280D03*
X177800Y1088280D03*
X203100Y1055280D03*
X203300Y1088280D03*
X253800Y1055280D03*
X254000Y1088280D03*
X228400Y1055280D03*
X228600Y1088280D03*
X279200Y1055280D03*
X279400Y1088280D03*
X304700Y1055280D03*
X304900Y1088280D03*
X355400Y1055280D03*
X355600Y1088280D03*
X330000Y1055280D03*
X330200Y1088280D03*
D25*
X355600Y1109980D03*
X330200Y1109980D03*
X304800Y1109980D03*
X279400Y1109980D03*
X254000Y1109980D03*
X228600Y1109980D03*
X203200Y1109980D03*
X177800Y1109980D03*
D38*
X71320Y656270D02*
X71320Y649290D01*
X71320Y656270D02*
X78300Y656270D01*
X78300Y649290D01*
X71320Y649290D01*
X71320Y654090D02*
X78300Y654090D01*
X53780Y656270D02*
X53780Y649290D01*
X53780Y656270D02*
X60760Y656270D01*
X60760Y649290D01*
X53780Y649290D01*
X53780Y654090D02*
X60760Y654090D01*
X71320Y635950D02*
X71320Y628970D01*
X71320Y635950D02*
X78300Y635950D01*
X78300Y628970D01*
X71320Y628970D01*
X71320Y633770D02*
X78300Y633770D01*
X53780Y635950D02*
X53780Y628970D01*
X53780Y635950D02*
X60760Y635950D01*
X60760Y628970D01*
X53780Y628970D01*
X53780Y633770D02*
X60760Y633770D01*
D16*
X38980Y652780D03*
X21980Y652780D03*
X40250Y632460D03*
X23250Y632460D03*
D25*
X850900Y817880D03*
X850900Y792480D03*
X850900Y767080D03*
X850900Y741680D03*
X850900Y716280D03*
D37*
X796200Y792680D03*
X829200Y792480D03*
X796200Y818080D03*
X829200Y817880D03*
X796200Y767180D03*
X829200Y766980D03*
X796200Y741880D03*
X829200Y741680D03*
X796200Y716480D03*
X829200Y716280D03*
D18*
X635000Y792480D03*
X635000Y894080D03*
D25*
X393700Y1109980D03*
X419100Y1109980D03*
X444500Y1109980D03*
X469900Y1109980D03*
X495300Y1109980D03*
X520700Y1109980D03*
X546100Y1109980D03*
X571500Y1109980D03*
X609600Y1109980D03*
X635000Y1109980D03*
X660400Y1109980D03*
X685800Y1109980D03*
X711200Y1109980D03*
X736600Y1109980D03*
X762000Y1109980D03*
X787400Y1109980D03*
D22*
X185166Y745490D03*
X193294Y745490D03*
D39*
X27178Y803910D03*
X27178Y844610D03*
D10*
X954180Y734180D03*
X954180Y739180D03*
D11*
X954180Y709430D03*
X954180Y717180D03*
D10*
X954180Y724180D03*
X954180Y729180D03*
X954180Y749180D03*
X954180Y744180D03*
D11*
X954180Y773930D03*
X954180Y766180D03*
D10*
X954180Y759180D03*
X954180Y754180D03*
D12*
X943130Y770580D03*
X943130Y712780D03*
D13*
X970280Y775580D03*
X970280Y758580D03*
X970280Y707780D03*
X970280Y724780D03*
D14*
X993550Y727930D03*
X1000050Y727930D03*
X1006550Y727930D03*
X1013050Y727930D03*
X1013050Y755430D03*
X1006550Y755430D03*
X1000050Y755430D03*
X993550Y755430D03*
D15*
X1003300Y741680D03*
D16*
X994800Y773684D03*
X1011800Y773684D03*
D17*
X939800Y609600D03*
X1710850Y1076960D03*
D18*
X1732280Y1097280D03*
X919480Y1097280D03*
X1732280Y589280D03*
X919480Y589280D03*
D19*
X1608540Y948340D03*
D20*
X1527740Y952500D03*
X1550740Y952500D03*
D16*
X1547994Y969264D03*
X1530994Y969264D03*
D20*
X1527740Y935990D03*
X1550740Y935990D03*
D21*
X1046480Y582930D03*
X990600Y582930D03*
X1046480Y621030D03*
X990600Y621030D03*
D16*
X994800Y788924D03*
X1011800Y788924D03*
D22*
X1004062Y840486D03*
X1012190Y840486D03*
D23*
X952232Y812546D03*
X982232Y812546D03*
D24*
X1030762Y815086D03*
X1002762Y815086D03*
D13*
X1051560Y773820D03*
X1051560Y790820D03*
X1036574Y791074D03*
X1036574Y774074D03*
D22*
X1003300Y703580D03*
X1013460Y703580D03*
D25*
X995680Y703580D03*
X1021080Y703580D03*
D26*
X1105662Y816356D03*
X1105662Y829056D03*
X1105662Y841756D03*
X1105662Y854456D03*
X1105662Y803656D03*
X1092962Y816356D03*
X1092962Y829056D03*
X1092962Y841756D03*
X1092962Y854456D03*
X1092962Y803656D03*
D21*
X1125220Y582930D03*
X1069340Y582930D03*
X1125220Y621030D03*
X1069340Y621030D03*
D27*
X1449578Y803148D03*
D16*
X1032392Y749554D03*
X1049392Y749554D03*
D20*
X1029392Y732536D03*
X1052392Y732536D03*
D13*
X1041400Y704460D03*
X1041400Y687460D03*
X1056640Y704460D03*
X1056640Y687460D03*
X1071880Y704460D03*
X1071880Y687460D03*
D28*
X1249680Y743280D03*
D29*
X1249680Y943280D03*
D30*
X1196930Y750780D03*
D31*
X1204680Y739780D03*
X1204680Y946780D03*
D30*
X1272430Y753280D03*
X1196930Y755780D03*
X1272430Y758280D03*
X1196930Y760780D03*
X1272430Y763280D03*
X1196930Y765780D03*
X1272430Y768280D03*
X1196930Y770780D03*
X1272430Y773280D03*
X1196930Y775780D03*
X1272430Y778280D03*
X1196930Y780780D03*
X1272430Y783280D03*
X1196930Y785780D03*
X1272430Y788280D03*
X1196930Y790780D03*
X1272430Y793280D03*
X1196930Y795780D03*
X1272430Y798280D03*
X1196930Y800780D03*
X1272430Y803280D03*
X1196930Y805780D03*
X1272430Y828280D03*
X1196930Y830780D03*
X1272430Y833280D03*
X1196930Y835780D03*
X1272430Y838280D03*
X1196930Y840780D03*
X1272430Y843280D03*
X1196930Y845780D03*
X1272430Y848280D03*
X1196930Y850780D03*
X1272430Y853280D03*
X1196930Y855780D03*
X1272430Y858280D03*
X1196930Y860780D03*
X1272430Y863280D03*
X1196930Y865780D03*
X1272430Y868280D03*
X1196930Y870780D03*
X1272430Y873280D03*
X1196930Y875780D03*
X1272430Y878280D03*
X1196930Y880780D03*
X1272430Y883280D03*
X1196930Y885780D03*
X1272430Y888280D03*
X1196930Y890780D03*
X1272430Y893280D03*
X1196930Y895780D03*
X1272430Y898280D03*
X1196930Y900780D03*
X1272430Y903280D03*
X1196930Y905780D03*
X1272430Y908280D03*
X1196930Y910780D03*
X1272430Y913280D03*
X1196930Y915780D03*
X1272430Y918280D03*
X1196930Y920780D03*
X1272430Y923280D03*
X1196930Y925780D03*
X1272430Y928280D03*
X1196930Y930780D03*
X1272430Y933280D03*
X1196930Y935780D03*
D32*
X987580Y867283D03*
X987580Y998601D03*
D33*
X1029700Y942942D03*
X1029700Y967942D03*
X1029700Y922942D03*
X1029700Y897942D03*
D25*
X1744980Y944880D03*
X1744980Y919480D03*
X1744980Y894080D03*
X1744980Y868680D03*
D34*
X1440380Y631280D03*
X1440180Y598280D03*
X1465780Y631280D03*
X1465580Y598280D03*
X1414880Y631280D03*
X1414680Y598280D03*
X1389580Y631280D03*
X1389380Y598280D03*
X1364180Y631280D03*
X1363980Y598280D03*
X1338680Y631280D03*
X1338480Y598280D03*
X1287980Y631280D03*
X1287780Y598280D03*
X1313380Y631280D03*
X1313180Y598280D03*
D25*
X1465580Y576580D03*
X1440180Y576580D03*
X1414780Y576580D03*
X1389380Y576580D03*
X1363980Y576580D03*
X1338580Y576580D03*
X1313180Y576580D03*
X1287780Y576580D03*
D34*
X1656280Y631280D03*
X1656080Y598280D03*
X1681680Y631280D03*
X1681480Y598280D03*
X1630780Y631280D03*
X1630580Y598280D03*
X1605480Y631280D03*
X1605280Y598280D03*
X1580080Y631280D03*
X1579880Y598280D03*
X1554580Y631280D03*
X1554380Y598280D03*
X1503880Y631280D03*
X1503680Y598280D03*
X1529280Y631280D03*
X1529080Y598280D03*
D25*
X1681480Y576580D03*
X1656080Y576580D03*
X1630680Y576580D03*
X1605280Y576580D03*
X1579880Y576580D03*
X1554480Y576580D03*
X1529080Y576580D03*
X1503680Y576580D03*
D35*
X1743630Y967680D03*
X1743630Y1023680D03*
D36*
X1706880Y980680D03*
X1706880Y990680D03*
X1706880Y1000680D03*
X1706880Y1010680D03*
D35*
X1743630Y637480D03*
X1743630Y693480D03*
D36*
X1706880Y650480D03*
X1706880Y660480D03*
X1706880Y670480D03*
X1706880Y680480D03*
D25*
X970430Y1109980D03*
X995830Y1109980D03*
X1021230Y1109980D03*
X1046630Y1109980D03*
D37*
X1690280Y919680D03*
X1723280Y919480D03*
X1690280Y945080D03*
X1723280Y944880D03*
X1690280Y894180D03*
X1723280Y893980D03*
X1690280Y868880D03*
X1723280Y868680D03*
D34*
X1312980Y1055280D03*
X1313180Y1088280D03*
X1287580Y1055280D03*
X1287780Y1088280D03*
X1338480Y1055280D03*
X1338680Y1088280D03*
X1363780Y1055280D03*
X1363980Y1088280D03*
X1389180Y1055280D03*
X1389380Y1088280D03*
X1414680Y1055280D03*
X1414880Y1088280D03*
X1465380Y1055280D03*
X1465580Y1088280D03*
X1439980Y1055280D03*
X1440180Y1088280D03*
X1528880Y1055280D03*
X1529080Y1088280D03*
X1503480Y1055280D03*
X1503680Y1088280D03*
X1554380Y1055280D03*
X1554580Y1088280D03*
X1579680Y1055280D03*
X1579880Y1088280D03*
X1605080Y1055280D03*
X1605280Y1088280D03*
X1630580Y1055280D03*
X1630780Y1088280D03*
X1681280Y1055280D03*
X1681480Y1088280D03*
X1655880Y1055280D03*
X1656080Y1088280D03*
X1224480Y631280D03*
X1224280Y598280D03*
X1249880Y631280D03*
X1249680Y598280D03*
X1198980Y631280D03*
X1198780Y598280D03*
X1173680Y631280D03*
X1173480Y598280D03*
D25*
X1173480Y576580D03*
X1198880Y576580D03*
X1224280Y576580D03*
X1249680Y576580D03*
X1062990Y962660D03*
X1062990Y937260D03*
X1062990Y911860D03*
X1062990Y886460D03*
D34*
X995480Y1055280D03*
X995680Y1088280D03*
X970080Y1055280D03*
X970280Y1088280D03*
X1020980Y1055280D03*
X1021180Y1088280D03*
X1046280Y1055280D03*
X1046480Y1088280D03*
X1071680Y1055280D03*
X1071880Y1088280D03*
X1097180Y1055280D03*
X1097380Y1088280D03*
X1147880Y1055280D03*
X1148080Y1088280D03*
X1122480Y1055280D03*
X1122680Y1088280D03*
X1173280Y1055280D03*
X1173480Y1088280D03*
X1198780Y1055280D03*
X1198980Y1088280D03*
X1249480Y1055280D03*
X1249680Y1088280D03*
X1224080Y1055280D03*
X1224280Y1088280D03*
D25*
X1249680Y1109980D03*
X1224280Y1109980D03*
X1198880Y1109980D03*
X1173480Y1109980D03*
X1148080Y1109980D03*
X1122680Y1109980D03*
X1097280Y1109980D03*
X1071880Y1109980D03*
D38*
X965400Y656270D02*
X965400Y649290D01*
X965400Y656270D02*
X972380Y656270D01*
X972380Y649290D01*
X965400Y649290D01*
X965400Y654090D02*
X972380Y654090D01*
X947860Y656270D02*
X947860Y649290D01*
X947860Y656270D02*
X954840Y656270D01*
X954840Y649290D01*
X947860Y649290D01*
X947860Y654090D02*
X954840Y654090D01*
X965400Y635950D02*
X965400Y628970D01*
X965400Y635950D02*
X972380Y635950D01*
X972380Y628970D01*
X965400Y628970D01*
X965400Y633770D02*
X972380Y633770D01*
X947860Y635950D02*
X947860Y628970D01*
X947860Y635950D02*
X954840Y635950D01*
X954840Y628970D01*
X947860Y628970D01*
X947860Y633770D02*
X954840Y633770D01*
D16*
X933060Y652780D03*
X916060Y652780D03*
X934330Y632460D03*
X917330Y632460D03*
D25*
X1744980Y817880D03*
X1744980Y792480D03*
X1744980Y767080D03*
X1744980Y741680D03*
X1744980Y716280D03*
D37*
X1690280Y792680D03*
X1723280Y792480D03*
X1690280Y818080D03*
X1723280Y817880D03*
X1690280Y767180D03*
X1723280Y766980D03*
X1690280Y741880D03*
X1723280Y741680D03*
X1690280Y716480D03*
X1723280Y716280D03*
D18*
X1529080Y792480D03*
X1529080Y894080D03*
D25*
X1287780Y1109980D03*
X1313180Y1109980D03*
X1338580Y1109980D03*
X1363980Y1109980D03*
X1389380Y1109980D03*
X1414780Y1109980D03*
X1440180Y1109980D03*
X1465580Y1109980D03*
X1503680Y1109980D03*
X1529080Y1109980D03*
X1554480Y1109980D03*
X1579880Y1109980D03*
X1605280Y1109980D03*
X1630680Y1109980D03*
X1656080Y1109980D03*
X1681480Y1109980D03*
D22*
X1079246Y745490D03*
X1087374Y745490D03*
D39*
X921258Y803910D03*
X921258Y844610D03*
D26*
X93980Y1143635D03*
X1739265Y1143635D03*
D40*
X84925Y-20955D02*
X84928Y-20733D01*
X84936Y-20511D01*
X84950Y-20289D01*
X84969Y-20067D01*
X84993Y-19847D01*
X85023Y-19626D01*
X85058Y-19407D01*
X85099Y-19188D01*
X85145Y-18971D01*
X85196Y-18755D01*
X85253Y-18540D01*
X85315Y-18326D01*
X85382Y-18115D01*
X85454Y-17904D01*
X85532Y-17696D01*
X85614Y-17490D01*
X85702Y-17286D01*
X85794Y-17083D01*
X85892Y-16884D01*
X85994Y-16687D01*
X86101Y-16492D01*
X86213Y-16300D01*
X86330Y-16111D01*
X86451Y-15924D01*
X86577Y-15741D01*
X86707Y-15561D01*
X86842Y-15384D01*
X86980Y-15211D01*
X87123Y-15041D01*
X87271Y-14874D01*
X87422Y-14711D01*
X87577Y-14552D01*
X87736Y-14397D01*
X87899Y-14246D01*
X88066Y-14098D01*
X88236Y-13955D01*
X88409Y-13817D01*
X88586Y-13682D01*
X88766Y-13552D01*
X88949Y-13426D01*
X89136Y-13305D01*
X89325Y-13188D01*
X89517Y-13076D01*
X89712Y-12969D01*
X89909Y-12867D01*
X90108Y-12769D01*
X90311Y-12677D01*
X90515Y-12589D01*
X90721Y-12507D01*
X90929Y-12429D01*
X91140Y-12357D01*
X91351Y-12290D01*
X91565Y-12228D01*
X91780Y-12171D01*
X91996Y-12120D01*
X92213Y-12074D01*
X92432Y-12033D01*
X92651Y-11998D01*
X92872Y-11968D01*
X93092Y-11944D01*
X93314Y-11925D01*
X93536Y-11911D01*
X93758Y-11903D01*
X93980Y-11900D01*
X94202Y-11903D01*
X94424Y-11911D01*
X94646Y-11925D01*
X94868Y-11944D01*
X95088Y-11968D01*
X95309Y-11998D01*
X95528Y-12033D01*
X95747Y-12074D01*
X95964Y-12120D01*
X96180Y-12171D01*
X96395Y-12228D01*
X96609Y-12290D01*
X96820Y-12357D01*
X97031Y-12429D01*
X97239Y-12507D01*
X97445Y-12589D01*
X97649Y-12677D01*
X97852Y-12769D01*
X98051Y-12867D01*
X98248Y-12969D01*
X98443Y-13076D01*
X98635Y-13188D01*
X98824Y-13305D01*
X99011Y-13426D01*
X99194Y-13552D01*
X99374Y-13682D01*
X99551Y-13817D01*
X99724Y-13955D01*
X99894Y-14098D01*
X100061Y-14246D01*
X100224Y-14397D01*
X100383Y-14552D01*
X100538Y-14711D01*
X100689Y-14874D01*
X100837Y-15041D01*
X100980Y-15211D01*
X101118Y-15384D01*
X101253Y-15561D01*
X101383Y-15741D01*
X101509Y-15924D01*
X101630Y-16111D01*
X101747Y-16300D01*
X101859Y-16492D01*
X101966Y-16687D01*
X102068Y-16884D01*
X102166Y-17083D01*
X102258Y-17286D01*
X102346Y-17490D01*
X102428Y-17696D01*
X102506Y-17904D01*
X102578Y-18115D01*
X102645Y-18326D01*
X102707Y-18540D01*
X102764Y-18755D01*
X102815Y-18971D01*
X102861Y-19188D01*
X102902Y-19407D01*
X102937Y-19626D01*
X102967Y-19847D01*
X102991Y-20067D01*
X103010Y-20289D01*
X103024Y-20511D01*
X103032Y-20733D01*
X103035Y-20955D01*
X103032Y-21177D01*
X103024Y-21399D01*
X103010Y-21621D01*
X102991Y-21843D01*
X102967Y-22063D01*
X102937Y-22284D01*
X102902Y-22503D01*
X102861Y-22722D01*
X102815Y-22939D01*
X102764Y-23155D01*
X102707Y-23370D01*
X102645Y-23584D01*
X102578Y-23795D01*
X102506Y-24006D01*
X102428Y-24214D01*
X102346Y-24420D01*
X102258Y-24624D01*
X102166Y-24827D01*
X102068Y-25026D01*
X101966Y-25223D01*
X101859Y-25418D01*
X101747Y-25610D01*
X101630Y-25799D01*
X101509Y-25986D01*
X101383Y-26169D01*
X101253Y-26349D01*
X101118Y-26526D01*
X100980Y-26699D01*
X100837Y-26869D01*
X100689Y-27036D01*
X100538Y-27199D01*
X100383Y-27358D01*
X100224Y-27513D01*
X100061Y-27664D01*
X99894Y-27812D01*
X99724Y-27955D01*
X99551Y-28093D01*
X99374Y-28228D01*
X99194Y-28358D01*
X99011Y-28484D01*
X98824Y-28605D01*
X98635Y-28722D01*
X98443Y-28834D01*
X98248Y-28941D01*
X98051Y-29043D01*
X97852Y-29141D01*
X97649Y-29233D01*
X97445Y-29321D01*
X97239Y-29403D01*
X97031Y-29481D01*
X96820Y-29553D01*
X96609Y-29620D01*
X96395Y-29682D01*
X96180Y-29739D01*
X95964Y-29790D01*
X95747Y-29836D01*
X95528Y-29877D01*
X95309Y-29912D01*
X95088Y-29942D01*
X94868Y-29966D01*
X94646Y-29985D01*
X94424Y-29999D01*
X94202Y-30007D01*
X93980Y-30010D01*
X93758Y-30007D01*
X93536Y-29999D01*
X93314Y-29985D01*
X93092Y-29966D01*
X92872Y-29942D01*
X92651Y-29912D01*
X92432Y-29877D01*
X92213Y-29836D01*
X91996Y-29790D01*
X91780Y-29739D01*
X91565Y-29682D01*
X91351Y-29620D01*
X91140Y-29553D01*
X90929Y-29481D01*
X90721Y-29403D01*
X90515Y-29321D01*
X90311Y-29233D01*
X90108Y-29141D01*
X89909Y-29043D01*
X89712Y-28941D01*
X89517Y-28834D01*
X89325Y-28722D01*
X89136Y-28605D01*
X88949Y-28484D01*
X88766Y-28358D01*
X88586Y-28228D01*
X88409Y-28093D01*
X88236Y-27955D01*
X88066Y-27812D01*
X87899Y-27664D01*
X87736Y-27513D01*
X87577Y-27358D01*
X87422Y-27199D01*
X87271Y-27036D01*
X87123Y-26869D01*
X86980Y-26699D01*
X86842Y-26526D01*
X86707Y-26349D01*
X86577Y-26169D01*
X86451Y-25986D01*
X86330Y-25799D01*
X86213Y-25610D01*
X86101Y-25418D01*
X85994Y-25223D01*
X85892Y-25026D01*
X85794Y-24827D01*
X85702Y-24624D01*
X85614Y-24420D01*
X85532Y-24214D01*
X85454Y-24006D01*
X85382Y-23795D01*
X85315Y-23584D01*
X85253Y-23370D01*
X85196Y-23155D01*
X85145Y-22939D01*
X85099Y-22722D01*
X85058Y-22503D01*
X85023Y-22284D01*
X84993Y-22063D01*
X84969Y-21843D01*
X84950Y-21621D01*
X84936Y-21399D01*
X84928Y-21177D01*
X84925Y-20955D01*
D41*
X93980Y-20955D03*
M02*
