G04 EAGLE Gerber RS-274X export*
G75*
%MOMM*%
%FSLAX34Y34*%
%LPD*%
%INSoldermask Bottom*%
%IPPOS*%
%AMOC8*
5,1,8,0,0,1.08239X$1,22.5*%
G01*
%ADD10C,0.853200*%
%ADD11C,0.838200*%
%ADD12C,3.505200*%
%ADD13C,2.082800*%
%ADD14C,1.203200*%
%ADD15C,6.203200*%
%ADD16C,1.303200*%
%ADD17C,1.803200*%
%ADD18C,3.530600*%
%ADD19R,0.863600X1.473200*%
%ADD20C,1.473200*%
%ADD21C,1.270000*%
%ADD22C,1.703200*%

G36*
X962090Y650887D02*
X962090Y650887D01*
X962156Y650889D01*
X962199Y650907D01*
X962246Y650915D01*
X962303Y650949D01*
X962363Y650974D01*
X962398Y651005D01*
X962439Y651030D01*
X962481Y651081D01*
X962529Y651125D01*
X962551Y651167D01*
X962580Y651204D01*
X962601Y651266D01*
X962632Y651325D01*
X962640Y651379D01*
X962652Y651416D01*
X962651Y651456D01*
X962659Y651510D01*
X962659Y654050D01*
X962648Y654115D01*
X962646Y654181D01*
X962628Y654224D01*
X962620Y654271D01*
X962586Y654328D01*
X962561Y654388D01*
X962530Y654423D01*
X962505Y654464D01*
X962454Y654506D01*
X962410Y654554D01*
X962368Y654576D01*
X962331Y654605D01*
X962269Y654626D01*
X962210Y654657D01*
X962156Y654665D01*
X962119Y654677D01*
X962079Y654676D01*
X962025Y654684D01*
X958215Y654684D01*
X958150Y654673D01*
X958084Y654671D01*
X958041Y654653D01*
X957994Y654645D01*
X957937Y654611D01*
X957877Y654586D01*
X957842Y654555D01*
X957801Y654530D01*
X957760Y654479D01*
X957711Y654435D01*
X957689Y654393D01*
X957660Y654356D01*
X957639Y654294D01*
X957608Y654235D01*
X957600Y654181D01*
X957588Y654144D01*
X957588Y654141D01*
X957589Y654104D01*
X957581Y654050D01*
X957581Y651510D01*
X957592Y651445D01*
X957594Y651379D01*
X957612Y651336D01*
X957620Y651289D01*
X957654Y651232D01*
X957679Y651172D01*
X957710Y651137D01*
X957735Y651096D01*
X957786Y651055D01*
X957830Y651006D01*
X957872Y650984D01*
X957909Y650955D01*
X957971Y650934D01*
X958030Y650903D01*
X958084Y650895D01*
X958121Y650883D01*
X958161Y650884D01*
X958215Y650876D01*
X962025Y650876D01*
X962090Y650887D01*
G37*
G36*
X68010Y650887D02*
X68010Y650887D01*
X68076Y650889D01*
X68119Y650907D01*
X68166Y650915D01*
X68223Y650949D01*
X68283Y650974D01*
X68318Y651005D01*
X68359Y651030D01*
X68401Y651081D01*
X68449Y651125D01*
X68471Y651167D01*
X68500Y651204D01*
X68521Y651266D01*
X68552Y651325D01*
X68560Y651379D01*
X68572Y651416D01*
X68571Y651456D01*
X68579Y651510D01*
X68579Y654050D01*
X68568Y654115D01*
X68566Y654181D01*
X68548Y654224D01*
X68540Y654271D01*
X68506Y654328D01*
X68481Y654388D01*
X68450Y654423D01*
X68425Y654464D01*
X68374Y654506D01*
X68330Y654554D01*
X68288Y654576D01*
X68251Y654605D01*
X68189Y654626D01*
X68130Y654657D01*
X68076Y654665D01*
X68039Y654677D01*
X67999Y654676D01*
X67945Y654684D01*
X64135Y654684D01*
X64070Y654673D01*
X64004Y654671D01*
X63961Y654653D01*
X63914Y654645D01*
X63857Y654611D01*
X63797Y654586D01*
X63762Y654555D01*
X63721Y654530D01*
X63680Y654479D01*
X63631Y654435D01*
X63609Y654393D01*
X63580Y654356D01*
X63559Y654294D01*
X63528Y654235D01*
X63520Y654181D01*
X63508Y654144D01*
X63508Y654141D01*
X63509Y654104D01*
X63501Y654050D01*
X63501Y651510D01*
X63512Y651445D01*
X63514Y651379D01*
X63532Y651336D01*
X63540Y651289D01*
X63574Y651232D01*
X63599Y651172D01*
X63630Y651137D01*
X63655Y651096D01*
X63706Y651055D01*
X63750Y651006D01*
X63792Y650984D01*
X63829Y650955D01*
X63891Y650934D01*
X63950Y650903D01*
X64004Y650895D01*
X64041Y650883D01*
X64081Y650884D01*
X64135Y650876D01*
X67945Y650876D01*
X68010Y650887D01*
G37*
G36*
X962090Y630567D02*
X962090Y630567D01*
X962156Y630569D01*
X962199Y630587D01*
X962246Y630595D01*
X962303Y630629D01*
X962363Y630654D01*
X962398Y630685D01*
X962439Y630710D01*
X962481Y630761D01*
X962529Y630805D01*
X962551Y630847D01*
X962580Y630884D01*
X962601Y630946D01*
X962632Y631005D01*
X962640Y631059D01*
X962652Y631096D01*
X962651Y631136D01*
X962659Y631190D01*
X962659Y633730D01*
X962648Y633795D01*
X962646Y633861D01*
X962628Y633904D01*
X962620Y633951D01*
X962586Y634008D01*
X962561Y634068D01*
X962530Y634103D01*
X962505Y634144D01*
X962454Y634186D01*
X962410Y634234D01*
X962368Y634256D01*
X962331Y634285D01*
X962269Y634306D01*
X962210Y634337D01*
X962156Y634345D01*
X962119Y634357D01*
X962079Y634356D01*
X962025Y634364D01*
X958215Y634364D01*
X958150Y634353D01*
X958084Y634351D01*
X958041Y634333D01*
X957994Y634325D01*
X957937Y634291D01*
X957877Y634266D01*
X957842Y634235D01*
X957801Y634210D01*
X957760Y634159D01*
X957711Y634115D01*
X957689Y634073D01*
X957660Y634036D01*
X957639Y633974D01*
X957608Y633915D01*
X957600Y633861D01*
X957588Y633824D01*
X957588Y633821D01*
X957589Y633784D01*
X957581Y633730D01*
X957581Y631190D01*
X957592Y631125D01*
X957594Y631059D01*
X957612Y631016D01*
X957620Y630969D01*
X957654Y630912D01*
X957679Y630852D01*
X957710Y630817D01*
X957735Y630776D01*
X957786Y630735D01*
X957830Y630686D01*
X957872Y630664D01*
X957909Y630635D01*
X957971Y630614D01*
X958030Y630583D01*
X958084Y630575D01*
X958121Y630563D01*
X958161Y630564D01*
X958215Y630556D01*
X962025Y630556D01*
X962090Y630567D01*
G37*
G36*
X68010Y630567D02*
X68010Y630567D01*
X68076Y630569D01*
X68119Y630587D01*
X68166Y630595D01*
X68223Y630629D01*
X68283Y630654D01*
X68318Y630685D01*
X68359Y630710D01*
X68401Y630761D01*
X68449Y630805D01*
X68471Y630847D01*
X68500Y630884D01*
X68521Y630946D01*
X68552Y631005D01*
X68560Y631059D01*
X68572Y631096D01*
X68571Y631136D01*
X68579Y631190D01*
X68579Y633730D01*
X68568Y633795D01*
X68566Y633861D01*
X68548Y633904D01*
X68540Y633951D01*
X68506Y634008D01*
X68481Y634068D01*
X68450Y634103D01*
X68425Y634144D01*
X68374Y634186D01*
X68330Y634234D01*
X68288Y634256D01*
X68251Y634285D01*
X68189Y634306D01*
X68130Y634337D01*
X68076Y634345D01*
X68039Y634357D01*
X67999Y634356D01*
X67945Y634364D01*
X64135Y634364D01*
X64070Y634353D01*
X64004Y634351D01*
X63961Y634333D01*
X63914Y634325D01*
X63857Y634291D01*
X63797Y634266D01*
X63762Y634235D01*
X63721Y634210D01*
X63680Y634159D01*
X63631Y634115D01*
X63609Y634073D01*
X63580Y634036D01*
X63559Y633974D01*
X63528Y633915D01*
X63520Y633861D01*
X63508Y633824D01*
X63508Y633821D01*
X63509Y633784D01*
X63501Y633730D01*
X63501Y631190D01*
X63512Y631125D01*
X63514Y631059D01*
X63532Y631016D01*
X63540Y630969D01*
X63574Y630912D01*
X63599Y630852D01*
X63630Y630817D01*
X63655Y630776D01*
X63706Y630735D01*
X63750Y630686D01*
X63792Y630664D01*
X63829Y630635D01*
X63891Y630614D01*
X63950Y630583D01*
X64004Y630575D01*
X64041Y630563D01*
X64081Y630564D01*
X64135Y630556D01*
X67945Y630556D01*
X68010Y630567D01*
G37*
G36*
X962090Y87007D02*
X962090Y87007D01*
X962156Y87009D01*
X962199Y87027D01*
X962246Y87035D01*
X962303Y87069D01*
X962363Y87094D01*
X962398Y87125D01*
X962439Y87150D01*
X962481Y87201D01*
X962529Y87245D01*
X962551Y87287D01*
X962580Y87324D01*
X962601Y87386D01*
X962632Y87445D01*
X962640Y87499D01*
X962652Y87536D01*
X962651Y87576D01*
X962659Y87630D01*
X962659Y90170D01*
X962648Y90235D01*
X962646Y90301D01*
X962628Y90344D01*
X962620Y90391D01*
X962586Y90448D01*
X962561Y90508D01*
X962530Y90543D01*
X962505Y90584D01*
X962454Y90626D01*
X962410Y90674D01*
X962368Y90696D01*
X962331Y90725D01*
X962269Y90746D01*
X962210Y90777D01*
X962156Y90785D01*
X962119Y90797D01*
X962079Y90796D01*
X962025Y90804D01*
X958215Y90804D01*
X958150Y90793D01*
X958084Y90791D01*
X958041Y90773D01*
X957994Y90765D01*
X957937Y90731D01*
X957877Y90706D01*
X957842Y90675D01*
X957801Y90650D01*
X957760Y90599D01*
X957711Y90555D01*
X957689Y90513D01*
X957660Y90476D01*
X957639Y90414D01*
X957608Y90355D01*
X957600Y90301D01*
X957588Y90264D01*
X957588Y90261D01*
X957589Y90224D01*
X957581Y90170D01*
X957581Y87630D01*
X957592Y87565D01*
X957594Y87499D01*
X957612Y87456D01*
X957620Y87409D01*
X957654Y87352D01*
X957679Y87292D01*
X957710Y87257D01*
X957735Y87216D01*
X957786Y87175D01*
X957830Y87126D01*
X957872Y87104D01*
X957909Y87075D01*
X957971Y87054D01*
X958030Y87023D01*
X958084Y87015D01*
X958121Y87003D01*
X958161Y87004D01*
X958215Y86996D01*
X962025Y86996D01*
X962090Y87007D01*
G37*
G36*
X68010Y87007D02*
X68010Y87007D01*
X68076Y87009D01*
X68119Y87027D01*
X68166Y87035D01*
X68223Y87069D01*
X68283Y87094D01*
X68318Y87125D01*
X68359Y87150D01*
X68401Y87201D01*
X68449Y87245D01*
X68471Y87287D01*
X68500Y87324D01*
X68521Y87386D01*
X68552Y87445D01*
X68560Y87499D01*
X68572Y87536D01*
X68571Y87576D01*
X68579Y87630D01*
X68579Y90170D01*
X68568Y90235D01*
X68566Y90301D01*
X68548Y90344D01*
X68540Y90391D01*
X68506Y90448D01*
X68481Y90508D01*
X68450Y90543D01*
X68425Y90584D01*
X68374Y90626D01*
X68330Y90674D01*
X68288Y90696D01*
X68251Y90725D01*
X68189Y90746D01*
X68130Y90777D01*
X68076Y90785D01*
X68039Y90797D01*
X67999Y90796D01*
X67945Y90804D01*
X64135Y90804D01*
X64070Y90793D01*
X64004Y90791D01*
X63961Y90773D01*
X63914Y90765D01*
X63857Y90731D01*
X63797Y90706D01*
X63762Y90675D01*
X63721Y90650D01*
X63680Y90599D01*
X63631Y90555D01*
X63609Y90513D01*
X63580Y90476D01*
X63559Y90414D01*
X63528Y90355D01*
X63520Y90301D01*
X63508Y90264D01*
X63508Y90261D01*
X63509Y90224D01*
X63501Y90170D01*
X63501Y87630D01*
X63512Y87565D01*
X63514Y87499D01*
X63532Y87456D01*
X63540Y87409D01*
X63574Y87352D01*
X63599Y87292D01*
X63630Y87257D01*
X63655Y87216D01*
X63706Y87175D01*
X63750Y87126D01*
X63792Y87104D01*
X63829Y87075D01*
X63891Y87054D01*
X63950Y87023D01*
X64004Y87015D01*
X64041Y87003D01*
X64081Y87004D01*
X64135Y86996D01*
X67945Y86996D01*
X68010Y87007D01*
G37*
G36*
X962090Y66687D02*
X962090Y66687D01*
X962156Y66689D01*
X962199Y66707D01*
X962246Y66715D01*
X962303Y66749D01*
X962363Y66774D01*
X962398Y66805D01*
X962439Y66830D01*
X962481Y66881D01*
X962529Y66925D01*
X962551Y66967D01*
X962580Y67004D01*
X962601Y67066D01*
X962632Y67125D01*
X962640Y67179D01*
X962652Y67216D01*
X962651Y67256D01*
X962659Y67310D01*
X962659Y69850D01*
X962648Y69915D01*
X962646Y69981D01*
X962628Y70024D01*
X962620Y70071D01*
X962586Y70128D01*
X962561Y70188D01*
X962530Y70223D01*
X962505Y70264D01*
X962454Y70306D01*
X962410Y70354D01*
X962368Y70376D01*
X962331Y70405D01*
X962269Y70426D01*
X962210Y70457D01*
X962156Y70465D01*
X962119Y70477D01*
X962079Y70476D01*
X962025Y70484D01*
X958215Y70484D01*
X958150Y70473D01*
X958084Y70471D01*
X958041Y70453D01*
X957994Y70445D01*
X957937Y70411D01*
X957877Y70386D01*
X957842Y70355D01*
X957801Y70330D01*
X957760Y70279D01*
X957711Y70235D01*
X957689Y70193D01*
X957660Y70156D01*
X957639Y70094D01*
X957608Y70035D01*
X957600Y69981D01*
X957588Y69944D01*
X957588Y69941D01*
X957589Y69904D01*
X957581Y69850D01*
X957581Y67310D01*
X957592Y67245D01*
X957594Y67179D01*
X957612Y67136D01*
X957620Y67089D01*
X957654Y67032D01*
X957679Y66972D01*
X957710Y66937D01*
X957735Y66896D01*
X957786Y66855D01*
X957830Y66806D01*
X957872Y66784D01*
X957909Y66755D01*
X957971Y66734D01*
X958030Y66703D01*
X958084Y66695D01*
X958121Y66683D01*
X958161Y66684D01*
X958215Y66676D01*
X962025Y66676D01*
X962090Y66687D01*
G37*
G36*
X68010Y66687D02*
X68010Y66687D01*
X68076Y66689D01*
X68119Y66707D01*
X68166Y66715D01*
X68223Y66749D01*
X68283Y66774D01*
X68318Y66805D01*
X68359Y66830D01*
X68401Y66881D01*
X68449Y66925D01*
X68471Y66967D01*
X68500Y67004D01*
X68521Y67066D01*
X68552Y67125D01*
X68560Y67179D01*
X68572Y67216D01*
X68571Y67256D01*
X68579Y67310D01*
X68579Y69850D01*
X68568Y69915D01*
X68566Y69981D01*
X68548Y70024D01*
X68540Y70071D01*
X68506Y70128D01*
X68481Y70188D01*
X68450Y70223D01*
X68425Y70264D01*
X68374Y70306D01*
X68330Y70354D01*
X68288Y70376D01*
X68251Y70405D01*
X68189Y70426D01*
X68130Y70457D01*
X68076Y70465D01*
X68039Y70477D01*
X67999Y70476D01*
X67945Y70484D01*
X64135Y70484D01*
X64070Y70473D01*
X64004Y70471D01*
X63961Y70453D01*
X63914Y70445D01*
X63857Y70411D01*
X63797Y70386D01*
X63762Y70355D01*
X63721Y70330D01*
X63680Y70279D01*
X63631Y70235D01*
X63609Y70193D01*
X63580Y70156D01*
X63559Y70094D01*
X63528Y70035D01*
X63520Y69981D01*
X63508Y69944D01*
X63508Y69941D01*
X63509Y69904D01*
X63501Y69850D01*
X63501Y67310D01*
X63512Y67245D01*
X63514Y67179D01*
X63532Y67136D01*
X63540Y67089D01*
X63574Y67032D01*
X63599Y66972D01*
X63630Y66937D01*
X63655Y66896D01*
X63706Y66855D01*
X63750Y66806D01*
X63792Y66784D01*
X63829Y66755D01*
X63891Y66734D01*
X63950Y66703D01*
X64004Y66695D01*
X64041Y66683D01*
X64081Y66684D01*
X64135Y66676D01*
X67945Y66676D01*
X68010Y66687D01*
G37*
D10*
X49050Y206700D03*
X49050Y148900D03*
D11*
X45720Y45720D03*
X816770Y513080D03*
D12*
X838200Y533400D03*
X25400Y533400D03*
X838200Y25400D03*
X25400Y25400D03*
D13*
X101600Y139700D03*
X127000Y139700D03*
D14*
X211582Y252476D03*
X211582Y265176D03*
X211582Y277876D03*
X211582Y290576D03*
X211582Y239776D03*
X198882Y252476D03*
X198882Y265176D03*
X198882Y277876D03*
X198882Y290576D03*
X198882Y239776D03*
D15*
X555498Y239268D03*
D16*
X355600Y179400D03*
D17*
X355600Y379400D03*
D18*
X93500Y303403D03*
X93500Y434721D03*
D13*
X850900Y381000D03*
X850900Y355600D03*
X850900Y330200D03*
X850900Y304800D03*
X571500Y12700D03*
X546100Y12700D03*
X520700Y12700D03*
X495300Y12700D03*
X469900Y12700D03*
X444500Y12700D03*
X419100Y12700D03*
X393700Y12700D03*
X787400Y12700D03*
X762000Y12700D03*
X736600Y12700D03*
X711200Y12700D03*
X685800Y12700D03*
X660400Y12700D03*
X635000Y12700D03*
X609600Y12700D03*
X76350Y546100D03*
X101750Y546100D03*
X127150Y546100D03*
X152550Y546100D03*
X279400Y12700D03*
X304800Y12700D03*
X330200Y12700D03*
X355600Y12700D03*
X168910Y398780D03*
X168910Y373380D03*
X168910Y347980D03*
X168910Y322580D03*
X355600Y546100D03*
X330200Y546100D03*
X304800Y546100D03*
X279400Y546100D03*
X254000Y546100D03*
X228600Y546100D03*
X203200Y546100D03*
X177800Y546100D03*
D19*
X71247Y88900D03*
X60833Y88900D03*
X71247Y68580D03*
X60833Y68580D03*
D13*
X850900Y254000D03*
X850900Y228600D03*
X850900Y203200D03*
X850900Y177800D03*
X850900Y152400D03*
D12*
X635000Y228600D03*
X635000Y330200D03*
D13*
X393700Y546100D03*
X419100Y546100D03*
X444500Y546100D03*
X469900Y546100D03*
X495300Y546100D03*
X520700Y546100D03*
X546100Y546100D03*
X571500Y546100D03*
X609600Y546100D03*
X635000Y546100D03*
X660400Y546100D03*
X685800Y546100D03*
X711200Y546100D03*
X736600Y546100D03*
X762000Y546100D03*
X787400Y546100D03*
D20*
X584200Y355600D03*
X215900Y304800D03*
X228600Y279400D03*
D10*
X943130Y206700D03*
X943130Y148900D03*
D11*
X939800Y45720D03*
X1710850Y513080D03*
D12*
X1732280Y533400D03*
X919480Y533400D03*
X1732280Y25400D03*
X919480Y25400D03*
D13*
X995680Y139700D03*
X1021080Y139700D03*
D14*
X1105662Y252476D03*
X1105662Y265176D03*
X1105662Y277876D03*
X1105662Y290576D03*
X1105662Y239776D03*
X1092962Y252476D03*
X1092962Y265176D03*
X1092962Y277876D03*
X1092962Y290576D03*
X1092962Y239776D03*
D15*
X1449578Y239268D03*
D16*
X1249680Y179400D03*
D17*
X1249680Y379400D03*
D18*
X987580Y303403D03*
X987580Y434721D03*
D13*
X1744980Y381000D03*
X1744980Y355600D03*
X1744980Y330200D03*
X1744980Y304800D03*
X1465580Y12700D03*
X1440180Y12700D03*
X1414780Y12700D03*
X1389380Y12700D03*
X1363980Y12700D03*
X1338580Y12700D03*
X1313180Y12700D03*
X1287780Y12700D03*
X1681480Y12700D03*
X1656080Y12700D03*
X1630680Y12700D03*
X1605280Y12700D03*
X1579880Y12700D03*
X1554480Y12700D03*
X1529080Y12700D03*
X1503680Y12700D03*
X970430Y546100D03*
X995830Y546100D03*
X1021230Y546100D03*
X1046630Y546100D03*
X1173480Y12700D03*
X1198880Y12700D03*
X1224280Y12700D03*
X1249680Y12700D03*
X1062990Y398780D03*
X1062990Y373380D03*
X1062990Y347980D03*
X1062990Y322580D03*
X1249680Y546100D03*
X1224280Y546100D03*
X1198880Y546100D03*
X1173480Y546100D03*
X1148080Y546100D03*
X1122680Y546100D03*
X1097280Y546100D03*
X1071880Y546100D03*
D19*
X965327Y88900D03*
X954913Y88900D03*
X965327Y68580D03*
X954913Y68580D03*
D13*
X1744980Y254000D03*
X1744980Y228600D03*
X1744980Y203200D03*
X1744980Y177800D03*
X1744980Y152400D03*
D12*
X1529080Y228600D03*
X1529080Y330200D03*
D13*
X1287780Y546100D03*
X1313180Y546100D03*
X1338580Y546100D03*
X1363980Y546100D03*
X1389380Y546100D03*
X1414780Y546100D03*
X1440180Y546100D03*
X1465580Y546100D03*
X1503680Y546100D03*
X1529080Y546100D03*
X1554480Y546100D03*
X1579880Y546100D03*
X1605280Y546100D03*
X1630680Y546100D03*
X1656080Y546100D03*
X1681480Y546100D03*
D20*
X1478280Y355600D03*
X1109980Y304800D03*
X1122680Y279400D03*
D10*
X49050Y770580D03*
X49050Y712780D03*
D11*
X45720Y609600D03*
X816770Y1076960D03*
D12*
X838200Y1097280D03*
X25400Y1097280D03*
X838200Y589280D03*
X25400Y589280D03*
D13*
X101600Y703580D03*
X127000Y703580D03*
D14*
X211582Y816356D03*
X211582Y829056D03*
X211582Y841756D03*
X211582Y854456D03*
X211582Y803656D03*
X198882Y816356D03*
X198882Y829056D03*
X198882Y841756D03*
X198882Y854456D03*
X198882Y803656D03*
D15*
X555498Y803148D03*
D16*
X355600Y743280D03*
D17*
X355600Y943280D03*
D18*
X93500Y867283D03*
X93500Y998601D03*
D13*
X850900Y944880D03*
X850900Y919480D03*
X850900Y894080D03*
X850900Y868680D03*
X571500Y576580D03*
X546100Y576580D03*
X520700Y576580D03*
X495300Y576580D03*
X469900Y576580D03*
X444500Y576580D03*
X419100Y576580D03*
X393700Y576580D03*
X787400Y576580D03*
X762000Y576580D03*
X736600Y576580D03*
X711200Y576580D03*
X685800Y576580D03*
X660400Y576580D03*
X635000Y576580D03*
X609600Y576580D03*
X76350Y1109980D03*
X101750Y1109980D03*
X127150Y1109980D03*
X152550Y1109980D03*
X279400Y576580D03*
X304800Y576580D03*
X330200Y576580D03*
X355600Y576580D03*
X168910Y962660D03*
X168910Y937260D03*
X168910Y911860D03*
X168910Y886460D03*
X355600Y1109980D03*
X330200Y1109980D03*
X304800Y1109980D03*
X279400Y1109980D03*
X254000Y1109980D03*
X228600Y1109980D03*
X203200Y1109980D03*
X177800Y1109980D03*
D19*
X71247Y652780D03*
X60833Y652780D03*
X71247Y632460D03*
X60833Y632460D03*
D13*
X850900Y817880D03*
X850900Y792480D03*
X850900Y767080D03*
X850900Y741680D03*
X850900Y716280D03*
D12*
X635000Y792480D03*
X635000Y894080D03*
D13*
X393700Y1109980D03*
X419100Y1109980D03*
X444500Y1109980D03*
X469900Y1109980D03*
X495300Y1109980D03*
X520700Y1109980D03*
X546100Y1109980D03*
X571500Y1109980D03*
X609600Y1109980D03*
X635000Y1109980D03*
X660400Y1109980D03*
X685800Y1109980D03*
X711200Y1109980D03*
X736600Y1109980D03*
X762000Y1109980D03*
X787400Y1109980D03*
D20*
X584200Y919480D03*
X215900Y868680D03*
X228600Y843280D03*
D10*
X943130Y770580D03*
X943130Y712780D03*
D11*
X939800Y609600D03*
X1710850Y1076960D03*
D12*
X1732280Y1097280D03*
X919480Y1097280D03*
X1732280Y589280D03*
X919480Y589280D03*
D13*
X995680Y703580D03*
X1021080Y703580D03*
D14*
X1105662Y816356D03*
X1105662Y829056D03*
X1105662Y841756D03*
X1105662Y854456D03*
X1105662Y803656D03*
X1092962Y816356D03*
X1092962Y829056D03*
X1092962Y841756D03*
X1092962Y854456D03*
X1092962Y803656D03*
D15*
X1449578Y803148D03*
D16*
X1249680Y743280D03*
D17*
X1249680Y943280D03*
D18*
X987580Y867283D03*
X987580Y998601D03*
D13*
X1744980Y944880D03*
X1744980Y919480D03*
X1744980Y894080D03*
X1744980Y868680D03*
X1465580Y576580D03*
X1440180Y576580D03*
X1414780Y576580D03*
X1389380Y576580D03*
X1363980Y576580D03*
X1338580Y576580D03*
X1313180Y576580D03*
X1287780Y576580D03*
X1681480Y576580D03*
X1656080Y576580D03*
X1630680Y576580D03*
X1605280Y576580D03*
X1579880Y576580D03*
X1554480Y576580D03*
X1529080Y576580D03*
X1503680Y576580D03*
X970430Y1109980D03*
X995830Y1109980D03*
X1021230Y1109980D03*
X1046630Y1109980D03*
X1173480Y576580D03*
X1198880Y576580D03*
X1224280Y576580D03*
X1249680Y576580D03*
X1062990Y962660D03*
X1062990Y937260D03*
X1062990Y911860D03*
X1062990Y886460D03*
X1249680Y1109980D03*
X1224280Y1109980D03*
X1198880Y1109980D03*
X1173480Y1109980D03*
X1148080Y1109980D03*
X1122680Y1109980D03*
X1097280Y1109980D03*
X1071880Y1109980D03*
D19*
X965327Y652780D03*
X954913Y652780D03*
X965327Y632460D03*
X954913Y632460D03*
D13*
X1744980Y817880D03*
X1744980Y792480D03*
X1744980Y767080D03*
X1744980Y741680D03*
X1744980Y716280D03*
D12*
X1529080Y792480D03*
X1529080Y894080D03*
D13*
X1287780Y1109980D03*
X1313180Y1109980D03*
X1338580Y1109980D03*
X1363980Y1109980D03*
X1389380Y1109980D03*
X1414780Y1109980D03*
X1440180Y1109980D03*
X1465580Y1109980D03*
X1503680Y1109980D03*
X1529080Y1109980D03*
X1554480Y1109980D03*
X1579880Y1109980D03*
X1605280Y1109980D03*
X1630680Y1109980D03*
X1656080Y1109980D03*
X1681480Y1109980D03*
D20*
X1478280Y919480D03*
X1109980Y868680D03*
X1122680Y843280D03*
D14*
X93980Y1143635D03*
X1739265Y1143635D03*
D21*
X84925Y-20955D02*
X84928Y-20733D01*
X84936Y-20511D01*
X84950Y-20289D01*
X84969Y-20067D01*
X84993Y-19847D01*
X85023Y-19626D01*
X85058Y-19407D01*
X85099Y-19188D01*
X85145Y-18971D01*
X85196Y-18755D01*
X85253Y-18540D01*
X85315Y-18326D01*
X85382Y-18115D01*
X85454Y-17904D01*
X85532Y-17696D01*
X85614Y-17490D01*
X85702Y-17286D01*
X85794Y-17083D01*
X85892Y-16884D01*
X85994Y-16687D01*
X86101Y-16492D01*
X86213Y-16300D01*
X86330Y-16111D01*
X86451Y-15924D01*
X86577Y-15741D01*
X86707Y-15561D01*
X86842Y-15384D01*
X86980Y-15211D01*
X87123Y-15041D01*
X87271Y-14874D01*
X87422Y-14711D01*
X87577Y-14552D01*
X87736Y-14397D01*
X87899Y-14246D01*
X88066Y-14098D01*
X88236Y-13955D01*
X88409Y-13817D01*
X88586Y-13682D01*
X88766Y-13552D01*
X88949Y-13426D01*
X89136Y-13305D01*
X89325Y-13188D01*
X89517Y-13076D01*
X89712Y-12969D01*
X89909Y-12867D01*
X90108Y-12769D01*
X90311Y-12677D01*
X90515Y-12589D01*
X90721Y-12507D01*
X90929Y-12429D01*
X91140Y-12357D01*
X91351Y-12290D01*
X91565Y-12228D01*
X91780Y-12171D01*
X91996Y-12120D01*
X92213Y-12074D01*
X92432Y-12033D01*
X92651Y-11998D01*
X92872Y-11968D01*
X93092Y-11944D01*
X93314Y-11925D01*
X93536Y-11911D01*
X93758Y-11903D01*
X93980Y-11900D01*
X94202Y-11903D01*
X94424Y-11911D01*
X94646Y-11925D01*
X94868Y-11944D01*
X95088Y-11968D01*
X95309Y-11998D01*
X95528Y-12033D01*
X95747Y-12074D01*
X95964Y-12120D01*
X96180Y-12171D01*
X96395Y-12228D01*
X96609Y-12290D01*
X96820Y-12357D01*
X97031Y-12429D01*
X97239Y-12507D01*
X97445Y-12589D01*
X97649Y-12677D01*
X97852Y-12769D01*
X98051Y-12867D01*
X98248Y-12969D01*
X98443Y-13076D01*
X98635Y-13188D01*
X98824Y-13305D01*
X99011Y-13426D01*
X99194Y-13552D01*
X99374Y-13682D01*
X99551Y-13817D01*
X99724Y-13955D01*
X99894Y-14098D01*
X100061Y-14246D01*
X100224Y-14397D01*
X100383Y-14552D01*
X100538Y-14711D01*
X100689Y-14874D01*
X100837Y-15041D01*
X100980Y-15211D01*
X101118Y-15384D01*
X101253Y-15561D01*
X101383Y-15741D01*
X101509Y-15924D01*
X101630Y-16111D01*
X101747Y-16300D01*
X101859Y-16492D01*
X101966Y-16687D01*
X102068Y-16884D01*
X102166Y-17083D01*
X102258Y-17286D01*
X102346Y-17490D01*
X102428Y-17696D01*
X102506Y-17904D01*
X102578Y-18115D01*
X102645Y-18326D01*
X102707Y-18540D01*
X102764Y-18755D01*
X102815Y-18971D01*
X102861Y-19188D01*
X102902Y-19407D01*
X102937Y-19626D01*
X102967Y-19847D01*
X102991Y-20067D01*
X103010Y-20289D01*
X103024Y-20511D01*
X103032Y-20733D01*
X103035Y-20955D01*
X103032Y-21177D01*
X103024Y-21399D01*
X103010Y-21621D01*
X102991Y-21843D01*
X102967Y-22063D01*
X102937Y-22284D01*
X102902Y-22503D01*
X102861Y-22722D01*
X102815Y-22939D01*
X102764Y-23155D01*
X102707Y-23370D01*
X102645Y-23584D01*
X102578Y-23795D01*
X102506Y-24006D01*
X102428Y-24214D01*
X102346Y-24420D01*
X102258Y-24624D01*
X102166Y-24827D01*
X102068Y-25026D01*
X101966Y-25223D01*
X101859Y-25418D01*
X101747Y-25610D01*
X101630Y-25799D01*
X101509Y-25986D01*
X101383Y-26169D01*
X101253Y-26349D01*
X101118Y-26526D01*
X100980Y-26699D01*
X100837Y-26869D01*
X100689Y-27036D01*
X100538Y-27199D01*
X100383Y-27358D01*
X100224Y-27513D01*
X100061Y-27664D01*
X99894Y-27812D01*
X99724Y-27955D01*
X99551Y-28093D01*
X99374Y-28228D01*
X99194Y-28358D01*
X99011Y-28484D01*
X98824Y-28605D01*
X98635Y-28722D01*
X98443Y-28834D01*
X98248Y-28941D01*
X98051Y-29043D01*
X97852Y-29141D01*
X97649Y-29233D01*
X97445Y-29321D01*
X97239Y-29403D01*
X97031Y-29481D01*
X96820Y-29553D01*
X96609Y-29620D01*
X96395Y-29682D01*
X96180Y-29739D01*
X95964Y-29790D01*
X95747Y-29836D01*
X95528Y-29877D01*
X95309Y-29912D01*
X95088Y-29942D01*
X94868Y-29966D01*
X94646Y-29985D01*
X94424Y-29999D01*
X94202Y-30007D01*
X93980Y-30010D01*
X93758Y-30007D01*
X93536Y-29999D01*
X93314Y-29985D01*
X93092Y-29966D01*
X92872Y-29942D01*
X92651Y-29912D01*
X92432Y-29877D01*
X92213Y-29836D01*
X91996Y-29790D01*
X91780Y-29739D01*
X91565Y-29682D01*
X91351Y-29620D01*
X91140Y-29553D01*
X90929Y-29481D01*
X90721Y-29403D01*
X90515Y-29321D01*
X90311Y-29233D01*
X90108Y-29141D01*
X89909Y-29043D01*
X89712Y-28941D01*
X89517Y-28834D01*
X89325Y-28722D01*
X89136Y-28605D01*
X88949Y-28484D01*
X88766Y-28358D01*
X88586Y-28228D01*
X88409Y-28093D01*
X88236Y-27955D01*
X88066Y-27812D01*
X87899Y-27664D01*
X87736Y-27513D01*
X87577Y-27358D01*
X87422Y-27199D01*
X87271Y-27036D01*
X87123Y-26869D01*
X86980Y-26699D01*
X86842Y-26526D01*
X86707Y-26349D01*
X86577Y-26169D01*
X86451Y-25986D01*
X86330Y-25799D01*
X86213Y-25610D01*
X86101Y-25418D01*
X85994Y-25223D01*
X85892Y-25026D01*
X85794Y-24827D01*
X85702Y-24624D01*
X85614Y-24420D01*
X85532Y-24214D01*
X85454Y-24006D01*
X85382Y-23795D01*
X85315Y-23584D01*
X85253Y-23370D01*
X85196Y-23155D01*
X85145Y-22939D01*
X85099Y-22722D01*
X85058Y-22503D01*
X85023Y-22284D01*
X84993Y-22063D01*
X84969Y-21843D01*
X84950Y-21621D01*
X84936Y-21399D01*
X84928Y-21177D01*
X84925Y-20955D01*
D22*
X93980Y-20955D03*
M02*
