G04 EAGLE Gerber RS-274X export*
G75*
%MOMM*%
%FSLAX34Y34*%
%LPD*%
%INSoldermask Bottom*%
%IPPOS*%
%AMOC8*
5,1,8,0,0,1.08239X$1,22.5*%
G01*
%ADD10C,0.853200*%
%ADD11C,0.838200*%
%ADD12C,3.505200*%
%ADD13C,2.082800*%
%ADD14C,1.203200*%
%ADD15C,6.203200*%
%ADD16C,1.303200*%
%ADD17C,1.803200*%
%ADD18C,3.530600*%
%ADD19R,0.863600X1.473200*%
%ADD20C,1.473200*%

G36*
X68010Y1778647D02*
X68010Y1778647D01*
X68076Y1778649D01*
X68119Y1778667D01*
X68166Y1778675D01*
X68223Y1778709D01*
X68283Y1778734D01*
X68318Y1778765D01*
X68359Y1778790D01*
X68401Y1778841D01*
X68449Y1778885D01*
X68471Y1778927D01*
X68500Y1778964D01*
X68521Y1779026D01*
X68552Y1779085D01*
X68560Y1779139D01*
X68572Y1779176D01*
X68571Y1779216D01*
X68579Y1779270D01*
X68579Y1781810D01*
X68568Y1781875D01*
X68566Y1781941D01*
X68548Y1781984D01*
X68540Y1782031D01*
X68506Y1782088D01*
X68481Y1782148D01*
X68450Y1782183D01*
X68425Y1782224D01*
X68374Y1782266D01*
X68330Y1782314D01*
X68288Y1782336D01*
X68251Y1782365D01*
X68189Y1782386D01*
X68130Y1782417D01*
X68076Y1782425D01*
X68039Y1782437D01*
X67999Y1782436D01*
X67945Y1782444D01*
X64135Y1782444D01*
X64070Y1782433D01*
X64004Y1782431D01*
X63961Y1782413D01*
X63914Y1782405D01*
X63857Y1782371D01*
X63797Y1782346D01*
X63762Y1782315D01*
X63721Y1782290D01*
X63680Y1782239D01*
X63631Y1782195D01*
X63609Y1782153D01*
X63580Y1782116D01*
X63559Y1782054D01*
X63528Y1781995D01*
X63520Y1781941D01*
X63508Y1781904D01*
X63508Y1781901D01*
X63509Y1781864D01*
X63501Y1781810D01*
X63501Y1779270D01*
X63512Y1779205D01*
X63514Y1779139D01*
X63532Y1779096D01*
X63540Y1779049D01*
X63574Y1778992D01*
X63599Y1778932D01*
X63630Y1778897D01*
X63655Y1778856D01*
X63706Y1778815D01*
X63750Y1778766D01*
X63792Y1778744D01*
X63829Y1778715D01*
X63891Y1778694D01*
X63950Y1778663D01*
X64004Y1778655D01*
X64041Y1778643D01*
X64081Y1778644D01*
X64135Y1778636D01*
X67945Y1778636D01*
X68010Y1778647D01*
G37*
G36*
X68010Y1758327D02*
X68010Y1758327D01*
X68076Y1758329D01*
X68119Y1758347D01*
X68166Y1758355D01*
X68223Y1758389D01*
X68283Y1758414D01*
X68318Y1758445D01*
X68359Y1758470D01*
X68401Y1758521D01*
X68449Y1758565D01*
X68471Y1758607D01*
X68500Y1758644D01*
X68521Y1758706D01*
X68552Y1758765D01*
X68560Y1758819D01*
X68572Y1758856D01*
X68571Y1758896D01*
X68579Y1758950D01*
X68579Y1761490D01*
X68568Y1761555D01*
X68566Y1761621D01*
X68548Y1761664D01*
X68540Y1761711D01*
X68506Y1761768D01*
X68481Y1761828D01*
X68450Y1761863D01*
X68425Y1761904D01*
X68374Y1761946D01*
X68330Y1761994D01*
X68288Y1762016D01*
X68251Y1762045D01*
X68189Y1762066D01*
X68130Y1762097D01*
X68076Y1762105D01*
X68039Y1762117D01*
X67999Y1762116D01*
X67945Y1762124D01*
X64135Y1762124D01*
X64070Y1762113D01*
X64004Y1762111D01*
X63961Y1762093D01*
X63914Y1762085D01*
X63857Y1762051D01*
X63797Y1762026D01*
X63762Y1761995D01*
X63721Y1761970D01*
X63680Y1761919D01*
X63631Y1761875D01*
X63609Y1761833D01*
X63580Y1761796D01*
X63559Y1761734D01*
X63528Y1761675D01*
X63520Y1761621D01*
X63508Y1761584D01*
X63508Y1761581D01*
X63509Y1761544D01*
X63501Y1761490D01*
X63501Y1758950D01*
X63512Y1758885D01*
X63514Y1758819D01*
X63532Y1758776D01*
X63540Y1758729D01*
X63574Y1758672D01*
X63599Y1758612D01*
X63630Y1758577D01*
X63655Y1758536D01*
X63706Y1758495D01*
X63750Y1758446D01*
X63792Y1758424D01*
X63829Y1758395D01*
X63891Y1758374D01*
X63950Y1758343D01*
X64004Y1758335D01*
X64041Y1758323D01*
X64081Y1758324D01*
X64135Y1758316D01*
X67945Y1758316D01*
X68010Y1758327D01*
G37*
G36*
X68010Y1214767D02*
X68010Y1214767D01*
X68076Y1214769D01*
X68119Y1214787D01*
X68166Y1214795D01*
X68223Y1214829D01*
X68283Y1214854D01*
X68318Y1214885D01*
X68359Y1214910D01*
X68401Y1214961D01*
X68449Y1215005D01*
X68471Y1215047D01*
X68500Y1215084D01*
X68521Y1215146D01*
X68552Y1215205D01*
X68560Y1215259D01*
X68572Y1215296D01*
X68571Y1215336D01*
X68579Y1215390D01*
X68579Y1217930D01*
X68568Y1217995D01*
X68566Y1218061D01*
X68548Y1218104D01*
X68540Y1218151D01*
X68506Y1218208D01*
X68481Y1218268D01*
X68450Y1218303D01*
X68425Y1218344D01*
X68374Y1218386D01*
X68330Y1218434D01*
X68288Y1218456D01*
X68251Y1218485D01*
X68189Y1218506D01*
X68130Y1218537D01*
X68076Y1218545D01*
X68039Y1218557D01*
X67999Y1218556D01*
X67945Y1218564D01*
X64135Y1218564D01*
X64070Y1218553D01*
X64004Y1218551D01*
X63961Y1218533D01*
X63914Y1218525D01*
X63857Y1218491D01*
X63797Y1218466D01*
X63762Y1218435D01*
X63721Y1218410D01*
X63680Y1218359D01*
X63631Y1218315D01*
X63609Y1218273D01*
X63580Y1218236D01*
X63559Y1218174D01*
X63528Y1218115D01*
X63520Y1218061D01*
X63508Y1218024D01*
X63508Y1218021D01*
X63509Y1217984D01*
X63501Y1217930D01*
X63501Y1215390D01*
X63512Y1215325D01*
X63514Y1215259D01*
X63532Y1215216D01*
X63540Y1215169D01*
X63574Y1215112D01*
X63599Y1215052D01*
X63630Y1215017D01*
X63655Y1214976D01*
X63706Y1214935D01*
X63750Y1214886D01*
X63792Y1214864D01*
X63829Y1214835D01*
X63891Y1214814D01*
X63950Y1214783D01*
X64004Y1214775D01*
X64041Y1214763D01*
X64081Y1214764D01*
X64135Y1214756D01*
X67945Y1214756D01*
X68010Y1214767D01*
G37*
G36*
X68010Y1194447D02*
X68010Y1194447D01*
X68076Y1194449D01*
X68119Y1194467D01*
X68166Y1194475D01*
X68223Y1194509D01*
X68283Y1194534D01*
X68318Y1194565D01*
X68359Y1194590D01*
X68401Y1194641D01*
X68449Y1194685D01*
X68471Y1194727D01*
X68500Y1194764D01*
X68521Y1194826D01*
X68552Y1194885D01*
X68560Y1194939D01*
X68572Y1194976D01*
X68571Y1195016D01*
X68579Y1195070D01*
X68579Y1197610D01*
X68568Y1197675D01*
X68566Y1197741D01*
X68548Y1197784D01*
X68540Y1197831D01*
X68506Y1197888D01*
X68481Y1197948D01*
X68450Y1197983D01*
X68425Y1198024D01*
X68374Y1198066D01*
X68330Y1198114D01*
X68288Y1198136D01*
X68251Y1198165D01*
X68189Y1198186D01*
X68130Y1198217D01*
X68076Y1198225D01*
X68039Y1198237D01*
X67999Y1198236D01*
X67945Y1198244D01*
X64135Y1198244D01*
X64070Y1198233D01*
X64004Y1198231D01*
X63961Y1198213D01*
X63914Y1198205D01*
X63857Y1198171D01*
X63797Y1198146D01*
X63762Y1198115D01*
X63721Y1198090D01*
X63680Y1198039D01*
X63631Y1197995D01*
X63609Y1197953D01*
X63580Y1197916D01*
X63559Y1197854D01*
X63528Y1197795D01*
X63520Y1197741D01*
X63508Y1197704D01*
X63508Y1197701D01*
X63509Y1197664D01*
X63501Y1197610D01*
X63501Y1195070D01*
X63512Y1195005D01*
X63514Y1194939D01*
X63532Y1194896D01*
X63540Y1194849D01*
X63574Y1194792D01*
X63599Y1194732D01*
X63630Y1194697D01*
X63655Y1194656D01*
X63706Y1194615D01*
X63750Y1194566D01*
X63792Y1194544D01*
X63829Y1194515D01*
X63891Y1194494D01*
X63950Y1194463D01*
X64004Y1194455D01*
X64041Y1194443D01*
X64081Y1194444D01*
X64135Y1194436D01*
X67945Y1194436D01*
X68010Y1194447D01*
G37*
G36*
X68010Y650887D02*
X68010Y650887D01*
X68076Y650889D01*
X68119Y650907D01*
X68166Y650915D01*
X68223Y650949D01*
X68283Y650974D01*
X68318Y651005D01*
X68359Y651030D01*
X68401Y651081D01*
X68449Y651125D01*
X68471Y651167D01*
X68500Y651204D01*
X68521Y651266D01*
X68552Y651325D01*
X68560Y651379D01*
X68572Y651416D01*
X68571Y651456D01*
X68579Y651510D01*
X68579Y654050D01*
X68568Y654115D01*
X68566Y654181D01*
X68548Y654224D01*
X68540Y654271D01*
X68506Y654328D01*
X68481Y654388D01*
X68450Y654423D01*
X68425Y654464D01*
X68374Y654506D01*
X68330Y654554D01*
X68288Y654576D01*
X68251Y654605D01*
X68189Y654626D01*
X68130Y654657D01*
X68076Y654665D01*
X68039Y654677D01*
X67999Y654676D01*
X67945Y654684D01*
X64135Y654684D01*
X64070Y654673D01*
X64004Y654671D01*
X63961Y654653D01*
X63914Y654645D01*
X63857Y654611D01*
X63797Y654586D01*
X63762Y654555D01*
X63721Y654530D01*
X63680Y654479D01*
X63631Y654435D01*
X63609Y654393D01*
X63580Y654356D01*
X63559Y654294D01*
X63528Y654235D01*
X63520Y654181D01*
X63508Y654144D01*
X63508Y654141D01*
X63509Y654104D01*
X63501Y654050D01*
X63501Y651510D01*
X63512Y651445D01*
X63514Y651379D01*
X63532Y651336D01*
X63540Y651289D01*
X63574Y651232D01*
X63599Y651172D01*
X63630Y651137D01*
X63655Y651096D01*
X63706Y651055D01*
X63750Y651006D01*
X63792Y650984D01*
X63829Y650955D01*
X63891Y650934D01*
X63950Y650903D01*
X64004Y650895D01*
X64041Y650883D01*
X64081Y650884D01*
X64135Y650876D01*
X67945Y650876D01*
X68010Y650887D01*
G37*
G36*
X68010Y630567D02*
X68010Y630567D01*
X68076Y630569D01*
X68119Y630587D01*
X68166Y630595D01*
X68223Y630629D01*
X68283Y630654D01*
X68318Y630685D01*
X68359Y630710D01*
X68401Y630761D01*
X68449Y630805D01*
X68471Y630847D01*
X68500Y630884D01*
X68521Y630946D01*
X68552Y631005D01*
X68560Y631059D01*
X68572Y631096D01*
X68571Y631136D01*
X68579Y631190D01*
X68579Y633730D01*
X68568Y633795D01*
X68566Y633861D01*
X68548Y633904D01*
X68540Y633951D01*
X68506Y634008D01*
X68481Y634068D01*
X68450Y634103D01*
X68425Y634144D01*
X68374Y634186D01*
X68330Y634234D01*
X68288Y634256D01*
X68251Y634285D01*
X68189Y634306D01*
X68130Y634337D01*
X68076Y634345D01*
X68039Y634357D01*
X67999Y634356D01*
X67945Y634364D01*
X64135Y634364D01*
X64070Y634353D01*
X64004Y634351D01*
X63961Y634333D01*
X63914Y634325D01*
X63857Y634291D01*
X63797Y634266D01*
X63762Y634235D01*
X63721Y634210D01*
X63680Y634159D01*
X63631Y634115D01*
X63609Y634073D01*
X63580Y634036D01*
X63559Y633974D01*
X63528Y633915D01*
X63520Y633861D01*
X63508Y633824D01*
X63508Y633821D01*
X63509Y633784D01*
X63501Y633730D01*
X63501Y631190D01*
X63512Y631125D01*
X63514Y631059D01*
X63532Y631016D01*
X63540Y630969D01*
X63574Y630912D01*
X63599Y630852D01*
X63630Y630817D01*
X63655Y630776D01*
X63706Y630735D01*
X63750Y630686D01*
X63792Y630664D01*
X63829Y630635D01*
X63891Y630614D01*
X63950Y630583D01*
X64004Y630575D01*
X64041Y630563D01*
X64081Y630564D01*
X64135Y630556D01*
X67945Y630556D01*
X68010Y630567D01*
G37*
G36*
X68010Y87007D02*
X68010Y87007D01*
X68076Y87009D01*
X68119Y87027D01*
X68166Y87035D01*
X68223Y87069D01*
X68283Y87094D01*
X68318Y87125D01*
X68359Y87150D01*
X68401Y87201D01*
X68449Y87245D01*
X68471Y87287D01*
X68500Y87324D01*
X68521Y87386D01*
X68552Y87445D01*
X68560Y87499D01*
X68572Y87536D01*
X68571Y87576D01*
X68579Y87630D01*
X68579Y90170D01*
X68568Y90235D01*
X68566Y90301D01*
X68548Y90344D01*
X68540Y90391D01*
X68506Y90448D01*
X68481Y90508D01*
X68450Y90543D01*
X68425Y90584D01*
X68374Y90626D01*
X68330Y90674D01*
X68288Y90696D01*
X68251Y90725D01*
X68189Y90746D01*
X68130Y90777D01*
X68076Y90785D01*
X68039Y90797D01*
X67999Y90796D01*
X67945Y90804D01*
X64135Y90804D01*
X64070Y90793D01*
X64004Y90791D01*
X63961Y90773D01*
X63914Y90765D01*
X63857Y90731D01*
X63797Y90706D01*
X63762Y90675D01*
X63721Y90650D01*
X63680Y90599D01*
X63631Y90555D01*
X63609Y90513D01*
X63580Y90476D01*
X63559Y90414D01*
X63528Y90355D01*
X63520Y90301D01*
X63508Y90264D01*
X63508Y90261D01*
X63509Y90224D01*
X63501Y90170D01*
X63501Y87630D01*
X63512Y87565D01*
X63514Y87499D01*
X63532Y87456D01*
X63540Y87409D01*
X63574Y87352D01*
X63599Y87292D01*
X63630Y87257D01*
X63655Y87216D01*
X63706Y87175D01*
X63750Y87126D01*
X63792Y87104D01*
X63829Y87075D01*
X63891Y87054D01*
X63950Y87023D01*
X64004Y87015D01*
X64041Y87003D01*
X64081Y87004D01*
X64135Y86996D01*
X67945Y86996D01*
X68010Y87007D01*
G37*
G36*
X68010Y66687D02*
X68010Y66687D01*
X68076Y66689D01*
X68119Y66707D01*
X68166Y66715D01*
X68223Y66749D01*
X68283Y66774D01*
X68318Y66805D01*
X68359Y66830D01*
X68401Y66881D01*
X68449Y66925D01*
X68471Y66967D01*
X68500Y67004D01*
X68521Y67066D01*
X68552Y67125D01*
X68560Y67179D01*
X68572Y67216D01*
X68571Y67256D01*
X68579Y67310D01*
X68579Y69850D01*
X68568Y69915D01*
X68566Y69981D01*
X68548Y70024D01*
X68540Y70071D01*
X68506Y70128D01*
X68481Y70188D01*
X68450Y70223D01*
X68425Y70264D01*
X68374Y70306D01*
X68330Y70354D01*
X68288Y70376D01*
X68251Y70405D01*
X68189Y70426D01*
X68130Y70457D01*
X68076Y70465D01*
X68039Y70477D01*
X67999Y70476D01*
X67945Y70484D01*
X64135Y70484D01*
X64070Y70473D01*
X64004Y70471D01*
X63961Y70453D01*
X63914Y70445D01*
X63857Y70411D01*
X63797Y70386D01*
X63762Y70355D01*
X63721Y70330D01*
X63680Y70279D01*
X63631Y70235D01*
X63609Y70193D01*
X63580Y70156D01*
X63559Y70094D01*
X63528Y70035D01*
X63520Y69981D01*
X63508Y69944D01*
X63508Y69941D01*
X63509Y69904D01*
X63501Y69850D01*
X63501Y67310D01*
X63512Y67245D01*
X63514Y67179D01*
X63532Y67136D01*
X63540Y67089D01*
X63574Y67032D01*
X63599Y66972D01*
X63630Y66937D01*
X63655Y66896D01*
X63706Y66855D01*
X63750Y66806D01*
X63792Y66784D01*
X63829Y66755D01*
X63891Y66734D01*
X63950Y66703D01*
X64004Y66695D01*
X64041Y66683D01*
X64081Y66684D01*
X64135Y66676D01*
X67945Y66676D01*
X68010Y66687D01*
G37*
D10*
X49050Y206700D03*
X49050Y148900D03*
D11*
X45720Y45720D03*
X816770Y513080D03*
D12*
X838200Y533400D03*
X25400Y533400D03*
X838200Y25400D03*
X25400Y25400D03*
D13*
X93980Y139700D03*
X119380Y139700D03*
D14*
X211582Y252476D03*
X211582Y265176D03*
X211582Y277876D03*
X211582Y290576D03*
X211582Y239776D03*
X198882Y252476D03*
X198882Y265176D03*
X198882Y277876D03*
X198882Y290576D03*
X198882Y239776D03*
D15*
X555498Y239268D03*
D16*
X355600Y179400D03*
D17*
X355600Y379400D03*
D18*
X93500Y303403D03*
X93500Y434721D03*
D13*
X850900Y381000D03*
X850900Y355600D03*
X850900Y330200D03*
X850900Y304800D03*
X571500Y12700D03*
X546100Y12700D03*
X520700Y12700D03*
X495300Y12700D03*
X469900Y12700D03*
X444500Y12700D03*
X419100Y12700D03*
X393700Y12700D03*
X787400Y12700D03*
X762000Y12700D03*
X736600Y12700D03*
X711200Y12700D03*
X685800Y12700D03*
X660400Y12700D03*
X635000Y12700D03*
X609600Y12700D03*
X76350Y546100D03*
X101750Y546100D03*
X127150Y546100D03*
X152550Y546100D03*
X279400Y12700D03*
X304800Y12700D03*
X330200Y12700D03*
X355600Y12700D03*
X168910Y398780D03*
X168910Y373380D03*
X168910Y347980D03*
X168910Y322580D03*
X355600Y546100D03*
X330200Y546100D03*
X304800Y546100D03*
X279400Y546100D03*
X254000Y546100D03*
X228600Y546100D03*
X203200Y546100D03*
X177800Y546100D03*
D19*
X71247Y88900D03*
X60833Y88900D03*
X71247Y68580D03*
X60833Y68580D03*
D13*
X850900Y254000D03*
X850900Y228600D03*
X850900Y203200D03*
X850900Y177800D03*
X850900Y152400D03*
D12*
X635000Y228600D03*
X635000Y330200D03*
D13*
X393700Y546100D03*
X419100Y546100D03*
X444500Y546100D03*
X469900Y546100D03*
X495300Y546100D03*
X520700Y546100D03*
X546100Y546100D03*
X571500Y546100D03*
X609600Y546100D03*
X635000Y546100D03*
X660400Y546100D03*
X685800Y546100D03*
X711200Y546100D03*
X736600Y546100D03*
X762000Y546100D03*
X787400Y546100D03*
D20*
X584200Y355600D03*
D10*
X49050Y770580D03*
X49050Y712780D03*
D11*
X45720Y609600D03*
X816770Y1076960D03*
D12*
X838200Y1097280D03*
X25400Y1097280D03*
X838200Y589280D03*
X25400Y589280D03*
D13*
X93980Y703580D03*
X119380Y703580D03*
D14*
X211582Y816356D03*
X211582Y829056D03*
X211582Y841756D03*
X211582Y854456D03*
X211582Y803656D03*
X198882Y816356D03*
X198882Y829056D03*
X198882Y841756D03*
X198882Y854456D03*
X198882Y803656D03*
D15*
X555498Y803148D03*
D16*
X355600Y743280D03*
D17*
X355600Y943280D03*
D18*
X93500Y867283D03*
X93500Y998601D03*
D13*
X850900Y944880D03*
X850900Y919480D03*
X850900Y894080D03*
X850900Y868680D03*
X571500Y576580D03*
X546100Y576580D03*
X520700Y576580D03*
X495300Y576580D03*
X469900Y576580D03*
X444500Y576580D03*
X419100Y576580D03*
X393700Y576580D03*
X787400Y576580D03*
X762000Y576580D03*
X736600Y576580D03*
X711200Y576580D03*
X685800Y576580D03*
X660400Y576580D03*
X635000Y576580D03*
X609600Y576580D03*
X76350Y1109980D03*
X101750Y1109980D03*
X127150Y1109980D03*
X152550Y1109980D03*
X279400Y576580D03*
X304800Y576580D03*
X330200Y576580D03*
X355600Y576580D03*
X168910Y962660D03*
X168910Y937260D03*
X168910Y911860D03*
X168910Y886460D03*
X355600Y1109980D03*
X330200Y1109980D03*
X304800Y1109980D03*
X279400Y1109980D03*
X254000Y1109980D03*
X228600Y1109980D03*
X203200Y1109980D03*
X177800Y1109980D03*
D19*
X71247Y652780D03*
X60833Y652780D03*
X71247Y632460D03*
X60833Y632460D03*
D13*
X850900Y817880D03*
X850900Y792480D03*
X850900Y767080D03*
X850900Y741680D03*
X850900Y716280D03*
D12*
X635000Y792480D03*
X635000Y894080D03*
D13*
X393700Y1109980D03*
X419100Y1109980D03*
X444500Y1109980D03*
X469900Y1109980D03*
X495300Y1109980D03*
X520700Y1109980D03*
X546100Y1109980D03*
X571500Y1109980D03*
X609600Y1109980D03*
X635000Y1109980D03*
X660400Y1109980D03*
X685800Y1109980D03*
X711200Y1109980D03*
X736600Y1109980D03*
X762000Y1109980D03*
X787400Y1109980D03*
D20*
X584200Y919480D03*
D10*
X49050Y1334460D03*
X49050Y1276660D03*
D11*
X45720Y1173480D03*
X816770Y1640840D03*
D12*
X838200Y1661160D03*
X25400Y1661160D03*
X838200Y1153160D03*
X25400Y1153160D03*
D13*
X93980Y1267460D03*
X119380Y1267460D03*
D14*
X211582Y1380236D03*
X211582Y1392936D03*
X211582Y1405636D03*
X211582Y1418336D03*
X211582Y1367536D03*
X198882Y1380236D03*
X198882Y1392936D03*
X198882Y1405636D03*
X198882Y1418336D03*
X198882Y1367536D03*
D15*
X555498Y1367028D03*
D16*
X355600Y1307160D03*
D17*
X355600Y1507160D03*
D18*
X93500Y1431163D03*
X93500Y1562481D03*
D13*
X850900Y1508760D03*
X850900Y1483360D03*
X850900Y1457960D03*
X850900Y1432560D03*
X571500Y1140460D03*
X546100Y1140460D03*
X520700Y1140460D03*
X495300Y1140460D03*
X469900Y1140460D03*
X444500Y1140460D03*
X419100Y1140460D03*
X393700Y1140460D03*
X787400Y1140460D03*
X762000Y1140460D03*
X736600Y1140460D03*
X711200Y1140460D03*
X685800Y1140460D03*
X660400Y1140460D03*
X635000Y1140460D03*
X609600Y1140460D03*
X76350Y1673860D03*
X101750Y1673860D03*
X127150Y1673860D03*
X152550Y1673860D03*
X279400Y1140460D03*
X304800Y1140460D03*
X330200Y1140460D03*
X355600Y1140460D03*
X168910Y1526540D03*
X168910Y1501140D03*
X168910Y1475740D03*
X168910Y1450340D03*
X355600Y1673860D03*
X330200Y1673860D03*
X304800Y1673860D03*
X279400Y1673860D03*
X254000Y1673860D03*
X228600Y1673860D03*
X203200Y1673860D03*
X177800Y1673860D03*
D19*
X71247Y1216660D03*
X60833Y1216660D03*
X71247Y1196340D03*
X60833Y1196340D03*
D13*
X850900Y1381760D03*
X850900Y1356360D03*
X850900Y1330960D03*
X850900Y1305560D03*
X850900Y1280160D03*
D12*
X635000Y1356360D03*
X635000Y1457960D03*
D13*
X393700Y1673860D03*
X419100Y1673860D03*
X444500Y1673860D03*
X469900Y1673860D03*
X495300Y1673860D03*
X520700Y1673860D03*
X546100Y1673860D03*
X571500Y1673860D03*
X609600Y1673860D03*
X635000Y1673860D03*
X660400Y1673860D03*
X685800Y1673860D03*
X711200Y1673860D03*
X736600Y1673860D03*
X762000Y1673860D03*
X787400Y1673860D03*
D20*
X584200Y1483360D03*
D10*
X49050Y1898340D03*
X49050Y1840540D03*
D11*
X45720Y1737360D03*
X816770Y2204720D03*
D12*
X838200Y2225040D03*
X25400Y2225040D03*
X838200Y1717040D03*
X25400Y1717040D03*
D13*
X93980Y1831340D03*
X119380Y1831340D03*
D14*
X211582Y1944116D03*
X211582Y1956816D03*
X211582Y1969516D03*
X211582Y1982216D03*
X211582Y1931416D03*
X198882Y1944116D03*
X198882Y1956816D03*
X198882Y1969516D03*
X198882Y1982216D03*
X198882Y1931416D03*
D15*
X555498Y1930908D03*
D16*
X355600Y1871040D03*
D17*
X355600Y2071040D03*
D18*
X93500Y1995043D03*
X93500Y2126361D03*
D13*
X850900Y2072640D03*
X850900Y2047240D03*
X850900Y2021840D03*
X850900Y1996440D03*
X571500Y1704340D03*
X546100Y1704340D03*
X520700Y1704340D03*
X495300Y1704340D03*
X469900Y1704340D03*
X444500Y1704340D03*
X419100Y1704340D03*
X393700Y1704340D03*
X787400Y1704340D03*
X762000Y1704340D03*
X736600Y1704340D03*
X711200Y1704340D03*
X685800Y1704340D03*
X660400Y1704340D03*
X635000Y1704340D03*
X609600Y1704340D03*
X76350Y2237740D03*
X101750Y2237740D03*
X127150Y2237740D03*
X152550Y2237740D03*
X279400Y1704340D03*
X304800Y1704340D03*
X330200Y1704340D03*
X355600Y1704340D03*
X168910Y2090420D03*
X168910Y2065020D03*
X168910Y2039620D03*
X168910Y2014220D03*
X355600Y2237740D03*
X330200Y2237740D03*
X304800Y2237740D03*
X279400Y2237740D03*
X254000Y2237740D03*
X228600Y2237740D03*
X203200Y2237740D03*
X177800Y2237740D03*
D19*
X71247Y1780540D03*
X60833Y1780540D03*
X71247Y1760220D03*
X60833Y1760220D03*
D13*
X850900Y1945640D03*
X850900Y1920240D03*
X850900Y1894840D03*
X850900Y1869440D03*
X850900Y1844040D03*
D12*
X635000Y1920240D03*
X635000Y2021840D03*
D13*
X393700Y2237740D03*
X419100Y2237740D03*
X444500Y2237740D03*
X469900Y2237740D03*
X495300Y2237740D03*
X520700Y2237740D03*
X546100Y2237740D03*
X571500Y2237740D03*
X609600Y2237740D03*
X635000Y2237740D03*
X660400Y2237740D03*
X685800Y2237740D03*
X711200Y2237740D03*
X736600Y2237740D03*
X762000Y2237740D03*
X787400Y2237740D03*
D20*
X584200Y2047240D03*
D14*
X93980Y2271395D03*
X845185Y2271395D03*
M02*
